<svg xmlns="http://www.w3.org/2000/svg" xmlns:xlink="http://www.w3.org/1999/xlink" width="147" height="147" viewBox="0 0 147 147"><defs><style>.a{fill:#fff;}.b{fill:#005ab2;}.c{clip-path:url(#c);}.d{fill:#f68947;}.e{fill:#fcc04e;}.f{fill:#e19451;}.g{fill:#010101;}.h{fill:#ffddad;}.i,.l{fill:none;stroke-miterlimit:10;}.i{stroke:#030303;}.j{fill:#ef6224;}.k{fill:#f78f20;}.l{stroke:#010101;}.m{fill:#575757;}.n{filter:url(#a);}</style><filter id="a" x="0" y="0" width="147" height="147" filterUnits="userSpaceOnUse"><feOffset dx="5" dy="5" input="SourceAlpha"/><feGaussianBlur stdDeviation="5" result="b"/><feFlood flood-opacity="0.2"/><feComposite operator="in" in2="b"/><feComposite in="SourceGraphic"/></filter><clipPath id="c"><path class="a" d="M58.52,0A58.52,58.52,0,1,1,0,58.52,58.52,58.52,0,0,1,58.52,0Z"/></clipPath></defs><g transform="translate(9.787 2.253)"><g class="n" transform="matrix(1, 0, 0, 1, -9.79, -2.25)"><circle class="b" cx="58.5" cy="58.5" r="58.5" transform="translate(10 10)"/></g><path class="a" d="M58.52,0A58.52,58.52,0,1,1,0,58.52,58.52,58.52,0,0,1,58.52,0Z"/><g class="c"><g transform="translate(16.866 13.027)"><path class="d" d="M18.52,106.7h0a5.216,5.216,0,0,1-.693-7.068l9.512-12.285a7.935,7.935,0,0,1,11.109-1.58q.239.179.464.377a1.422,1.422,0,0,1,.182,1.933L25.214,105.967a4.56,4.56,0,0,1-6.379.949c-.109-.08-.214-.166-.316-.256" transform="translate(-1.431 -7.362)"/><path class="e" d="M20.136,105.406a1.058,1.058,0,0,1-1.329.689l-.039-.014a1.159,1.159,0,0,1-.4-1.532,1.048,1.048,0,0,1,1.312-.69l.047.016a1.167,1.167,0,0,1,.41,1.532" transform="translate(-1.56 -9.091)"/><path class="e" d="M25.778,104.049a2.116,2.116,0,0,1-2.714,1.259l-.095-.037a2.344,2.344,0,0,1-.912-3.046,2.117,2.117,0,0,1,2.71-1.27l.1.039a2.354,2.354,0,0,1,.912,3.055" transform="translate(-1.876 -8.828)"/><path class="e" d="M21.842,106.95a.829.829,0,0,1-1.032.558l-.007,0a.912.912,0,0,1-.274-1.2.829.829,0,0,1,1.032-.558l.007,0a.912.912,0,0,1,.274,1.2" transform="translate(-1.752 -9.258)"/><path class="e" d="M23.822,107.949c-.21.483-.675.739-1.04.556a.912.912,0,0,1-.274-1.195c.21-.483.675-.739,1.04-.556a.912.912,0,0,1,.274,1.195" transform="translate(-1.926 -9.344)"/><path class="d" d="M92.1,88.882h0a5.216,5.216,0,0,0-4.815-5.217l-15.5-1.058a7.934,7.934,0,0,0-8.564,7.25c-.017.2-.026.4-.027.6a1.441,1.441,0,0,0,1.322,1.423L87.13,93.424a4.56,4.56,0,0,0,4.952-4.131c.013-.142.019-.285.018-.429" transform="translate(-5.517 -7.222)"/><path class="e" d="M91.251,88.318a1.058,1.058,0,0,0,1.4-.535l.016-.039a1.176,1.176,0,0,0-.912-1.322,1.039,1.039,0,0,0-1.378.513c-.01.02-.018.041-.026.062a1.149,1.149,0,0,0,.912,1.322" transform="translate(-7.905 -7.552)"/><path class="e" d="M86.4,91.669a2.117,2.117,0,0,0,2.748-1.185c.012-.031.023-.061.034-.092a2.335,2.335,0,0,0-1.651-2.736,2.115,2.115,0,0,0-2.742,1.2c-.011.026-.021.053-.03.08a2.335,2.335,0,0,0,1.651,2.736" transform="translate(-7.41 -7.656)"/><path class="e" d="M91.261,90.577a.812.812,0,0,0,1.088-.368l.016-.034a.912.912,0,0,0-.7-1,.83.83,0,0,0-1.105.395l-.007.016a.912.912,0,0,0,.711.994" transform="translate(-7.924 -7.795)"/><path class="e" d="M90.691,92.757a.83.83,0,0,0,1.107-.389l.005-.012a.912.912,0,0,0-.711-1,.83.83,0,0,0-1.105.395l-.007.016a.912.912,0,0,0,.711.994" transform="translate(-7.874 -7.987)"/><path class="e" d="M33.119,116.5s-7.624,6.2-15.312,1.56c-1.523-.912-1.195.793-.42,1.623a12.942,12.942,0,0,0,13.4,2.344c7.506-2.681,5.153-5.773,2.335-5.527" transform="translate(-1.429 -10.206)"/><path class="d" d="M17.55,118.828c1.906-1.5-1.514-6.083-5.7-6.138,0,0,.711,10.032,5.7,6.138" transform="translate(-0.999 -9.872)"/><path class="e" d="M68.548,115.274a11.574,11.574,0,0,1-5.472,9c-5.034,2.362-8.71,1.122-10.862-.246h0a9.039,9.039,0,0,1-2.2-1.906,4.465,4.465,0,0,1-.328.985,4.217,4.217,0,0,1-.52.912h0c-.064.073-.109.146-.173.21-3.274,3.767-12.276,1.1-12.276,1.1s-5.363-3.812-6.849-18.5c-1.231-12.276,1.5-24.378,2.435-28.026.264-5.034,5.773-9.12,7.843-11.947s20.064-.392,21.268,1.222c1,1.35,4.286,10.032,5.335,12.768.21.538.319.866.319.866a4.711,4.711,0,0,1,0,1.751c.319,4.223,1.906,26.074,1.441,31.792" transform="translate(-2.557 -5.725)"/><path class="f" d="M58.923,115.944c.046,1.021-5.244,3.475-5.472,5.472s-.091,6.8-.082,7.031a9.376,9.376,0,0,1-1.961-1.632,3.372,3.372,0,0,1-.237-.274,2.226,2.226,0,0,1-.073.264,3.37,3.37,0,0,1-.255.72l-.52.912h0l-.173.292v-.082c-.073-.793-.62-6.977-3-8.135-2.544-1.231-5.746-2.736-4.824-2.736s8.938,1.651,12.221.255,4.341-3.064,4.4-2.034" transform="translate(-3.666 -10.135)"/><path class="g" d="M44.47,118.927a19.168,19.168,0,0,0,3.238.7,17.065,17.065,0,0,0,3.265.128,13.707,13.707,0,0,0,3.219-.52,18.789,18.789,0,0,0,3.1-1.167,10.7,10.7,0,0,1-2.955,1.614,11.408,11.408,0,0,1-1.632.465,15.36,15.36,0,0,1-1.7.21,13.131,13.131,0,0,1-3.384-.264,11.307,11.307,0,0,1-3.156-1.167" transform="translate(-3.869 -10.345)"/><path class="g" d="M52.2,127.179h0a3.374,3.374,0,0,1-.237-.274,2.227,2.227,0,0,1-.073.264l-.638-6.886.6-.055Z" transform="translate(-4.466 -10.535)"/><path class="h" d="M38.35,77.585s-6.63,25.262,1.313,28.792,28.08,6.129,22.353-24.3S38.3,77.585,38.3,77.585" transform="translate(-3.103 -5.875)"/><path class="i" d="M38.35,77.585s-6.63,25.262,1.313,28.792,28.08,6.129,22.353-24.3S38.35,77.585,38.35,77.585Z" transform="translate(-3.103 -5.875)"/><path class="j" d="M16.241,6.3C1.148,13.525-3.659,55.86,4.3,68.483s51.072,14.172,70.133,4.505,5.664-59.28-7.3-67.251S29.939-.273,16.2,6.3" transform="translate(0 -0.001)"/><path class="g" d="M24.672,63.872c-2.736,4.213-6.94,7.515-9.558,11.765-.292.483.474.967.912.547a65.545,65.545,0,0,0,9.567-11.856c.31-.52-.565-.912-.912-.42" transform="translate(-1.28 -5.559)"/><path class="g" d="M48.3,69.767a.475.475,0,0,0-.912.264c.912,3.283.1,6.648.575,9.968a.492.492,0,0,0,.976,0c.274-3.384.456-6.913-.657-10.187" transform="translate(-4.124 -6.065)"/><path class="g" d="M86.18,59.791c-4.4-1.332-8.764-2.316-12.768-4.487a.466.466,0,1,0-.474.8,32.338,32.338,0,0,0,13.014,4.56c.657.073.848-.7.237-.912" transform="translate(-6.354 -4.816)"/><path class="g" d="M43.989,5.114c-.064-.274-.538-.182-.529.091.182,5.144-.42,10.871,1.277,15.832.164.474,1.076.347.994-.173-.821-5.189-.492-10.643-1.742-15.75" transform="translate(-3.78 -0.391)"/><path class="g" d="M82.147,27.007a9.116,9.116,0,0,0-3.94,1.979c-1.432,1-2.736,2.161-4.086,3.247-.264.21.109.6.392.41,1.277-.857,2.517-1.76,3.812-2.6s2.836-1.322,4.131-2.143a.483.483,0,0,0-.31-.912" transform="translate(-6.471 -2.329)"/><path class="g" d="M31.877,22.167c-1.195-4.359-6.01-7.478-8-11.582-.128-.283-.629-.146-.511.146a24.415,24.415,0,0,0,3.165,5.39c1.55,2.134,2.809,4.332,4.213,6.539a.638.638,0,0,0,1.131-.492" transform="translate(-2.011 -0.873)"/><path class="g" d="M13.756,26.242c-1.14-.739-2.517-1.122-3.438-2.125-.319-.337-.985,0-.666.392A8.55,8.55,0,0,0,13.3,26.825c.383.137.848-.328.456-.584" transform="translate(-0.798 -2.065)"/><path class="g" d="M14.979,39.122a4.547,4.547,0,0,1-1.9-.638.466.466,0,1,0-.474.8,3.312,3.312,0,0,0,2.408.556.365.365,0,0,0,0-.72" transform="translate(-1.045 -3.336)"/><path class="g" d="M15.868,47.232c-3.046-.274-6.037.657-9.12.228-.693-.091-.912.839-.246.912a30.109,30.109,0,0,0,9.257-.31c.492-.082.693-.812.091-.912" transform="translate(-0.493 -4.104)"/><path class="g" d="M17.445,61.647c-3.32,1.4-5.892,3.94-9.166,5.426a.219.219,0,0,0,.082.41c1.487.2,2.845-.857,4.031-1.55,1.87-1.085,3.757-2.18,5.545-3.365a.52.52,0,0,0-.492-.912" transform="translate(-0.674 -5.377)"/><path class="k" d="M33.812,68.448a12.058,12.058,0,0,0-.912,3.073c0,.41.711.547.912.173a27.819,27.819,0,0,0,1.031-3.046c.192-.575-.784-.739-.985-.2" transform="translate(-2.851 -5.95)"/><path class="k" d="M56.663,69.693c-.255-.529-1.222-.255-.967.283a19.905,19.905,0,0,0,1.5,3.192.438.438,0,0,0,.784-.337,14.975,14.975,0,0,0-1.313-3.137" transform="translate(-4.853 -6.063)"/><path class="k" d="M70.81,75.291c-1.724-3.876-5.964-6.776-8.418-10.306-.264-.374-.912,0-.638.374a44.556,44.556,0,0,0,4.013,5.208c1.423,1.669,2.617,3.5,4.04,5.162.356.42,1.249.119,1-.438" transform="translate(-5.384 -5.66)"/><path class="k" d="M72.26,64.269c-.775-1.186-1.7-2.307-2.526-3.456-.283-.392-1.076-.082-.848.365a10.33,10.33,0,0,0,2.572,3.694c.456.356,1.1-.146.8-.6" transform="translate(-6.014 -5.291)"/><path class="k" d="M76.684,52.166a10.006,10.006,0,0,0-1.952-.839c-.556-.2-.994.52-.447.748a9.752,9.752,0,0,0,2.025.739c.374.064.73-.41.374-.648" transform="translate(-6.471 -4.469)"/><path class="k" d="M84.509,43.2c-4.013-.119-8.035.264-12.057.128-.347,0-.4.52-.064.547,3.967.319,8.208.711,12.157.137a.41.41,0,0,0,.122-.812.392.392,0,0,0-.122,0" transform="translate(-6.306 -3.755)"/><path class="k" d="M75.778,38.658a14.826,14.826,0,0,1-1.56,0c-.666-.073-.912.839-.237.912a3.922,3.922,0,0,0,1.952-.164.386.386,0,0,0-.155-.757" transform="translate(-6.431 -3.356)"/><path class="k" d="M52.016,13.385c-.556,1.924-1.55,4.359-1.213,6.384a.556.556,0,0,0,1.076.082,9.514,9.514,0,0,0,.337-2.827c.073-1.167.21-2.326.365-3.493a.292.292,0,0,0-.565-.109" transform="translate(-4.421 -1.119)"/><path class="k" d="M63.759,7.323a59.4,59.4,0,0,1-2.517,6.895c-.967,2.006-2.371,3.858-2.864,6.019-.146.666.912,1.021,1.249.4A51.607,51.607,0,0,0,64.571,7.487c.128-.474-.657-.62-.812-.164" transform="translate(-5.092 -0.575)"/><path class="k" d="M67.746,16.723c-.383.748-.83,1.477-1.149,2.253-.182.429.556.73.912.4a7.668,7.668,0,0,0,1.24-2.207.529.529,0,0,0-.912-.447" transform="translate(-5.814 -1.412)"/><path class="k" d="M78.424,19.635c-.7.72-1.5,1.35-2.161,2.088a.392.392,0,0,0,.529.565,14.59,14.59,0,0,0,2.371-2.043c.438-.447-.31-1.058-.739-.611" transform="translate(-6.66 -1.669)"/><path class="k" d="M38.538,19.415a17.61,17.61,0,0,0-1.1-1.988c-.374-.711-.766-1.414-1.167-2.116-.246-.438-.985-.082-.839.365.474,1.423.757,3.32,2.043,4.35.483.392,1.277-.055,1.067-.611" transform="translate(-3.072 -1.285)"/><path class="k" d="M21.525,22.626a7.258,7.258,0,0,0-.675-1.286,17.185,17.185,0,0,1-.821-1.7c-.219-.5-1.094-.255-.912.264A8.2,8.2,0,0,0,20.8,23.036a.438.438,0,0,0,.711-.41" transform="translate(-1.636 -1.66)"/><path class="k" d="M16,34.92c-3.174-.912-6.284-1.268-9.074-3.028-.483-.31-1.122.292-.638.62A19.145,19.145,0,0,0,15.9,35.841a.465.465,0,0,0,.1-.912" transform="translate(-0.494 -2.754)"/><path class="k" d="M16.119,55.35c-.675,0-1.341.119-2.006.182a.429.429,0,0,0-.125.848.41.41,0,0,0,.125,0,10.976,10.976,0,0,0,2.116-.3c.465-.137.31-.72-.146-.73" transform="translate(-1.155 -4.826)"/><path class="k" d="M19.721,64.366a18.258,18.258,0,0,0-2.2,1.277c-.912.529,0,1.824.912,1.249a8.648,8.648,0,0,0,2-1.56.611.611,0,0,0-.693-.967" transform="translate(-1.465 -5.615)"/><path class="l" d="M16.241,6.292C1.148,13.506-3.659,55.85,4.3,68.481s51.072,14.172,70.133,4.505,5.664-59.28-7.3-67.26S29.976-.283,16.241,6.292Z" transform="translate(0 0)"/><path class="e" d="M60.77,36.751a19.152,19.152,0,0,1,1.213,5.937,17.325,17.325,0,0,1-1.414,7.88c-2.736,6.275-9.293,10.287-17.064,10.643-8.208.374-15.385-3.429-18.5-10.032A17.365,17.365,0,0,1,23.4,44.485v-.292a9.193,9.193,0,1,1,7.761-16.079A19.334,19.334,0,0,1,48.741,25.26,8.545,8.545,0,1,1,60.779,36.787" transform="translate(-1.373 -1.813)"/><path class="i" d="M60.77,36.751a19.152,19.152,0,0,1,1.213,5.937,17.325,17.325,0,0,1-1.414,7.88c-2.736,6.275-9.293,10.287-17.064,10.643-8.208.374-15.385-3.429-18.5-10.032A17.365,17.365,0,0,1,23.4,44.485v-.292a9.193,9.193,0,1,1,7.761-16.079A19.334,19.334,0,0,1,48.741,25.26,8.545,8.545,0,1,1,60.779,36.787Z" transform="translate(-1.373 -1.813)"/><path class="h" d="M42.881,42.644c-9.968,1.213-15.5,6.047-16.571,10.342,3.046,6.384,9.959,10.1,18.076,9.722,7.588-.347,13.963-4.286,16.671-10.287-1.614-5.782-8.336-10.944-18.176-9.777" transform="translate(-2.271 -3.693)"/><path class="m" d="M40.9,43.1c1.24-1.642,6.785-2.344,7.816-.684s-.8,5.025-3.648,5.518S39.281,45.2,40.9,43.1" transform="translate(-3.514 -3.604)"/><path class="a" d="M43.925,42.77c-.912.082-2.07.41-2.417,1.341-.073.182.146.283.274.164A5.558,5.558,0,0,1,44,43.034c.155-.055.082-.283-.073-.264" transform="translate(-3.607 -3.719)"/><path class="a" d="M45.757,42.68a.646.646,0,0,0-.711,0c-.1.073,0,.2.064.228a2.02,2.02,0,0,0,.62,0,.119.119,0,0,0,.064-.155.115.115,0,0,0-.064-.064" transform="translate(-3.916 -3.702)"/><path class="g" d="M44.967,48.25a4.633,4.633,0,0,1-4.432-2.234,2.735,2.735,0,0,1,.055-3.146c.711-.912,2.453-1.477,3.849-1.669,1.742-.237,3.84-.1,4.56,1.012a3.126,3.126,0,0,1,0,2.928,5.389,5.389,0,0,1-3.83,3.092H45.04m-.429-6.384a5.63,5.63,0,0,0-3.411,1.4,2.108,2.108,0,0,0,0,2.408,3.94,3.94,0,0,0,3.867,1.9,4.743,4.743,0,0,0,3.338-2.736,2.535,2.535,0,0,0,.082-2.3c-.42-.675-2.006-.912-3.858-.7" transform="translate(-3.482 -3.572)"/><path class="g" d="M55.754,35.456a2.581,2.581,0,1,1-2.915-2.2h.005a2.581,2.581,0,0,1,2.909,2.2" transform="translate(-4.41 -2.88)"/><path class="g" d="M36.354,38.145a2.581,2.581,0,1,1-2.915-2.2h.005a2.572,2.572,0,0,1,2.907,2.185l0,.013" transform="translate(-2.703 -3.116)"/><path class="g" d="M44.7,54.455a2.981,2.981,0,0,1-3.064-1.4.329.329,0,0,1,.109-.429.347.347,0,0,1,.456.146,2.389,2.389,0,0,0,2.736.912c.31-.1.821-.347.739-.912l-.593-4.323a.328.328,0,0,1,.276-.373h.006a.337.337,0,0,1,.382.285v.006l.593,4.3a1.5,1.5,0,0,1-1.213,1.632,3.5,3.5,0,0,1-.474.109" transform="translate(-3.617 -4.186)"/><path class="g" d="M48.437,54.367a2.835,2.835,0,0,1-.556,0c-.985,0-1.66-.483-1.751-1.195a.338.338,0,0,1,.283-.383.328.328,0,0,1,.373.276v.006c.064.447.62.62,1.113.629.967,0,2.107-.492,2.271-1.368a.346.346,0,0,1,.392-.274.329.329,0,0,1,.267.38l0,.012a2.662,2.662,0,0,1-2.389,1.888" transform="translate(-4.015 -4.536)"/><path class="g" d="M52.9,44.713a.174.174,0,0,1-.155-.055.347.347,0,0,1-.064-.392,8.829,8.829,0,0,1,4.56-3.812,9.33,9.33,0,0,1,6.092-.492.31.31,0,0,1,.192.328.211.211,0,0,1-.246.228A8.973,8.973,0,0,0,57.4,41a8.468,8.468,0,0,0-4.332,3.6.164.164,0,0,1-.137.109" transform="translate(-4.589 -3.446)"/><path class="g" d="M71.7,45.853a.439.439,0,0,1-.182,0,18.931,18.931,0,0,0-9.2-1.55c-2.472.182-5.864.766-7.934,2.508a.319.319,0,0,1-.451.014l-.014-.014a.338.338,0,0,1,0-.474c2.207-1.824,5.746-2.481,8.317-2.663a19.519,19.519,0,0,1,9.53,1.605.338.338,0,0,1,.164.438.366.366,0,0,1-.264.2" transform="translate(-4.692 -3.792)"/><path class="g" d="M67.821,52.016a.338.338,0,0,1-.21-.046,15.589,15.589,0,0,0-6.8-2.617c-1.961-.283-4.715-.447-6.694.429a.274.274,0,0,1-.356-.109.228.228,0,0,1,.1-.306.2.2,0,0,1,.029-.013c2.116-.912,4.989-.766,7.022-.474a16.2,16.2,0,0,1,7.05,2.736.219.219,0,0,1,0,.337.324.324,0,0,1-.173.091" transform="translate(-4.684 -4.237)"/><path class="g" d="M35.359,46.267a.291.291,0,0,1-.21-.055c-1.687-1.231-4.441-1.587-6.457-1.669a17.142,17.142,0,0,0-7.469,1.35.282.282,0,0,1-.365-.119.247.247,0,0,1,.127-.325l.01,0a17.948,17.948,0,0,1,7.761-1.368c2.1.091,4.97.465,6.767,1.824a.228.228,0,0,1,.026.321.224.224,0,0,1-.026.026.272.272,0,0,1-.173.091" transform="translate(-1.79 -3.832)"/><path class="g" d="M22.882,50.89a.327.327,0,0,1-.237-.055c-.091-.073-.073-.192.046-.264a20.992,20.992,0,0,1,7.05-2.563,17.208,17.208,0,0,1,6.895-.128.149.149,0,0,1,.119.237.383.383,0,0,1-.356.109,16.478,16.478,0,0,0-6.576.137,20.275,20.275,0,0,0-6.8,2.472.414.414,0,0,1-.137.055" transform="translate(-1.944 -4.142)"/><path class="g" d="M25,57.485a.277.277,0,0,1-.192,0,.192.192,0,0,1-.094-.254.212.212,0,0,1,.039-.056A16.425,16.425,0,0,1,30.81,52.9a14.566,14.566,0,0,1,6.858-1.423.229.229,0,0,1,.221.235l0,.02a.292.292,0,0,1-.319.192c-2.125-.264-4.733.6-6.539,1.368a15.976,15.976,0,0,0-5.846,4.14.341.341,0,0,1-.182.091" transform="translate(-2.129 -4.481)"/><path class="a" d="M53,35.205a.912.912,0,1,1-1.041-.762l.028,0A.912.912,0,0,1,53,35.205" transform="translate(-4.461 -2.985)"/><path class="a" d="M33.585,37.886a.912.912,0,1,1-1.049-.751l.046-.006a.913.913,0,0,1,1,.757" transform="translate(-2.752 -3.222)"/></g></g></g></svg>