<svg xmlns="http://www.w3.org/2000/svg" xmlns:xlink="http://www.w3.org/1999/xlink" width="147" height="147" viewBox="0 0 147 147"><defs><style>.a{fill:#fff;}.b{fill:#005ab2;}.c{clip-path:url(#c);}.d{fill:#bf4c28;}.e{fill:#fcbb3b;}.f{fill:#b7bdbf;}.g{fill:#aab0b2;}.h{fill:#929c9e;}.i{fill:#b24528;}.j{fill:#a84126;}.k{fill:#f9d93d;}.l{fill:#7d8b8e;}.m{fill:#f3a79d;opacity:0.62;}.n{filter:url(#a);}</style><filter id="a" x="0" y="0" width="147" height="147" filterUnits="userSpaceOnUse"><feOffset dx="5" dy="5" input="SourceAlpha"/><feGaussianBlur stdDeviation="5" result="b"/><feFlood flood-opacity="0.2"/><feComposite operator="in" in2="b"/><feComposite in="SourceGraphic"/></filter><clipPath id="c"><path class="a" d="M58.52,0A58.52,58.52,0,1,1,0,58.52,58.52,58.52,0,0,1,58.52,0Z"/></clipPath></defs><g transform="translate(10.425 2.253)"><g class="n" transform="matrix(1, 0, 0, 1, -10.42, -2.25)"><circle class="b" cx="58.5" cy="58.5" r="58.5" transform="translate(10 10)"/></g><path class="a" d="M58.52,0A58.52,58.52,0,1,1,0,58.52,58.52,58.52,0,0,1,58.52,0Z" transform="translate(0.175)"/><g class="c" transform="translate(0.175)"><g transform="translate(6.616 16.567)"><path class="d" d="M711.176,380.676a3.337,3.337,0,0,1,4.107.637,9.019,9.019,0,0,1,2.011,3.99,18.642,18.642,0,0,1,1.032,7.3,7.47,7.47,0,0,1-3.815,6" transform="translate(-622.526 -316.216)"/><path class="e" d="M686.878,361.749a12.918,12.918,0,0,1,17.042,4.308,24.82,24.82,0,0,1,1.787,3.506,54.3,54.3,0,0,1,4.167,14.519c.363,2.669.34,5.3.461,7.981a23.629,23.629,0,0,1-3.793,12.6c-2.694,3.522-8.228,5.556-12.541,5.548a35.654,35.654,0,0,1-8.362-1.236" transform="translate(-616.395 -311.404)"/><path class="f" d="M640.011,364.2a16.4,16.4,0,0,0-.277-3.616A1.359,1.359,0,0,0,637.8,359.3c-5.819,1.139-8.052,6.281-10.763,11.146-2.923,5.245-5.435,10.754-9.073,15.566-2.814,3.722-6.3,6.973-7.258,11.751-1.429,7.132,5.62,7.143,10.357,4.639,2.467-1.3,6.008-2.575,7.617-4.939,1.96-2.879,2.953-6.8,4.512-9.928" transform="translate(-598.359 -311.177)"/><path class="g" d="M610.577,410.212a2.57,2.57,0,0,0,1.562-1.024,1.755,1.755,0,0,0-.74-2.14c-.008-.005-.016-.008-.023-.013a13.154,13.154,0,0,0-.657,2.208A9.684,9.684,0,0,0,610.577,410.212Z" transform="translate(-598.373 -322.655)"/><path class="g" d="M611.422,413.148a4.575,4.575,0,0,0-.821.16,3.738,3.738,0,0,0,2.282,3.085c.163-.252.318-.511.458-.777a2.094,2.094,0,0,0,.321-1.2C613.543,413.471,612.369,413.061,611.422,413.148Z" transform="translate(-598.379 -324.12)"/><path class="g" d="M619.908,416.7a3.694,3.694,0,0,0-.926-1.576,1.371,1.371,0,0,0-.651-.39,1.407,1.407,0,0,0-.951.217,4.447,4.447,0,0,0-1.841,2.217A10.464,10.464,0,0,0,619.908,416.7Z" transform="translate(-599.565 -324.5)"/><path class="g" d="M635.214,360.4c-6.114,8.712-5.978,20.218-5.319,30.84a7.408,7.408,0,0,1-.127,2.5,8.144,8.144,0,0,1-1.081,2.071c-7.211,11.346-7.591,25.579-7.749,39.022q-.065,5.548-.062,11.09a10.185,10.185,0,0,0-11.583,9.494c4.669,1.841,9.833,1.862,14.85,1.725q6.828-.186,13.641-.7c1.1-.083,1.913-18.937,2.093-20.686.405-3.93.89-7.854,1.511-11.757.559-3.516.709-6.882,1.143-10.392,3.966,8.023,7.515,16.2,11.718,24.082a9.912,9.912,0,0,0,2.166,3.037c1.677,1.414,4.049,1.59,6.243,1.575a57.514,57.514,0,0,0,13.375-1.684,54.536,54.536,0,0,0,11.849-4.237c1,2.67,2.544,6.112,4.777,8.035,2.517,2.167,6.968,1.777,9.615.138l-4.986-14.348c-1.148-3.3-1.95-6.882-3.6-9.954a3.536,3.536,0,0,0-.8-1.1c-1.15-.948-2.448-.264-3.662,0-1.7.374-3.48.519-5.206.736q-5.359.674-10.745,1.1c-2.379-7.869-3.515-16.4-5.13-24.465-1.117-5.58-2.071-11.219-3.375-16.759-.629-2.677-1.291-5.451-.752-8.148s2.243-5.61.876-8.012c-.671-1.179-2.019-2.018-2.2-3.363" transform="translate(-598.065 -311.423)"/><path class="e" d="M646.1,360.449a6.66,6.66,0,0,1-2.053-.662l-3.559,1a36.052,36.052,0,0,0-6.513,25.342c.415,3.322,1.613,6.956,4.4,8.646C634.078,383.711,638.288,369.444,646.1,360.449Z" transform="translate(-603.927 -311.312)"/><path class="d" d="M671.067,402.634c-5.991,1.26-12.234,1.2-18.454,1.242-7.106.049-14.163-.04-20.859-2.07a86.387,86.387,0,0,0-3.931,7.939c-3.519,8.073-5.219,16.7-8.059,25,.041.032.08.067.122.1,3.322,2.354,6.605,3.045,10.454,4.093a76,76,0,0,0,13.617,2.405,57.377,57.377,0,0,0,1.848-15.313,76.2,76.2,0,0,0,5.655,13.871,1.46,1.46,0,0,0,.511.635,1.44,1.44,0,0,0,.756.118c8.679-.255,17.794-3.078,24.093-9.222A203.854,203.854,0,0,1,671.067,402.634Z" transform="translate(-600.579 -321.4)"/><path class="h" d="M609.745,484.525a21.95,21.95,0,0,0,2.391.725c-.018-.388-.048-.776-.1-1.161a4.51,4.51,0,0,0-1.336-2.912,2.178,2.178,0,0,0-.517-.307,10.2,10.2,0,0,0-.818,3.034Z" transform="translate(-598.082 -340.382)"/><path class="h" d="M622.217,486.73a6.322,6.322,0,0,0-.63-1.863,2.547,2.547,0,0,0-4.781.205,5.284,5.284,0,0,0-.385,1.275A42.761,42.761,0,0,0,622.217,486.73Z" transform="translate(-599.776 -340.964)"/><path class="h" d="M728.008,462.747l-1.532-4.409a3.884,3.884,0,0,0-2.1,2.087,1.487,1.487,0,0,0-.136.7,1.388,1.388,0,0,0,.373.745,3.242,3.242,0,0,0,2.73,1.008A3.794,3.794,0,0,0,728.008,462.747Z" transform="translate(-625.661 -334.972)"/><path class="h" d="M729.621,467.092a7.287,7.287,0,0,0-1.064.923,2.741,2.741,0,0,0-.845,1.59,2,2,0,0,0,.69,1.584,8.924,8.924,0,0,0,2.3-.983Q730.163,468.649,729.621,467.092Z" transform="translate(-626.495 -337.074)"/><g transform="translate(34.208 52.215)"><path class="d" d="M650.671,370.617c-1.038-2.429-2.8-4.835-5.354-5.673-2.481-.812-4.609.527-5.28,3.11a15.713,15.713,0,0,0-.5,4.446,5.461,5.461,0,0,0,1.8,4.374c1.588,1.168,3.974.793,5.561-.349a12.882,12.882,0,0,0,3.474-4.556" transform="translate(-639.534 -364.708)"/><g transform="translate(5.822 4.129)"><path class="i" d="M651.361,371.923a11.814,11.814,0,0,0-4.164-1.759,11.773,11.773,0,0,0,4.164,1.759Z" transform="translate(-647.194 -370.142)"/></g><g transform="translate(5.713 6.492)"><path class="i" d="M652.042,373.27a16.881,16.881,0,0,0-4.988,2.119,16.9,16.9,0,0,0,4.988-2.119Z" transform="translate(-647.052 -373.251)"/></g><path class="d" d="M654.751,371.019c1.42-2.227,3.548-4.315,6.208-4.724,2.58-.4,4.461,1.271,4.7,3.929a15.726,15.726,0,0,1-.236,4.467,5.459,5.459,0,0,1-2.488,4.022c-1.756.894-4.05.135-5.43-1.251a12.877,12.877,0,0,1-2.684-5.061" transform="translate(-643.187 -365.075)"/><g transform="translate(12.698 5.036)"><path class="i" d="M656.244,372.432a11.793,11.793,0,0,0,4.395-1.057,11.8,11.8,0,0,0-4.395,1.057Z" transform="translate(-656.243 -371.334)"/></g><g transform="translate(11.892 6.597)"><path class="i" d="M655.186,373.4a16.863,16.863,0,0,0,4.576,2.9,16.914,16.914,0,0,0-4.576-2.9Z" transform="translate(-655.183 -373.389)"/></g><path class="i" d="M655.148,372.161a2.2,2.2,0,0,0-.385-1.431,1.3,1.3,0,0,0-2.126.19,3.178,3.178,0,0,0-.464,1.3,3.49,3.49,0,0,0,.093,2.113,1.4,1.4,0,0,0,1.761.784,1.788,1.788,0,0,0,.772-1.053A6.264,6.264,0,0,0,655.148,372.161Z" transform="translate(-642.54 -366.04)"/></g><path class="j" d="M657.031,408.684a100.036,100.036,0,0,0,17.662-2.067q-.3-1.99-.587-3.983c-5.991,1.26-12.234,1.2-18.454,1.242-7.106.049-14.163-.04-20.859-2.07-.839,1.487-1.624,3.009-2.371,4.553.616.1,1.212.2,1.745.306q3.755.775,7.561,1.258A100.387,100.387,0,0,0,657.031,408.684Z" transform="translate(-603.618 -321.4)"/><path class="j" d="M643.957,450.859c.3-1.142.556-2.295.783-3.454a93.321,93.321,0,0,1-24.065-5.936c-.293.935-.593,1.868-.91,2.8.041.032.08.067.122.1,3.322,2.354,6.605,3.045,10.454,4.093A76,76,0,0,0,643.957,450.859Z" transform="translate(-600.579 -330.922)"/><path class="j" d="M685.6,436.45a44.6,44.6,0,0,1-8.106,4.44c-5.54,2.474-11.348,4.669-17.337,5.351.325.661.657,1.319,1,1.97a1.461,1.461,0,0,0,.511.634,1.44,1.44,0,0,0,.756.118c8.679-.255,17.794-3.078,24.093-9.222C686.2,438.649,685.894,437.551,685.6,436.45Z" transform="translate(-610.277 -329.717)"/><path class="e" d="M676.784,354.927a17.723,17.723,0,0,0-3.237,6c-3.528,10.006-3.151,21.67,2.461,30.673a15.491,15.491,0,0,0,6.058,5.975,20.31,20.31,0,0,1,4.272-6.169c-6.152-2.268-10.339-8.475-11.273-14.965s1.018-13.143,4.291-18.825a1,1,0,0,0,.194-.792.87.87,0,0,0-.439-.428,4.112,4.112,0,0,0-2.939-.392" transform="translate(-612.944 -310.145)"/><path class="k" d="M707.1,376.006q-.067-.177-.135-.353a51.8,51.8,0,0,1-20.179,3.913l-.01.378A52.151,52.151,0,0,0,707.1,376.006Z" transform="translate(-616.668 -315.121)"/><path class="k" d="M710.891,405.893a60.844,60.844,0,0,1-22.213,2.671c-.244-.016-.242.362,0,.378a61.107,61.107,0,0,0,22.153-2.64C710.854,406.167,710.872,406.029,710.891,405.893Z" transform="translate(-617.08 -322.381)"/><path class="g" d="M640.025,317.858a60.347,60.347,0,0,1,6.338-13.183c2.1-3.285,4.694-6.495,8.3-7.988a7.783,7.783,0,0,1,4.085-.625,9.5,9.5,0,0,1,5.155,3.091,24.387,24.387,0,0,1,6.822,17.191" transform="translate(-605.443 -295.997)"/><path class="f" d="M664.636,318.672c-8.72-8.505-29.371-9.719-37.262.736-3.255,4.312-2.354,10.478-4.9,15.109a8.939,8.939,0,0,1-4.377,4.242c-3.6,1.373-6.827-.043-9.126-2.938-2.247-2.828-4.829-7.465-3.208-10.914a6.351,6.351,0,0,0,.761-3.564,2.8,2.8,0,0,0-2.365-2.466,2.865,2.865,0,0,0-2.35,1.264,8.456,8.456,0,0,0-1.125,2.529,5.825,5.825,0,0,0-3.044-1.242,3.038,3.038,0,0,0-2.831,1.41,2.913,2.913,0,0,0,.617,3.333,4.558,4.558,0,0,0,3.328,1.188c.061,0,2.834,9.9,3.132,10.866,3.187,10.307,15.789,15.561,25.58,11.326a1.3,1.3,0,0,1,1.848.349c4.591,4.5,11.617,4.55,17.625,4.588a26.455,26.455,0,0,0,12.7-3.283c7.272-3.952,8.12-10.507,7.845-18.191" transform="translate(-594.518 -299.822)"/><path class="l" d="M649.758,350.571a2.637,2.637,0,0,0-2.006-2.119c-.39-.073-.634,0-.641.081-.015.162.62.34,1.229.874a13.782,13.782,0,0,1-1.148,1.927,15.183,15.183,0,0,1-4.965,4.3,34.633,34.633,0,0,1-6.182,2.524,13.235,13.235,0,0,0-2.638.955,10.981,10.981,0,0,0,2.766-.51,26.464,26.464,0,0,0,6.373-2.4,13.785,13.785,0,0,0,5.031-4.613,8.52,8.52,0,0,0,.933-2.017c.029.029.058.054.087.086.7.711.857,1.555,1.043,1.547C649.726,351.2,649.809,350.964,649.758,350.571Z" transform="translate(-603.854 -308.583)"/><g transform="translate(31.157 31.155)"><path class="l" d="M641.526,337.841c-.1-.011-.192.764-.62,1.909a6.222,6.222,0,0,1-1.017,1.819,2.665,2.665,0,0,1-2.068,1.011,1.853,1.853,0,0,1-1.539-1.508,6.523,6.523,0,0,1-.252-2.075c.029-1.222.244-1.97.146-2a3.689,3.689,0,0,0-.609,1.968,6.109,6.109,0,0,0,.135,2.279,3.28,3.28,0,0,0,.639,1.272,2.085,2.085,0,0,0,1.431.719,3.161,3.161,0,0,0,2.584-1.281,5.859,5.859,0,0,0,.992-2.06A3.768,3.768,0,0,0,641.526,337.841Z" transform="translate(-635.518 -336.995)"/></g><g transform="translate(50.158 31.409)"><path class="l" d="M667.991,337.329c-.109,0-.1.929-.552,2.306a8.7,8.7,0,0,1-1.141,2.24,8.15,8.15,0,0,1-.96,1.12,2.364,2.364,0,0,1-1.236.71,2.541,2.541,0,0,1-2.239-1.441,6.733,6.733,0,0,1-.858-2.332c-.235-1.423,0-2.338-.112-2.356a3.884,3.884,0,0,0-.347,2.417,6.526,6.526,0,0,0,.8,2.578,4.153,4.153,0,0,0,1.072,1.258,2.386,2.386,0,0,0,1.783.526,2.924,2.924,0,0,0,1.589-.9,8.059,8.059,0,0,0,2.1-3.692A4.373,4.373,0,0,0,667.991,337.329Z" transform="translate(-660.523 -337.329)"/></g><path class="g" d="M609.394,337.848c-.065-.14-.133-.278-.195-.419-.06.059-.117.116-.179.176a17.472,17.472,0,0,0-2.012,1.964,6.363,6.363,0,0,0,2.316-1.65C609.349,337.895,609.371,337.872,609.394,337.848Z" transform="translate(-597.516 -305.944)"/><path class="g" d="M627.969,345.711A13.139,13.139,0,0,1,629,348.195a9.088,9.088,0,0,0,.384,1.384,3.306,3.306,0,0,0-.084-1.458,10.207,10.207,0,0,0-1-2.7C628.193,345.521,628.083,345.618,627.969,345.711Z" transform="translate(-602.549 -307.863)"/><path class="g" d="M620.6,351.977a10.542,10.542,0,0,0,.266-4.12c-.147-.015-.295-.03-.44-.054C620.668,350.134,620.48,351.964,620.6,351.977Z" transform="translate(-600.738 -308.435)"/><path class="g" d="M613.07,344.03c.056-.194.106-.381.156-.567-.048-.059-.1-.112-.145-.172-.061-.077-.123-.161-.185-.242-.078.277-.158.562-.245.859a25.982,25.982,0,0,0-.986,3.537A11.232,11.232,0,0,0,613.07,344.03Z" transform="translate(-598.63 -307.293)"/><path class="m" d="M665.587,352.469c0,1.446-1.629,2.619-3.638,2.619s-3.638-1.173-3.638-2.619,1.628-2.618,3.638-2.618S665.587,351.024,665.587,352.469Z" transform="translate(-609.833 -308.926)"/><path class="f" d="M676.507,317.912a49.166,49.166,0,0,1,9.529-13.533c3.509-3.526,8.292-6.689,13.141-5.577,2.781.638,5.071,2.6,6.95,4.746a36.461,36.461,0,0,1,8.06,16.951c1.723,8.676,1.643,16.74-5.252,22.973-2.49,2.25-6.375,2.452-9.681,2.241-7.831-.5-14.9-3.48-20.032-9.385" transform="translate(-614.202 -296.616)"/><path class="m" d="M695.228,341.543a13.293,13.293,0,0,1-5.726-2.784c-3.07-2.7-7.016-5.319-7.639-9.644-1.1-7.6,5.412-16.578,11.477-20.531,2.1-1.368,4.771-2.247,7.1-1.337,2.818,1.1,4.157,4.51,3.838,7.518s-1.914,5.71-3.471,8.3a12.684,12.684,0,0,1,7.659,3.9,8.971,8.971,0,0,1,2.1,8.149,9.537,9.537,0,0,1-6.28,6.146A17.162,17.162,0,0,1,695.228,341.543Z" transform="translate(-615.459 -298.608)"/><g transform="translate(24.271 81.014)"><path class="j" d="M629.828,414.821a28.262,28.262,0,0,0,5.308-9.61c.309-.995.532-1.858.687-2.554-.068-.016-.135-.035-.2-.051-.189.683-.443,1.53-.777,2.506a29.889,29.889,0,0,1-5.346,9.424,23.837,23.837,0,0,1-2.8,2.753q-.121.374-.24.748A23.189,23.189,0,0,0,629.828,414.821Z" transform="translate(-626.457 -402.606)"/><path class="j" d="M682.852,417.039a26.065,26.065,0,0,1-4.38-7.833c-.3-.8-.625-1.66-.97-2.578a4.577,4.577,0,0,0-.4-.933,4.513,4.513,0,0,0,.237.987c.181.626.458,1.528.842,2.631a24.227,24.227,0,0,0,4.342,8.015,12.931,12.931,0,0,0,5.239,3.589c-.03-.146-.059-.293-.088-.439A13.066,13.066,0,0,1,682.852,417.039Z" transform="translate(-638.615 -403.348)"/><path class="j" d="M655.421,407.913c-.1,1.837-.2,4.376-.29,7.182-.035,1.278-.068,2.517-.107,3.955-.011.537-.024,1.108-.037,1.717.028.505-.477.571-.942.617-1.174.133-2.055.245-2.534.325-.295-1.043-.584-2.157-.852-3.32a71.4,71.4,0,0,1-1.353-8.142c-.225-2.1-.3-3.413-.369-3.41a3.79,3.79,0,0,0-.042.924c0,.594.03,1.454.1,2.515a55.033,55.033,0,0,0,1.235,8.211c.267,1.165.564,2.279.871,3.321h0c.527,1.789,1.086,3.363,1.585,4.61.394.987.738,1.776,1,2.31a3.759,3.759,0,0,0,.441.813c.064-.028-.438-1.24-1.15-3.232-.438-1.225-.942-2.753-1.433-4.478.492-.01,1.374-.059,2.543-.141a2.327,2.327,0,0,0,.751-.134.8.8,0,0,0,.375-.3,1.023,1.023,0,0,0,.134-.458c.028-.616.054-1.191.078-1.733.051-1.438.1-2.676.141-3.954.088-2.806.144-5.346.162-7.186a19.924,19.924,0,0,0-.061-2.98A20.153,20.153,0,0,0,655.421,407.913Z" transform="translate(-631.844 -403.167)"/></g><path class="g" d="M693.467,371.146a82.114,82.114,0,0,1,2.054,8.366,45.682,45.682,0,0,1-1.54,21.474c-.94,3.087-1.761,5.337-3.99,7.718-1.863,1.989-4.408,4.057-7.327,3.472a3.417,3.417,0,0,1-2.22-2.224,15.212,15.212,0,0,1-.8-6.318c.118-4.137.559-8.134.451-12.27a100.062,100.062,0,0,0-1.3-13.1c-.76-4.768-1.753-9.564-1.4-14.378.239-3.287,3.762-4.653,6.749-4.109a10.12,10.12,0,0,1,6.214,4.308A24.2,24.2,0,0,1,693.467,371.146Z" transform="translate(-614.395 -311.281)"/><g transform="translate(65.354 95.809)"><path class="f" d="M691.391,424.531a1.409,1.409,0,0,0-1.149-.533c-.518.087-.806.642-.953,1.146a6.549,6.549,0,0,0-.247,1.961,11.334,11.334,0,0,0,2.829-2.021A6.146,6.146,0,0,0,691.391,424.531Z" transform="translate(-682.566 -422.534)"/><path class="f" d="M681.609,422.082a4.628,4.628,0,0,0-1.089.068,10.436,10.436,0,0,0,.694,2.786c.04.1.087.194.133.29.089-.116.185-.227.271-.345a5.293,5.293,0,0,0,.9-1.712.952.952,0,0,0-.012-.66A1.018,1.018,0,0,0,681.609,422.082Z" transform="translate(-680.52 -422.075)"/><path class="f" d="M685.583,426.83a1.768,1.768,0,0,0-.274-.935,1.283,1.283,0,0,0-1.335-.388,2.859,2.859,0,0,0-1.232.78c-.18.176-.35.362-.512.553a2.711,2.711,0,0,0,1.615,1.134,5.144,5.144,0,0,0,1.746.044A8.967,8.967,0,0,0,685.583,426.83Z" transform="translate(-680.931 -422.888)"/></g></g></g></g></svg>