<svg xmlns="http://www.w3.org/2000/svg" xmlns:xlink="http://www.w3.org/1999/xlink" width="146" height="146" viewBox="0 0 146 146"><defs><style>.a{fill:#fff;}.b{fill:#005ab2;}.c{clip-path:url(#c);}.d{fill:#d8c298;}.e{fill:#aaa3c1;}.f{fill:#e1b5bc;}.g{fill:#481e19;}.h{fill:#c47f5f;}.i{fill:#dbbd40;}.j{fill:#f5f1f5;}.k{filter:url(#a);}</style><filter id="a" x="0" y="0" width="146" height="146" filterUnits="userSpaceOnUse"><feOffset dx="5" dy="5" input="SourceAlpha"/><feGaussianBlur stdDeviation="5" result="b"/><feFlood flood-opacity="0.2"/><feComposite operator="in" in2="b"/><feComposite in="SourceGraphic"/></filter><clipPath id="c"><path class="a" d="M58.52,0A58.52,58.52,0,1,1,0,58.52,58.52,58.52,0,0,1,58.52,0Z"/></clipPath></defs><g transform="translate(9.574 2)"><g class="k" transform="matrix(1, 0, 0, 1, -9.57, -2)"><circle class="b" cx="58" cy="58" r="58" transform="translate(10 10)"/></g><path class="a" d="M58.52,0A58.52,58.52,0,1,1,0,58.52,58.52,58.52,0,0,1,58.52,0Z" transform="translate(0)"/><g class="c" transform="translate(0)"><g transform="translate(-3.613 19.144)"><ellipse class="d" cx="62.267" cy="8.971" rx="62.267" ry="8.971" transform="translate(0 156.024)"/><g transform="translate(9.392)"><g transform="translate(6.922)"><path class="e" d="M645.317,369.135l6.726,30.439c.42,1.9,1.737,3.21,3.234,3.21h4.371c2.053,0,3.769-2.072,3.96-4.782l1.658-23.58Z" transform="translate(-623.155 -235.189)"/><path class="e" d="M694.81,369.134l-6.32,30.44c-.4,1.9-1.633,3.211-3.038,3.211h-4.109c-1.93,0-3.542-2.072-3.721-4.782l-1.559-23.58Z" transform="translate(-621.453 -235.189)"/><path class="e" d="M660.507,258.6a33.841,33.841,0,0,0-5.538,2.788,41.43,41.43,0,0,0-11.134,10.133,45.485,45.485,0,0,0-4.326,6.73,18.137,18.137,0,1,1,21-19.651Z" transform="translate(-624.318 -242.217)"/><path class="e" d="M707.26,294.021c0,17.19-16.266,23.959-36.342,23.959-20.093,0-36.361-6.769-36.361-23.959a36.6,36.6,0,0,1,4.384-16.518,45.5,45.5,0,0,1,4.326-6.73A41.433,41.433,0,0,1,654.4,260.64a33.841,33.841,0,0,1,5.538-2.788,29.232,29.232,0,0,1,21.593-.135,34.271,34.271,0,0,1,5.6,2.73,41.513,41.513,0,0,1,11.345,10.25,44.508,44.508,0,0,1,4.365,6.768A36.324,36.324,0,0,1,707.26,294.021Z" transform="translate(-623.751 -241.469)"/><path class="f" d="M654.331,260.811A41.427,41.427,0,0,0,643.2,270.943a9.256,9.256,0,1,1,11.134-10.133Z" transform="translate(-623.679 -241.64)"/><g transform="translate(57.782)"><path class="e" d="M715.257,260.368a18.151,18.151,0,0,1-14.883,17.844,44.509,44.509,0,0,0-4.365-6.768,41.512,41.512,0,0,0-11.345-10.25,34.27,34.27,0,0,0-5.6-2.73,18.144,18.144,0,0,1,36.189,1.9Z" transform="translate(-679.068 -242.217)"/><path class="f" d="M702.792,261.906a9.181,9.181,0,0,1-7.076,8.961,41.512,41.512,0,0,0-11.345-10.25,9.255,9.255,0,0,1,18.422,1.289Z" transform="translate(-678.774 -241.64)"/></g><g transform="translate(15.031 34.272)"><path class="g" d="M675.613,286.768c.191,5.043-2.62,9.243-6.28,9.382s-6.78-3.837-6.971-8.88,2.62-9.243,6.279-9.382S675.422,281.725,675.613,286.768Z" transform="translate(-637.243 -274.514)"/><path class="f" d="M651.813,293.5c.087,2.263-2.81,4.21-6.469,4.348s-6.7-1.583-6.782-3.846,2.811-4.211,6.47-4.349S651.728,291.239,651.813,293.5Z" transform="translate(-638.56 -273.863)"/><path class="f" d="M701.815,295.088c.146,2.261-2.7,4.284-6.352,4.52s-6.735-1.406-6.881-3.665,2.7-4.284,6.352-4.519S701.669,292.829,701.815,295.088Z" transform="translate(-635.791 -273.766)"/><path class="g" d="M687.5,290.369c-2.236-.359-3.579-3.581-3-7.2s2.863-6.256,5.1-5.9,3.579,3.58,3,7.2S689.733,290.727,687.5,290.369Z" transform="translate(-636.024 -274.55)"/><path class="g" d="M649.838,287.817c-2.236-.359-3.579-3.581-3-7.2s2.863-6.256,5.1-5.9,3.579,3.58,3,7.2S652.074,288.176,649.838,287.817Z" transform="translate(-638.109 -274.691)"/><g transform="translate(33.759 18.182)"><path class="g" d="M681.22,293.192l-.01.028c-2.982,7.918-9.855,6.364-9.926,6.348a.962.962,0,0,1,.447-1.871c.236.055,5.313,1.13,7.679-5.154a.962.962,0,0,1,1.81.649Z" transform="translate(-670.548 -291.919)"/></g></g><path class="e" d="M701.053,356.839c0,21.239-13.344,24.757-29.8,24.757s-29.8-3.518-29.8-24.757,13.344-52.156,29.8-52.156S701.053,335.6,701.053,356.839Z" transform="translate(-623.37 -238.758)"/><path class="f" d="M692.908,362.551c0,15.415-9.685,17.968-21.632,17.968s-21.632-2.553-21.632-17.968,9.685-37.856,21.632-37.856S692.908,347.135,692.908,362.551Z" transform="translate(-622.916 -237.65)"/></g><g transform="translate(0 62.153)"><g transform="translate(8.988)"><path class="h" d="M665.638,315.99c2.732,2.076,5.787,1.977,9.119,0v43.553a5.067,5.067,0,0,1-1.557,3.713c-1.539,1.432-3.062,1.715-4.571,1.03a4.967,4.967,0,0,1-2.75-4.548Z" transform="translate(-624.097 -300.285)"/><g transform="translate(46.776)"><path class="i" d="M674.3,316.628l41.541-12.158v44.074L673.8,361.377Z" transform="translate(-670.421 -300.923)"/><path class="j" d="M670.6,317.827s-.338-12.5,24.317-11.651c0,0,9.934,1.3,16.048-4.728q.168-.165.332-.339l2.026,4.559-38.84,11.146Z" transform="translate(-670.598 -301.109)"/></g><path class="i" d="M667.817,316.628l-41.541-12.158v44.074l42.048,12.834Z" transform="translate(-626.276 -300.923)"/><path class="j" d="M671.56,317.827s.338-12.5-24.317-11.651c0,0-9.933,1.3-16.048-4.728q-.168-.165-.333-.339l-2.026,4.559,38.84,11.146Z" transform="translate(-626.134 -301.109)"/></g><path class="e" d="M711.622,318.73a13.786,13.786,0,0,0-11.647,6.326l5.048.961-3.125,5.288,3.605.48-1.2,4.567s2.623,2.624,8.913.412a8.386,8.386,0,0,0,5.042-5.08c1.624-4.5,1.825-8.427-1.161-11.077A8.121,8.121,0,0,0,711.622,318.73Z" transform="translate(-613.207 -300.133)"/><path class="e" d="M625.56,318.73a13.785,13.785,0,0,1,11.647,6.326l-5.048.961,3.125,5.288-3.605.48,1.2,4.567s-2.624,2.624-8.914.412a8.386,8.386,0,0,1-5.042-5.08c-1.624-4.5-1.824-8.427,1.161-11.077A8.121,8.121,0,0,1,625.56,318.73Z" transform="translate(-617.759 -300.133)"/></g><path class="g" d="M656.579,258.59c-7.793,3.722-12.721,10.853-17.345,17.861-.341.518.491,1,.831.485,4.541-6.884,9.341-13.859,17-17.516C657.622,259.154,657.136,258.325,656.579,258.59Z" transform="translate(-616.575 -241.313)"/><path class="g" d="M697.7,273.742a32.085,32.085,0,0,0-18.027-15.95c-.584-.209-.835.72-.255.928a31.117,31.117,0,0,1,17.452,15.508C697.151,274.781,697.981,274.294,697.7,273.742Z" transform="translate(-614.363 -241.356)"/><path class="g" d="M713.212,324.062a20.584,20.584,0,0,1-7.822,1.747.481.481,0,0,0,0,.961,21.805,21.805,0,0,0,8.307-1.879C714.262,324.643,713.773,323.814,713.212,324.062Z" transform="translate(-612.933 -237.688)"/><path class="g" d="M712.666,328.553a14.5,14.5,0,0,1-6.519,2.947c-.608.112-.35,1.039.255.927a15.483,15.483,0,0,0,6.943-3.194C713.829,328.847,713.145,328.171,712.666,328.553Z" transform="translate(-612.884 -237.443)"/><path class="g" d="M630.608,331.708a14.583,14.583,0,0,1-6.778-5.161c-.359-.5-1.194-.017-.831.485a15.7,15.7,0,0,0,7.353,5.6C630.933,332.851,631.183,331.922,630.608,331.708Z" transform="translate(-617.474 -237.559)"/><path class="g" d="M631.823,325.6a35.5,35.5,0,0,1-7.59-2.511c-.557-.259-1.047.571-.485.83a36.541,36.541,0,0,0,7.819,2.608C632.17,326.651,632.429,325.724,631.823,325.6Z" transform="translate(-617.442 -237.742)"/><path class="g" d="M692.984,370.222c-10.457,7.819-33.982,11.928-43.918,1.136-.42-.456-1.1.225-.68.68,10.377,11.273,34.07,7.249,45.083-.985C693.959,370.686,693.48,369.851,692.984,370.222Z" transform="translate(-616.071 -235.134)"/><path class="g" d="M638.385,275.311c-12.691-3.089-15.227-24.677-1.3-28.044.6-.146.347-1.072-.255-.927-14.738,3.564-12.46,26.548,1.3,29.9C638.73,276.384,638.986,275.458,638.385,275.311Z" transform="translate(-617.262 -241.99)"/><path class="g" d="M693.838,244.02A15.039,15.039,0,0,0,681.613,256.9c-.085.606.841.867.928.255a14.108,14.108,0,0,1,9.795-11.805c6.08-1.848,15.5.646,17.567,7.327.182.59,1.11.339.928-.255C708.812,245.889,700.078,242.938,693.838,244.02Z" transform="translate(-614.224 -242.129)"/></g></g></g></g></svg>