<svg xmlns="http://www.w3.org/2000/svg" xmlns:xlink="http://www.w3.org/1999/xlink" width="147.06" height="147.06" viewBox="0 0 147.06 147.06"><defs><style>.a{fill:#fff;}.b{fill:#005ab2;}.c{clip-path:url(#c);}.d{fill:#d8dedf;}.e,.l{fill:#fcb4db;}.e,.k{opacity:0.8;}.f{fill:#d8c6b6;}.g{fill:#e9e9e9;}.h,.i{opacity:0.2;}.i,.j{fill:#436066;}.m{fill:#3d4b6e;}.n{filter:url(#a);}</style><filter id="a" x="0" y="0" width="147.06" height="147.06" filterUnits="userSpaceOnUse"><feOffset dx="5" dy="5" input="SourceAlpha"/><feGaussianBlur stdDeviation="5" result="b"/><feFlood flood-opacity="0.2"/><feComposite operator="in" in2="b"/><feComposite in="SourceGraphic"/></filter><clipPath id="c"><path class="a" d="M58.52,0A58.52,58.52,0,1,1,0,58.52,58.52,58.52,0,0,1,58.52,0Z"/></clipPath></defs><g transform="translate(-319 -2093.479)"><g class="n" transform="matrix(1, 0, 0, 1, 319, 2093.48)"><circle class="b" cx="58.53" cy="58.53" r="58.53" transform="translate(10 10)"/></g><path class="a" d="M58.52,0A58.52,58.52,0,1,1,0,58.52,58.52,58.52,0,0,1,58.52,0Z" transform="translate(329 2096.253)"/><g class="c" transform="translate(329 2096.253)"><g transform="translate(-56.776 -235.447)"><path class="d" d="M111.692,285.973h-18.4v-33.4a9.2,9.2,0,0,1,9.2-9.2h0a9.2,9.2,0,0,1,9.2,9.2Z" transform="translate(-5.763)"/><path class="e" d="M99.291,288.889V254.743a5.371,5.371,0,1,1,10.742,0v34.146Z" transform="translate(-7.934 -2.171)"/><path class="d" d="M168.692,285.973h-18.4v-33.4a9.2,9.2,0,0,1,9.2-9.2h0a9.2,9.2,0,0,1,9.2,9.2Z" transform="translate(-26.385)"/><path class="e" d="M156.291,288.889V254.743a5.371,5.371,0,1,1,10.742,0v34.146Z" transform="translate(-28.556 -2.171)"/><g transform="translate(77.36 276.604)"><path class="f" d="M150.59,436.345c0,1.818-15.883,3.293-35.475,3.293s-35.475-1.474-35.475-3.293,15.883-3.292,35.475-3.292S150.59,434.527,150.59,436.345Z" transform="translate(-78.185 -345.227)"/><path class="g" d="M149.175,411.6a32.545,32.545,0,0,1-.448,5.373,1.072,1.072,0,0,1-1.354.862c-2.64-.735-5.4-1.378-8.246-1.909a2.594,2.594,0,0,0-.268-.049.522.522,0,0,0-.087-.02,117.808,117.808,0,0,0-18.956-1.924c-.95-.024-1.9-.034-2.859-.034-1,0-1.992.01-2.976.04a117.412,117.412,0,0,0-18.824,1.919c-.064.01-.132.024-.2.039a.2.2,0,0,0-.054.01q-4.23.789-8.153,1.874a1.255,1.255,0,0,1-1.583-1,32.215,32.215,0,1,1,64.007-5.178Z" transform="translate(-80.037 -325.81)"/><path class="e" d="M144.7,421.435l-.04-.01c-1.825-15.116-10.9-26.6-21.807-26.6s-19.983,11.494-21.8,26.616c0,0,11.581,1.175,21.319-1.952h.027C132.133,422.613,144.7,421.435,144.7,421.435Z" transform="translate(-85.93 -331.395)"/><path class="d" d="M152.516,325.595a30.859,30.859,0,0,0-.527-4.091A29.187,29.187,0,0,0,145.95,308.6a29.783,29.783,0,0,0-2.4-2.615,33.085,33.085,0,0,0-6.073-4.67,34.548,34.548,0,0,0-3.38-1.807,41.555,41.555,0,0,0-8.552-2.913,46.225,46.225,0,0,0-4.579-.789c-1.042-.126-2.1-.224-3.171-.282-.93-.054-1.875-.079-2.825-.079s-1.89.025-2.815.079c-1.076.058-2.138.156-3.18.282a46.122,46.122,0,0,0-4.574.789,41.225,41.225,0,0,0-8.562,2.908,36.841,36.841,0,0,0-3.376,1.812,33.138,33.138,0,0,0-6.078,4.67,30.567,30.567,0,0,0-2.4,2.615,29.236,29.236,0,0,0-6.034,12.9,31.7,31.7,0,0,0-.526,4.1c-.054.716-.073,1.451-.073,2.192,0,.253.005.5.01.751a29.863,29.863,0,0,0,.55,5.191,25.48,25.48,0,0,0,.789,3.083,25.177,25.177,0,0,0,1.291,3.2,20.081,20.081,0,0,0,5.109,6.565A26.516,26.516,0,0,0,92,350.746c1,.428,2.031.8,3.083,1.139,6.488,2.09,13.764,2.587,19.891,2.587,6.3,0,13.569-.444,20.013-2.523,1.047-.336,2.075-.716,3.073-1.145a25.587,25.587,0,0,0,6.8-4.178,20.74,20.74,0,0,0,5.085-6.609,25.289,25.289,0,0,0,1.3-3.2,26.339,26.339,0,0,0,.789-3.083,30.756,30.756,0,0,0,.55-5.191c.005-.249.005-.5.005-.751C152.588,327.046,152.569,326.311,152.516,325.595Z" transform="translate(-77.36 -295.442)"/><g transform="translate(0.001 20.674)"><g class="h"><path class="d" d="M141.636,359.848c-1.038.443-2.1.837-3.19,1.188-6.7,2.162-14.246,2.62-20.791,2.62-6.366,0-13.925-.516-20.666-2.683-1.091-.351-2.157-.74-3.2-1.184a27.579,27.579,0,0,1-7.16-4.33,20.814,20.814,0,0,1-5.309-6.819,26.382,26.382,0,0,1-2.162-6.531,31.135,31.135,0,0,1-.57-5.4c-.005-.258-.01-.516-.01-.779,0-.765.02-1.53.078-2.275A32.506,32.506,0,0,1,79.2,329.4c.1-.531.22-1.052.351-1.568a29.792,29.792,0,0,0-1.593,5.382,31.7,31.7,0,0,0-.526,4.1c-.054.716-.073,1.451-.073,2.192,0,.253,0,.5.01.751a29.869,29.869,0,0,0,.55,5.191,25.481,25.481,0,0,0,.789,3.083,25.178,25.178,0,0,0,1.291,3.2A20.081,20.081,0,0,0,85.11,358.3,26.515,26.515,0,0,0,92,362.464c1,.428,2.031.8,3.083,1.14,6.487,2.089,13.763,2.586,19.89,2.586,6.3,0,13.569-.444,20.013-2.523,1.047-.336,2.075-.716,3.073-1.145a25.576,25.576,0,0,0,6.8-4.178c.127-.107.248-.22.37-.331A28.461,28.461,0,0,1,141.636,359.848Z" transform="translate(-77.361 -327.835)"/></g></g><path class="i" d="M94.9,428.18c-2.815.524-5.538,1.155-8.151,1.876a1.259,1.259,0,0,1-1.583-1.007,32.8,32.8,0,0,1-.41-5.175,32.181,32.181,0,0,1,1.754-10.51,5.292,5.292,0,0,1,.677-.043,5.364,5.364,0,0,1,5.255,4.188Z" transform="translate(-80.035 -338.088)"/><path class="i" d="M179.99,423.874a32.929,32.929,0,0,1-.444,5.374,1.078,1.078,0,0,1-1.355.863c-2.642-.736-5.4-1.379-8.249-1.911l2.46-10.691a5.368,5.368,0,0,1,5.255-4.188c.19,0,.385.01.575.029A32.174,32.174,0,0,1,179.99,423.874Z" transform="translate(-110.854 -338.088)"/><g transform="translate(14.826 60.449)"><path class="i" d="M109.056,395.07l3.789,9.245a1.016,1.016,0,0,1-.555,1.326l-2,.819-2.21.9-1.843.756a1.291,1.291,0,0,1-1.684-.705l-3.626-8.845a4.556,4.556,0,0,1,2.412-5.937,4.423,4.423,0,0,1,5.714,2.442Z" transform="translate(-100.59 -390.94)"/><path class="a" d="M109.848,392.908l4.174,10.185-2.938,1.2-2.21.9-3.038,1.245-4.172-10.18a4.422,4.422,0,1,1,8.184-3.354Z" transform="translate(-100.858 -390.157)"/><g transform="translate(5.148 12.3)"><path class="j" d="M110.952,413.673l-2.208.9a1.193,1.193,0,0,1,2.208-.9Z" transform="translate(-108.656 -410.698)"/><path class="j" d="M115.31,411.892l-2.21.9a1.193,1.193,0,0,1,2.21-.9Z" transform="translate(-110.232 -410.052)"/><path class="j" d="M119.511,410.17l-2.208.905a1.193,1.193,0,0,1,2.208-.905Z" transform="translate(-111.752 -409.429)"/></g></g><g transform="translate(44.524 60.449)"><path class="i" d="M152.292,395.07l-3.789,9.245a1.015,1.015,0,0,0,.555,1.326l2,.819,2.21.9,1.843.756a1.291,1.291,0,0,0,1.684-.705l3.625-8.845a4.556,4.556,0,0,0-2.412-5.937,4.423,4.423,0,0,0-5.713,2.442Z" transform="translate(-147.594 -390.94)"/><path class="a" d="M151.3,392.908l-4.175,10.185,2.938,1.2,2.21.9,3.037,1.245,4.173-10.18a4.422,4.422,0,1,0-8.184-3.354Z" transform="translate(-147.122 -390.157)"/><g transform="translate(0.257 12.3)"><path class="j" d="M156.086,413.673l2.208.9a1.193,1.193,0,0,0-2.208-.9Z" transform="translate(-150.622 -410.698)"/><path class="j" d="M151.726,411.892l2.21.9a1.193,1.193,0,0,0-2.21-.9Z" transform="translate(-149.045 -410.052)"/><path class="j" d="M147.525,410.17l2.208.905a1.193,1.193,0,0,0-2.208-.905Z" transform="translate(-147.525 -409.429)"/></g></g><g transform="translate(2.721 76.204)"><path class="a" d="M92.06,429.179l-6.631,1.526a1.256,1.256,0,0,1-1.506-.942l-2.187-9.5a4.425,4.425,0,0,1,3.319-5.3h0a4.425,4.425,0,0,1,5.3,3.319l2.291,9.959A.788.788,0,0,1,92.06,429.179Z" transform="translate(-81.623 -414.843)"/><g class="k" transform="translate(1.029 1.119)"><path class="l" d="M91.963,428.676a3.336,3.336,0,1,1-3.337-3.336A3.337,3.337,0,0,1,91.963,428.676Z" transform="translate(-83.979 -419.759)"/><path class="l" d="M88.7,418.2a1.6,1.6,0,1,1-1.6-1.6A1.6,1.6,0,0,1,88.7,418.2Z" transform="translate(-84.053 -416.596)"/><circle class="l" cx="1.136" cy="1.136" r="1.136" transform="translate(0 3.653)"/><path class="l" d="M93.2,421.834a1.136,1.136,0,1,1-1.137-1.136A1.136,1.136,0,0,1,93.2,421.834Z" transform="translate(-86.017 -418.08)"/></g></g><g transform="translate(60.186 76.204)"><path class="a" d="M172.273,429.179l6.631,1.526a1.255,1.255,0,0,0,1.5-.942l2.187-9.5a4.425,4.425,0,0,0-3.319-5.3h0a4.425,4.425,0,0,0-5.3,3.319l-2.291,9.959A.787.787,0,0,0,172.273,429.179Z" transform="translate(-171.662 -414.843)"/><g class="k" transform="translate(2.035 1.119)"><path class="l" d="M174.851,428.676a3.336,3.336,0,1,0,3.336-3.336A3.336,3.336,0,0,0,174.851,428.676Z" transform="translate(-174.851 -419.759)"/><path class="l" d="M180.078,418.2a1.6,1.6,0,1,0,1.6-1.6A1.6,1.6,0,0,0,180.078,418.2Z" transform="translate(-176.742 -416.596)"/><circle class="l" cx="1.136" cy="1.136" r="1.136" transform="translate(5.711 3.653)"/><circle class="l" cx="1.136" cy="1.136" r="1.136" transform="translate(0.805 2.618)"/></g></g></g><g transform="translate(94.955 301.84)"><g transform="translate(0 5.998)"><path class="m" d="M140.283,350.454a.409.409,0,0,0-.555.173,4.472,4.472,0,0,1-2.328,2.1,4.249,4.249,0,0,1-1.11.283,3.98,3.98,0,0,1-.547.036,4.489,4.489,0,0,1-4.476-4.292,3.586,3.586,0,0,0,3.574-3.587.789.789,0,0,0-.789-.789h-6.529a.789.789,0,0,0-.789.789,3.588,3.588,0,0,0,3.577,3.587,4.491,4.491,0,0,1-4.48,4.291,4.02,4.02,0,0,1-.547-.036,4.255,4.255,0,0,1-1.11-.283,4.461,4.461,0,0,1-2.327-2.1.412.412,0,0,0-.731.382,5.308,5.308,0,0,0,3.132,2.624,5.456,5.456,0,0,0,1.16.223c.14.011.28.016.423.016a5.324,5.324,0,0,0,4.959-3.407,5.312,5.312,0,0,0,4.954,3.407c.143,0,.283-.005.423-.016a5.449,5.449,0,0,0,1.16-.223,5.308,5.308,0,0,0,3.132-2.624A.411.411,0,0,0,140.283,350.454Z" transform="translate(-110.768 -344.38)"/><path class="e" d="M113.074,350.353c0,1.341-1.824,2.428-4.073,2.428s-4.072-1.088-4.072-2.428,1.823-2.428,4.072-2.428S113.074,349.013,113.074,350.353Z" transform="translate(-104.928 -345.663)"/><path class="e" d="M163.048,350.353c0,1.341-1.823,2.428-4.073,2.428s-4.072-1.088-4.072-2.428,1.823-2.428,4.072-2.428S163.048,349.013,163.048,350.353Z" transform="translate(-123.007 -345.663)"/></g><path class="m" d="M115.038,334.982a3.729,3.729,0,1,0,3.728,3.729A3.729,3.729,0,0,0,115.038,334.982Zm1.211,3.412a1.211,1.211,0,1,1,1.211-1.211A1.21,1.21,0,0,1,116.249,338.394Z" transform="translate(-107.236 -334.982)"/><path class="m" d="M153.327,334.982a3.729,3.729,0,1,0,3.729,3.729A3.729,3.729,0,0,0,153.327,334.982Zm1.211,3.412a1.211,1.211,0,1,1,1.211-1.211A1.21,1.21,0,0,1,154.538,338.394Z" transform="translate(-121.089 -334.982)"/></g></g></g></g></svg>