<svg xmlns="http://www.w3.org/2000/svg" xmlns:xlink="http://www.w3.org/1999/xlink" width="147" height="147" viewBox="0 0 147 147"><defs><style>.a{fill:#fff;}.b{fill:#005ab2;}.c{clip-path:url(#c);}.d{fill:#29a5ff;}.e{fill:#96df4d;}.f{fill:#b2eb61;}.g,.i{opacity:0.2;}.h{fill:#88cf45;}.i{fill:#436066;}.j{fill:#285646;}.k{fill:#b6ee66;opacity:0.8;}.l{opacity:0.3;mix-blend-mode:overlay;isolation:isolate;fill:url(#d);}.m{fill:#0073c0;}.n{fill:#1d1d1b;}.o{filter:url(#a);}</style><filter id="a" x="0" y="0" width="147" height="147" filterUnits="userSpaceOnUse"><feOffset dx="5" dy="5" input="SourceAlpha"/><feGaussianBlur stdDeviation="5" result="b"/><feFlood flood-opacity="0.2"/><feComposite operator="in" in2="b"/><feComposite in="SourceGraphic"/></filter><clipPath id="c"><path class="a" d="M58.52,0A58.52,58.52,0,1,1,0,58.52,58.52,58.52,0,0,1,58.52,0Z"/></clipPath><linearGradient id="d" x1="0.513" y1="0.862" x2="0.515" gradientUnits="objectBoundingBox"><stop offset="0" stop-color="#dffffd"/><stop offset="1" stop-color="#70807f" stop-opacity="0"/></linearGradient></defs><g transform="translate(10.425 2.379)"><g class="o" transform="matrix(1, 0, 0, 1, -10.42, -2.38)"><circle class="b" cx="58.5" cy="58.5" r="58.5" transform="translate(10 10)"/></g><path class="a" d="M58.52,0A58.52,58.52,0,1,1,0,58.52,58.52,58.52,0,0,1,58.52,0Z" transform="translate(0.175)"/><g class="c" transform="translate(0.175)"><g transform="translate(5.851 23.247)"><path class="d" d="M184.042,224.664c0,2.718-23.744,4.922-53.034,4.922s-53.033-2.2-53.033-4.922,23.743-4.922,53.033-4.922S184.042,221.946,184.042,224.664Z" transform="translate(-77.974 -116.215)"/><path class="e" d="M155.113,202.089a36.376,36.376,0,0,1-.5,6.006,1.2,1.2,0,0,1-1.513.964c-2.951-.822-6.033-1.541-9.219-2.135a2.937,2.937,0,0,0-.3-.054.614.614,0,0,0-.1-.021,131.717,131.717,0,0,0-21.193-2.151c-1.062-.027-2.124-.038-3.2-.038-1.116,0-2.227.011-3.327.044a131.2,131.2,0,0,0-21.046,2.146c-.071.011-.147.027-.223.044a.221.221,0,0,0-.06.011q-4.729.882-9.116,2.1a1.4,1.4,0,0,1-1.77-1.122,36.018,36.018,0,1,1,71.563-5.788Z" transform="translate(-66.069 -99.601)"/><path class="f" d="M148.187,211.267l-.044-.012c-2.041-16.9-12.183-29.743-24.382-29.743s-22.342,12.851-24.379,29.759c0,0,12.948,1.313,23.835-2.184h.031C134.136,212.583,148.187,211.267,148.187,211.267Z" transform="translate(-70.734 -104.023)"/><g transform="translate(11.744 6.575)"><path class="e" d="M159.721,115.844a34.5,34.5,0,0,0-.588-4.575,32.623,32.623,0,0,0-6.752-14.43,32.981,32.981,0,0,0-2.679-2.924,37,37,0,0,0-6.79-5.223,38.622,38.622,0,0,0-3.779-2.02,46.4,46.4,0,0,0-9.562-3.256,51.253,51.253,0,0,0-5.118-.882c-1.166-.142-2.348-.25-3.545-.316-1.04-.06-2.1-.087-3.159-.087s-2.112.027-3.147.087c-1.2.066-2.39.174-3.556.316a51.1,51.1,0,0,0-5.113.882,46.019,46.019,0,0,0-9.573,3.251,40.928,40.928,0,0,0-3.773,2.025,37.037,37.037,0,0,0-6.8,5.223A33.941,33.941,0,0,0,83.11,96.84a32.683,32.683,0,0,0-6.747,14.425,35.54,35.54,0,0,0-.588,4.58c-.06.8-.081,1.623-.081,2.45,0,.283,0,.561.011.838a33.4,33.4,0,0,0,.615,5.8,28.514,28.514,0,0,0,.883,3.446,28,28,0,0,0,1.443,3.584,22.459,22.459,0,0,0,5.712,7.34,29.644,29.644,0,0,0,7.705,4.655c1.122.479,2.271.9,3.447,1.274,7.253,2.336,15.388,2.891,22.238,2.891,7.046,0,15.171-.5,22.375-2.821,1.171-.376,2.32-.8,3.436-1.279a28.6,28.6,0,0,0,7.607-4.672,23.166,23.166,0,0,0,5.685-7.389,28.029,28.029,0,0,0,1.449-3.584,29.478,29.478,0,0,0,.882-3.446,34.48,34.48,0,0,0,.616-5.8c0-.278,0-.555,0-.838C159.8,117.467,159.781,116.644,159.721,115.844Z" transform="translate(-75.694 -82.132)"/><g transform="translate(0 23.114)"><g class="g"><path class="h" d="M147.556,150.316c-1.16.5-2.353.937-3.566,1.329-7.487,2.418-15.928,2.93-23.246,2.93-7.117,0-15.569-.577-23.1-3-1.22-.392-2.413-.828-3.578-1.323a30.875,30.875,0,0,1-8-4.841,23.285,23.285,0,0,1-5.935-7.624,29.592,29.592,0,0,1-2.418-7.3,34.811,34.811,0,0,1-.637-6.033c-.006-.288-.011-.577-.011-.871,0-.855.021-1.71.087-2.543a36.229,36.229,0,0,1,.61-4.759c.114-.593.245-1.176.392-1.753a33.293,33.293,0,0,0-1.78,6.017,35.411,35.411,0,0,0-.589,4.58c-.06.8-.081,1.623-.081,2.45,0,.283.006.561.011.838a33.333,33.333,0,0,0,.616,5.8,28.075,28.075,0,0,0,2.325,7.03,22.459,22.459,0,0,0,5.712,7.34,29.638,29.638,0,0,0,7.705,4.656c1.122.48,2.271.9,3.447,1.274,7.253,2.336,15.389,2.891,22.239,2.891,7.046,0,15.17-.5,22.374-2.821,1.171-.375,2.32-.8,3.437-1.279a28.584,28.584,0,0,0,7.607-4.672c.142-.12.278-.245.414-.37A31.635,31.635,0,0,1,147.556,150.316Z" transform="translate(-75.694 -114.524)"/></g></g></g><path class="i" d="M94.431,216.623c-3.148.586-6.192,1.291-9.114,2.1a1.406,1.406,0,0,1-1.77-1.126,36.66,36.66,0,0,1-.458-5.786,36,36,0,0,1,1.96-11.751,5.8,5.8,0,0,1,.757-.049,6,6,0,0,1,5.875,4.683Z" transform="translate(-66.068 -109.322)"/><path class="i" d="M179.51,211.809a36.83,36.83,0,0,1-.5,6.008,1.2,1.2,0,0,1-1.515.964c-2.954-.823-6.034-1.542-9.222-2.137l2.75-11.952a6,6,0,0,1,5.875-4.683,6.252,6.252,0,0,1,.642.033A35.946,35.946,0,0,1,179.51,211.809Z" transform="translate(-90.469 -109.322)"/><path class="h" d="M91.626,217.561l-7.415,1.706a1.4,1.4,0,0,1-1.683-1.053l-2.445-10.625a4.945,4.945,0,0,1,3.711-5.929h0a4.946,4.946,0,0,1,5.93,3.711l2.562,11.134A.88.88,0,0,1,91.626,217.561Z" transform="translate(-65.171 -109.758)"/><g transform="translate(15.936 93.025)"><g transform="translate(1.465 6.239)"><path class="j" d="M91.083,215.76a3.73,3.73,0,1,1-3.73-3.73A3.73,3.73,0,0,1,91.083,215.76Z" transform="translate(-83.623 -212.029)"/></g><g transform="translate(1.611)"><ellipse class="j" cx="1.792" cy="1.792" rx="1.792" ry="1.792"/></g><g transform="translate(0 4.084)"><ellipse class="j" cx="1.271" cy="1.271" rx="1.271" ry="1.271"/></g><g transform="translate(5.485 2.927)"><path class="j" d="M91.8,208.658a1.271,1.271,0,1,1-1.271-1.271A1.27,1.27,0,0,1,91.8,208.658Z" transform="translate(-89.256 -207.387)"/></g></g><path class="h" d="M170.679,217.561l7.415,1.706a1.4,1.4,0,0,0,1.683-1.053l2.445-10.625a4.946,4.946,0,0,0-3.711-5.929h0a4.945,4.945,0,0,0-5.929,3.711l-2.562,11.134A.88.88,0,0,0,170.679,217.561Z" transform="translate(-90.961 -109.758)"/><g transform="translate(81.31 93.025)"><g transform="translate(0 6.239)"><path class="j" d="M173.184,215.76a3.73,3.73,0,1,0,3.731-3.73A3.73,3.73,0,0,0,173.184,215.76Z" transform="translate(-173.184 -212.029)"/></g><g transform="translate(3.731)"><path class="j" d="M178.412,205.078a1.792,1.792,0,1,0,1.792-1.792A1.792,1.792,0,0,0,178.412,205.078Z" transform="translate(-178.412 -203.285)"/></g><g transform="translate(6.385 4.084)"><ellipse class="j" cx="1.271" cy="1.271" rx="1.271" ry="1.271"/></g><g transform="translate(0.9 2.927)"><path class="j" d="M174.445,208.658a1.271,1.271,0,1,0,1.271-1.271A1.271,1.271,0,0,0,174.445,208.658Z" transform="translate(-174.445 -207.387)"/></g></g><ellipse class="e" cx="10.625" cy="10.625" rx="10.625" ry="10.625" transform="translate(23.056)"/><ellipse class="e" cx="10.625" cy="10.625" rx="10.625" ry="10.625" transform="translate(63.29)"/><path class="j" d="M4.169,0A4.169,4.169,0,1,0,8.338,4.169,4.169,4.169,0,0,0,4.169,0ZM5.523,3.815A1.354,1.354,0,1,1,6.877,2.461,1.354,1.354,0,0,1,5.523,3.815Z" transform="translate(39.578 10.625) rotate(135)"/><path class="j" d="M4.169,0A4.169,4.169,0,1,0,8.338,4.169,4.169,4.169,0,0,0,4.169,0ZM5.523,3.815A1.354,1.354,0,1,1,6.877,2.461,1.354,1.354,0,0,1,5.523,3.815Z" transform="translate(79.158 12.151) rotate(150)"/><ellipse class="k" cx="4.554" cy="2.715" rx="4.554" ry="2.715" transform="translate(71.628 18.96)"/><ellipse class="k" cx="4.554" cy="2.715" rx="4.554" ry="2.715" transform="translate(26.106 18.96)"/><path class="a" d="M8.613,5.355a10.336,10.336,0,0,1-5.53-1.526A7.037,7.037,0,0,1,0,0H17.227a7.037,7.037,0,0,1-3.083,3.829A10.339,10.339,0,0,1,8.613,5.355Z" transform="translate(45.3 30.061)"/><g transform="translate(22.837 40.206)"><path class="l" d="M-11.117,0h63L36.174,45.032H4.758Z" transform="translate(11.117)"/><g transform="translate(48.935 31.831) rotate(90)"><path class="m" d="M1.629,0H17.137a1.629,1.629,0,0,1,1.629,1.629v31.23a1.629,1.629,0,0,1-1.629,1.629H1.629A1.629,1.629,0,0,1,0,32.859V1.629A1.629,1.629,0,0,1,1.629,0Z" transform="translate(0.421)"/><path class="n" d="M0,0H0V1.349H.421V0Z" transform="translate(0 6.107)"/><path class="n" d="M0,0H0V1.349H.421V0Z" transform="translate(0 8.57)"/><path class="n" d="M3.6,1.8A1.8,1.8,0,1,0,1.8,3.6,1.8,1.8,0,0,0,3.6,1.8Z" transform="translate(8.434 3.58)"/><path class="a" d="M2.284,1.142A1.142,1.142,0,1,0,1.142,2.285,1.142,1.142,0,0,0,2.284,1.142Z" transform="translate(9.094 4.24)"/></g></g><g transform="translate(18.72 71.971)"><g transform="matrix(0.643, 0.766, -0.766, 0.643, 60.489, 0)"><g transform="translate(0 0)"><path class="i" d="M4.322,3.076.085,13.412a1.136,1.136,0,0,0,.62,1.482l2.234.916,2.471,1.007,2.06.844a1.443,1.443,0,0,0,1.883-.788l4.054-9.89A5.1,5.1,0,0,0,10.71.345,4.945,4.945,0,0,0,4.322,3.076Z" transform="translate(0.931 1.543)"/><path class="h" d="M4.667,3.075,0,14.463l3.285,1.346,2.471,1.007,3.4,1.391L13.817,6.825a4.944,4.944,0,1,0-9.15-3.751Z" transform="translate(0 0)"/><g transform="translate(0.288 13.751)"><g transform="translate(0 0)"><path class="j" d="M0,.824,2.469,1.836A1.334,1.334,0,0,0,0,.824Z" transform="translate(6.109 2.502)"/><path class="j" d="M0,.829,2.471,1.836A1.334,1.334,0,0,0,0,.829Z" transform="translate(2.998 1.229)"/><path class="j" d="M0,.828,2.469,1.841A1.334,1.334,0,0,0,0,.828Z"/></g></g></g></g><g transform="translate(24.254 12.413) rotate(130)"><g transform="translate(0 0)"><path class="i" d="M4.322,14.693.085,4.357a1.136,1.136,0,0,1,.62-1.482L2.94,1.959,5.411.952,7.471.108A1.443,1.443,0,0,1,9.354.9l4.054,9.89a5.1,5.1,0,0,1-2.7,6.638,4.945,4.945,0,0,1-6.389-2.731Z" transform="translate(0.931 0)"/><path class="h" d="M4.667,15.133,0,3.745,3.285,2.4,5.756,1.391,9.152,0l4.665,11.382a4.944,4.944,0,1,1-9.15,3.751Z" transform="translate(0 1.104)"/><g transform="translate(0.288 1.221)"><g transform="translate(0 0)"><path class="j" d="M0,1.012,2.469,0A1.334,1.334,0,0,1,0,1.012Z" transform="translate(6.109 0)"/><path class="j" d="M0,1.007,2.471,0A1.334,1.334,0,0,1,0,1.007Z" transform="translate(2.998 1.274)"/><path class="j" d="M0,1.013,2.469,0A1.334,1.334,0,0,1,0,1.013Z" transform="translate(0 2.498)"/></g></g></g></g></g></g></g></g></svg>