<svg xmlns="http://www.w3.org/2000/svg" xmlns:xlink="http://www.w3.org/1999/xlink" width="147" height="147" viewBox="0 0 147 147"><defs><style>.a{fill:#fff;}.b{fill:#005ab2;}.c{clip-path:url(#c);}.d{fill:#d8c6b6;}.e{fill:#b197a0;}.f{fill:#ccaeb6;}.g{fill:#436066;opacity:0.2;}.h{fill:#a38d95;}.i{fill:#87767c;}.j{fill:#a79098;}.k{fill:#948187;}.l{fill:#ce7272;}.m{fill:#f89494;}.n{fill:#282828;}.o{fill:#fcb4db;opacity:0.8;}.p{filter:url(#a);}</style><filter id="a" x="0" y="0" width="147" height="147" filterUnits="userSpaceOnUse"><feOffset dx="5" dy="5" input="SourceAlpha"/><feGaussianBlur stdDeviation="5" result="b"/><feFlood flood-opacity="0.2"/><feComposite operator="in" in2="b"/><feComposite in="SourceGraphic"/></filter><clipPath id="c"><path class="a" d="M58.52,0A58.52,58.52,0,1,1,0,58.52,58.52,58.52,0,0,1,58.52,0Z"/></clipPath></defs><g transform="translate(10.425 2.379)"><g class="p" transform="matrix(1, 0, 0, 1, -10.42, -2.38)"><circle class="b" cx="58.5" cy="58.5" r="58.5" transform="translate(10 10)"/></g><path class="a" d="M58.52,0A58.52,58.52,0,1,1,0,58.52,58.52,58.52,0,0,1,58.52,0Z" transform="translate(0.175)"/><g class="c" transform="translate(0.175)"><g transform="translate(-291.503 -260.723)"><g transform="translate(307.945 275.023)"><path class="d" d="M391.948,436.944c0,2.149-18.772,3.892-41.929,3.892s-41.929-1.742-41.929-3.892,18.772-3.891,41.929-3.891S391.948,434.795,391.948,436.944Z" transform="translate(-307.981 -313.845)"/><path class="e" d="M389.344,417.457a38.464,38.464,0,0,1-.53,6.35,1.267,1.267,0,0,1-1.6,1.018c-3.121-.869-6.379-1.629-9.746-2.256a3.067,3.067,0,0,0-.317-.057.633.633,0,0,0-.1-.023,139.242,139.242,0,0,0-22.4-2.274c-1.122-.029-2.245-.041-3.379-.041-1.181,0-2.354.012-3.517.047a138.791,138.791,0,0,0-22.249,2.268c-.075.011-.155.029-.235.046a.229.229,0,0,0-.063.012q-5,.932-9.637,2.215a1.484,1.484,0,0,1-1.871-1.185,38.076,38.076,0,1,1,75.652-6.12Z" transform="translate(-309.238 -300.66)"/><path class="f" d="M381.092,426.277l-.048-.012c-2.157-17.866-12.879-31.443-25.775-31.443s-23.619,13.585-25.772,31.459c0,0,13.687,1.389,25.2-2.308h.032C366.238,427.67,381.092,426.277,381.092,426.277Z" transform="translate(-313.24 -304.453)"/><path class="g" d="M325.2,430.883q-4.992.929-9.634,2.218a1.488,1.488,0,0,1-1.872-1.19,38.675,38.675,0,0,1-.485-6.117,38.057,38.057,0,0,1,2.072-12.422,6.364,6.364,0,0,1,7.012,4.9Z" transform="translate(-309.237 -308.997)"/><path class="g" d="M410.268,425.794a38.836,38.836,0,0,1-.526,6.352,1.273,1.273,0,0,1-1.6,1.02c-3.123-.87-6.379-1.63-9.75-2.259L401.3,418.27a6.345,6.345,0,0,1,6.211-4.95c.225,0,.455.011.68.034A38.027,38.027,0,0,1,410.268,425.794Z" transform="translate(-330.165 -308.997)"/><g transform="translate(15.912 86.85)"><path class="g" d="M339.047,395.57l4.479,10.927a1.2,1.2,0,0,1-.656,1.567l-2.362.968L337.9,410.1l-2.178.893a1.526,1.526,0,0,1-1.991-.834L329.442,399.7a5.385,5.385,0,0,1,2.851-7.017,5.228,5.228,0,0,1,6.754,2.886Z" transform="translate(-329.04 -390.689)"/><path class="h" d="M339.848,393.408l4.933,12.038-3.473,1.423-2.611,1.064-3.591,1.472-4.931-12.032a5.227,5.227,0,1,1,9.673-3.965Z" transform="translate(-329.222 -390.157)"/><g transform="translate(6.084 14.537)"><path class="i" d="M339.819,413.807l-2.61,1.07a1.41,1.41,0,0,1,2.61-1.07Z" transform="translate(-337.105 -410.29)"/><path class="i" d="M344.178,412.027l-2.611,1.064a1.41,1.41,0,0,1,2.611-1.064Z" transform="translate(-338.176 -409.852)"/><path class="i" d="M348.379,410.3l-2.61,1.07a1.41,1.41,0,0,1,2.61-1.07Z" transform="translate(-339.208 -409.429)"/></g></g><g transform="translate(51.013 86.85)"><path class="g" d="M381.444,395.57,376.966,406.5a1.2,1.2,0,0,0,.656,1.567l2.362.968L382.6,410.1l2.179.893a1.526,1.526,0,0,0,1.991-.834l4.285-10.454a5.385,5.385,0,0,0-2.851-7.017,5.229,5.229,0,0,0-6.754,2.886Z" transform="translate(-375.892 -390.689)"/><path class="h" d="M380.506,393.408l-4.934,12.038,3.473,1.423,2.612,1.064,3.59,1.472,4.932-12.032a5.227,5.227,0,1,0-9.673-3.965Z" transform="translate(-375.572 -390.157)"/><g transform="translate(0.304 14.537)"><path class="i" d="M384.535,413.807l2.61,1.07a1.41,1.41,0,0,0-2.61-1.07Z" transform="translate(-378.078 -410.29)"/><path class="i" d="M380.176,412.027l2.612,1.064a1.41,1.41,0,0,0-2.612-1.064Z" transform="translate(-377.007 -409.852)"/><path class="i" d="M375.975,410.3l2.609,1.07a1.41,1.41,0,1,0-2.609-1.07Z" transform="translate(-375.975 -409.429)"/></g></g><g transform="translate(1.605 105.472)"><path class="h" d="M322.409,431.788l-7.838,1.8a1.484,1.484,0,0,1-1.779-1.113l-2.584-11.232a5.23,5.23,0,0,1,3.923-6.269h0A5.228,5.228,0,0,1,320.4,418.9l2.709,11.771A.931.931,0,0,1,322.409,431.788Z" transform="translate(-310.073 -414.843)"/><g transform="translate(1.217 1.322)"><path class="i" d="M321.627,429.283a3.943,3.943,0,1,1-3.944-3.943A3.944,3.944,0,0,1,321.627,429.283Z" transform="translate(-312.191 -418.744)"/><path class="i" d="M317.733,418.491a1.895,1.895,0,1,1-1.895-1.895A1.895,1.895,0,0,1,317.733,418.491Z" transform="translate(-312.241 -416.596)"/><path class="i" d="M314.372,423.662a1.343,1.343,0,1,1-1.343-1.343A1.343,1.343,0,0,1,314.372,423.662Z" transform="translate(-311.686 -418.002)"/><path class="i" d="M322.059,422.041a1.343,1.343,0,1,1-1.343-1.343A1.343,1.343,0,0,1,322.059,422.041Z" transform="translate(-313.574 -417.604)"/></g></g><g transform="translate(69.525 105.472)"><path class="h" d="M400.835,431.788l7.837,1.8a1.484,1.484,0,0,0,1.779-1.113l2.585-11.232a5.23,5.23,0,0,0-3.923-6.269h0a5.229,5.229,0,0,0-6.269,3.923l-2.708,11.771A.931.931,0,0,0,400.835,431.788Z" transform="translate(-400.112 -414.843)"/><g transform="translate(2.405 1.322)"><g transform="translate(0 6.596)"><path class="i" d="M403.3,429.283a3.943,3.943,0,1,0,3.943-3.943A3.943,3.943,0,0,0,403.3,429.283Z" transform="translate(-403.301 -425.34)"/></g><g transform="translate(3.943)"><path class="i" d="M408.528,418.491a1.895,1.895,0,1,0,1.895-1.895A1.9,1.9,0,0,0,408.528,418.491Z" transform="translate(-408.528 -416.596)"/></g><g transform="translate(6.749 4.317)"><circle class="i" cx="1.343" cy="1.343" r="1.343"/></g><g transform="translate(0.951 3.094)"><circle class="i" cx="1.343" cy="1.343" r="1.343"/></g></g></g><g transform="translate(0 0)"><g transform="translate(0 2.468)"><circle class="j" cx="12.283" cy="12.283" r="12.283" transform="matrix(0.228, -0.974, 0.974, 0.228, 0, 23.919)"/></g><g transform="translate(1.838 4.306)"><circle class="k" cx="9.139" cy="9.139" r="9.139" transform="translate(0 12.924) rotate(-45)"/></g><g transform="translate(51.775)"><g transform="translate(0)"><circle class="j" cx="12.283" cy="12.283" r="12.283" transform="translate(0 15.017) rotate(-37.682)"/></g><g transform="translate(5.95 5.95)"><circle class="k" cx="9.139" cy="9.139" r="9.139" transform="translate(0 17.588) rotate(-74.214)"/></g></g><path class="e" d="M389.709,324.263c0,19.687-17.421,35.649-38.913,35.649s-38.914-15.962-38.914-35.649c0-13.689,8.424-25.578,20.782-31.545a42.1,42.1,0,0,1,36.264,0C381.286,298.685,389.709,310.574,389.709,324.263Z" transform="translate(-308.912 -278.361)"/><ellipse class="f" cx="39.405" cy="24.496" rx="39.405" ry="24.496" transform="translate(2.479 40.432)"/><g transform="translate(13.629 67.697)"><path class="l" d="M375.747,376.843a4.793,4.793,0,0,1-2,3.631c-3.521,2.952-10.969,4.535-16.4,4.535-5.446,0-12.926-1.24-16.434-4.289a5.072,5.072,0,0,1-1.964-3.87,34.173,34.173,0,0,0,4.192,1.828h.007a43.647,43.647,0,0,0,28.528-.051,33.726,33.726,0,0,0,4.064-1.783Z" transform="translate(-329.192 -367.733)"/><path class="m" d="M374.383,381.054c-3.52,2.952-10.969,4.535-16.4,4.535-5.446,0-12.926-1.24-16.434-4.289a17.738,17.738,0,0,1,2.228-2.042h.007a43.647,43.647,0,0,0,28.527-.051A17.1,17.1,0,0,1,374.383,381.054Z" transform="translate(-329.831 -368.313)"/><path class="i" d="M354.163,378.794a40.606,40.606,0,0,1-18.717-4.277,22.959,22.959,0,0,1-9.333-8.315.712.712,0,1,1,1.225-.724,21.551,21.551,0,0,0,8.767,7.777,41.662,41.662,0,0,0,36.13-.009,21.2,21.2,0,0,0,8.953-8.113.711.711,0,1,1,1.244.69,22.605,22.605,0,0,1-9.538,8.685A40.563,40.563,0,0,1,354.163,378.794Z" transform="translate(-326.014 -364.766)"/></g><g transform="translate(32.039 38.666)"><g transform="translate(0 0)"><circle class="f" cx="2.18" cy="2.18" r="2.18"/><path class="k" d="M352.854,330.111a1.394,1.394,0,1,1,1.394-1.394A1.4,1.4,0,0,1,352.854,330.111Z" transform="translate(-350.674 -326.537)"/></g><g transform="translate(15.33)"><path class="f" d="M375.1,328.461a2.18,2.18,0,1,1-2.18-2.18A2.18,2.18,0,0,1,375.1,328.461Z" transform="translate(-370.74 -326.281)"/><path class="k" d="M373.176,330.111a1.394,1.394,0,1,1,1.393-1.394A1.4,1.4,0,0,1,373.176,330.111Z" transform="translate(-370.996 -326.537)"/></g></g><g transform="translate(24.169 30.788)"><path class="n" d="M344.128,315.837a4.142,4.142,0,1,0,4.142,4.142A4.142,4.142,0,0,0,344.128,315.837Zm1.7,3.918a1.314,1.314,0,1,1,1.314-1.314A1.314,1.314,0,0,1,345.825,319.755Z" transform="translate(-339.986 -315.837)"/><path class="n" d="M380.112,315.837a4.142,4.142,0,1,0,4.142,4.142A4.142,4.142,0,0,0,380.112,315.837Zm1.819,3.918a1.314,1.314,0,1,1,1.314-1.314A1.315,1.315,0,0,1,381.931,319.755Z" transform="translate(-348.826 -315.837)"/></g></g></g><path class="o" d="M337.143,328.236c0,1.586-2.155,2.87-4.814,2.87s-4.813-1.285-4.813-2.87,2.155-2.869,4.813-2.869S337.143,326.652,337.143,328.236Z" transform="translate(-4.808 -12.368)"/><path class="o" d="M396.165,328.236c0,1.586-2.155,2.87-4.813,2.87s-4.814-1.285-4.814-2.87,2.156-2.869,4.814-2.869S396.165,326.652,396.165,328.236Z" transform="translate(-19.307 -12.368)"/></g></g></g></svg>