<svg xmlns="http://www.w3.org/2000/svg" xmlns:xlink="http://www.w3.org/1999/xlink" width="147.06" height="147.06" viewBox="0 0 147.06 147.06"><defs><style>.a{fill:#fff;}.b{fill:#005ab2;}.c{clip-path:url(#c);}.d{fill:#aab0b2;}.e{fill:#bf4c28;}.f{fill:#fcbb3b;}.g{fill:#f9de3d;}.h{fill:#b7bdbf;}.i{fill:#c2d0d3;}.j{fill:#231f20;}.k,.m{fill:#f3a79d;}.k{opacity:0.62;}.l{fill:#914d27;}.n{fill:#f7efe2;}.o{fill:#e88c85;}.p{filter:url(#a);}</style><filter id="a" x="0" y="0" width="147.06" height="147.06" filterUnits="userSpaceOnUse"><feOffset dx="5" dy="5" input="SourceAlpha"/><feGaussianBlur stdDeviation="5" result="b"/><feFlood flood-opacity="0.2"/><feComposite operator="in" in2="b"/><feComposite in="SourceGraphic"/></filter><clipPath id="c"><path class="a" d="M58.52,0A58.52,58.52,0,1,1,0,58.52,58.52,58.52,0,0,1,58.52,0Z"/></clipPath></defs><g transform="translate(9.939 2.774)"><g class="p" transform="matrix(1, 0, 0, 1, -9.94, -2.77)"><circle class="b" cx="58.53" cy="58.53" r="58.53" transform="translate(10 10)"/></g><path class="a" d="M58.52,0A58.52,58.52,0,1,1,0,58.52,58.52,58.52,0,0,1,58.52,0Z"/><g class="c"><g transform="translate(-0.095 13.292)"><path class="d" d="M671.432,134.322c2.423-4.457,3.128-9.241-1.049-12.752-3.443-2.891-8.39-3.644-12.744-3.284-2.447.2-4.835.866-7.275,1.139-7.849.878-15.683-2.387-22.01-7.115a76.338,76.338,0,0,1-10.071-9.325c-1.052-1.131-11.54-16.187-12.639-8.425a2.36,2.36,0,0,0-3.1-.912,2.072,2.072,0,0,0-.5,3.078c-1.505-.108-2.709,1.446-2.8,2.953-.122,2.135,1.13,5.152,1.693,7.256,2.053,7.679,6.194,14.535,10.6,21.072A59.251,59.251,0,0,0,627.8,144.591c6.876,4.491,14.087,5.543,22.213,4.252C658.839,147.442,667.165,142.171,671.432,134.322Z" transform="translate(-595.819 -58.648)"/><path class="e" d="M716.72,114.867a5.967,5.967,0,0,1,6.19,1.756,14.11,14.11,0,0,1,3.038,6.03c1.817,6.3,4.075,15.6-.864,20.994a7.313,7.313,0,0,1-7.1,2.386" transform="translate(-592.417 -58.004)"/><path class="f" d="M690.917,99.729c5.888-2.975,13.349-3.367,18.918.17,4.617,2.933,7.359,8.055,9.3,13.169a71.7,71.7,0,0,1,4.189,32.886c-.536,5.055-1.339,10.628-3.632,15.171-3.335,6.6-6.175,11.911-13.32,15.162-6,2.727-12.848,3.19-19.362,2.214" transform="translate(-593.277 -58.502)"/><path class="g" d="M717.751,109.636a131.729,131.729,0,0,1-27.593,3.231l-.047.943a132.247,132.247,0,0,0,28.037-3.3C718.021,110.218,717.885,109.927,717.751,109.636Z" transform="translate(-593.187 -58.147)"/><path class="g" d="M689.241,131.307l-.046.94a230.319,230.319,0,0,0,34.089-2.186c-.032-.313-.068-.625-.1-.937A229.416,229.416,0,0,1,689.241,131.307Z" transform="translate(-593.214 -57.582)"/><path class="g" d="M713.069,141.229c-3.977.166-8.2.513-12.342.389-.562,5.157-.7,10.937,2.1,15.344,3.583,5.651,10.447,3.548,12.717-2,1.957-4.782,3.77-9.167,3.923-14.11Q716.27,141.1,713.069,141.229Z" transform="translate(-592.889 -57.243)"/><path class="d" d="M645.427,165.271a132.8,132.8,0,0,0-28.951,55.135c-6.034-3.03-15.834-3.456-20.532,2.416-.69.863,11.37,7.452,12.36,7.991,7.4,4.028,15.723,6.723,23.68,9.592,11.523-21.6,23.991-44.233,44.927-56.932" transform="translate(-595.915 -56.536)"/><path class="h" d="M720.9,198.467a181.766,181.766,0,0,1,4.116,18.6c.523,3.134.955,6.282,1.32,9.438.047.4,1.127,6.882.74,6.806a16.129,16.129,0,0,1-8.021-3.993,11.149,11.149,0,0,1-2.467-2.4,28.092,28.092,0,0,1-1.4-4.94c-4.3.692-8.4,2.748-12.6,3.92q-7.131,1.993-14.429,3.309c-6.746,1.218-18.555,4.6-24.055-1.423a11.108,11.108,0,0,1-2.039-3.974,150.7,150.7,0,0,1-6.781-28.008c-.677-4.74-.657-6.225-4.565-8.823a38.8,38.8,0,0,1-8.563-7.116c-3.78-4.554-5.543-10.493-6.142-16.381s-.127-11.825.064-17.74c.346-10.745-.5-21.248.235-31.907a3.2,3.2,0,0,0-.141-1.523,3.4,3.4,0,0,0-.993-1.126C621.554,99.507,623.266,77.69,636.18,66.4c8.817-7.71,22.466-8.068,33.223-5,12.135,3.458,19.469,14.429,22.809,26.17,3.848,13.527,5.7,28.656,6.931,42.72a256.137,256.137,0,0,1,.365,37.277c-.7,11.906-4.071,23.719-3.836,35.525A72.939,72.939,0,0,1,720.9,198.467Z" transform="translate(-595.053 -59.596)"/><path class="a" d="M646.6,109.681a53.294,53.294,0,0,0,14.909.36c6.992-.754,15.527-3,19.054-9.67,3.557-6.725,3.485-14.97.742-22-1.9-4.878-7.039-8.508-11.663-10.555-11.281-4.994-26.493-4.878-35.5,4.784A24.628,24.628,0,0,0,628.3,94.145C630.329,103.747,637.993,108.12,646.6,109.681Z" transform="translate(-594.992 -59.453)"/><path d="M680.033,99.294c3.176-6.584,3.024-14.486.38-21.263-.1-.265-.221-.527-.344-.785a22.236,22.236,0,0,0-16.131.991,9.6,9.6,0,0,0-4.444,3.668,7.881,7.881,0,0,0-.892,4.261,10.569,10.569,0,0,0,3.4,7.279c2.317,2.088,5.464,2.97,8.531,3.533s6.223.888,9.09,2.117C679.759,99.155,679.894,99.23,680.033,99.294Z" transform="translate(-594.1 -59.116)"/><path d="M642.4,79.222c-3.332-1.8-7.421-1.6-10.965-.3a21.423,21.423,0,0,0-1.977.855A24.883,24.883,0,0,0,628.3,93.758a18.7,18.7,0,0,0,2.549,6.32,53.217,53.217,0,0,1,4.859-2.371,45.2,45.2,0,0,0,6.716-3.1,10.108,10.108,0,0,0,4.587-5.713C647.99,85.145,645.731,81.027,642.4,79.222Z" transform="translate(-594.992 -59.066)"/><path class="f" d="M676.668,167.44c6.475,3.179,14.187,3.768,21.561,3.043.133-1.279.243-2.559.322-3.84A44.559,44.559,0,0,1,680.611,165c-8.717-2.763-15.1-10.8-17.636-19.307-2.852-9.581-.151-21.058,5.247-29.244,5.746-8.713,17.174-11.113,26.986-12.051q-.307-1.852-.645-3.691c-10.146,1.039-20.1,3.549-27.442,11.149-7.379,7.634-10.373,21.393-8.465,31.6A33.239,33.239,0,0,0,676.668,167.44Z" transform="translate(-594.115 -58.406)"/><path class="i" d="M670.865,140.46c-.527-8.816-2.909-18.348-10.008-23.6a21.066,21.066,0,0,0-14.955-3.689,26.877,26.877,0,0,0-10.093,3.459c-.307,9.179.28,18.282-.02,27.566-.19,5.915-.663,11.852-.064,17.739s2.361,11.828,6.142,16.382a38.793,38.793,0,0,0,8.563,7.116,12.68,12.68,0,0,1,2.419,1.979,27.076,27.076,0,0,0,2.861-2.344C667.592,174.012,671.833,156.658,670.865,140.46Z" transform="translate(-594.771 -58.049)"/><g transform="translate(38.33 23.791)"><g transform="translate(18.601 7.76)"><path class="j" d="M651.422,95.7a7.042,7.042,0,0,0,.389-2.708,7.072,7.072,0,0,0-.152-2.732,7.06,7.06,0,0,0-.39,2.708A7.085,7.085,0,0,0,651.422,95.7Z" transform="translate(-651.244 -90.259)"/></g><g transform="translate(15.155 9.804)"><path class="j" d="M655.834,92.247c-.079-.033-.322.525-.888,1.284a4.646,4.646,0,0,1-2.932,1.92,3.292,3.292,0,0,1-1.886-.239,3.743,3.743,0,0,1-1.234-1.007c-.6-.735-.917-1.262-.991-1.215a3.451,3.451,0,0,0,.685,1.448A3.732,3.732,0,0,0,649.9,95.66a3.578,3.578,0,0,0,2.193.327,4.609,4.609,0,0,0,3.167-2.24A2.9,2.9,0,0,0,655.834,92.247Z" transform="translate(-647.895 -92.246)"/></g><g transform="translate(0 1.278)"><path class="h" d="M641.128,83.96c-.121,0-.115.978-.5,2.457a11.516,11.516,0,0,1-.97,2.478c-.457.857-1.118,1.854-2.1,1.99a2.805,2.805,0,0,1-2.473-1.356,8.556,8.556,0,0,1-1.2-2.34c-.474-1.446-.451-2.429-.575-2.428a4.311,4.311,0,0,0,.059,2.575,7.944,7.944,0,0,0,1.145,2.6,4.411,4.411,0,0,0,1.237,1.243,2.879,2.879,0,0,0,1.908.46,2.805,2.805,0,0,0,1.7-.982,6.4,6.4,0,0,0,.922-1.443,10.059,10.059,0,0,0,.871-2.682A4.813,4.813,0,0,0,641.128,83.96Z" transform="translate(-633.167 -83.96)"/></g><g transform="translate(31.178)"><path class="h" d="M672.336,83.927c-.132-.008-.122,1.142-.774,2.793a9.292,9.292,0,0,1-1.6,2.619,6.218,6.218,0,0,1-1.322,1.18,2.666,2.666,0,0,1-1.67.481c-1.192-.116-1.956-1.308-2.342-2.344A11.66,11.66,0,0,1,664,85.631c-.128-1.778.116-2.89-.007-2.913a5.822,5.822,0,0,0-.53,2.934,10.6,10.6,0,0,0,.5,3.239,5.477,5.477,0,0,0,.96,1.763,2.969,2.969,0,0,0,1.966,1.1,3.348,3.348,0,0,0,2.148-.611A6.576,6.576,0,0,0,670.5,89.79a8.833,8.833,0,0,0,1.568-2.889A5.1,5.1,0,0,0,672.336,83.927Z" transform="translate(-663.467 -82.718)"/></g></g><path class="k" d="M644.566,95.854a3.288,3.288,0,0,0-1.865-3,7.471,7.471,0,0,0-8.2,1.516,2.542,2.542,0,0,0,.434,4.254,6.52,6.52,0,0,0,4.569.9c1.9-.3,4.088-1.1,4.891-3.009A2.246,2.246,0,0,0,644.566,95.854Z" transform="translate(-594.825 -58.652)"/><path class="k" d="M672.19,97.638a3.383,3.383,0,0,0-.039-2.164,4.42,4.42,0,0,0-2.33-2.3,7.685,7.685,0,0,0-6.781,0,2.543,2.543,0,0,0-.866,4.188A6.521,6.521,0,0,0,666.26,99.6a9.5,9.5,0,0,0,4.68-.568A2.114,2.114,0,0,0,672.19,97.638Z" transform="translate(-594.018 -58.646)"/><path class="l" d="M654.709,92.124a9.79,9.79,0,0,0,1.134-.955c.616-.6,1.716-1.909,1.243-2.842a3.108,3.108,0,0,0-1.1-1.078c-1.933-1.316-4.656-1.238-6.824-.618-2.229.637-1.247,3.337-.24,4.559a4.275,4.275,0,0,0,3.845,1.793A4.717,4.717,0,0,0,654.709,92.124Z" transform="translate(-594.412 -58.826)"/><path class="m" d="M671.234,119.819l-42.127-7.45-1.315,9.812,31.178,5.182Z" transform="translate(-594.992 -58.068)"/><path class="n" d="M625,117.181c.886-.206,6.051-2.813,6.051-2.813l38.7,6.232-23.59,7.874Z" transform="translate(-595.073 -58.01)"/><path class="o" d="M657.564,176.955l7.426-2.6,5.382-54.747-7.129,1.778Z" transform="translate(-594.13 -57.858)"/><path class="m" d="M664.4,121.489l-40.2-5.39-6.563,55.839,41.084,5.119Z" transform="translate(-595.286 -57.96)"/><path class="d" d="M692.987,121.342c-2.27-4.538-5.791-7.853-11.059-6.434-4.341,1.169-7.788,4.8-9.984,8.573-1.235,2.123-2.055,4.462-3.227,6.619-3.769,6.939-10.93,11.5-18.426,13.983a76.323,76.323,0,0,1-13.41,2.927c-1.529.215-19.878.206-14.14,5.547a2.362,2.362,0,0,0-2.519,2.019,2.072,2.072,0,0,0,2.241,2.167c-.951,1.173-.364,3.049.823,3.982,1.68,1.322,4.871,2.02,6.919,2.762,7.474,2.709,15.466,3.233,23.349,3.359a59.251,59.251,0,0,0,22.9-3.845c7.617-3.072,12.6-8.384,16.194-15.787C696.545,139.175,696.985,129.331,692.987,121.342Z" transform="translate(-595.212 -58.004)"/></g></g></g></svg>