<svg xmlns="http://www.w3.org/2000/svg" xmlns:xlink="http://www.w3.org/1999/xlink" width="147" height="146" viewBox="0 0 147 146"><defs><style>.a,.g{fill:#fff;}.b{fill:#005ab2;}.c{clip-path:url(#c);}.d{fill:#f5af1b;}.e{fill:#aa5c3a;}.f,.n{opacity:0.4;}.f,.g,.h,.n,.o{mix-blend-mode:overlay;isolation:isolate;}.g,.h{opacity:0.2;}.i{fill:#ea9219;}.j{fill:#e27f07;}.k{fill:#6bd7e8;}.l{fill:#38b2ce;}.m{fill:#7f3c25;}.o{opacity:0.3;}.p{fill:#b5b510;}.q{fill:#c9d037;}.r{filter:url(#a);}</style><filter id="a" x="0" y="0" width="147" height="146" filterUnits="userSpaceOnUse"><feOffset dx="5" dy="5" input="SourceAlpha"/><feGaussianBlur stdDeviation="5" result="b"/><feFlood flood-opacity="0.2"/><feComposite operator="in" in2="b"/><feComposite in="SourceGraphic"/></filter><clipPath id="c"><path class="a" d="M58.52,0A58.52,58.52,0,1,1,0,58.52,58.52,58.52,0,0,1,58.52,0Z"/></clipPath></defs><g transform="translate(10.425 2.126)"><g class="r" transform="matrix(1, 0, 0, 1, -10.42, -2.13)"><ellipse class="b" cx="58.5" cy="58" rx="58.5" ry="58" transform="translate(10 10)"/></g><path class="a" d="M58.52,0A58.52,58.52,0,1,1,0,58.52,58.52,58.52,0,0,1,58.52,0Z" transform="translate(0.175)"/><g class="c" transform="translate(0.175)"><g transform="translate(1.499 15.741)"><g transform="translate(0 96.34)"><path class="d" d="M36.769,1051.438v0a18.73,18.73,0,0,0,1.13,6.047c.033.084.066.168.1.248a18.126,18.126,0,0,0,1.881,3.426,18.431,18.431,0,0,0,2.589,2.975,17.562,17.562,0,0,0,3.3,2.428,15.867,15.867,0,0,0,5.549,1.935h0a20.59,20.59,0,0,0,4.008.209c.532-.022,1.059-.062,1.587-.113a9.409,9.409,0,0,0,4.256-1.482,11.6,11.6,0,0,0,3.091-3.017,21.866,21.866,0,0,0,2.8-5.584c.536-1.516.922-2.955,1.218-4.122.129-.509.242-.965.345-1.354a4.034,4.034,0,0,1,.435-1.039,7.655,7.655,0,0,1,3.4-2.779,17.174,17.174,0,0,1,3.823-1.246l1.484-8.747s-5.795.591-9.688,4.564a11.771,11.771,0,0,0-3.016,5.348c-.362,1.393-.694,2.695-1.028,3.9s-.664,2.335-1.022,3.355a15.848,15.848,0,0,1-2.024,4.166,7.333,7.333,0,0,1-2.6,2.284,8.915,8.915,0,0,1-3.131.9l-.221.024a16.851,16.851,0,0,1-3.018.04,11.535,11.535,0,0,1-3.5-.8,9.417,9.417,0,0,1-2.756-1.718,10.612,10.612,0,0,1-1.729-1.977,13.789,13.789,0,0,1-.966-1.658,9.673,9.673,0,0,1-.509-1.225,10.95,10.95,0,0,1-.548-2.612,9.868,9.868,0,0,1,.3-3.562,7.508,7.508,0,0,1,.686-1.673c.014-.021.024-.046.038-.068a2.859,2.859,0,0,1,2.139-1.5,1.549,1.549,0,0,1,1.217.59,3.477,3.477,0,0,1,.623,1.086,6.148,6.148,0,0,1,.357,2.336,1.435,1.435,0,0,0,.01.208c.208,1.607,3.3,5.493,4.962,1.511a7.14,7.14,0,0,0,.534-2.375,8.381,8.381,0,0,0-.666-3.632,9.875,9.875,0,0,0-5.416-5.392,7.29,7.29,0,0,0-3.838-.416,6.637,6.637,0,0,0-1.711.52,7.315,7.315,0,0,0-3.771,4.592A15.9,15.9,0,0,0,36.769,1051.438Z" transform="translate(-36.761 -1039.226)"/><path class="e" d="M62.366,1062.019a1.431,1.431,0,0,0,.01.208,6.591,6.591,0,0,1,2.135-.871,13.81,13.81,0,0,1,3.36.008,8.381,8.381,0,0,0-.666-3.632,18.453,18.453,0,0,0-3.317.936,7.694,7.694,0,0,0-1.879,1.016A6.149,6.149,0,0,1,62.366,1062.019Z" transform="translate(-51.749 -1050.211)"/><path class="e" d="M48.082,1047.01a13.913,13.913,0,0,0,1.519,3.875,2.859,2.859,0,0,1,2.139-1.5,19.831,19.831,0,0,1,.473-2.617,18.925,18.925,0,0,1,1.146-3.05,7.292,7.292,0,0,0-3.838-.416,6.623,6.623,0,0,0-1.711.52A16.231,16.231,0,0,0,48.082,1047.01Z" transform="translate(-43.32 -1041.588)"/><path class="e" d="M36.769,1061.406v0a12.329,12.329,0,0,0,2.273,1.43,10.936,10.936,0,0,0,2.977.954,9.869,9.869,0,0,1,.3-3.562,12.421,12.421,0,0,1-2.484-1.451,10.219,10.219,0,0,1-2.353-2.763A15.9,15.9,0,0,0,36.769,1061.406Z" transform="translate(-36.761 -1049.194)"/><path class="e" d="M39.56,1082.633c.033.084.066.168.1.248a18.13,18.13,0,0,0,1.881,3.426,10.563,10.563,0,0,0,2.3-.744,13.656,13.656,0,0,0,1.867-1.1,13.822,13.822,0,0,1-.966-1.658,9.665,9.665,0,0,1-.509-1.225,18.97,18.97,0,0,1-2.244.641A23.4,23.4,0,0,1,39.56,1082.633Z" transform="translate(-38.423 -1064.37)"/><path class="e" d="M50.805,1096.381a17.563,17.563,0,0,0,3.3,2.428,9.942,9.942,0,0,0,1.58-1.638,14.427,14.427,0,0,0,1.178-1.914,9.421,9.421,0,0,1-2.756-1.718,19.753,19.753,0,0,1-1.617,1.536C51.874,1095.6,51.307,1096.032,50.805,1096.381Z" transform="translate(-45.098 -1071.469)"/><path class="e" d="M72.588,1104.326a20.571,20.571,0,0,0,4.008.208,11.46,11.46,0,0,0,.247-2.9,14,14,0,0,0-.314-2.059l-.221.024a16.886,16.886,0,0,1-3.018.04,19.03,19.03,0,0,1-.239,2.476C72.912,1102.965,72.748,1103.707,72.588,1104.326Z" transform="translate(-58.03 -1075.05)"/><path class="e" d="M89.992,1094.01a20.1,20.1,0,0,1,1.428,1.929,23.361,23.361,0,0,1,1.35,2.342,11.6,11.6,0,0,0,3.091-3.017,11.433,11.433,0,0,0-1.8-2.332,13.794,13.794,0,0,0-1.473-1.206A7.329,7.329,0,0,1,89.992,1094.01Z" transform="translate(-68.361 -1070.392)"/><path class="e" d="M101.367,1076.572a19.756,19.756,0,0,1,1.922.872,24.181,24.181,0,0,1,2.129,1.249c.536-1.516.922-2.955,1.218-4.122a11.033,11.033,0,0,0-2.517-1.042,14.462,14.462,0,0,0-1.731-.311C102.056,1074.434,101.725,1075.552,101.367,1076.572Z" transform="translate(-75.114 -1059.404)"/><path class="e" d="M108.994,1053.12a19.627,19.627,0,0,1,1.368,2.109,21.848,21.848,0,0,1,1.582,3.438,7.652,7.652,0,0,1,3.4-2.779,13.431,13.431,0,0,0-2.143-3.481,15.1,15.1,0,0,0-2.239-1.948A11.715,11.715,0,0,0,108.994,1053.12Z" transform="translate(-79.642 -1045.894)"/><path class="f" d="M58.279,1065.3a23.681,23.681,0,0,1-8.328-1.6,13.218,13.218,0,0,1-6.425-8.139,11.467,11.467,0,0,1-.337-5.288,8.339,8.339,0,0,1,3.382-4.641q.138-.1.278-.2a4.09,4.09,0,0,1,4.563.428,4.416,4.416,0,0,1,1.3,2.139,11.8,11.8,0,0,1,.426,3.689,16.5,16.5,0,0,1-.473,2.116,4.92,4.92,0,0,1-1.565-2.564,1.436,1.436,0,0,1-.01-.208,6.148,6.148,0,0,0-.357-2.336,3.477,3.477,0,0,0-.623-1.086,1.549,1.549,0,0,0-1.217-.59,2.859,2.859,0,0,0-2.139,1.5c-.014.021-.024.046-.038.068a7.509,7.509,0,0,0-.686,1.673,9.868,9.868,0,0,0-.3,3.562,10.95,10.95,0,0,0,.548,2.612,9.673,9.673,0,0,0,.509,1.225,13.788,13.788,0,0,0,.966,1.658,10.612,10.612,0,0,0,1.729,1.977,9.417,9.417,0,0,0,2.756,1.718,11.535,11.535,0,0,0,3.5.8,16.851,16.851,0,0,0,3.018-.04l.221-.024a8.915,8.915,0,0,0,3.131-.9,7.333,7.333,0,0,0,2.6-2.284,15.848,15.848,0,0,0,2.024-4.166c.358-1.02.689-2.138,1.022-3.355s.665-2.507,1.028-3.9a11.771,11.771,0,0,1,3.016-5.348c3.893-3.974,9.688-4.564,9.688-4.564l-.323,1.905c-8.662.729-10.916,9.329-14.069,18.1A9.194,9.194,0,0,1,58.279,1065.3Z" transform="translate(-40.473 -1039.226)"/><path class="g" d="M52.99,1046.759c.021,1.365-2.063-.181-4.438-.144s-4.141,1.642-4.163.278,1.887-2.5,4.262-2.538S52.968,1045.395,52.99,1046.759Z" transform="translate(-41.289 -1042.271)"/></g><g transform="translate(69.722 66.696)"><path class="d" d="M213.8,966.278l-5.466.749,1.108,9.6a30.514,30.514,0,0,0,3.226,1.939,32.119,32.119,0,0,0,3.81,1.708q.718.266,1.472.495a19.934,19.934,0,0,0,3.545.744,14.141,14.141,0,0,0,2.687.057,6.634,6.634,0,0,0,1.828-.4l-3.1-7.356a1.846,1.846,0,0,1-.4-.027C220.1,973.34,213.8,966.278,213.8,966.278Z" transform="translate(-208.337 -966.278)"/><path class="e" d="M223.834,985.77c1.061.619.269,3.206-1.022,6.018A32.118,32.118,0,0,1,219,990.08C220.892,987.313,222.795,985.164,223.834,985.77Z" transform="translate(-214.668 -977.788)"/><path class="e" d="M235.428,986.92c1.087.317.781,3.475.116,6.837a19.931,19.931,0,0,1-3.545-.744C233.111,989.568,234.386,986.612,235.428,986.92Z" transform="translate(-222.384 -978.519)"/><path class="h" d="M210.74,988.958l.131,1.136a30.518,30.518,0,0,0,3.226,1.939,32.137,32.137,0,0,0,3.81,1.708q.718.266,1.472.494a19.935,19.935,0,0,0,3.545.745,14.151,14.151,0,0,0,2.687.057,6.632,6.632,0,0,0,1.828-.4l-1.076-2.549C221.071,994.886,215.452,992.425,210.74,988.958Z" transform="translate(-209.764 -979.742)"/></g><g transform="translate(33.418 99.184)"><path class="d" d="M119,1046.226s2.176,10.55,5.4,18.012,4.427,10.421,4.427,10.421-6.478,1.887-4.928,2.359,10.255.729,10.805-.043,2-19.641,2-19.641Z" transform="translate(-118.998 -1046.226)"/><path class="h" d="M124.55,1049.708l-3.444-2.161a89.661,89.661,0,0,1,11.65,30.687c1.668-.044,3-.189,3.2-.476a.723.723,0,0,0,.074-.193C134.846,1067.667,130.675,1058.159,124.55,1049.708Z" transform="translate(-120.249 -1047.011)"/><path class="f" d="M129.582,1052.865c6.124,8.45,10.3,17.958,11.481,27.858.6-2.134,1.927-19.449,1.927-19.449Z" transform="translate(-125.281 -1050.167)"/></g><g transform="translate(57.43 99.184)"><path class="d" d="M195.8,1046.226s-2.176,10.584-5.4,18.07-4.427,10.454-4.427,10.454,6.478,1.893,4.928,2.366-10.255.732-10.805-.043-2-19.7-2-19.7Z" transform="translate(-178.088 -1046.226)"/><path class="h" d="M194.31,1049.72l3.444-2.168a90.116,90.116,0,0,0-11.65,30.786c-1.668-.045-3-.189-3.2-.477a.726.726,0,0,1-.074-.193C184.014,1067.735,188.186,1058.2,194.31,1049.72Z" transform="translate(-180.902 -1047.013)"/><path class="f" d="M191.5,1052.886c-6.124,8.477-10.3,18.015-11.481,27.948-.6-2.14-1.927-19.511-1.927-19.511Z" transform="translate(-178.088 -1050.18)"/></g><g transform="translate(33.173 56.762)"><path class="d" d="M160.774,982.657a26.758,26.758,0,0,1-.417,2.886,22.04,22.04,0,0,1-.932,3.309c-3.018,8.185-10.372,11.788-19.294,11.788-8.793,0-16.8-2.442-20.12-10.656a20.2,20.2,0,0,1-1.02-3.359,26.347,26.347,0,0,1-.435-2.821,33.381,33.381,0,0,1-.135-4.676c.035-1.055.112-2.157.238-3.312q.123-1.177.312-2.424c.061-.412.123-.823.188-1.232,2.554-16.681,5.422-29.839,20.073-30.265,16.7-.488,18.8,12.731,20.872,28.954.144,1.126.288,2.269.438,3.421.009.068.018.135.024.2q.229,1.829.3,3.515A33.83,33.83,0,0,1,160.774,982.657Z" transform="translate(-118.395 -941.861)"/><path class="i" d="M150.268,941.831S132.881,986,155.026,984.245s7.483-36.221,7.483-36.221Z" transform="translate(-133.463 -941.831)"/><path class="j" d="M147.243,1008.627c-.087-.657-1.175-.853-1.252-.095a12.593,12.593,0,0,0,.115,3.27c.155.976,1.7.895,1.547-.091C147.49,1010.686,147.38,1009.655,147.243,1008.627Z" transform="translate(-134.742 -981.137)"/><path class="j" d="M158.377,990.156a29.885,29.885,0,0,0-.348,3.511c-.048.894,1.511,1.021,1.586.12a29.884,29.884,0,0,0,.137-3.526A.7.7,0,0,0,158.377,990.156Z" transform="translate(-141.923 -970.202)"/><path class="j" d="M158.088,1017.548c-.2-.813-.359-1.635-.487-2.463a.7.7,0,0,0-1.4.083,11.115,11.115,0,0,0,.377,2.9C156.832,1019.06,158.333,1018.539,158.088,1017.548Z" transform="translate(-140.836 -984.94)"/><path class="j" d="M154.495,1031.958c-.643-1.016-1.111-2.109-1.717-3.139-.429-.73-1.358-.1-1.219.6a10.327,10.327,0,0,0,1.6,3.428A.8.8,0,0,0,154.495,1031.958Z" transform="translate(-138.074 -993.278)"/><path class="j" d="M169.477,1004.945a.744.744,0,0,0-1.485.088,12.62,12.62,0,0,0,.191,2.595.831.831,0,0,0,.852.757.812.812,0,0,0,.757-.852C169.653,1006.673,169.548,1005.812,169.477,1004.945Z" transform="translate(-147.834 -978.897)"/><path class="j" d="M189.117,984.356c-.173-.85-1.375-.473-1.4.274a33.558,33.558,0,0,0,.245,4.1.82.82,0,0,0,1.636-.1A35.214,35.214,0,0,0,189.117,984.356Z" transform="translate(-159.543 -966.787)"/><path class="j" d="M197.571,998.219c-.034-.719-1.191-.843-1.293-.1a12.332,12.332,0,0,0,0,2.983c.1.937,1.571.852,1.465-.087S197.615,999.155,197.571,998.219Z" transform="translate(-164.575 -974.948)"/><path class="j" d="M190.562,1009.031a.678.678,0,0,0-1.313.257,26.281,26.281,0,0,1-.076,3.7c-.137,1.008,1.374,1.354,1.563.333A8.436,8.436,0,0,0,190.562,1009.031Z" transform="translate(-160.407 -981.46)"/><path class="j" d="M172.483,1028.829a20.2,20.2,0,0,1-.947-2.826c-.191-.707-1.273-.46-1.239.242a8.7,8.7,0,0,0,.758,3.07C171.44,1030.2,172.873,1029.721,172.483,1028.829Z" transform="translate(-149.205 -991.547)"/><path class="j" d="M177.994,992.556a.653.653,0,0,0-1.247.073,12.021,12.021,0,0,0,.033,3.277.786.786,0,0,0,1.568-.092A12.032,12.032,0,0,0,177.994,992.556Z" transform="translate(-152.969 -971.691)"/><path class="j" d="M183.138,1027.65c-.306-.7-1.564-.6-1.427.279.129.83.339,1.651.483,2.48a.8.8,0,0,0,.823.731.786.786,0,0,0,.731-.823A9.02,9.02,0,0,0,183.138,1027.65Z" transform="translate(-155.976 -992.503)"/><path class="e" d="M210.317,1035.4c-3.362-.3-7.13-.926-8.253-2.225-1.367-1.581,4.121-2.2,8.347-2.448A33.831,33.831,0,0,1,210.317,1035.4Z" transform="translate(-167.938 -994.603)"/><path class="e" d="M212.083,1016.787c-2.73-.233-5.819-.72-6.733-1.74-1.055-1.178,2.942-1.672,6.272-1.881.144,1.126.288,2.269.438,3.421C212.069,1016.654,212.078,1016.722,212.083,1016.787Z" transform="translate(-169.913 -984.178)"/><path class="e" d="M213.021,1049.138a22.022,22.022,0,0,1-.932,3.31c-2.18-.608-4.253-1.4-4.861-2.331C206.42,1048.886,209.859,1048.895,213.021,1049.138Z" transform="translate(-171.059 -1005.456)"/><path class="e" d="M127.679,1035.975c-1.22,1.378-5.566,1.978-9.122,2.24a33.378,33.378,0,0,1-.135-4.676C122.712,1033.742,129.146,1034.318,127.679,1035.975Z" transform="translate(-118.395 -996.273)"/><path class="e" d="M126.755,1018.278c-1.026,1.117-4.785,1.578-7.709,1.769q.123-1.177.312-2.424c.061-.411.123-.823.188-1.232C123,1016.558,127.913,1017.017,126.755,1018.278Z" transform="translate(-118.781 -986.093)"/><path class="e" d="M126.508,1052.586c-.679,1.014-3.18,1.861-5.625,2.475a20.194,20.194,0,0,1-1.02-3.359C123.219,1051.405,127.39,1051.276,126.508,1052.586Z" transform="translate(-119.266 -1006.938)"/><path class="f" d="M141.832,1007.106c-8.793,0-16.8-2.442-20.12-10.656a20.181,20.181,0,0,1-1.02-3.359,26.292,26.292,0,0,1-.435-2.821,33.383,33.383,0,0,1-.135-4.676c.035-1.055.111-2.157.238-3.312q.124-1.177.312-2.425c.062-.412.124-.823.188-1.231,1.283-8.379,2.645-15.868,5.54-21.3-4.108,5.5-5.73,14.132-7.241,24-.065.409-.126.82-.188,1.232q-.19,1.247-.312,2.424c-.126,1.155-.2,2.257-.238,3.312a33.378,33.378,0,0,0,.135,4.676,26.34,26.34,0,0,0,.435,2.821,20.189,20.189,0,0,0,1.02,3.359c3.315,8.214,11.327,10.656,20.12,10.656,8.138,0,14.968-3,18.4-9.736C154.79,1004.915,148.788,1007.106,141.832,1007.106Z" transform="translate(-118.395 -951.028)"/><path class="h" d="M162,994.931c-3.731,3.464-8.961,5.054-14.885,5.054-8.793,0-16.8-2.442-20.12-10.657a20.194,20.194,0,0,1-1.02-3.359,26.408,26.408,0,0,1-.435-2.821,33.377,33.377,0,0,1-.135-4.676c.035-1.055.112-2.157.238-3.312q.124-1.177.312-2.425c.062-.411.124-.823.188-1.231,1.1-7.219,2.27-13.777,4.422-18.93a16.5,16.5,0,0,0-1.684,1.93c-2.895,5.434-4.257,12.923-5.54,21.3-.065.408-.126.82-.188,1.231q-.19,1.247-.312,2.425c-.126,1.155-.2,2.257-.238,3.312a33.386,33.386,0,0,0,.135,4.676,26.3,26.3,0,0,0,.435,2.821,20.17,20.17,0,0,0,1.02,3.359c3.315,8.214,11.326,10.656,20.12,10.656,6.956,0,12.958-2.191,16.7-7.035a19.024,19.024,0,0,0,.9-2.052C161.943,995.112,161.972,995.02,162,994.931Z" transform="translate(-120.88 -948.208)"/><path class="j" d="M151.455,985.085c-.2-.409-.75-.314-1.018-.071a1.772,1.772,0,0,0-.4,1c-.074.329-.131.658-.188.99a.765.765,0,0,0,1.5.319c.072-.352.14-.7.193-1.058A1.76,1.76,0,0,0,151.455,985.085Z" transform="translate(-137.06 -967.342)"/></g><path class="g" d="M159.1,1051.388c.7-2.3-4.111-1.629-9.641-3.317s-9.685-5.092-10.386-2.8,3.214,5.525,8.745,7.213S158.4,1053.684,159.1,1051.388Z" transform="translate(-97.452 -946.02)"/><g transform="translate(39.552 65.691)"><path class="d" d="M146.547,964.579l-5.462-.776-1.564,9.539a30.551,30.551,0,0,0,2.572,2.748,32.163,32.163,0,0,0,3.2,2.686q.618.452,1.28.879a19.924,19.924,0,0,0,3.205,1.687,14.176,14.176,0,0,0,2.569.791,6.637,6.637,0,0,0,1.868.112l-.971-7.924a1.819,1.819,0,0,1-.377-.135C150.672,973.1,146.547,964.579,146.547,964.579Z" transform="translate(-137.316 -963.803)"/><path class="e" d="M151.677,986.738c.851.886-.619,3.157-2.631,5.508a32.185,32.185,0,0,1-3.2-2.687C148.426,987.417,150.844,985.871,151.677,986.738Z" transform="translate(-141.073 -977.272)"/><path class="e" d="M161.832,990.58c.959.6-.2,3.556-1.761,6.608a19.91,19.91,0,0,1-3.205-1.687C158.878,992.492,160.914,990,161.832,990.58Z" transform="translate(-147.613 -979.648)"/><path class="h" d="M135.848,982.27l-1.753-.315s3.168,3.374,4.777,4.911a32.19,32.19,0,0,0,3.2,2.686q.618.452,1.28.879a19.919,19.919,0,0,0,3.205,1.687,14.182,14.182,0,0,0,2.569.791,6.637,6.637,0,0,0,1.868.112l-.336-2.746C144.8,991.52,139.431,986.895,135.848,982.27Z" transform="translate(-134.095 -974.579)"/></g><g transform="translate(84.294 63.457)"><path class="d" d="M253.814,965.547s4.633-1.851,3.93-3.526-3.054-.589-3.054-.589,1.174-2.02-.26-2.932-2.657,1.686-2.657,1.686a1.548,1.548,0,0,0-1.845-1.685c-1.963.21-.612,3.942-.612,3.942s-2.164-1.536-2.954-.707,2.109,3.129,2.109,3.129-2.02,4.135-4.273,4.215l3.1,7.356C252.771,974.378,253.814,965.547,253.814,965.547Z" transform="translate(-244.197 -958.305)"/><path class="h" d="M257.451,958.9c.136,5.669-2.109,11.167-6.9,14.5a11.964,11.964,0,0,1-1.367.844l1.076,2.549c5.47-2.059,6.513-10.89,6.513-10.89s4.633-1.851,3.93-3.526-3.054-.589-3.054-.589S258.785,959.828,257.451,958.9Z" transform="translate(-247.16 -958.657)"/></g><path class="k" d="M160.81,1029.781c-.216-1.911-.374-3.1-.374-3.1s-11.132,1.672-18.162,1.888c-11.689.36-24.456-2.7-24.456-2.7s-.182,1.488-.389,3.582C131.159,1034.481,146.627,1033.991,160.81,1029.781Z" transform="translate(-84.648 -934.961)"/><path class="k" d="M116.5,1082.531a31.79,31.79,0,0,0,9.351,3.642c5.44,1.169,9.036,1.393,9.036,1.169,0-.1.062-.885.13-1.731-6.329-.457-12.907-1.806-18.6-5.041C116.468,1081.771,116.5,1082.531,116.5,1082.531Z" transform="translate(-84.052 -967.43)"/><path class="l" d="M161.432,1054.542a83.2,83.2,0,0,1-20.21,3.486l-.137-1.927s-2.2.18-3.508.134-2.652-.088-2.652-.088-.1,1.159-.183,2.226c-6.332-.457-12.907-1.807-18.6-5.043-.071-2.025-.173-5.307-.187-8.364,0-.236,0-.469,0-.7v-.035c0-2.877.32-6.751.6-9.547a58.784,58.784,0,0,0,11.681,2.933c.257.039.514.074.771.109a70.9,70.9,0,0,0,20.562-.363c.275-.042.549-.085.824-.13a81.959,81.959,0,0,0,9.544-2.226c.183,1.623.408,3.771.616,6.166.074.863.152,1.859.226,2.919.017.243.035.49.053.737C161.073,1048.291,161.3,1052.25,161.432,1054.542Z" transform="translate(-83.773 -940.192)"/><path class="k" d="M178.134,1087.032l.132,1.851s2.967.45,9.216-.584a63.128,63.128,0,0,0,10.969-2.833s-.04-.741-.106-1.921A83.02,83.02,0,0,1,178.134,1087.032Z" transform="translate(-120.686 -969.196)"/><g transform="translate(9.751)"><g transform="translate(0 9.804)"><path class="d" d="M65.221,846.416c6.1,4.514,11.513,2.049,15.1-2.508s2.565-10.953-1.431-15.071c-4.066-4.19-12.1-2.951-15.687,1.607A11.216,11.216,0,0,0,65.221,846.416Z" transform="translate(-60.757 -826.274)"/><path class="e" d="M77.187,852.883c3.906,2.891,7.374,1.312,9.671-1.607s1.643-7.015-.917-9.653c-2.6-2.684-7.752-1.89-10.048,1.03A7.184,7.184,0,0,0,77.187,852.883Z" transform="translate(-68.813 -834.411)"/><path class="h" d="M86.609,842.425a5.115,5.115,0,0,0-1.569-1.092,21.825,21.825,0,0,1-9.587,9.209,6.946,6.946,0,0,0,2.4,3.143c3.906,2.891,7.374,1.313,9.671-1.607S89.169,845.063,86.609,842.425Z" transform="translate(-69.482 -835.214)"/><path class="h" d="M82.494,839.337a10.191,10.191,0,0,1-2.175,5.714c-3.585,4.557-9,7.022-15.1,2.509A11.216,11.216,0,0,1,63.2,831.589,10.924,10.924,0,0,1,68,828.2a9.539,9.539,0,0,0-3,2.471,10.3,10.3,0,0,0,1.855,14.664c5.6,4.143,10.57,1.88,13.861-2.3A9.35,9.35,0,0,0,82.494,839.337Z" transform="translate(-60.757 -827.419)"/></g><g transform="translate(44.791)"><path class="d" d="M190.929,819.477c-4.245,6.288-10.172,5.769-15.071,2.667s-6.069-9.471-3.674-14.686c2.438-5.306,10.427-6.816,15.326-3.713A11.216,11.216,0,0,1,190.929,819.477Z" transform="translate(-170.983 -802.147)"/><path class="e" d="M190.962,827.909c-2.719,4.028-6.515,3.7-9.653,1.708s-3.888-6.067-2.353-9.407c1.561-3.4,6.679-4.365,9.816-2.378A7.184,7.184,0,0,1,190.962,827.909Z" transform="translate(-175.259 -810.851)"/><path class="h" d="M178.955,822.912a5.122,5.122,0,0,1,1.115-1.552,21.826,21.826,0,0,0,12.108,5.487,6.95,6.95,0,0,1-1.217,3.764c-2.719,4.027-6.515,3.7-9.653,1.708S177.421,826.251,178.955,822.912Z" transform="translate(-175.259 -813.552)"/><path class="h" d="M173.246,817.487a10.188,10.188,0,0,0,3.956,4.662c4.9,3.1,10.825,3.621,15.069-2.666a11.215,11.215,0,0,0-3.416-15.732,10.925,10.925,0,0,0-5.653-1.594,9.541,9.541,0,0,1,3.648,1.332,10.3,10.3,0,0,1,3.139,14.444c-3.9,5.773-9.339,5.3-13.837,2.449A9.347,9.347,0,0,1,173.246,817.487Z" transform="translate(-172.326 -802.153)"/></g><path class="d" d="M153.725,865.055c-.011.239-.024.479-.046.715a24.907,24.907,0,0,1-.93,5.2,20.628,20.628,0,0,1-1.859,4.406,20.011,20.011,0,0,1-2.507,3.5c-6.737,7.557-19.154,10.427-33.6,10.427-12.808,0-23.933-2.25-30.729-8.029a19.859,19.859,0,0,1-3.162-3.37,18.985,18.985,0,0,1-2.5-4.627,21.988,21.988,0,0,1-1.211-5.184,27.339,27.339,0,0,1-.165-3.036c0-13.9,7.283-30.483,22.175-37.674q1.252-.608,2.574-1.12c.18-.074.359-.141.539-.208.387-.144.782-.278,1.18-.408a36.3,36.3,0,0,1,5.807-1.4c.4-.064.8-.123,1.2-.173q.792-.1,1.606-.169c.377-.032.754-.06,1.137-.081h0c.507-.032,1.018-.053,1.539-.063a41.4,41.4,0,0,1,4.67.155c.37.032.74.071,1.1.109.4.049.792.1,1.183.158.313.046.623.1.933.148a35.627,35.627,0,0,1,6.057,1.578c.271.1.539.193.807.3.461.176.912.359,1.359.553.218.1.433.19.648.292C147.295,834.265,154.4,851.863,153.725,865.055Z" transform="translate(-70.412 -814.971)"/><path class="i" d="M165.649,827.053c-.152.232-.306.475-.462.729a64.761,64.761,0,0,0-3.243,6,83.812,83.812,0,0,0-3.627,8.783c-1.662,4.824-4.462,14.047-5.6,17.83-.06.2-.113.38-.162.546v0c-.159.518-.268.877-.313,1.035v0c-.017.06-.028.091-.028.091h-6.1s-.106-.588-.313-1.617a177.636,177.636,0,0,0-4.589-17.992,93.848,93.848,0,0,0-6.737-15.566q.692-.333,1.405-.641c.56-.243,1.127-.472,1.708-.687l.011.071a36.3,36.3,0,0,1,5.807-1.4c.4-.064.8-.123,1.2-.173q.792-.1,1.606-.169c.377-.032.754-.06,1.137-.081h0c.507-.032,1.018-.053,1.539-.063a41.4,41.4,0,0,1,4.67.155c.37.032.74.071,1.1.109.4.049.792.1,1.183.158.313.046.623.1.933.148a35.626,35.626,0,0,1,6.057,1.578c.271.1.539.193.807.3.461.176.912.359,1.359.553C165.22,826.856,165.434,826.951,165.649,827.053Z" transform="translate(-104.515 -814.971)"/><g transform="translate(37.309 56.073)"><path class="m" d="M152.691,942.434a4.882,4.882,0,0,0,7.94-1.745l-.806.105c1.572,2.839,5.96,5.07,8.5,2.04.362-.432-.259-1.059-.623-.623-2.161,2.582-5.8.509-7.111-1.862a.446.446,0,0,0-.806.105,4,4,0,0,1-6.467,1.357c-.387-.417-1.009.208-.623.623Z" transform="translate(-152.569 -940.135)"/></g><g transform="translate(44.454 50.018)"><path class="m" d="M170.154,925.66q.025,3.033.05,6.066a.441.441,0,0,0,.882,0q-.025-3.033-.05-6.066a.441.441,0,0,0-.882,0Z" transform="translate(-170.154 -925.235)"/></g><path class="e" d="M156.405,915.627c0,1.645,2.708,4.075,6,4.075s5.928-2.43,5.928-4.075-2.671-2.978-5.965-2.978S156.405,913.982,156.405,915.627Z" transform="translate(-117.538 -867.746)"/><path class="e" d="M191.875,929.253a.751.751,0,1,0,.751-.775A.763.763,0,0,0,191.875,929.253Z" transform="translate(-138.594 -877.142)"/><path class="e" d="M135.494,940.456a.751.751,0,1,0,.751-.775A.763.763,0,0,0,135.494,940.456Z" transform="translate(-105.124 -883.793)"/><path class="e" d="M183.319,937.657a.526.526,0,1,0,.525-.543A.534.534,0,0,0,183.319,937.657Z" transform="translate(-133.515 -882.269)"/><ellipse class="e" cx="0.525" cy="0.543" rx="0.525" ry="0.543" transform="translate(33.672 51.173)"/><path class="e" d="M197.415,942.777a.526.526,0,1,0,.525-.542A.534.534,0,0,0,197.415,942.777Z" transform="translate(-141.883 -885.309)"/><path class="e" d="M151.867,939.454a.526.526,0,1,0,.525-.543A.534.534,0,0,0,151.867,939.454Z" transform="translate(-114.844 -883.336)"/><path class="j" d="M142.6,838.725a19.478,19.478,0,0,0-1.445-3.241c-.433-.776-1.49-.094-1.16.678.416.973.794,1.968,1.157,2.962C141.474,840.021,142.908,839.648,142.6,838.725Z" transform="translate(-107.756 -821.734)"/><path class="j" d="M147.888,839.979a20.564,20.564,0,0,0-.962-3.044.7.7,0,0,0-.877-.287.716.716,0,0,0-.407.829,19.358,19.358,0,0,0,.745,2.917A.779.779,0,0,0,147.888,839.979Z" transform="translate(-111.141 -822.597)"/><path class="j" d="M179.706,844.311a.747.747,0,0,0-1.473.086,14.177,14.177,0,0,1-.328,3.3c-.216.966,1.215,1.523,1.487.526A10.622,10.622,0,0,0,179.706,844.311Z" transform="translate(-130.288 -826.829)"/><path class="j" d="M157.977,866.813a17.873,17.873,0,0,0-.869-3.334c-.277-.637-1.263-.284-1.258.341a18.014,18.014,0,0,0,.586,3.418C156.645,868.243,158.2,867.819,157.977,866.813Z" transform="translate(-117.208 -838.357)"/><path class="j" d="M173.66,881.133c-.207-.844-1.537-.583-1.486.269a6.748,6.748,0,0,1-.06,1.536.834.834,0,0,0,.618.975.825.825,0,0,0,.975-.618A4.987,4.987,0,0,0,173.66,881.133Z" transform="translate(-126.856 -848.729)"/><path class="j" d="M161.253,883.115a.723.723,0,0,0-1.414.191,21.719,21.719,0,0,0,.232,2.8.813.813,0,0,0,.785.786.791.791,0,0,0,.786-.786A23.441,23.441,0,0,0,161.253,883.115Z" transform="translate(-119.576 -849.908)"/><path class="j" d="M166.832,900.753c-.095-.941-1.513-.986-1.5,0,.009.8.014,1.605.084,2.4.088,1.012,1.632,1.048,1.6,0C167,902.353,166.913,901.553,166.832,900.753Z" transform="translate(-122.836 -860.254)"/><path class="j" d="M182.556,869.507a11,11,0,0,0-.844,3.479c-.082,1.037,1.522,1.025,1.612,0a15.14,15.14,0,0,1,.573-2.914C184.123,869.3,182.886,868.728,182.556,869.507Z" transform="translate(-132.559 -841.914)"/><path class="j" d="M188.251,858.28c-.265.884-.48,1.778-.684,2.678-.223.985,1.3,1.4,1.514.418.2-.9.382-1.808.518-2.724A.7.7,0,0,0,188.251,858.28Z" transform="translate(-136.024 -835.172)"/><path class="j" d="M176.166,900.432a9.706,9.706,0,0,0-.76,3.044.841.841,0,0,0,.568,1,.818.818,0,0,0,1-.568,23.832,23.832,0,0,0,.488-3.125A.7.7,0,0,0,176.166,900.432Z" transform="translate(-128.81 -860.292)"/><path class="e" d="M147.3,838.363c-1.592-.148-2.775-2.441-3.62-5.159-.338-1.088-.623-2.243-.863-3.36-.292-1.374-.51-2.687-.662-3.725a36.336,36.336,0,0,1,5.807-1.4c.4-.063.8-.123,1.2-.173C149.678,829.3,150.308,838.644,147.3,838.363Z" transform="translate(-109.079 -815.445)"/><path class="e" d="M193.2,827.057c-.113.247-.232.5-.356.757a51.19,51.19,0,0,1-3.138,5.705c-1.585,2.4-3.226,4.032-4.448,3.159-1.384-.99-1.145-3.842-.4-6.814.275-1.12.627-2.254.99-3.314.162-.475.324-.933.486-1.37a35.633,35.633,0,0,1,6.057,1.578C192.664,826.853,192.932,826.951,193.2,827.057Z" transform="translate(-134.073 -815.82)"/><path class="e" d="M172.976,824.025c-.25,2.25-.616,5.117-1.091,7.92-.285,1.687-.613,3.353-.979,4.846-.884,3.589-2,6.191-3.356,5.751-2.782-.912-2.356-12.269-1.888-18.717h0c.507-.032,1.018-.053,1.539-.063a41.4,41.4,0,0,1,4.67.155C172.244,823.947,172.613,823.986,172.976,824.025Z" transform="translate(-122.829 -814.971)"/><path class="e" d="M91.821,936.335c-.153,2.513-8.979,2.069-13.178,1.713a21.69,21.69,0,0,1-1.211-5.184C82.152,933.079,91.974,933.825,91.821,936.335Z" transform="translate(-70.656 -879.746)"/><path class="e" d="M89.714,958.807a19.937,19.937,0,0,1-3.162-3.371c3.73-.737,9.845-1.731,10.533-.49C97.629,955.924,93.553,957.537,89.714,958.807Z" transform="translate(-76.07 -892.505)"/><path class="e" d="M246.924,927.157a24.933,24.933,0,0,1-.931,5.2c-4.488.311-11.759.464-11.9-1.813C233.957,928.286,241.9,927.457,246.924,927.157Z" transform="translate(-163.657 -876.358)"/><path class="e" d="M244.285,949.4a20.054,20.054,0,0,1-2.507,3.5c-3.841-1.269-7.926-2.886-7.383-3.864C235.048,947.863,240.538,948.686,244.285,949.4Z" transform="translate(-163.807 -888.997)"/><g transform="translate(55.914 35.478)"><ellipse class="a" cx="9.342" cy="9.455" rx="9.342" ry="9.455"/><ellipse class="m" cx="7.6" cy="7.691" rx="7.6" ry="7.691" transform="translate(3.302 1.651)"/><path class="h" d="M221.68,901.205a7.6,7.6,0,1,1-7.6-7.691,7.448,7.448,0,0,1,3.071.656,6.384,6.384,0,0,0-1.89-.285,6.532,6.532,0,1,0,6.416,7.236C221.68,901.15,221.68,901.176,221.68,901.205Z" transform="translate(-203.18 -891.864)"/><circle class="a" cx="2.101" cy="2.101" r="2.101" transform="translate(10.58 2.476)"/><path class="a" d="M205.372,916.937a2.739,2.739,0,1,0,2.739-2.739A2.739,2.739,0,0,0,205.372,916.937Z" transform="translate(-202.521 -904.143)"/></g><path class="f" d="M162.408,921.5c-2.8,0-5.171-1.756-5.821-3.293a1.607,1.607,0,0,0-.182.718c0,1.645,2.708,4.075,6,4.075s5.928-2.43,5.928-4.075a1.607,1.607,0,0,0-.18-.714A6.442,6.442,0,0,1,162.408,921.5Z" transform="translate(-117.538 -871.047)"/><path class="h" d="M162.674,919.581a6.934,6.934,0,0,1-5.458-2.65,2.258,2.258,0,0,0-.363.52c.649,1.537,3.02,3.293,5.821,3.293a6.442,6.442,0,0,0,5.748-3.288,2.244,2.244,0,0,0-.358-.517A6.773,6.773,0,0,1,162.674,919.581Z" transform="translate(-117.804 -870.287)"/><path class="g" d="M163.606,914.807c0,.58,1.462,1.051,3.264,1.051s3.264-.47,3.264-1.051-1.461-1.05-3.264-1.05S163.606,914.227,163.606,914.807Z" transform="translate(-121.812 -868.403)"/><path class="f" d="M87.357,891.094a19.945,19.945,0,0,1-3.162-3.371,18.892,18.892,0,0,1-2.5-4.629,21.7,21.7,0,0,1-1.211-5.184,26.6,26.6,0,0,1-.167-3.036,44.934,44.934,0,0,1,10.852-29.019c-9.488,8.372-14.154,21.2-14.154,32.321a26.689,26.689,0,0,0,.167,3.036A21.691,21.691,0,0,0,78.4,886.4a18.886,18.886,0,0,0,2.5,4.629,19.929,19.929,0,0,0,3.162,3.371c6.8,5.778,17.922,8.026,30.729,8.026,14.442,0,26.862-2.868,33.6-10.424q.371-.415.717-.85c-7.078,5.731-18.255,7.972-31.013,7.972C105.279,899.12,94.155,896.872,87.357,891.094Z" transform="translate(-70.411 -828.094)"/><path class="h" d="M126.662,891.929c-12.808,0-23.932-2.248-30.729-8.026a19.934,19.934,0,0,1-3.162-3.371,18.889,18.889,0,0,1-2.5-4.629,21.674,21.674,0,0,1-1.211-5.184,26.592,26.592,0,0,1-.167-3.036,44.911,44.911,0,0,1,10.958-29.139A35.883,35.883,0,0,0,96,841.514a44.934,44.934,0,0,0-10.852,29.019,26.6,26.6,0,0,0,.167,3.036,21.7,21.7,0,0,0,1.211,5.184,18.894,18.894,0,0,0,2.5,4.629,19.949,19.949,0,0,0,3.162,3.371c6.8,5.778,17.922,8.026,30.729,8.026,12.758,0,23.935-2.241,31.013-7.972.153-.192.3-.39.446-.588C147.344,890.287,137.582,891.929,126.662,891.929Z" transform="translate(-75.235 -823.753)"/><path class="g" d="M184.009,829.346c-1.4,2.255,4.137,5.208,10.769,9.312s11.851,7.807,13.247,5.551-2.849-7.411-9.481-11.515S185.4,827.091,184.009,829.346Z" transform="translate(-133.795 -817.67)"/><path class="g" d="M90.737,826.482c-.323,1.565,2.695.619,5.822,1.264s5.179,2.638,5.5,1.073-1.95-3.357-5.077-4S91.06,824.917,90.737,826.482Z" transform="translate(-78.54 -815.467)"/><path class="m" d="M169.818,955.455c-.534.615-1.162,1.362-2.066,1.212-.871-.146-1.248-.9-1.586-1.613a.152.152,0,0,0-.034-.109l-.09-.116c-.194-.25-.539.03-.487.283a2.8,2.8,0,0,0,2.059,2.23c1.143.221,2-.6,2.691-1.4C170.591,955.608,170.109,955.12,169.818,955.455Z" transform="translate(-122.966 -892.727)"/><g transform="translate(23.864 40.043)"><path class="m" d="M120.673,906.279c.366-1.741,1.462-4.485,3.613-4.375,2.4.122,2.848,3.179,2.7,5.068-.063.782,1.157.778,1.219,0,.2-2.517-.663-5.894-3.6-6.256-2.916-.36-4.594,2.811-5.1,5.24-.161.765,1.014,1.092,1.176.324Z" transform="translate(-119.483 -900.687)"/></g><g transform="translate(7.863 7.552)"><path class="k" d="M147.24,834.89l-17.77,4.568c-8.632,1.208-19.622,4.243-30.729,7.9l-18.633,4.793s-.011-.377.025-1.046v0c.007-.127.014-.264.025-.412s.021-.285.035-.44c.447-4.824,3.036-17.675,17.879-24.929.352-.176.715-.345,1.081-.507a42.537,42.537,0,0,1,4.469-1.729c.345-.116.7-.229,1.057-.334.511-.155,1.032-.306,1.564-.447q2.208-.591,4.3-.944c.539-.1,1.074-.176,1.6-.247s1.011-.13,1.507-.176c.1-.014.2-.021.3-.028a37.578,37.578,0,0,1,20.757,3.842c1.148.578,2.215,1.194,3.208,1.821.13.081.257.162.384.243A35.623,35.623,0,0,1,147.24,834.89Z" transform="translate(-80.106 -820.732)"/></g><g transform="translate(31.378 9.572)"><path class="l" d="M139.059,825.935a.357.357,0,0,1-.345.275.314.314,0,0,1-.077-.011,4.451,4.451,0,0,0-.475-.084.352.352,0,0,1-.187-.078c.345-.116.7-.229,1.057-.334A.351.351,0,0,1,139.059,825.935Z" transform="translate(-137.974 -825.702)"/><g transform="translate(2.482 0.503)"><path class="l" d="M145.6,827.447c-.342-.173-.687-.334-1.022-.479a.352.352,0,1,0-.278.648c.32.137.651.292.979.461a.368.368,0,0,0,.158.035.351.351,0,0,0,.162-.666Zm2.866,1.771c-.306-.222-.616-.437-.923-.637a.352.352,0,0,0-.387.588c.3.194.6.4.9.62a.346.346,0,0,0,.208.067.355.355,0,0,0,.285-.148A.351.351,0,0,0,148.464,829.219Zm2.6,2.138-.19-.173c-.219-.2-.433-.391-.648-.574a.352.352,0,1,0-.458.536q.312.264.634.56l.183.165a.345.345,0,0,0,.24.1.36.36,0,0,0,.257-.113A.354.354,0,0,0,151.06,831.357Zm2.3,2.458c-.236-.289-.482-.574-.729-.853a.352.352,0,0,0-.525.469c.239.268.479.549.708.831a.35.35,0,0,0,.5.049A.352.352,0,0,0,153.355,833.815Zm1.965,2.725c-.2-.306-.4-.616-.62-.933a.353.353,0,0,0-.581.4c.215.306.415.612.605.912a.312.312,0,0,0,.169.134.271.271,0,0,0,.127.028.342.342,0,0,0,.19-.057.3.3,0,0,0,.13-.162A.334.334,0,0,0,155.321,836.54Zm1.645,2.927c-.155-.313-.324-.644-.514-.993a.351.351,0,0,0-.62.331c.187.345.352.669.5.975a.351.351,0,0,0,.317.194.341.341,0,0,0,.155-.035A.352.352,0,0,0,156.965,839.467Z" transform="translate(-144.083 -826.94)"/></g><g transform="translate(15.601 14.861)"><path class="l" d="M176.9,863.47a.352.352,0,0,1-.334-.239s-.059-.176-.178-.478a.352.352,0,1,1,.655-.257c.128.327.19.509.19.509a.352.352,0,0,1-.221.446A.341.341,0,0,1,176.9,863.47Z" transform="translate(-176.365 -862.272)"/></g></g><g transform="translate(14.164 11.635)"><g transform="translate(0 24.183)"><path class="l" d="M95.966,891.522h0a.352.352,0,0,1-.352-.353s0-.188.019-.544a.352.352,0,0,1,.7.037c-.017.328-.018.5-.018.509A.352.352,0,0,1,95.966,891.522Z" transform="translate(-95.614 -890.291)"/></g><g transform="translate(0.219 1.494)"><path class="l" d="M106.629,834.562a.351.351,0,0,0-.5,0c-.239.233-.489.486-.753.761a.35.35,0,0,0,.011.5.339.339,0,0,0,.243.1.346.346,0,0,0,.254-.106q.391-.407.74-.75A.351.351,0,0,0,106.629,834.562Zm-2.194,2.3a.355.355,0,0,0-.5.035c-.225.264-.454.539-.683.82a.35.35,0,0,0,.271.574.348.348,0,0,0,.275-.13c.226-.278.451-.546.673-.8A.352.352,0,0,0,104.435,836.865Zm-1.99,2.476a.355.355,0,0,0-.493.081c-.2.285-.409.581-.61.88a.355.355,0,0,0,.1.489.377.377,0,0,0,.2.06.352.352,0,0,0,.292-.159c.2-.293.4-.581.6-.859A.354.354,0,0,0,102.445,839.341Zm-1.754,2.652a.351.351,0,0,0-.479.13c-.176.31-.348.623-.514.944a.352.352,0,0,0,.148.476.394.394,0,0,0,.162.039.352.352,0,0,0,.313-.19c.162-.31.331-.616.5-.919A.353.353,0,0,0,100.692,841.992Zm-1.444,2.828a.354.354,0,0,0-.461.19c-.141.338-.271.676-.391,1a.354.354,0,0,0,.211.451.371.371,0,0,0,.119.021.347.347,0,0,0,.331-.232c.116-.317.243-.644.38-.972A.354.354,0,0,0,99.248,844.82Zm-1.071,2.994a.349.349,0,0,0-.436.236q-.158.523-.3,1.025a.35.35,0,0,0,.247.433.282.282,0,0,0,.091.014.354.354,0,0,0,.341-.257c.092-.331.187-.669.289-1.011A.353.353,0,0,0,98.177,847.814Zm-.834,3.067a.349.349,0,0,0-.423.264c-.085.359-.158.7-.229,1.042a.351.351,0,0,0,.275.416.479.479,0,0,0,.071.007.353.353,0,0,0,.345-.282c.067-.328.144-.673.226-1.025A.353.353,0,0,0,97.343,850.881Zm-.352,3.367a.339.339,0,0,0-.282-.254.349.349,0,0,0-.4.292c-.021.127-.039.25-.056.37-.035.243-.067.472-.1.69a.352.352,0,0,0,.3.394H96.5a.347.347,0,0,0,.349-.307c.042-.32.091-.666.148-1.039A.3.3,0,0,0,96.99,854.248Z" transform="translate(-96.153 -834.457)"/></g><g transform="translate(11.663)"><path class="l" d="M125.274,831.122s-.145.116-.395.331a.352.352,0,0,1-.5-.039.316.316,0,0,1-.067-.127c.352-.176.715-.345,1.081-.507A.349.349,0,0,1,125.274,831.122Z" transform="translate(-124.316 -830.78)"/></g></g><g transform="translate(38.298 7.719)"><path class="l" d="M156.6,821.358c-.525.07-1.06.151-1.6.247a.357.357,0,0,0,.236.1c.31.007.644.018,1,.032h.014a.355.355,0,0,0,.352-.338A.165.165,0,0,0,156.6,821.358Zm2.691-.137c-.3-.025-.6-.046-.887-.067l-.12-.011a.331.331,0,0,0-.176.039.349.349,0,0,0,.127.666c.324.021.659.046,1,.077h.032a.349.349,0,0,0,.348-.32A.354.354,0,0,0,159.293,821.22Zm3.018.342c-.338-.05-.673-.092-1-.134a.353.353,0,1,0-.085.7c.324.039.655.081.989.13.018,0,.032,0,.049,0a.352.352,0,0,0,.349-.3A.348.348,0,0,0,162.311,821.562Zm2.993.521c-.331-.07-.662-.137-.993-.2a.351.351,0,1,0-.13.69c.328.063.651.127.979.2a.457.457,0,0,0,.07.007.353.353,0,0,0,.074-.7Zm2.951.768c-.32-.1-.648-.2-.975-.289a.353.353,0,0,0-.19.68c.324.088.641.183.954.282a.364.364,0,0,0,.106.014.351.351,0,0,0,.106-.687Zm2.856,1.032c-.306-.12-.62-.239-.944-.359a.351.351,0,0,0-.243.659c.317.12.63.24.933.356a.325.325,0,0,0,.127.024.352.352,0,0,0,.127-.679Zm2.8,1.166c-.3-.13-.605-.267-.926-.4a.355.355,0,0,0-.461.187.35.35,0,0,0,.183.461c.317.137.623.271.916.4a.37.37,0,0,0,.144.032.353.353,0,0,0,.144-.676Zm2.733,1.328c-.211-.113-.433-.225-.662-.341-.078-.039-.158-.078-.239-.12a.351.351,0,0,0-.472.159.34.34,0,0,0-.031.219.356.356,0,0,0,.19.253q.465.232.887.454a.324.324,0,0,0,.162.042.353.353,0,0,0,.165-.666Zm2.634,1.529c-.261-.169-.549-.349-.866-.536a.351.351,0,1,0-.359.6c.306.187.588.363.842.525a.352.352,0,1,0,.384-.591Z" transform="translate(-155.003 -821.143)"/><g transform="translate(25.368 7.873)"><path class="l" d="M218.183,841.564a.351.351,0,0,1-.244-.1c-.007-.006-.127-.12-.378-.322A.352.352,0,1,1,218,840.6c.283.228.418.357.424.363a.352.352,0,0,1-.244.606Z" transform="translate(-217.43 -840.517)"/></g></g><g class="n" transform="translate(7.863 10.016)"><path d="M138.292,830.414c-.127-.081-.254-.162-.384-.243-.993-.627-2.06-1.243-3.208-1.821a37.7,37.7,0,0,0-3.52-1.556c-14.686,7.919-30.814,15.048-47.358,15.347a30.619,30.619,0,0,0-3.629,11.709c-.014.155-.024.3-.035.44s-.018.285-.025.412v0c-.035.669-.025,1.046-.025,1.046l18.633-4.793c11.107-3.659,22.1-6.694,30.729-7.9l17.77-4.567A35.621,35.621,0,0,0,138.292,830.414Z" transform="translate(-80.106 -826.794)"/></g><g transform="translate(5.951 8.055)"><path class="l" d="M151.941,854.029s-.032-.152-.109-.426c-.014-.049-.028-.1-.042-.155a17.088,17.088,0,0,0-.8-2.1A21.9,21.9,0,0,0,140.851,840.9c-2.919-1.5-7.927-1.581-14.175-.708-8.631,1.208-19.622,4.244-30.729,7.9-6.564,2.166-13.164,4.546-19.341,6.9-.046.014-.088.032-.134.049-.549.211-1.377-.838-.958-2.159s1.131-1.4,1.62-1.736c.028-.021.12-.078.264-.166.764-.465,3.1-1.835,6.533-3.743.239-.137.486-.271.74-.408,9.695-5.367,27.2-14.477,43.312-20.052.25-.088.5-.173.743-.257,1.067-.363,2.131-.711,3.18-1.039,11.269-3.525,21.45-4.955,27.229-1.669C177.476,834.248,151.941,854.029,151.941,854.029Z" transform="translate(-75.401 -821.969)"/></g><g transform="translate(7.51 11.706)"><path class="k" d="M151.064,830.982c-.345-.014-.7-.025-1.057-.028a.176.176,0,0,0,0,.352c.356,0,.7.014,1.046.029h.007a.176.176,0,0,0,.176-.169A.177.177,0,0,0,151.064,830.982Zm-3.17.017c-.349.018-.7.042-1.053.071a.175.175,0,0,0,.011.349h.014c.352-.025.7-.05,1.046-.067a.172.172,0,0,0,.166-.183A.169.169,0,0,0,147.894,831Zm6.328.328c-.341-.063-.694-.116-1.046-.165a.183.183,0,0,0-.2.155.18.18,0,0,0,.152.2c.352.046.7.1,1.032.162h.032a.171.171,0,0,0,.173-.141A.178.178,0,0,0,154.222,831.327Zm-9.484-.049q-.517.063-1.046.137a.175.175,0,0,0,.025.349h.025c.349-.049.7-.1,1.039-.137a.174.174,0,0,0,.155-.194A.18.18,0,0,0,144.739,831.278Zm-3.127.468c-.345.06-.69.123-1.039.186a.178.178,0,0,0,.032.352l.035,0c.345-.067.69-.13,1.032-.19a.176.176,0,0,0,.141-.2A.172.172,0,0,0,141.612,831.746Zm15.671.465c-.32-.134-.655-.257-1-.37a.177.177,0,1,0-.106.338c.334.106.662.229.972.356a.153.153,0,0,0,.067.014.176.176,0,0,0,.067-.338Zm-18.566.282a.174.174,0,0,0-.208-.134c-.342.074-.684.152-1.029.229a.182.182,0,0,0-.088.053.164.164,0,0,0-.046.159.18.18,0,0,0,.172.137.141.141,0,0,0,.039,0c.074-.017.144-.035.218-.049.271-.063.539-.123.807-.183A.173.173,0,0,0,138.717,832.493Zm-3.071.722a.176.176,0,0,0-.215-.127c-.338.085-.676.173-1.018.264a.175.175,0,0,0-.127.215.177.177,0,0,0,.173.13.172.172,0,0,0,.042,0c.341-.091.679-.18,1.018-.264A.176.176,0,0,0,135.646,833.215Zm24.422.539c-.282-.193-.581-.383-.894-.57a.176.176,0,0,0-.18.3c.306.183.6.37.877.556a.175.175,0,0,0,.246-.046A.176.176,0,0,0,160.068,833.754Zm-27.468.278a.174.174,0,0,0-.218-.12c-.338.1-.673.194-1.011.292a.176.176,0,0,0,.05.345.224.224,0,0,0,.049-.007c.338-.1.673-.2,1.007-.292A.178.178,0,0,0,132.6,834.032Zm-3.025.9a.178.178,0,0,0-.222-.116l-1,.317a.177.177,0,0,0,.053.345.146.146,0,0,0,.053-.011c.334-.106.669-.211,1-.313A.182.182,0,0,0,129.575,834.93Zm32.93.877c-.236-.254-.489-.5-.757-.747a.177.177,0,1,0-.239.261c.26.236.51.479.74.725a.169.169,0,0,0,.127.056.165.165,0,0,0,.119-.046A.174.174,0,0,0,162.505,835.807Zm-35.938.088a.172.172,0,0,0-.222-.109c-.331.109-.666.222-1,.334a.178.178,0,0,0-.109.225.173.173,0,0,0,.165.12.153.153,0,0,0,.056-.011c.331-.113.666-.225,1-.334A.179.179,0,0,0,126.567,835.895Zm-2.983,1.025a.178.178,0,0,0-.225-.106c-.331.116-.662.236-.993.356a.176.176,0,0,0,.06.342.185.185,0,0,0,.06-.01c.331-.12.659-.239.99-.356A.178.178,0,0,0,123.584,836.919ZM120.616,838a.177.177,0,0,0-.229-.1q-.491.179-.982.37a.176.176,0,0,0-.106.225.178.178,0,0,0,.165.113.206.206,0,0,0,.063-.011l.983-.37A.177.177,0,0,0,120.616,838Zm43.668.468a8.141,8.141,0,0,0-.493-.954.173.173,0,0,0-.239-.06.178.178,0,0,0-.063.243,7.465,7.465,0,0,1,.472.912.18.18,0,0,0,.162.106.154.154,0,0,0,.07-.014A.179.179,0,0,0,164.284,838.466Zm-46.623.655a.177.177,0,0,0-.229-.1c-.194.078-.391.155-.585.229l-.4.159a.144.144,0,0,0-.05.032.174.174,0,0,0,.113.306.213.213,0,0,0,.067-.011c.324-.13.652-.257.979-.384A.177.177,0,0,0,117.661,839.12Zm-2.941,1.162a.174.174,0,0,0-.229-.1c-.324.131-.648.264-.975.395a.182.182,0,0,0-.1.232.179.179,0,0,0,.162.109.143.143,0,0,0,.067-.014c.324-.134.648-.264.975-.395A.178.178,0,0,0,114.72,840.283Zm50.173.236a.178.178,0,0,0-.2-.144.173.173,0,0,0-.144.2,8.958,8.958,0,0,1,.1,1.025.175.175,0,0,0,.176.169h.007a.179.179,0,0,0,.169-.183A8.908,8.908,0,0,0,164.893,840.519Zm-53.088.965a.175.175,0,0,0-.232-.1l-.965.4a.175.175,0,0,0,.067.338.248.248,0,0,0,.07-.01c.321-.137.641-.275.965-.408A.173.173,0,0,0,111.8,841.484Zm-2.9,1.229a.178.178,0,0,0-.232-.091c-.324.141-.644.281-.968.419a.177.177,0,0,0-.088.232.171.171,0,0,0,.158.106.184.184,0,0,0,.074-.014c.321-.141.641-.278.965-.419A.177.177,0,0,0,108.9,842.713Zm-2.895,1.264a.177.177,0,0,0-.232-.088l-.961.429a.175.175,0,0,0,.07.334.176.176,0,0,0,.074-.014l.961-.43A.175.175,0,0,0,106.008,843.977Zm58.7-.465a.176.176,0,0,0-.2.141q-.09.5-.222,1.014a.174.174,0,0,0,.123.215.2.2,0,0,0,.046,0,.172.172,0,0,0,.169-.13c.1-.349.169-.7.229-1.039A.172.172,0,0,0,164.706,843.512Zm-61.579,1.758a.172.172,0,0,0-.232-.085l-.958.436a.177.177,0,0,0,.074.338.189.189,0,0,0,.074-.018l.955-.437A.175.175,0,0,0,103.127,845.269Zm-2.87,1.321a.175.175,0,0,0-.232-.085l-.954.447a.177.177,0,0,0-.084.232.182.182,0,0,0,.162.1.144.144,0,0,0,.074-.017l.95-.444A.177.177,0,0,0,100.257,846.59Zm63.572-.057a.175.175,0,0,0-.229.1c-.134.31-.278.626-.436.947a.173.173,0,0,0,.081.233.151.151,0,0,0,.078.021.184.184,0,0,0,.158-.1c.158-.324.306-.648.444-.965A.179.179,0,0,0,163.829,846.534Zm-66.428,1.4a.173.173,0,0,0-.232-.081l-.951.454a.177.177,0,0,0,.078.334.19.19,0,0,0,.074-.017l.951-.454A.176.176,0,0,0,97.4,847.935Zm-2.845,1.37a.177.177,0,0,0-.236-.081l-.944.461a.176.176,0,0,0-.081.236.174.174,0,0,0,.158.1.153.153,0,0,0,.078-.018l.944-.461A.176.176,0,0,0,94.556,849.3Zm67.837.036a.176.176,0,0,0-.243.056c-.183.3-.37.588-.567.877a.18.18,0,0,0,.049.247.162.162,0,0,0,.1.028.164.164,0,0,0,.144-.077c.2-.293.391-.588.574-.888A.176.176,0,0,0,162.393,849.34ZM91.724,850.7a.181.181,0,0,0-.239-.081l-.94.468a.176.176,0,0,0,.078.335.221.221,0,0,0,.081-.018l.94-.468A.178.178,0,0,0,91.724,850.7ZM88.9,852.112a.183.183,0,0,0-.239-.078l-.937.479a.176.176,0,0,0-.077.236.181.181,0,0,0,.158.1.154.154,0,0,0,.077-.018l.94-.475A.183.183,0,0,0,88.9,852.112Zm71.7-.173a.174.174,0,0,0-.246.032c-.215.278-.433.549-.655.82a.17.17,0,0,0,.025.246.161.161,0,0,0,.109.042.178.178,0,0,0,.137-.067c.226-.271.444-.546.662-.828A.174.174,0,0,0,160.6,851.939Zm-74.517,1.613a.177.177,0,0,0-.236-.078l-.937.486a.175.175,0,0,0-.074.236.169.169,0,0,0,.155.1.207.207,0,0,0,.081-.018l.937-.486A.175.175,0,0,0,86.087,853.552Zm72.492.814a.181.181,0,0,0-.25.011c-.236.264-.475.517-.712.771a.174.174,0,0,0,0,.247.189.189,0,0,0,.123.049.169.169,0,0,0,.127-.056c.24-.25.479-.511.718-.771A.177.177,0,0,0,158.578,854.366Zm-75.292.648a.176.176,0,0,0-.239-.074l-.93.493a.172.172,0,0,0-.074.236.176.176,0,0,0,.155.1.186.186,0,0,0,.085-.021l.93-.493A.175.175,0,0,0,83.287,855.014ZM80.5,856.5a.178.178,0,0,0-.239-.07c-.215.116-.423.226-.616.331-.106.06-.211.116-.31.172a.168.168,0,0,0-.07.236.172.172,0,0,0,.155.091.162.162,0,0,0,.081-.021c.039-.021.078-.042.12-.064v0c.254-.134.525-.282.806-.434A.176.176,0,0,0,80.5,856.5Zm75.891.141a.174.174,0,0,0-.247,0c-.257.25-.51.493-.761.725a.174.174,0,0,0-.007.247.164.164,0,0,0,.127.056.171.171,0,0,0,.12-.046c.25-.236.507-.479.764-.729A.174.174,0,0,0,156.388,856.641Zm-2.317,2.145,0,0c.014.056.028.106.042.155A.174.174,0,0,0,154.071,858.785Z" transform="translate(-79.238 -830.954)"/></g><g class="o" transform="translate(7.156 17.058)"><path d="M152.755,864.5a21.9,21.9,0,0,0-10.142-10.445c-2.919-1.5-7.927-1.581-14.175-.708-8.632,1.208-19.622,4.244-30.729,7.9-6.564,2.166-13.164,4.546-19.341,6.9,10.03-5.445,26.426-13.766,41.6-18.985.25-.088.5-.173.746-.257,1.071-.363,2.141-.712,3.2-1.039,11.333-3.525,21.9-5.476,27.381-1.669C161.7,853.429,158.689,859.813,152.755,864.5Z" transform="translate(-78.368 -844.124)"/></g></g><g transform="translate(33.599 95.778)"><path class="k" d="M139.564,1041.023a.179.179,0,0,0-.141-.1h-1.07a.176.176,0,0,0-.176.173.179.179,0,0,0,.176.18h1.057a.177.177,0,0,0,.176-.176A.163.163,0,0,0,139.564,1041.023Zm3-.183c-.349.018-.7.032-1.053.046a.175.175,0,0,0-.169.179.178.178,0,0,0,.176.173h.007c.352-.014.7-.028,1.057-.046a.176.176,0,0,0-.017-.352Zm-6.314.035c-.352-.014-.7-.028-1.049-.045a.172.172,0,0,0-.187.165.177.177,0,0,0,.166.183c.349.021.7.035,1.057.049h.007a.175.175,0,0,0,.176-.169A.177.177,0,0,0,136.25,1040.875Zm9.466-.246-1.05.085a.173.173,0,0,0-.162.187.177.177,0,0,0,.176.165h.011c.356-.028.708-.056,1.057-.088a.175.175,0,0,0-.032-.349Zm-12.618.053c-.352-.029-.7-.06-1.05-.1a.184.184,0,0,0-.19.159.175.175,0,0,0,.158.193c.345.036.7.067,1.053.1h.014a.174.174,0,0,0,.176-.162A.179.179,0,0,0,133.1,1040.682Zm15.759-.388c-.345.042-.694.085-1.046.124a.177.177,0,0,0-.155.193.178.178,0,0,0,.176.159.034.034,0,0,0,.018,0c.356-.039.7-.081,1.049-.123a.176.176,0,1,0-.042-.349Zm-18.9.057c-.356-.046-.7-.1-1.042-.144a.181.181,0,0,0-.2.148.176.176,0,0,0,.148.2c.345.049.694.1,1.05.144h.021a.175.175,0,0,0,.024-.349Zm22.024-.5c-.342.056-.687.109-1.039.162a.175.175,0,0,0,.025.348h.024c.356-.053.7-.109,1.046-.162a.177.177,0,1,0-.056-.349Zm-25.148.028c-.352-.063-.7-.127-1.035-.194a.176.176,0,0,0-.2.141.179.179,0,0,0,.141.208c.338.063.683.126,1.039.19a.1.1,0,0,0,.032,0,.174.174,0,0,0,.173-.144A.172.172,0,0,0,126.837,1039.875Zm28.465-.447a.173.173,0,0,0-.2-.137c-.338.067-.683.134-1.035.2a.176.176,0,0,0,.032.349.091.091,0,0,0,.032,0c.356-.063.7-.13,1.039-.2A.173.173,0,0,0,155.3,1039.429Zm-31.56-.177c-.352-.077-.694-.159-1.025-.239a.175.175,0,0,0-.211.131.172.172,0,0,0,.13.211c.331.081.673.162,1.028.243a.164.164,0,0,0,.039,0,.176.176,0,0,0,.039-.349Zm34.656-.493a.173.173,0,0,0-.211-.13c-.331.074-.673.155-1.029.232a.174.174,0,0,0-.134.208.176.176,0,0,0,.173.141.141.141,0,0,0,.039-.007c.356-.078.7-.155,1.032-.232A.175.175,0,0,0,158.4,1038.759Zm-37.716-.278-.067-.021c-.119-.032-.239-.067-.352-.1-.2-.056-.4-.116-.588-.173a.177.177,0,1,0-.1.338c.31.1.651.194,1.014.3a.228.228,0,0,0,.049.007.174.174,0,0,0,.169-.127A.177.177,0,0,0,120.681,1038.481Zm40.784-.507a.175.175,0,0,0-.215-.123c-.314.088-.655.176-1.018.271a.177.177,0,1,0,.088.342c.366-.1.707-.187,1.021-.271A.176.176,0,0,0,161.465,1037.974Z" transform="translate(-119.445 -1037.845)"/></g><g transform="translate(34.343 95.736)"><g transform="translate(0.054)"><path class="k" d="M121.6,1038.627a.176.176,0,0,1-.176-.176c0-.385-.009-.469-.011-.487a.168.168,0,0,1,.113-.215.184.184,0,0,1,.226.119,2.342,2.342,0,0,1,.025.582.176.176,0,0,1-.175.177Z" transform="translate(-121.409 -1037.741)"/></g><g transform="translate(0 2.675)"><path class="k" d="M121.99,1057.34a.177.177,0,0,0-.352.035c.039.37.074.729.109,1.067a.179.179,0,0,0,.176.159.025.025,0,0,0,.018,0,.175.175,0,0,0,.158-.194C122.064,1058.069,122.025,1057.71,121.99,1057.34Zm-.264-3.2a.176.176,0,0,0-.187-.166.18.18,0,0,0-.166.187c.025.356.05.715.078,1.074a.177.177,0,0,0,.176.162h.014a.178.178,0,0,0,.162-.19C121.775,1054.85,121.75,1054.491,121.726,1054.139Zm-.1-2.656v-.546a.18.18,0,0,0-.176-.18.176.176,0,0,0-.176.177v.549c0,.169,0,.345,0,.528a.179.179,0,0,0,.176.173h0a.177.177,0,0,0,.173-.18C121.627,1051.825,121.627,1051.652,121.627,1051.483Zm-.151-3.94a.176.176,0,0,0-.176.173l-.011,1.074a.176.176,0,0,0,.352,0l.011-1.075A.176.176,0,0,0,121.476,1047.543Zm.039-3.219a.19.19,0,0,0-.18.176l-.011,1.071a.177.177,0,0,0,.173.18h0a.176.176,0,0,0,.176-.173l.011-1.074A.177.177,0,0,0,121.514,1044.324Z" transform="translate(-121.275 -1044.324)"/></g><g transform="translate(0.713 18.726)"><path class="k" d="M123.27,1084.7a.176.176,0,0,1-.174-.154s-.024-.191-.065-.525a.176.176,0,0,1,.154-.2.18.18,0,0,1,.2.154c.04.332.065.521.065.521a.176.176,0,0,1-.152.2Z" transform="translate(-123.03 -1083.822)"/></g></g><g transform="translate(74.023 94.785)"><path class="k" d="M219.163,1036.275a.176.176,0,0,1-.174-.155c-.041-.336-.065-.521-.065-.521a.176.176,0,0,1,.349-.045s.024.187.064.524a.175.175,0,0,1-.154.2Z" transform="translate(-218.923 -1035.399)"/><g transform="translate(0.289 2.459)"><path class="k" d="M220.966,1056.212a.187.187,0,0,0-.18-.173.176.176,0,0,0-.173.176c.007.352.011.676.011.976a.178.178,0,0,0,.176.172h0a.172.172,0,0,0,.173-.176C220.976,1056.889,220.973,1056.561,220.966,1056.212Zm-.078-2.927a.176.176,0,1,0-.352.011c.011.338.024.662.032.975a.175.175,0,0,0,.176.169h.007a.173.173,0,0,0,.169-.179C220.913,1053.948,220.9,1053.62,220.888,1053.286Zm-.113-2.437c-.007-.162-.017-.328-.028-.49a.17.17,0,0,0-.187-.165.179.179,0,0,0-.165.187c.011.162.021.324.028.486l.025.486a.179.179,0,0,0,.176.166h.011a.173.173,0,0,0,.165-.183Zm-.232-3.413a.175.175,0,1,0-.349.028q.037.48.074.972a.176.176,0,0,0,.173.162h.014a.174.174,0,0,0,.162-.187C220.6,1048.084,220.568,1047.761,220.543,1047.436Zm-.257-2.916a.184.184,0,0,0-.193-.158.18.18,0,0,0-.158.194c.032.313.063.637.091.969a.174.174,0,0,0,.176.158h.014a.177.177,0,0,0,.162-.19C220.346,1045.161,220.318,1044.838,220.286,1044.521Zm-.3-2.912a.172.172,0,0,0-.194-.155.174.174,0,0,0-.155.193c.032.3.067.627.106.968a.172.172,0,0,0,.173.158.05.05,0,0,0,.021,0,.173.173,0,0,0,.155-.194C220.053,1042.235,220.018,1041.911,219.983,1041.608Z" transform="translate(-219.633 -1041.452)"/></g><g transform="translate(1.259 19.974)"><path class="k" d="M222.2,1085.431h-.006a.177.177,0,0,1-.17-.183s.007-.179.013-.523a.176.176,0,0,1,.176-.173h0a.176.176,0,0,1,.173.179c-.007.349-.013.53-.013.53A.176.176,0,0,1,222.2,1085.431Z" transform="translate(-222.02 -1084.552)"/></g></g><g transform="translate(53.578 98.862)"><path class="k" d="M168.75,1045.528a.166.166,0,0,1-.141-.1A.179.179,0,0,1,168.75,1045.528Z" transform="translate(-168.609 -1045.433)"/><g transform="translate(0.126 1.933)"><path class="k" d="M170.009,1063.5a.17.17,0,0,0-.183-.169.177.177,0,0,0-.169.183l.046,1.1a.18.18,0,0,0,.176.166h.011a.173.173,0,0,0,.165-.183Zm-.32-3.282h.06l.116-.007Zm.176,0h-.116l-.236.014.05,1.092a.175.175,0,0,0,.176.169h.007a.18.18,0,0,0,.169-.187Zm-.173-3.3a.173.173,0,0,0-.187-.166.179.179,0,0,0-.165.187l.063,1.1a.18.18,0,0,0,.176.166h.011a.174.174,0,0,0,.165-.187Zm-.2-3.286a.182.182,0,0,0-.187-.166.178.178,0,0,0-.165.19l.07,1.092a.172.172,0,0,0,.176.165h.011a.179.179,0,0,0,.165-.186Zm-.215-3.286a.177.177,0,0,0-.19-.162.175.175,0,0,0-.162.187l.071,1.1a.18.18,0,0,0,.176.165.026.026,0,0,0,.014,0,.172.172,0,0,0,.162-.187Z" transform="translate(-168.92 -1050.19)"/></g></g><path class="k" d="M209.934,1048.558c-4.42-1.092-8.16-4.036-11.262-7.466.275-.042.549-.085.824-.13,2.9,3.127,6.336,5.8,10.385,6.86C209.9,1048.065,209.917,1048.312,209.934,1048.558Z" transform="translate(-132.878 -943.917)"/><path class="k" d="M129.005,1042.016c-2.659,4.17-8.065,7.582-13.048,7.237,0-.236,0-.469,0-.7,4.634.356,9.674-2.8,12.28-6.649C128.491,1041.945,128.748,1041.98,129.005,1042.016Z" transform="translate(-83.773 -944.478)"/><path class="f" d="M115.977,1054.707c-.014.489-.023.964-.023,1.412v.035c0,.229,0,.461,0,.7.014,3.057.116,6.339.187,8.364,5.691,3.236,12.266,4.585,18.6,5.043.085-1.067.183-2.226.183-2.226s1.349.046,2.652.088c.167.006.35.008.54.008A43.737,43.737,0,0,1,115.977,1054.707Z" transform="translate(-83.773 -952.077)"/><path class="f" d="M178.021,1090.55q2.258-.126,4.519-.357-2.316-.262-4.6-.723Z" transform="translate(-120.573 -972.714)"/><path class="h" d="M161.353,1056.343c-15.887,3.366-34.029-3.247-45-15.31-.154,1.821-.287,3.793-.338,5.557a43.736,43.736,0,0,0,22.14,13.421c1.293,0,2.967-.141,2.967-.141l.06.847q2.277.461,4.6.723a79.392,79.392,0,0,0,15.691-3.13C161.434,1057.745,161.4,1057.078,161.353,1056.343Z" transform="translate(-83.807 -943.959)"/><path class="f" d="M117.533,1032.153q-.051.485-.1,1.031c13.731,5.023,29.2,4.533,43.382.323q-.058-.515-.11-.956C146.6,1036.388,131.328,1037.085,117.533,1032.153Z" transform="translate(-84.648 -938.688)"/><g transform="translate(64.233 48.307)"><path class="p" d="M246.333,923.778s-.2-2.226.337-2.563,2.608-.2,2.7.2a10.771,10.771,0,0,1,.18,2C249.48,923.441,246.333,923.778,246.333,923.778Z" transform="translate(-225.382 -921.025)"/><path class="h" d="M246.333,924.846s3.147-.337,3.214-.36a2.077,2.077,0,0,0-.009-.6,6.021,6.021,0,0,1-3.148-1.06A8.415,8.415,0,0,0,246.333,924.846Z" transform="translate(-225.383 -922.092)"/><path class="q" d="M223.125,931.22l-1.141,12.474a5.046,5.046,0,0,1-.267,1.226,4.979,4.979,0,0,1-4.582,3.3l-16.08.345a4.974,4.974,0,0,1-5.064-4.532l-1.141-12.819a5.35,5.35,0,0,1,.007-.979,4.979,4.979,0,0,1,4.948-4.437h18.361a4.967,4.967,0,0,1,4.958,5.426Z" transform="translate(-194.831 -923.856)"/><path class="p" d="M219.909,944.025c0,4.12,3.073,7.461,6.466,7.461s5.822-3.34,5.822-7.461-2.428-7.461-5.822-7.461S219.909,939.9,219.909,944.025Z" transform="translate(-209.718 -930.249)"/><path class="l" d="M224.061,946.7c0,3.26,2.432,5.9,5.116,5.9s4.607-2.643,4.607-5.9-1.922-5.9-4.607-5.9S224.061,943.443,224.061,946.7Z" transform="translate(-212.183 -932.764)"/><path class="p" d="M204.077,944.087c0,5.113-2.036,7.793-6.483,7.793a8.385,8.385,0,0,1-1.162-.078,4.945,4.945,0,0,1-.44-1.648l-.247-2.75-.134-1.518-.091-1.025-.116-1.31-.1-1.12-.134-1.489-.321-3.606a5.351,5.351,0,0,1,.007-.979,10.089,10.089,0,0,1,2.278-.243C201.583,936.114,204.077,938.974,204.077,944.087Z" transform="translate(-194.831 -929.982)"/><path class="p" d="M257.3,936.961l-.292,3.195-.13,1.419-.109,1.19-.113,1.24-.1,1.1-.13,1.426-.264,2.905a5.045,5.045,0,0,1-.267,1.226c-2.381-.93-3.493-3.43-3.493-7.378,0-4.426,1.711-7.166,4.814-7.818A5.016,5.016,0,0,1,257.3,936.961Z" transform="translate(-229.004 -929.597)"/><path class="f" d="M225.005,947.34a6.345,6.345,0,0,1,1.251-3.8,6.222,6.222,0,0,0-2.2,4.79c0,3.26,2.432,5.9,5.116,5.9a4.156,4.156,0,0,0,3.4-1.852,3.934,3.934,0,0,1-2.451.863C227.437,953.243,225.005,950.6,225.005,947.34Z" transform="translate(-212.183 -934.39)"/><path class="h" d="M232.4,951.748c-2.685,0-5.117-2.643-5.117-5.9a6.367,6.367,0,0,1,.993-3.424,5.217,5.217,0,0,0-.641.454,6.345,6.345,0,0,0-1.251,3.8c0,3.26,2.431,5.9,5.116,5.9a3.934,3.934,0,0,0,2.451-.863c.1-.135.189-.275.275-.422A3.885,3.885,0,0,1,232.4,951.748Z" transform="translate(-213.563 -933.727)"/><path class="g" d="M234.671,945.463c1.5.872,2.249,2.068,2.775,1.167s-.261-2.338-1.756-3.209-3.133-.848-3.658.053S233.176,944.591,234.671,945.463Z" transform="translate(-216.856 -933.94)"/><path class="h" d="M230.992,948.655a5.375,5.375,0,0,1-4.617,2.831c-3.395,0-6.469-3.339-6.469-7.462s3.075-7.459,6.469-7.459a4.874,4.874,0,0,1,2.683.793,4.649,4.649,0,0,0-2.222-.556c-3.222,0-6.142,3.173-6.142,7.089s2.92,7.085,6.142,7.085A5.027,5.027,0,0,0,230.992,948.655Z" transform="translate(-209.717 -930.25)"/><path class="h" d="M206.065,945.178c0,5.113-2.036,7.793-6.484,7.793a8.366,8.366,0,0,1-1.162-.078,5.542,5.542,0,0,1-.239-.62c.116,0,.232.007.352.007,4.448,0,6.483-2.68,6.483-7.793,0-2.993-.852-5.212-2.454-6.536C204.836,939.106,206.065,941.586,206.065,945.178Z" transform="translate(-196.819 -931.073)"/><path class="h" d="M256.09,951.032a4.643,4.643,0,0,1-.2.764c-2.381-.93-3.493-3.43-3.493-7.378,0-3.405,1.014-5.814,2.895-7.04-1.437,1.331-2.2,3.539-2.2,6.5C253.086,947.546,254.047,949.966,256.09,951.032Z" transform="translate(-229.004 -930.733)"/><path class="h" d="M200,948.446c.017.43-1.479.838-3.339.915-.3.011-.588.014-.863.007l-.134-1.489c.3-.032.609-.053.933-.067C198.46,947.735,199.984,948.02,200,948.446Z" transform="translate(-195.327 -936.919)"/><path class="h" d="M200.867,960.669c.017.426-1.475.835-3.335.912-.222.011-.44.014-.648.014l-.134-1.518c.232-.018.472-.035.718-.046C199.328,959.955,200.849,960.24,200.867,960.669Z" transform="translate(-195.97 -944.173)"/><path class="h" d="M199.693,954.869c.014.37-1.271.722-2.873.785q-.238.01-.465.01l-.116-1.31q.258-.021.528-.032C198.366,954.256,199.68,954.5,199.693,954.869Z" transform="translate(-195.667 -940.785)"/><path class="h" d="M260.688,947.008l-.13,1.419c-1.183-.243-1.99-.606-1.958-.922S259.491,947,260.688,947.008Z" transform="translate(-232.686 -936.449)"/><path class="h" d="M259.508,959.184l-.13,1.426c-1.2-.243-2.032-.609-2-.93S258.29,959.177,259.508,959.184Z" transform="translate(-231.961 -943.677)"/><path class="h" d="M260.34,953.426l-.113,1.24c-1.085-.211-1.842-.532-1.81-.817S259.245,953.405,260.34,953.426Z" transform="translate(-232.578 -940.258)"/><path class="p" d="M212.589,929.834c0,1.073,1.008,1.911,2.888,1.911s2.934-.9,2.934-1.978-1.052-1.911-2.934-1.911S212.589,928.76,212.589,929.834Z" transform="translate(-205.373 -925.08)"/><path class="l" d="M214.743,930.548c0,.8.751,1.425,2.154,1.425s2.187-.675,2.187-1.475-.785-1.425-2.187-1.425S214.743,929.747,214.743,930.548Z" transform="translate(-206.652 -925.802)"/><path class="h" d="M218.128,931.8a3.075,3.075,0,0,1-2.648,1.071c-1.881,0-2.888-.835-2.888-1.909a1.64,1.64,0,0,1,.525-1.2,1.6,1.6,0,0,0-.278.912c0,1.074,1.007,1.909,2.888,1.909A3.4,3.4,0,0,0,218.128,931.8Z" transform="translate(-205.375 -926.211)"/><path class="f" d="M215.1,930.792a1.215,1.215,0,0,1,.231-.7,1.282,1.282,0,0,0-.591,1.062c0,.8.751,1.425,2.154,1.425a2.3,2.3,0,0,0,1.955-.783,2.764,2.764,0,0,1-1.595.423C215.854,932.217,215.1,931.593,215.1,930.792Z" transform="translate(-206.652 -926.406)"/><path class="h" d="M218.089,931.7c-1.4,0-2.154-.624-2.154-1.425a1.208,1.208,0,0,1,.08-.413c-.054.03-.109.06-.156.093a1.215,1.215,0,0,0-.231.7c0,.8.751,1.425,2.154,1.425a2.765,2.765,0,0,0,1.595-.423,1.233,1.233,0,0,0,.155-.293A2.9,2.9,0,0,1,218.089,931.7Z" transform="translate(-207.177 -926.27)"/><path class="g" d="M219.116,930.506c.8.1,1.345.48,1.406,0s-.538-.959-1.341-1.061-1.5.206-1.565.689S218.313,930.4,219.116,930.506Z" transform="translate(-208.355 -926.009)"/><path class="g" d="M230.954,928.323c0,.7,2.561.966,5.665.966s5.574-.271,5.574-.966-2.493-.854-5.6-.854S230.954,927.628,230.954,928.323Z" transform="translate(-216.275 -924.85)"/></g><g transform="translate(55.478 67.583)"><path class="d" d="M183.5,976.32s4.962-.512,4.745-2.315-2.776-1.4-2.776-1.4,1.682-1.621.552-2.891-3.017.894-3.017.894a1.547,1.547,0,0,0-1.313-2.126c-1.946-.335-1.668,3.623-1.668,3.623s-1.661-2.07-2.648-1.488,1.172,3.587,1.172,3.587-3.075,3.424-5.264,2.883l.971,7.924C180.082,984.527,183.5,976.32,183.5,976.32Z" transform="translate(-173.286 -968.459)"/><path class="h" d="M187,971.685c-1.421,5.49-5.087,10.163-10.6,12.055a11.807,11.807,0,0,1-1.546.438l.336,2.746c5.825-.482,9.246-8.69,9.246-8.69s4.962-.512,4.745-2.315-2.776-1.4-2.776-1.4S188.023,972.946,187,971.685Z" transform="translate(-174.213 -970.374)"/></g></g></g></g></svg>