<svg xmlns="http://www.w3.org/2000/svg" xmlns:xlink="http://www.w3.org/1999/xlink" width="146" height="147" viewBox="0 0 146 147"><defs><style>.a{fill:#fff;}.b{fill:#005ab2;}.c{clip-path:url(#c);}.d{fill:#cc7544;}.e{fill:#d4834e;}.f{fill:#f3a79d;}.g{fill:#e88c85;}.h{fill:#f9b087;}.i,.m{fill:#fcbb3b;}.i{opacity:0.62;mix-blend-mode:multiply;isolation:isolate;}.j{fill:#914d27;}.k{fill:#bf4c28;}.l{fill:#a84126;}.n{fill:#f7efe2;}.o{fill:#edab37;}.p{fill:#cc7748;}.q{fill:#a0532d;}.r{filter:url(#a);}</style><filter id="a" x="0" y="0" width="146" height="147" filterUnits="userSpaceOnUse"><feOffset dx="5" dy="5" input="SourceAlpha"/><feGaussianBlur stdDeviation="5" result="b"/><feFlood flood-opacity="0.2"/><feComposite operator="in" in2="b"/><feComposite in="SourceGraphic"/></filter><clipPath id="c"><path class="a" d="M58.52,0A58.52,58.52,0,1,1,0,58.52,58.52,58.52,0,0,1,58.52,0Z"/></clipPath></defs><g transform="translate(9.574 2.253)"><g class="r" transform="matrix(1, 0, 0, 1, -9.57, -2.25)"><ellipse class="b" cx="58" cy="58.5" rx="58" ry="58.5" transform="translate(10 10)"/></g><path class="a" d="M58.52,0A58.52,58.52,0,1,1,0,58.52,58.52,58.52,0,0,1,58.52,0Z" transform="translate(0)"/><g class="c" transform="translate(0)"><g transform="translate(-3.466 15.475)"><path class="d" d="M408.127,105.245c6.743-2.08,14.052,2.851,17.06,9.233s2.779,13.755,2.381,20.8c-.437,7.761-1.052,15.709-4.291,22.776s-9.665,13.173-17.407,13.857c-8.494.75-16.535-5.332-20.168-13.046s-3.575-16.676-2.214-25.093c1.823-11.274,6.2-22.659,14.9-30.059" transform="translate(-349.462 -51.457)"/><path class="e" d="M437.428,66.618c1.765-5.14-.006-13.486-5.609-15.537a9.832,9.832,0,0,0-9.323,1.461c-5.642,4.4-3.84,13.169,2.6,15.816a22.614,22.614,0,0,0,4.435,1.152c1.916.361,3.772.834,5.7,1.092" transform="translate(-394.338 -48.693)"/><path class="f" d="M431.976,66.114a10.091,10.091,0,0,0-.67-4,6.554,6.554,0,0,0-2.274-3.094,3.886,3.886,0,0,0-3.7-.469,4.589,4.589,0,0,0-1.259.891c-2.807,2.666-1.07,5.177,1.774,6.8a18.226,18.226,0,0,0,4.682,1.744" transform="translate(-391.583 -49.096)"/><path class="e" d="M368.259,67.526c5.079-.165,11.784-4.486,11.716-10.065A9.2,9.2,0,0,0,375.6,49.8c-5.725-3.468-12.786,1.02-12.96,7.528a21.087,21.087,0,0,0,.467,4.259c.32,1.8.523,3.574.939,5.347" transform="translate(-282.684 -48.594)"/><path class="f" d="M371.776,65.233a9.414,9.414,0,0,0,3.272-1.915A6.129,6.129,0,0,0,377,60.3a3.641,3.641,0,0,0-.82-3.392,4.332,4.332,0,0,0-1.2-.8c-3.263-1.567-4.881.785-5.357,3.811a17.063,17.063,0,0,0,.031,4.672" transform="translate(-286.304 -48.958)"/><path class="g" d="M464.8,130.711a9.9,9.9,0,0,0-6.884,5.613,18.774,18.774,0,0,0-1.509,9A13.725,13.725,0,0,0,457.6,150.9a6.3,6.3,0,0,0,4.28,3.512" transform="translate(-456.376 -52.859)"/><path class="f" d="M459.393,109.343c-7.571-3.328-18.054-7.182-25.926-2.571-6.308,3.695-9.971,12.191-12.306,18.753-4.573,12.85-8.368,32.073,5.676,40.522,5.167,3.108,11.276,4.193,17.259,4.943" transform="translate(-413.641 -51.505)"/><path class="d" d="M446.52,176.276a9.029,9.029,0,0,0-8.284-2.349,7.728,7.728,0,0,0-5.728,6.237c-.47,3.572,1.981,7.074,5.2,8.7,2.994,1.512,7.678-.392,10.152-2.246" transform="translate(-416.753 -55.091)"/><path class="d" d="M402.373,206.237a62.882,62.882,0,0,1-21.408-24.425,24.543,24.543,0,0,1-2.809-9.015,11.172,11.172,0,0,1,2.929-8.732c2.245-2.2,5.506-3.015,8.638-3.317,10.029-.967,20.046,2.4,28.869,7.266,11.748,6.475-.135,29.567-6.444,37.1" transform="translate(-340.966 -54.41)"/><path class="d" d="M440.472,216.671a66.086,66.086,0,0,1-8,12.192c4.066,3.067,6.748,6.423,5.761,11.834A21.875,21.875,0,0,1,430.544,239a158.939,158.939,0,0,1-22.323-10.054c.9-3.81,3.3-6.785,5.127-10.158a55.769,55.769,0,0,0,4.991-11.271,41.169,41.169,0,0,0,1.478-13.238" transform="translate(-386.397 -56.161)"/><g transform="translate(35.011 52.951)"><path class="g" d="M421.375,105.116c6.049,8.566,6.755,21.762,5.523,31.821a42.6,42.6,0,0,1-13.717,26.57c-1.453,1.3-3.6-.84-2.143-2.143,6.924-6.175,10.942-14.256,12.648-23.3,1.821-9.662.875-23.2-4.928-31.415-1.13-1.6,1.5-3.112,2.617-1.529Z" transform="translate(-410.55 -104.446)"/></g><path class="e" d="M398.087,118.612c-7.858-.126-14.221.137-21.229-3.678-5.536-3.012-11.539-7.6-12.924-14.121-2.148-10.108-2.2-24.7,4.736-33.063,6.372-7.679,16.782-9.938,26.281-10.522,6.274-.386,12.967-.08,18.717,2.719a30.806,30.806,0,0,1,14.879,16.91c2.906,8.027,3.952,20.758-.852,28.23a21.976,21.976,0,0,1-18.422,10" transform="translate(-333.74 -49.035)"/><path class="h" d="M382.811,80.442c3.288-5.444,10.457-5.6,14.915-1.744,3.13,2.706,5.043,6.666,6.436,10.67a19.724,19.724,0,0,1,1.237,5.419,8.472,8.472,0,0,1-1.332,5.3,10.047,10.047,0,0,1-4.45,3.186c-4.723,2.02-10.091,2.765-14.947,1.13a8.717,8.717,0,0,1-4.027-2.523,8.941,8.941,0,0,1-1.787-4.782,26.451,26.451,0,0,1,1.265-9.727A27.246,27.246,0,0,1,382.811,80.442Z" transform="translate(-323.415 -50.02)"/><path class="i" d="M368.334,93.311c-.461-3.312,4.25-4.212,6.534-3.626a2.9,2.9,0,0,1,2.3,2.812,3.191,3.191,0,0,1-1.289,2.094,5.781,5.781,0,0,1-5.107,1.046A3.153,3.153,0,0,1,368.334,93.311Z" transform="translate(-285.252 -50.719)"/><path class="i" d="M410.7,91.243c.56-3.3,5.323-2.735,7.325-1.488a2.9,2.9,0,0,1,1.34,3.373,3.191,3.191,0,0,1-1.861,1.608,5.782,5.782,0,0,1-5.185-.543A3.158,3.158,0,0,1,410.7,91.243Z" transform="translate(-367.783 -50.681)"/><g transform="translate(45.497 27.574)"><g transform="translate(23.39 8.631)"><path class="j" d="M392.476,91.819a6.716,6.716,0,0,1-.662-2.478,6.67,6.67,0,0,1-.169-2.558,6.754,6.754,0,0,1,.662,2.477A6.724,6.724,0,0,1,392.476,91.819Z" transform="translate(-391.577 -86.783)"/></g><g transform="translate(20.449 10.874)"><path class="j" d="M388.708,90.192c.053-.054.421.266,1.044.705a4.142,4.142,0,0,0,2.671.876A3.04,3.04,0,0,0,394.64,90.2c.424-.628.6-1.077.677-1.052s0,.517-.373,1.233a4.617,4.617,0,0,1-.838,1.151,2.64,2.64,0,0,1-1.64.737,4,4,0,0,1-2.931-1.1C388.938,90.642,388.664,90.235,388.708,90.192Z" transform="translate(-388.704 -89.149)"/></g><g transform="translate(33.881 0.44)"><path class="j" d="M373.368,78.241a12.8,12.8,0,0,1,1,2.575,16.8,16.8,0,0,0,1.219,2.667,10.073,10.073,0,0,0,.977,1.392,1.947,1.947,0,0,0,1.323.814,2.017,2.017,0,0,0,1.439-.579,3.218,3.218,0,0,0,.8-1.353,12.671,12.671,0,0,0,.446-2.867c.09-1.678-.043-2.73.072-2.747a6.272,6.272,0,0,1,.458,2.756,11.075,11.075,0,0,1-.316,3.062,3.8,3.8,0,0,1-.953,1.68,2.707,2.707,0,0,1-1.992.8,2.631,2.631,0,0,1-1.838-1.089,9.78,9.78,0,0,1-1.018-1.526,13.971,13.971,0,0,1-1.122-2.842A8.575,8.575,0,0,1,373.368,78.241Z" transform="translate(-373.342 -78.143)"/></g><g transform="translate(0 0)"><path class="j" d="M407.564,77.679c.122-.015.255,1.183.787,3.009a12.217,12.217,0,0,0,1.334,3.007,8.16,8.16,0,0,0,1.2,1.488,3.076,3.076,0,0,0,1.631.928,1.906,1.906,0,0,0,1.6-.669,6.131,6.131,0,0,0,1.044-1.563,11.353,11.353,0,0,0,1.023-3.12c.313-1.867.107-3.064.235-3.078a5.98,5.98,0,0,1,.29,3.15,10.564,10.564,0,0,1-.925,3.349,6.518,6.518,0,0,1-1.14,1.775,2.617,2.617,0,0,1-2.225.9,3.708,3.708,0,0,1-2.052-1.149,8.389,8.389,0,0,1-1.274-1.649,11.22,11.22,0,0,1-1.258-3.235A7.963,7.963,0,0,1,407.564,77.679Z" transform="translate(-407.505 -77.679)"/></g></g><g transform="translate(57.9 58.214)"><path class="k" d="M377,116.755c1.188-2.778,3.2-5.53,6.124-6.488,2.837-.929,5.272.6,6.039,3.556a17.957,17.957,0,0,1,.567,5.084c-.059,1.846-.514,3.867-2.057,5-1.815,1.336-4.545.907-6.36-.4a14.72,14.72,0,0,1-3.972-5.211" transform="translate(-363.96 -109.997)"/><g transform="translate(14.352 4.722)"><path class="l" d="M384.023,117.015A13.486,13.486,0,0,1,388.785,115a13.486,13.486,0,0,1-4.762,2.012Z" transform="translate(-384.022 -114.978)"/></g><g transform="translate(13.534 7.426)"><path class="l" d="M383.892,117.851a19.351,19.351,0,0,1,5.705,2.422,19.35,19.35,0,0,1-5.705-2.422Z" transform="translate(-383.89 -117.829)"/></g><path class="k" d="M403.5,116.868c-1.625-2.547-4.059-4.936-7.1-5.4-2.951-.454-5.1,1.454-5.377,4.494a17.961,17.961,0,0,0,.269,5.108c.359,1.813,1.138,3.733,2.845,4.6,2.009,1.022,4.632.155,6.21-1.431a14.734,14.734,0,0,0,3.07-5.789" transform="translate(-390.948 -110.069)"/><g transform="translate(6.226 5.759)"><path class="l" d="M397.344,117.327a13.479,13.479,0,0,1-5.027-1.209,13.492,13.492,0,0,1,5.027,1.209Z" transform="translate(-392.316 -116.072)"/></g><g transform="translate(6.935 7.546)"><path class="l" d="M396.581,117.969a19.322,19.322,0,0,1-5.233,3.32,19.284,19.284,0,0,1,5.233-3.32Z" transform="translate(-391.344 -117.956)"/></g><path class="l" d="M388.307,117.187a2.757,2.757,0,0,1,.48-1.788,1.623,1.623,0,0,1,2.656.238,3.984,3.984,0,0,1,.58,1.619,4.376,4.376,0,0,1-.116,2.64,1.748,1.748,0,0,1-2.2.978,2.234,2.234,0,0,1-.963-1.316A7.8,7.8,0,0,1,388.307,117.187Z" transform="translate(-377.113 -110.247)"/></g><path class="e" d="M396.7,172.631a107.581,107.581,0,0,1,26.1,57.056,25.466,25.466,0,0,1,7.341,3.028,8.61,8.61,0,0,1,4.025,6.543,206.5,206.5,0,0,1-31.8,2.121c-.181,0-4.34-15.16-4.968-16.52-2.616-5.666-6.652-10.569-10.808-15.166-7.479-8.273-15.315-16.629-17.024-28.155a25.1,25.1,0,0,1,3.752-17.854" transform="translate(-343.155 -54.572)"/><path class="g" d="M459.34,143.473a39.915,39.915,0,0,1-.753,7.007,12.813,12.813,0,0,1-2.086,5.347c-2.9,3.771-7.252.773-9.151-2.981a8.065,8.065,0,0,1-.944-3.529,69.343,69.343,0,0,1,1.086-9.2C451.425,141.307,455.372,142.438,459.34,143.473Z" transform="translate(-441.468 -53.347)"/><path class="g" d="M448.481,120.673l-.2.8a208.545,208.545,0,0,1-23.252-7.355c-1.685-.648-3.412-1.325-5.157-2.029.179-.233.363-.46.549-.685,2.62,1.049,5.207,2.032,7.693,2.966A192.1,192.1,0,0,0,448.481,120.673Z" transform="translate(-405.453 -51.856)"/><path class="g" d="M454.789,134.864a133.862,133.862,0,0,1-31.593-9.85c.1-.268.2-.538.306-.81A132.7,132.7,0,0,0,455,134.031Z" transform="translate(-415.118 -52.521)"/><path class="j" d="M387.489,83.7c-1.855-4.6,7.525-5.423,10.058-4.554a3.669,3.669,0,0,1,1.825,1.21,3.333,3.333,0,0,1,.565,1.98,7.136,7.136,0,0,1-2.153,4.724,5.428,5.428,0,0,1-1.906,1.4,4.783,4.783,0,0,1-3.97-.449,14.132,14.132,0,0,1-3.155-2.637A5.382,5.382,0,0,1,387.489,83.7Z" transform="translate(-325.978 -50.165)"/><path class="m" d="M407.228,131.349l-.874-10.942-36.492,3.931,1.678,7.011,5.129,7.289,10.192-.744" transform="translate(-316.785 -52.324)"/><path class="n" d="M406.336,128.387l-8.078-5.454-33.8,2.694,2.552,7.491Z" transform="translate(-310.773 -52.455)"/><path class="m" d="M409.384,128.194l-38.23,1.142-5.878-4.782s-4.762,28.008-1.209,48.215c1.372,2.026,7.3,2.8,7.3,2.8l38.014-.2Z" transform="translate(-312.201 -52.539)"/><path class="o" d="M411.473,129.336h.006a234.5,234.5,0,0,0-1.032,46.024c-1.814-.345-5.085-1.15-6.061-2.59-3.553-20.207,1.209-48.215,1.209-48.215Z" transform="translate(-352.519 -52.539)"/><g transform="translate(19.007 60.081)"><path class="p" d="M414.005,112.509c-11.1-3.37-15.2,9.738-17.667,17.569-3.566,11.344-4,24.192.925,35.209a15.467,15.467,0,0,0,4.278,5.984,17.008,17.008,0,0,0,5.358,2.6,52.1,52.1,0,0,0,28.4,1.043c4.957-1.22,8.679-6.386,6.683-11.513-1.659-4.261-6.551-4.758-10.322-6.178-3.682-1.386-7.576-2.155-11.3-3.471A4.247,4.247,0,0,1,416.8,148.2c.811-6.72,3.034-13.077,4.124-19.625C422.065,121.723,421.773,114.868,414.005,112.509Z" transform="translate(-393.613 -111.966)"/><g transform="translate(41.335 50.501)"><path class="q" d="M397.438,165.234a6.73,6.73,0,0,1,.358.717l-.039,0c-1.9.182-3.455.069-3.461-.136S395.679,165.408,397.438,165.234Z" transform="translate(-390.861 -165.234)"/><path class="q" d="M393.617,168.787c.02-.206,2.947-.094,6.54.25.355.033.7.069,1.039.1,0,.249-.014.495-.035.739-.351-.03-.708-.063-1.075-.1C396.493,169.44,393.6,168.994,393.617,168.787Z" transform="translate(-393.617 -165.413)"/><path class="q" d="M398.067,173.677c-.129.212-.27.418-.416.621-1.6-.654-2.8-1.153-2.748-1.324S396.329,173.047,398.067,173.677Z" transform="translate(-391.706 -165.633)"/></g></g><path class="e" d="M368.055,162.631a39.793,39.793,0,0,0,5.276-.241c4.984-.5,8.793-2.734,9.415-8.071.554-4.751-.569-7.447-4.893-9.482a22.746,22.746,0,0,0-12.241-1.794,10.16,10.16,0,0,0-5.4,2.022,9.1,9.1,0,0,0-2.646,4.375,10.391,10.391,0,0,0,.761,8.494C360.563,161.468,364.264,162.5,368.055,162.631Z" transform="translate(-280.253 -53.49)"/><g transform="translate(76.771 94.053)"><path class="q" d="M378.573,147.8c2.54.557,4.485,1.4,4.419,1.586s-2.086-.307-4.581-.854l-.182-.04c.1-.238.225-.464.34-.693Z" transform="translate(-377.256 -147.8)"/><path class="q" d="M376.933,153.042l1.012.09c3.294.305,5.965.6,5.955.813s-2.711.241-6.024-.065c-.323-.029-.639-.062-.948-.095C376.923,153.537,376.921,153.29,376.933,153.042Z" transform="translate(-376.924 -148.072)"/><path class="q" d="M378.725,158.836c2.131-.393,3.838-.718,3.895-.52.052.178-1.425.766-3.421,1.185C379.035,159.289,378.876,159.068,378.725,158.836Z" transform="translate(-377.352 -148.343)"/></g></g></g></g></svg>