<svg xmlns="http://www.w3.org/2000/svg" xmlns:xlink="http://www.w3.org/1999/xlink" width="147.06" height="147.06" viewBox="0 0 147.06 147.06"><defs><style>.a{fill:#fff;}.b{fill:#005ab2;}.c{clip-path:url(#c);}.d{fill:#fe9f18;}.e{fill:#aaa3c1;}.f{fill:#f5f1f5;}.g{fill:#cb5325;}.h{fill:#c33300;}.i{fill:#003672;}.j{fill:#b35071;}.k{fill:#d69ba4;}.l{fill:#481e19;}.m{fill:#d4624e;}.n{fill:#9890b4;}.o{filter:url(#a);}</style><filter id="a" x="0" y="0" width="147.06" height="147.06" filterUnits="userSpaceOnUse"><feOffset dx="5" dy="5" input="SourceAlpha"/><feGaussianBlur stdDeviation="5" result="b"/><feFlood flood-opacity="0.2"/><feComposite operator="in" in2="b"/><feComposite in="SourceGraphic"/></filter><clipPath id="c"><path class="a" d="M58.52,0A58.52,58.52,0,1,1,0,58.52,58.52,58.52,0,0,1,58.52,0Z"/></clipPath></defs><g transform="translate(9.939 2.774)"><g class="o" transform="matrix(1, 0, 0, 1, -9.94, -2.77)"><circle class="b" cx="58.53" cy="58.53" r="58.53" transform="translate(10 10)"/></g><path class="a" d="M58.52,0A58.52,58.52,0,1,1,0,58.52,58.52,58.52,0,0,1,58.52,0Z"/><g class="c"><g transform="translate(-10.562 18.219)"><ellipse class="d" cx="57.048" cy="8.219" rx="57.048" ry="8.219" transform="translate(0 140.487)"/><g transform="translate(10.951 0)"><g transform="translate(0 123.365)"><path class="e" d="M227.661,353.435v14.147h52.377a7.073,7.073,0,0,0,0-14.147Z" transform="translate(-227.661 -353.431)"/><path class="e" d="M199.144,367.574h52.377a7.071,7.071,0,0,0,7.071-7.071h0a7.072,7.072,0,0,0-7.071-7.072H199.144C204.008,353.431,204.008,367.574,199.144,367.574Z" transform="translate(-171.577 -353.431)"/><path class="f" d="M253.08,355.706v9.755h29.976a4.878,4.878,0,1,0,0-9.755Z" transform="translate(-253.08 -353.506)"/><g transform="translate(0 13.206)"><path class="g" d="M258.585,367.093v14.146H206.209a7.073,7.073,0,0,1,0-14.146Z" transform="translate(-171.571 -367.089)"/><path class="h" d="M287.1,381.232H234.725a7.073,7.073,0,0,1-7.072-7.072h0a7.072,7.072,0,0,1,7.072-7.071H287.1C282.237,367.089,282.237,381.232,287.1,381.232Z" transform="translate(-227.653 -367.089)"/><path class="f" d="M234.006,369.363v9.756H204.03a4.891,4.891,0,0,1-3.466-8.337,4.936,4.936,0,0,1,3.466-1.419Z" transform="translate(-146.992 -367.164)"/></g></g><g transform="translate(11.551)"><g transform="translate(60.132 45.181)"><path class="i" d="M169.516,286.3a10.87,10.87,0,0,0,2.555,4.475c.493.529,1,1.039,1.515,1.533a52.444,52.444,0,0,0,8.421,6.764l.423.265c.564.352,1.11.669,1.638.986,18.163,10.376,34.124,2.994,27.993-.405A68.254,68.254,0,0,1,196.188,288.2q-1.03-1.057-1.9-2.115c-.687-.793-1.3-1.585-1.868-2.36a29.256,29.256,0,0,1-2.907-4.968,10.473,10.473,0,0,0-8.051-6.06,11.04,11.04,0,0,0-7.893,1.779A38.7,38.7,0,0,1,169.516,286.3Z" transform="translate(-169.416 -272.572)"/><path class="j" d="M191.312,286.3c.476,1.656.9,3.776,2.114,5.062.493.529,1,1.039,1.515,1.533,2.784,2.749,6.078,4.381,8.862,6.178l.423.265c-.335-7.91,5.761-13.019,9.988-15.609a29.247,29.247,0,0,1-2.907-4.968,10.473,10.473,0,0,0-8.051-6.06,11.04,11.04,0,0,0-7.893,1.779C192.435,277.139,190.776,280.914,191.312,286.3Z" transform="translate(-191.212 -272.572)"/></g><path class="i" d="M189.525,310.95a42.39,42.39,0,0,0,82.552,13.512,40.966,40.966,0,0,0,2.044-9.548c.035-.458.07-.916.07-1.357a39.806,39.806,0,0,0-.14-7.117c-.036-.335-.088-.652-.124-.986a40.789,40.789,0,0,0-1.374-6.554,41.219,41.219,0,0,0-3.153-7.733,40.406,40.406,0,0,0-2.413-4.017.266.266,0,0,0-.053-.071,5.214,5.214,0,0,0-.317-.458c-.281-.423-.546-.828-.793-1.233-.212-.3-.405-.6-.6-.9-.018-.036-.018-.053-.036-.071l-.017-.017a44.923,44.923,0,0,1-3.858-8.034c-.071-.193-.141-.405-.212-.6a47.452,47.452,0,0,1-2.008-7.8,5.488,5.488,0,0,1-.088-.564c-.017-.053-.017-.124-.035-.212a55.881,55.881,0,0,1-.564-11.662c.035-.529.052-1.039.052-1.586,0-.247,0-.476-.017-.722v-.035a28.1,28.1,0,0,0-56.074-1.868,29.11,29.11,0,0,0,.124,6.448,49.185,49.185,0,0,1-.212,15.168,40.249,40.249,0,0,1-1.884,6.994,35.813,35.813,0,0,1-2.168,4.827c-.511.969-1.074,1.9-1.691,2.837A42.216,42.216,0,0,0,189.525,310.95Z" transform="translate(-189.525 -225.845)"/><path class="f" d="M191.358,306.873a36.891,36.891,0,0,0,73.621,3.434c.07-.757.123-1.514.14-2.272a36.722,36.722,0,0,0-5.513-20.559.267.267,0,0,0-.053-.07q-.528-.872-1.11-1.691c-.212-.3-.405-.6-.6-.9-.036-.036-.053-.053-.053-.088a37.285,37.285,0,0,1-4.21-8.58,42.7,42.7,0,0,1-1.956-8.421c-.017-.053-.017-.124-.035-.212a47.931,47.931,0,0,1-.282-8.861c.017-.458.036-.917.036-1.357a24.728,24.728,0,0,0-.282-3.753v-.035c-.74-5.127-2.995-10.359-6.8-13.794-6.254-5.621-12.384-1.991-12.6,6.1a.227.227,0,0,1-.44.088c-2.96-8.281-12.085-13.671-19.8-7.523a25.239,25.239,0,0,0-8.879,16.613,25.758,25.758,0,0,0,.106,5.6,40.08,40.08,0,0,1-2.044,19.907,31.669,31.669,0,0,1-3.118,6.042A36.574,36.574,0,0,0,191.358,306.873Z" transform="translate(-182.144 -226.172)"/><path class="k" d="M234.992,261.814c-.118,1.834,2.191,3.478,5.159,3.669s5.469-1.141,5.588-2.976-2.191-3.478-5.159-3.669S235.111,259.978,234.992,261.814Z" transform="translate(-204.936 -226.936)"/><path class="k" d="M207.338,261.208c-.118,1.835,2.191,3.478,5.158,3.669s5.469-1.14,5.588-2.976-2.191-3.478-5.158-3.669S207.457,259.372,207.338,261.208Z" transform="translate(-150.543 -226.916)"/><path class="l" d="M237.684,256.814c1.809.334,3.712-1.767,4.252-4.691s-.49-5.566-2.3-5.9-3.712,1.766-4.251,4.69S235.876,256.481,237.684,256.814Z" transform="translate(-201.52 -226.518)"/><path class="l" d="M215.884,256.814c1.808.334,3.711-1.767,4.251-4.691s-.489-5.566-2.3-5.9-3.712,1.766-4.251,4.69S214.075,256.481,215.884,256.814Z" transform="translate(-158.64 -226.518)"/><path class="m" d="M194.445,346.56a7.225,7.225,0,0,0,9.161-3c1.767-2.865,3.143-8.733,2.945-15.188a1.394,1.394,0,0,0-2.628-.586h0a1.39,1.39,0,0,1-2.512-.1l-.581-1.373a1.389,1.389,0,0,0-2.557-.006l-1.025,2.391a1.39,1.39,0,0,1-2.4.268l-2.468-3.408a1.39,1.39,0,0,0-2.495.576C188.865,331.734,187.7,343.27,194.445,346.56Z" transform="translate(-121.394 -229.125)"/><path class="m" d="M236.724,350.164a7.227,7.227,0,0,0,9.16-3c1.767-2.865,3.142-8.732,2.945-15.188a1.394,1.394,0,0,0-2.628-.586h0a1.39,1.39,0,0,1-2.513-.1l-.58-1.372a1.39,1.39,0,0,0-2.558-.007l-1.025,2.391a1.39,1.39,0,0,1-2.4.268l-2.468-3.408a1.39,1.39,0,0,0-2.495.576C231.144,335.338,229.974,346.874,236.724,350.164Z" transform="translate(-204.553 -229.244)"/><g transform="translate(44.68 27.74)"><path class="m" d="M225.617,265.286c-1.835-.112-3.176-2.609-3-5.576s1.815-5.284,3.651-5.172a5.306,5.306,0,0,1,4.423,5.3C230.514,262.81,227.453,265.4,225.617,265.286Z" transform="translate(-222.605 -254.534)"/><path class="l" d="M224.076,259.2a7.373,7.373,0,0,0,5.975.823.391.391,0,0,1,.207.753,8.169,8.169,0,0,1-6.576-.9C223.255,259.612,223.646,258.937,224.076,259.2Z" transform="translate(-223.297 -254.686)"/></g><path class="l" d="M235.2,335.346c1.013,3.514,2.175,6.976,3.419,10.412a57.35,57.35,0,0,0,.452-11.264c-.029-.5.752-.5.78,0a58.053,58.053,0,0,1-.4,10.782,26.426,26.426,0,0,0,3.688-10.08c.073-.5.825-.284.752.208a26.985,26.985,0,0,1-4.749,11.841c.15.4.28.812.433,1.214.179.47-.575.673-.752.207-.154-.4-.285-.814-.436-1.219a.312.312,0,0,1-.1-.277c-1.416-3.827-2.712-7.692-3.844-11.616A.391.391,0,0,1,235.2,335.346Z" transform="translate(-202.552 -229.427)"/><path class="l" d="M193.368,331.325a91.031,91.031,0,0,0,3.1,11.249,66.414,66.414,0,0,0,2.324-12.324c.045-.5.827-.5.78,0A67.549,67.549,0,0,1,197.4,342.1c2.894-1.995,3.718-6.733,4.8-9.808.165-.471.92-.268.752.208-1.219,3.478-2.134,8.9-5.839,10.676-.029.1-.051.2-.08.3a.827.827,0,0,1-1.1-.036,90.919,90.919,0,0,1-3.316-11.909C192.514,331.043,193.266,330.833,193.368,331.325Z" transform="translate(-121.186 -229.287)"/><g transform="translate(0 49.925)"><path class="j" d="M189.772,312.659a42.216,42.216,0,0,0,.564,6.888c3.206.616,6.941,1.25,11.046,1.8,20.964,2.819,51.67,3.435,71.365-11.927.529-.405,1.039-.828,1.551-1.269-.036-.335-.088-.652-.124-.986a40.787,40.787,0,0,0-1.374-6.554,41.222,41.222,0,0,0-3.153-7.733,40.424,40.424,0,0,0-2.413-4.016.264.264,0,0,0-.053-.071q-.528-.872-1.11-1.691c-.212-.3-.405-.6-.6-.9-.018-.036-.018-.053-.036-.071l-.017-.018a44.921,44.921,0,0,1-3.858-8.034c-.071-.193-.141-.405-.212-.6a1.211,1.211,0,0,1-.14.053c-6.114,2.307-20.348,5.179-52.974,4.351-2.413-.053-4.951-.141-7.592-.247a35.812,35.812,0,0,1-2.168,4.827c-.51.969-1.074,1.9-1.691,2.837A42.216,42.216,0,0,0,189.772,312.659Z" transform="translate(-189.772 -277.478)"/><g transform="translate(10.099 5.694)"><path class="l" d="M210.674,286.146a239.173,239.173,0,0,0,48.185-2.772c.555-.089.794.76.235.849a240.559,240.559,0,0,1-48.42,2.8C210.109,287,210.107,286.122,210.674,286.146Z" transform="translate(-204.786 -283.367)"/><path class="l" d="M215.175,289.328a231.961,231.961,0,0,0,41.433-1.831c.554-.074.794.774.234.85a233.3,233.3,0,0,1-41.667,1.862C214.61,290.183,214.607,289.3,215.175,289.328Z" transform="translate(-206.886 -283.504)"/><path class="l" d="M198.22,318.694c22.275,1.725,44.759,1.135,65.568-7.859.514-.223.964.536.445.761-20.978,9.067-43.533,9.72-66.013,7.979C197.659,319.532,197.655,318.65,198.22,318.694Z" transform="translate(-197.798 -284.275)"/><path class="l" d="M220.342,316.6a245.5,245.5,0,0,0,43.948-1.4c.562-.069.557.813,0,.881a245.492,245.492,0,0,1-43.948,1.4C219.778,317.444,219.775,316.562,220.342,316.6Z" transform="translate(-219.432 -284.42)"/></g></g><g transform="translate(11.361 46.961)"><path class="f" d="M258.637,282.025v-5.27s-24.2-.977-27.324,7.612c0,0-1.562-6.831-29.277-6.636,0,0-13.077-1.366-17.76-3.318l-29.667,31.424-.391,5.27,48.013,5.074L236,302.129Z" transform="translate(-151.095 -274.413)"/><path class="e" d="M186.375,278.854l39.482,9.388,10.874.567s24.4-6.831,24.982-7.027l-32.984,32.985-25.373,5.269-8.45.163-42.1-7.775Z" transform="translate(-152.805 -274.56)"/><path class="n" d="M220.467,289.129l-32.4,31.3-9.425.094,30.951-31.957Z" transform="translate(-136.541 -274.881)"/></g><g transform="translate(8.603 45.181)"><path class="i" d="M222.809,286.3a10.868,10.868,0,0,0,2.555,4.475c.494.529,1,1.039,1.515,1.533a52.485,52.485,0,0,0,8.421,6.764q.212.132.423.265c.564.352,1.11.669,1.639.986,18.162,10.376,34.123,2.994,27.993-.405A68.234,68.234,0,0,1,249.481,288.2q-1.031-1.057-1.9-2.115c-.687-.793-1.3-1.585-1.867-2.36a29.256,29.256,0,0,1-2.907-4.968,10.475,10.475,0,0,0-8.051-6.06,11.037,11.037,0,0,0-7.892,1.779A38.683,38.683,0,0,1,222.809,286.3Z" transform="translate(-222.709 -272.572)"/><path class="j" d="M244.6,286.3c.476,1.656.9,3.776,2.115,5.062.493.529,1,1.039,1.515,1.533,2.783,2.749,6.077,4.381,8.861,6.178q.212.132.423.265c-.335-7.91,5.761-13.019,9.989-15.609a29.254,29.254,0,0,1-2.907-4.968,10.475,10.475,0,0,0-8.051-6.06,11.037,11.037,0,0,0-7.892,1.779C245.728,277.139,244.069,280.914,244.6,286.3Z" transform="translate(-244.504 -272.572)"/></g></g></g></g></g></g></svg>