<svg xmlns="http://www.w3.org/2000/svg" xmlns:xlink="http://www.w3.org/1999/xlink" width="147.06" height="147.06" viewBox="0 0 147.06 147.06"><defs><style>.a{fill:#fff;}.b{fill:#005ab2;}.c{clip-path:url(#c);}.d{fill:#e98224;}.e{fill:#fff2d6;}.f{fill:#f59438;}.g{fill:#f5f1f5;}.h{fill:#6461cf;}.i{fill:#481e19;}.j{fill:#dbbd40;}.k{fill:#c47f5f;}.l{fill:#d69ba4;}.m{filter:url(#a);}</style><filter id="a" x="0" y="0" width="147.06" height="147.06" filterUnits="userSpaceOnUse"><feOffset dx="5" dy="5" input="SourceAlpha"/><feGaussianBlur stdDeviation="5" result="b"/><feFlood flood-opacity="0.2"/><feComposite operator="in" in2="b"/><feComposite in="SourceGraphic"/></filter><clipPath id="c"><path class="a" d="M58.52,0A58.52,58.52,0,1,1,0,58.52,58.52,58.52,0,0,1,58.52,0Z"/></clipPath></defs><g transform="translate(9.939 2.774)"><g class="m" transform="matrix(1, 0, 0, 1, -9.94, -2.77)"><circle class="b" cx="58.53" cy="58.53" r="58.53" transform="translate(10 10)"/></g><path class="a" d="M58.52,0A58.52,58.52,0,1,1,0,58.52,58.52,58.52,0,0,1,58.52,0Z"/><g class="c"><g transform="translate(-3.992 9.587)"><g transform="translate(0 49.788)"><path class="d" d="M73.606,335.131l-1.9,3.767c-3.866,2.067-11.173,1.67-15.562,1.019-9.359-1.4-16.68-9.982-19.073-18.776-2.28-8.34,1.373-15.533,2.959-23.534a32.509,32.509,0,0,0,.567-4.885,29.281,29.281,0,0,0,10.123-3.37c4.475-2.492,7.123-5.721,9.884-9.572a41.711,41.711,0,0,1,3.5,12.177c.907,6.513.127,13.325-.2,19.81C63.468,320.872,64.133,330.628,73.606,335.131Z" transform="translate(-25.746 -252.551)"/><path class="e" d="M60.218,278.779c-2.761,3.851-5.409,7.079-9.884,9.572a29.283,29.283,0,0,1-10.123,3.37,53.2,53.2,0,0,0-2.875-18.96c-2.648-7.986-6.839-14.655-11.979-21.211,5.268,2.081,10.521,3.243,15.52,6.061A45.359,45.359,0,0,1,54.568,269.7,47.434,47.434,0,0,1,60.218,278.779Z" transform="translate(-25.356 -251.549)"/></g><path class="d" d="M72.942,330.671l16.755-.236-9.114,33.347A4.87,4.87,0,0,1,75.72,368.9h0a4.87,4.87,0,0,1-4.795-4.012Z" transform="translate(-26.974 -204.561)"/><path class="d" d="M91.244,331.4,108,330.924l1.624,33.583a4.87,4.87,0,0,1-4.864,5.12h0a4.87,4.87,0,0,1-4.795-4.012Z" transform="translate(-27.695 -204.579)"/><path class="f" d="M111.515,319.586a50.736,50.736,0,0,1-.885,6.235,20.142,20.142,0,0,1-19.744,16H86.154a22.86,22.86,0,0,1-22.794-24.5c.155-2.189.423-4.5.834-6.91A83.735,83.735,0,0,1,74.8,282.105l28.786,1.161S113.115,300.046,111.515,319.586Z" transform="translate(-26.703 -202.845)"/><path class="d" d="M106.035,285.658l-3.658,10.266c12.2,9.145,15.521,17.56,16.188,22.947a5,5,0,0,0,6.364,4.144h0a5.069,5.069,0,0,0,3.641-4.946C128.3,291.36,106.035,285.658,106.035,285.658Z" transform="translate(-28.09 -202.971)"/><path class="g" d="M107.89,318.072c0,1.847-.09,3.652-.26,5.4a14.687,14.687,0,0,1-14.607,13.283h0a14.686,14.686,0,0,1-14.607-13.283c-.172-1.751-.26-3.556-.26-5.4,0-15.948,6.655-28.892,14.868-28.892S107.89,302.124,107.89,318.072Z" transform="translate(-27.23 -203.097)"/><g transform="translate(37.491 79.26)"><path class="h" d="M111.548,319.586c-1.416.665-2.817,1.246-4.176,1.755-12.135,4.474-22.189,2.592-29.651-.92A43.568,43.568,0,0,1,64.227,310.41a83.735,83.735,0,0,1,10.606-28.305l28.786,1.161S113.148,300.046,111.548,319.586Z" transform="translate(-64.227 -282.105)"/><g transform="translate(4.491 6.978)"><g transform="translate(0 22.187)"><path class="i" d="M102.747,321.492c-10.027.135-25.933-1.133-33.266-9.038-.311-.335-.81.167-.5.5,7.623,8.22,23.269,9.388,33.766,9.246A.354.354,0,0,0,102.747,321.492Z" transform="translate(-68.883 -312.343)"/><path class="i" d="M107.837,317.775c-5.8,2.937-15.322,1.473-21.412.332-.445-.084-.636.6-.188.682,6.585,1.235,15.732,2.747,21.958-.4C108.6,318.182,108.243,317.57,107.837,317.775Z" transform="translate(-69.49 -312.535)"/></g><g transform="translate(13.816)"><path class="i" d="M104.173,289.358a41.915,41.915,0,0,1-20.522,1.262c-.446-.082-.637.6-.188.683a42.722,42.722,0,0,0,20.9-1.262C104.794,289.905,104.609,289.221,104.173,289.358Z" transform="translate(-83.208 -289.34)"/><path class="i" d="M102.83,293.052c-5.985.531-13.12,1.508-18.911-.423-.433-.145-.619.539-.188.683,5.879,1.96,13.045.985,19.1.448C103.28,293.719,103.285,293.011,102.83,293.052Z" transform="translate(-83.218 -289.456)"/></g></g></g><g transform="translate(41.227 97.023)"><path class="g" d="M119.7,304.417s-4.248-4.249-18.761-2.655c0,0-10.089,2.124-13.629-.708L68.367,322.824l.884,2.478,45.135,1.77L137.4,302.823v-2.3s-.77.178-1.837.4a40.008,40.008,0,0,1-7.134.784C126.11,301.764,122.342,302.23,119.7,304.417Z" transform="translate(-68.11 -300.522)"/><path class="j" d="M68.1,327.157l19.2-23.02,30.011,2.8h6.431l14.726-4.567-24.512,26.469-10.625.559H95.5Z" transform="translate(-68.1 -300.587)"/><path class="k" d="M124.733,307.1l-20.411,22.461H96.027L117.743,307.1Z" transform="translate(-69.092 -300.755)"/></g><path class="f" d="M75.909,285.945h0a5.5,5.5,0,0,1,3.592,5.48c-.8,12.8,3.219,20.992,6.288,24.855a5,5,0,0,1-1.5,7.443h0a5.065,5.065,0,0,1-6.079-.866c-12.74-12.757-11.626-25.964-9.556-33.2A5.545,5.545,0,0,1,75.909,285.945Z" transform="translate(-26.848 -202.969)"/><g transform="translate(20.887 11.14)"><path class="d" d="M61.822,258.812l.078-.159c-18.791-23.122-11.085-42.973-11.085-42.973,10.694,9.312,14.745,25.329,16.1,32.672l6.58-13.513c-.089-.749-4.462-20.053-22.132-23.361C51.366,211.478,36.456,245.311,61.822,258.812Z" transform="translate(-47.012 -211.478)"/><path class="e" d="M61.982,258.807,67,248.506c-1.358-7.344-5.409-23.36-16.1-32.672C50.9,215.834,43.191,235.685,61.982,258.807Z" transform="translate(-47.095 -211.633)"/></g><g transform="translate(74.557)"><path class="d" d="M104.021,245.878l14.416,5.01c-.97-3.6-8.255-31.171-6.969-46.753,15.057,14.825,16.335,30.805,10.192,47.4,2.013-2.606,13.016-18.881-4.9-43.4l-6.324-8.2S98.757,221.163,104.021,245.878Z" transform="translate(-102.657 -199.928)"/><path class="e" d="M111.787,204.289c-1.287,15.582,6,43.155,6.968,46.753l2.923,1.015s.109-.122.3-.369C128.122,235.094,126.844,219.114,111.787,204.289Z" transform="translate(-102.976 -200.083)"/></g><path class="f" d="M54.353,263.01c23.581,2.879,39.679-3.466,39.679-3.466,21.608,6.543,32.983,5.822,38.979,3.395a31.353,31.353,0,0,0,4.132-6.861s-3.336,1.668-4.78.477c0,0,5.033-2.013,6.085-4.135,0,0-5.8,3.088-10.3-1.651,0,0-11.552-28.879-37.1-29.594-.426-.013-.857-.032-1.285-.064-2.262-.179-11.825-.279-20.447,9.325,0,0-7.729,7.862-13.689,29.992A8.485,8.485,0,0,1,54.353,263.01Z" transform="translate(-26.385 -200.679)"/><path class="e" d="M44.963,268.043s5.773,8.931,28.438,16.478l7.225,1.945a40.233,40.233,0,0,0,30.312-3.975l.254-.144s13.524-7.7,21.485-17.994c-6,2.427-17.372,3.148-38.979-3.4,0,0-16.1,6.345-39.679,3.466C52.663,266.345,49.982,268.555,44.963,268.043Z" transform="translate(-26.052 -202.095)"/><path class="i" d="M89.117,262.923c-.135,1.663,1.935,3.187,4.623,3.4s4.976-.954,5.11-2.616-1.935-3.187-4.623-3.4S89.251,261.261,89.117,262.923Z" transform="translate(-27.619 -202.071)"/><path class="l" d="M116.49,269.74c-.135,1.662,1.935,3.186,4.623,3.4s4.976-.954,5.11-2.617-1.935-3.186-4.623-3.4S116.624,268.078,116.49,269.74Z" transform="translate(-28.591 -202.313)"/><path class="l" d="M62.578,269.389c-.178,1.658,1.851,3.237,4.531,3.525s5-.821,5.178-2.48-1.85-3.236-4.531-3.525S62.757,267.731,62.578,269.389Z" transform="translate(-26.677 -202.304)"/><path class="i" d="M75.156,263.234c1.657-.193,2.746-2.521,2.433-5.2s-1.909-4.693-3.566-4.5-2.746,2.521-2.432,5.2S73.5,263.427,75.156,263.234Z" transform="translate(-26.995 -201.831)"/><path class="i" d="M112.9,262.794c1.656-.193,2.745-2.521,2.432-5.2s-1.909-4.692-3.565-4.5-2.746,2.521-2.433,5.2S111.248,262.987,112.9,262.794Z" transform="translate(-28.336 -201.815)"/><g transform="translate(56.846 63.548)"><path class="i" d="M84.323,266.724l.007.021c1.943,5.92,7.05,4.993,7.1,4.984a.708.708,0,0,0-.269-1.391c-.176.033-3.944.665-5.487-4.034a.708.708,0,0,0-1.352.42Z" transform="translate(-84.294 -265.815)"/></g><path class="i" d="M73.176,337.78c-8.381-4.3-10.03-17.992-8.894-26.181.063-.446-.62-.638-.682-.188-1.189,8.563.519,22.519,9.218,26.981C73.223,338.6,73.582,337.988,73.176,337.78Z" transform="translate(-26.702 -203.877)"/><path class="i" d="M49.682,275.644c-.32-.326-.821.175-.5.5,10.792,11.011,11.642,29.933,7.29,44.04-.134.436.549.623.683.188C61.589,306,60.681,286.866,49.682,275.644Z" transform="translate(-26.198 -202.612)"/><path class="i" d="M52.07,290.614c-.638-3.6-1.582-9.4-4.738-11.778-.364-.275-.717.339-.358.612,3.871,2.919,4.714,12.387,5.028,16.608a112.9,112.9,0,0,1-.1,14.132c-.023.455.685.454.708,0C52.942,303.675,53.216,297.066,52.07,290.614Z" transform="translate(-26.118 -202.727)"/></g></g></g></svg>