<svg xmlns="http://www.w3.org/2000/svg" xmlns:xlink="http://www.w3.org/1999/xlink" width="147" height="146" viewBox="0 0 147 146"><defs><style>.a{fill:#fff;}.b{fill:#005ab2;}.c{clip-path:url(#c);}.d{fill:#dc702d;}.e{fill:#f2af36;}.f,.i{fill:#fcbb3b;}.g{fill:#c65c22;}.h{fill:#f9de3d;}.i{opacity:0.62;mix-blend-mode:multiply;isolation:isolate;}.j{fill:#914d27;}.k{fill:#bf4c28;}.l{fill:#a03d22;}.m{fill:#f7efe2;}.n{fill:#a0532d;}.o{filter:url(#a);}</style><filter id="a" x="0" y="0" width="147" height="146" filterUnits="userSpaceOnUse"><feOffset dx="5" dy="5" input="SourceAlpha"/><feGaussianBlur stdDeviation="5" result="b"/><feFlood flood-opacity="0.2"/><feComposite operator="in" in2="b"/><feComposite in="SourceGraphic"/></filter><clipPath id="c"><path class="a" d="M58.52,0A58.52,58.52,0,1,1,0,58.52,58.52,58.52,0,0,1,58.52,0Z"/></clipPath></defs><g transform="translate(9.787 2.126)"><g class="o" transform="matrix(1, 0, 0, 1, -9.79, -2.13)"><ellipse class="b" cx="58.5" cy="58" rx="58.5" ry="58" transform="translate(10 10)"/></g><path class="a" d="M58.52,0A58.52,58.52,0,1,1,0,58.52,58.52,58.52,0,0,1,58.52,0Z"/><g class="c"><g transform="translate(3.77 11.925)"><path class="d" d="M163.921,96.671a8.5,8.5,0,0,1,3.8-7.551A15.729,15.729,0,0,1,176.1,86.63c2.865-.132,5.692.5,8.229-1.264a1.126,1.126,0,0,0,.543-.676c-.155.977.049,2.013-.142,3.019-.209,1.092-.727,2.025-1.035,3.073a9.586,9.586,0,0,1-2.871,4.766c-2.362,2.079-5.637,2.77-8.777,2.968-2.146.135-4.828.36-6.87-.443a6.824,6.824,0,0,0-2.637-.733" transform="translate(-54.164 -59.545)"/><path class="e" d="M60.557,153.28c-.275-6.588,1.831-13.239,4.8-19.049,2.368-4.629,7.955-10.172,12.822-12.116,3.075-1.227,6.467-1.317,9.776-1.39,6.939-.154,14.04.047,19.371,5.091A44.022,44.022,0,0,1,116.75,139.8c2.369,5.4,1.983,11.4.462,17.012-1.411,5.209-8.048,6.039-12.452,7.611a113.034,113.034,0,0,1-33.731,6.5,40.112,40.112,0,0,1-11.662-.91" transform="translate(-38.982 -64.843)"/><g transform="translate(68.153 35.757)"><path class="f" d="M157.6,97.2c-6.431,2-11.968,6.437-12.642,13.562-.788,8.343,3.37,15.478,6.707,22.811,4.42,9.711,6.155,22.643-4.745,28.676-4.286,2.373-9.514,2.391-14.249,2.02-5.162-.4-10.964-1.3-15.426-4.067-1.385-.86-2.649,1.321-1.272,2.176,6.6,4.1,17.093,5.491,24.692,4.332,8.162-1.243,14.363-5.84,16.53-13.975,2.225-8.351-1.664-16.981-5.186-24.353-2.31-4.834-4.459-9.61-4.683-15.039-.293-7.084,4.59-11.741,10.944-13.714,1.547-.48.886-2.912-.669-2.43Z" transform="translate(-115.377 -97.133)"/></g><path class="d" d="M109.364,58.722c-13.65-6.07-30.963-3.793-43.975,3.122-7.79,4.14-14.5,10.807-17.647,19.178-3.04,8.082-2.885,16.949-2.1,25.4.611,6.612,1.521,13.509,5.258,18.945a39.858,39.858,0,0,0,6.238,6.648c3.216,2.935,6.516,5.9,10.462,7.676,4.541,2.045,9.617,2.379,14.572,2.684,9.071.559,18.446,1.075,26.978-2.12a65.568,65.568,0,0,0,12.25-6.7c4.413-2.842,9.188-6.229,11.946-10.829a38.363,38.363,0,0,0,4.942-15.774c.722-6.97,1.365-17.793-2.529-23.874A103.663,103.663,0,0,0,129,74.089,53.709,53.709,0,0,0,109.364,58.722Z" transform="translate(-36.891 -55.207)"/><g transform="translate(8.892 1.163)"><path class="g" d="M111.569,103.6l34.065-15.471c-.053-.087-.1-.182-.152-.267-.02-.032-.042-.062-.061-.094l-34.06,15.469C111.118,103.349,111.328,103.711,111.569,103.6Z" transform="translate(-55.509 -61.161)"/><path class="g" d="M100.524,93.015,118.076,59.65c-.125-.058-.246-.124-.373-.181L100.168,92.8C100.043,93.042,100.4,93.254,100.524,93.015Z" transform="translate(-53.874 -56.997)"/><path class="g" d="M95.446,92.868q-4.353-18.149-8.708-36.3l-.4.083L95.048,92.98C95.112,93.243,95.509,93.132,95.446,92.868Z" transform="translate(-51.842 -56.57)"/><path class="g" d="M82.011,95.753Q68.1,85.338,53.795,75.476c-.085.11-.165.223-.25.334q14.3,9.9,28.258,20.306C82.018,96.276,82.224,95.911,82.011,95.753Z" transform="translate(-47.017 -59.352)"/><path class="g" d="M82.725,108.618q-18.487,3.2-36.834,7.151c.014.14.029.28.044.42q18.377-3.958,36.9-7.167C83.1,108.977,82.985,108.573,82.725,108.618Z" transform="translate(-45.891 -64.228)"/><path class="g" d="M67.94,135.644a209.8,209.8,0,0,1,22.091-18.787c.213-.158.008-.522-.207-.362A216.269,216.269,0,0,0,68.749,134.28c-2.684,2.576-5.242,5.347-7.865,8.046l.3.264C63.438,140.266,65.649,137.891,67.94,135.644Z" transform="translate(-48.097 -65.382)"/><path class="g" d="M99.178,115.7q1.471,17.973,2.941,35.943c.137,0,.274-.009.411-.013q-1.47-17.965-2.939-35.931C99.568,115.436,99.156,115.434,99.178,115.7Z" transform="translate(-53.732 -65.242)"/><path class="g" d="M103.928,114.486q17.243,11,35.381,20.41c.1-.107.2-.211.293-.318q-18.161-9.431-35.466-20.455C103.91,113.979,103.7,114.342,103.928,114.486Z" transform="translate(-54.417 -65.034)"/><path class="g" d="M108.928,110.631c-.266-.012-.264.408,0,.42l38.928,1.747c.012-.141.025-.275.037-.418Z" transform="translate(-55.137 -64.525)"/></g><path class="f" d="M112.762,92.053a13.584,13.584,0,0,0-3.769-3.989,29.637,29.637,0,0,0-17.945-4.9,24.942,24.942,0,0,0-15.072,5.925C71.344,93.16,69,98.98,67.987,104.8c-.756,4.363-.954,9.256,1.067,13.428,2.368,4.888,7.286,7.642,12.58,8.9,8.372,1.982,17.05,2.393,25.066-1.006a16.341,16.341,0,0,0,9.3-10.463c1.991-6.436,1.08-13.048-1.176-19.285A21.937,21.937,0,0,0,112.762,92.053Z" transform="translate(-40.172 -59.315)"/><path class="f" d="M77.359,92.249c-6.721-.52-13.1-8.656-6.592-14.063a8.36,8.36,0,0,1,2.342-1.328c7.735-2.994,11.08,7.023,8.58,12.841" transform="translate(-40.26 -58.312)"/><path class="h" d="M78.912,84.531a7.6,7.6,0,0,1-5.367-3.877,3.022,3.022,0,0,1-.4-1.261,2.506,2.506,0,0,1,.686-1.715,4.506,4.506,0,0,1,2.677-1.386,2.4,2.4,0,0,1,2.014.41,2.694,2.694,0,0,1,.624,1.054,14.3,14.3,0,0,1,.933,5.677" transform="translate(-41.009 -58.302)"/><path class="f" d="M112.73,87.341c.331-6.733,8.284-13.335,13.872-6.984a8.372,8.372,0,0,1,1.394,2.3c3.211,7.647-6.709,11.273-12.595,8.937" transform="translate(-46.834 -58.529)"/><path class="h" d="M115.912,89.809a7.591,7.591,0,0,1,3.724-5.474,3.02,3.02,0,0,1,1.249-.437,2.508,2.508,0,0,1,1.734.637,4.509,4.509,0,0,1,1.461,2.637,2.4,2.4,0,0,1-.353,2.025,2.691,2.691,0,0,1-1.037.653,14.288,14.288,0,0,1-5.648,1.093" transform="translate(-47.302 -59.428)"/><path class="h" d="M94.874,83.138l-8.745,19.514.352.508,4.3,3.716,10.386-2.479L100.1,83.52A27.464,27.464,0,0,0,94.874,83.138Z" transform="translate(-42.92 -59.316)"/><path class="i" d="M79.754,114.564a2.187,2.187,0,0,0,.548-3.512,4.891,4.891,0,0,0-5.584-1.283,2.243,2.243,0,0,0-1.266,2.032,2.847,2.847,0,0,0,.88,1.715,5.189,5.189,0,0,0,2.547,1.516A3.9,3.9,0,0,0,79.754,114.564Z" transform="translate(-41.054 -63.176)"/><path class="i" d="M113.321,113.593a2.187,2.187,0,0,0-.958-3.423,4.891,4.891,0,0,0-5.613,1.148,2.242,2.242,0,0,0-.31,2.374,2.852,2.852,0,0,0,1.511,1.2,5.193,5.193,0,0,0,2.947.323A3.9,3.9,0,0,0,113.321,113.593Z" transform="translate(-45.877 -63.231)"/><g transform="translate(36.146 36.567)"><g transform="translate(0)"><path class="j" d="M84.475,99.2c-.077-.018-.259.806-.824,2.018a11.864,11.864,0,0,1-1.2,2c-.492.685-1.261,1.419-2.175,1.19a2.574,2.574,0,0,1-1.727-1.871,8.857,8.857,0,0,1-.359-2.286c-.036-1.333.169-2.157.09-2.173a4.8,4.8,0,0,0-.433,2.173,8.1,8.1,0,0,0,.275,2.416,3.783,3.783,0,0,0,.667,1.33,2.565,2.565,0,0,0,1.379.884,2.029,2.029,0,0,0,1.623-.33,4.219,4.219,0,0,0,1.023-1.069,10.39,10.39,0,0,0,1.149-2.13A5.294,5.294,0,0,0,84.475,99.2Z" transform="translate(-77.848 -98.083)"/></g><g transform="translate(23.584 1.857)"><path class="j" d="M112.762,101.553a19.758,19.758,0,0,0-.986,2.045,8.938,8.938,0,0,1-1.325,2.005,5.249,5.249,0,0,1-1.063.9,1.835,1.835,0,0,1-1.3.38,1.941,1.941,0,0,1-1.1-.79,5.331,5.331,0,0,1-.664-1.217,7.973,7.973,0,0,1-.481-2.346c-.077-1.385.015-2.258-.066-2.265a6.485,6.485,0,0,0-.277,2.277,7.516,7.516,0,0,0,.405,2.49,5.516,5.516,0,0,0,.7,1.348,2.364,2.364,0,0,0,1.394.98,2.254,2.254,0,0,0,1.641-.456,5.4,5.4,0,0,0,1.141-1,8.269,8.269,0,0,0,1.3-2.157A7.317,7.317,0,0,0,112.762,101.553Z" transform="translate(-105.501 -100.26)"/></g><g transform="translate(11.654 12.503)"><path class="j" d="M91.575,118.46a8.878,8.878,0,0,0,.67-2.823,8.89,8.89,0,0,0,.191-2.895,8.758,8.758,0,0,0-.67,2.822A8.782,8.782,0,0,0,91.575,118.46Z" transform="translate(-91.512 -112.743)"/></g><g transform="translate(8.674 15.361)"><path class="j" d="M94.936,117.027c-.073-.038-.3.442-.909.96a3.531,3.531,0,0,1-5.358-.725c-.453-.663-.54-1.185-.62-1.168a1.92,1.92,0,0,0,.327,1.346,3.648,3.648,0,0,0,5.885.8C94.872,117.6,94.984,117.039,94.936,117.027Z" transform="translate(-88.018 -116.095)"/></g></g><g transform="translate(35.041 65.541)"><path class="k" d="M89.651,139.006c-1.22-2.857-3.289-5.688-6.3-6.672-2.918-.956-5.421.619-6.21,3.657a18.5,18.5,0,0,0-.582,5.228c.061,1.9.528,3.976,2.115,5.144,1.866,1.373,4.674.933,6.54-.41a15.14,15.14,0,0,0,4.085-5.358" transform="translate(-76.552 -132.055)"/><g transform="translate(6.848 4.871)"><path class="l" d="M89.48,139.848a10.57,10.57,0,0,0-2.382-1.191,10.68,10.68,0,0,0-2.515-.878,10.472,10.472,0,0,0,2.383,1.191A10.551,10.551,0,0,0,89.48,139.848Z" transform="translate(-84.582 -137.767)"/></g><g transform="translate(6.721 7.648)"><path class="l" d="M90.3,141.033a15.087,15.087,0,0,0-3,1.089,15.135,15.135,0,0,0-2.866,1.4,15.149,15.149,0,0,0,3-1.089A15.134,15.134,0,0,0,90.3,141.033Z" transform="translate(-84.432 -141.023)"/></g><path class="k" d="M92.5,139.283c1.67-2.62,4.173-5.074,7.3-5.555,3.034-.466,5.247,1.5,5.53,4.621a18.457,18.457,0,0,1-.278,5.253c-.369,1.863-1.169,3.838-2.925,4.731-2.066,1.051-4.763.159-6.385-1.471a15.138,15.138,0,0,1-3.156-5.953" transform="translate(-78.899 -132.291)"/><g transform="translate(14.934 5.949)"><path class="l" d="M94.063,140.3a10.547,10.547,0,0,0,2.624-.456,10.494,10.494,0,0,0,2.545-.787,10.626,10.626,0,0,0-2.624.456A10.573,10.573,0,0,0,94.063,140.3Z" transform="translate(-94.063 -139.031)"/></g><g transform="translate(13.988 7.767)"><path class="l" d="M92.955,141.169a15.106,15.106,0,0,0,2.6,1.851,15.12,15.12,0,0,0,2.781,1.563,15.1,15.1,0,0,0-2.6-1.85A15.053,15.053,0,0,0,92.955,141.169Z" transform="translate(-92.953 -141.163)"/></g><path class="l" d="M93.311,140.11a2.587,2.587,0,0,0-.452-1.683,1.528,1.528,0,0,0-2.5.224,3.744,3.744,0,0,0-.546,1.524,4.1,4.1,0,0,0,.109,2.486,1.644,1.644,0,0,0,2.071.921,2.1,2.1,0,0,0,.907-1.239A7.337,7.337,0,0,0,93.311,140.11Z" transform="translate(-78.483 -132.911)"/></g><path class="j" d="M93.393,104.417c-.622-.034-1.245-.036-1.866-.016a11.912,11.912,0,0,0-5.052,1.078.7.7,0,0,0-.351.3.713.713,0,0,0,.014.468,9.483,9.483,0,0,0,1.039,2.608,18.48,18.48,0,0,0,2.961,3.5,3.262,3.262,0,0,0,1.231.843,3.464,3.464,0,0,0,1.875-.13,10.377,10.377,0,0,0,2.931-.955,23.961,23.961,0,0,0,4.481-3.32,2.306,2.306,0,0,0,.468-.562.785.785,0,0,0,.043-.705c-.224-.44-1.206-.949-1.62-1.246a9.928,9.928,0,0,0-2.825-1.306A13.938,13.938,0,0,0,93.393,104.417Z" transform="translate(-42.914 -62.444)"/><path class="j" d="M117.944,91.286a5.651,5.651,0,0,0-3.911-1.294,2.633,2.633,0,0,0-2.133.832c-1.089,1.479.472,2.658,1.639,3.216,1.207.576,3.44,1.207,4.636.27a1.925,1.925,0,0,0-.663-3.257" transform="translate(-46.658 -60.325)"/><path class="j" d="M76,89.426a5.652,5.652,0,0,1,4-.968,2.635,2.635,0,0,1,2.057,1c.964,1.564-.688,2.611-1.9,3.07-1.25.474-3.527.919-4.643-.113a1.926,1.926,0,0,1,.93-3.192" transform="translate(-41.278 -60.094)"/><g transform="translate(17.03 64.742)"><path class="m" d="M59.543,136.359l6.683-5.24,21.451,23.013-14.032,3.4Z" transform="translate(-56.038 -131.118)"/><path class="m" d="M88.521,154.706l.648-.39,32.042-19.289L127,141.009l-7.815,12.716L96.226,163.52" transform="translate(-60.302 -131.694)"/><path class="j" d="M57.6,134.918l24.853,18.107,8.562.654,32.046-15.3-2.109,45.732-32.08,9.81-8.37-.661L55.433,179.521Z" transform="translate(-55.433 -131.678)"/><path class="n" d="M84.815,196.346,93.13,197l2.223-40.249-.025.011-8.562-.654-.3-.219c-.291,8.383-1.15,28.137-1.692,40.431Z" transform="translate(-59.751 -134.764)"/></g><g transform="translate(70.368 85.414)"><path class="f" d="M133.035,157.288c-1.344-3.466-5.143-1.406-7.526-.395a22.823,22.823,0,0,0-5.41,2.754c-2.562,2.026-2.969,7.406-.325,9.41,2.707,2.051,10.936,5.485,12.587.438.946-2.891,2.06-7.48,1.22-10.485C133.447,158.533,133.272,157.9,133.035,157.288Z" transform="translate(-117.974 -155.358)"/><path class="d" d="M120.078,161.48a2.858,2.858,0,0,0,2.24,0,2.116,2.116,0,0,0,.754-2.425,3.337,3.337,0,0,0-.2-.471,13.169,13.169,0,0,0-2.58,1.541,4.691,4.691,0,0,0-.982,1.1C119.567,161.309,119.821,161.4,120.078,161.48Z" transform="translate(-118.171 -155.832)"/><path class="d" d="M119.089,163.957a4.155,4.155,0,0,0-.774-.256,7.63,7.63,0,0,0-.108,4.072,7.622,7.622,0,0,0,1.209-.739,2.087,2.087,0,0,0,.955-1.382A1.907,1.907,0,0,0,119.089,163.957Z" transform="translate(-117.975 -156.586)"/><path class="d" d="M118.682,169.655a4.133,4.133,0,0,0,1.2,1.5,14.748,14.748,0,0,0,2.35,1.4,5.81,5.81,0,0,0,.587-.651,1.477,1.477,0,0,0,.362-.816c.02-.7-.77-1.112-1.451-1.271A8.785,8.785,0,0,0,118.682,169.655Z" transform="translate(-118.078 -157.452)"/></g><g transform="translate(14.23 85.414)"><path class="f" d="M52.993,157.288c1.344-3.466,5.143-1.406,7.526-.395a22.823,22.823,0,0,1,5.41,2.754c2.562,2.026,2.969,7.406.325,9.41-2.707,2.051-10.936,5.485-12.587.438-.946-2.891-2.061-7.48-1.22-10.485C52.58,158.533,52.755,157.9,52.993,157.288Z" transform="translate(-52.15 -155.358)"/><path class="d" d="M68.027,161.48a2.858,2.858,0,0,1-2.24,0,2.116,2.116,0,0,1-.754-2.425,3.342,3.342,0,0,1,.2-.471,13.169,13.169,0,0,1,2.58,1.541,4.691,4.691,0,0,1,.982,1.1C68.537,161.309,68.284,161.4,68.027,161.48Z" transform="translate(-54.03 -155.832)"/><path class="d" d="M69.269,163.957a4.155,4.155,0,0,1,.774-.256,7.63,7.63,0,0,1,.108,4.072,7.577,7.577,0,0,1-1.208-.739,2.085,2.085,0,0,1-.956-1.382A1.908,1.908,0,0,1,69.269,163.957Z" transform="translate(-54.479 -156.586)"/><path class="d" d="M69.313,169.655a4.133,4.133,0,0,1-1.2,1.5,14.748,14.748,0,0,1-2.35,1.4,5.81,5.81,0,0,1-.587-.651,1.477,1.477,0,0,1-.362-.816c-.02-.7.77-1.112,1.451-1.271A8.785,8.785,0,0,1,69.313,169.655Z" transform="translate(-54.014 -157.452)"/></g><path class="e" d="M44.939,197.974c-4.453-3.893-9.257-9.1-9.469-15.4-.117-3.46,1.726-5.072,4.793-6.44,3.286-1.464,7.074-1.324,10.6-.613,7.18,1.446,13.766,5.1,19.53,9.624C77.5,190.721,83.285,197.4,88.656,204.6c.5.049.785-.545.938-1.024a12.42,12.42,0,0,1,3.219-5.393,7.4,7.4,0,0,1,5.8-2.053c1.026,5.117,2.005,10.662-.253,15.368-.812,1.691-2.95,6.414-4.658,7.335a2.275,2.275,0,0,1-1.367.113,95.262,95.262,0,0,1-25.524-6.955q-2.675-1.146-5.277-2.454A94.765,94.765,0,0,1,44.939,197.974Z" transform="translate(-35.465 -72.835)"/><path class="f" d="M131.229,197.974c4.453-3.893,9.257-9.1,9.47-15.4.117-3.46-1.726-5.072-4.794-6.44-3.285-1.464-7.074-1.324-10.6-.613-7.18,1.446-13.766,5.1-19.529,9.624C98.668,190.721,92.883,197.4,87.512,204.6c-.5.049-.785-.545-.938-1.024a12.419,12.419,0,0,0-3.219-5.393,7.4,7.4,0,0,0-5.8-2.053c-1.027,5.117-2.006,10.662.252,15.368.812,1.691,2.951,6.414,4.658,7.335a2.275,2.275,0,0,0,1.367.113,95.262,95.262,0,0,0,25.524-6.955q2.675-1.146,5.277-2.454A94.732,94.732,0,0,0,131.229,197.974Z" transform="translate(-41.494 -72.835)"/></g></g></g></svg>