<svg xmlns="http://www.w3.org/2000/svg" xmlns:xlink="http://www.w3.org/1999/xlink" width="147" height="146" viewBox="0 0 147 146"><defs><style>.a{fill:#fff;}.b{fill:#005ab2;}.c{clip-path:url(#c);}.d{fill:#5da9aa;}.e{fill:#dbbd40;}.f{fill:#481e19;}.g{fill:#c47f5f;}.h{fill:#dfbaa8;}.i{fill:#d69ba4;}.j{fill:#f5f1f5;}.k{fill:#329293;}.l{filter:url(#a);}</style><filter id="a" x="0" y="0" width="147" height="146" filterUnits="userSpaceOnUse"><feOffset dx="5" dy="5" input="SourceAlpha"/><feGaussianBlur stdDeviation="5" result="b"/><feFlood flood-opacity="0.2"/><feComposite operator="in" in2="b"/><feComposite in="SourceGraphic"/></filter><clipPath id="c"><path class="a" d="M58.52,0A58.52,58.52,0,1,1,0,58.52,58.52,58.52,0,0,1,58.52,0Z"/></clipPath></defs><g transform="translate(9.787 2)"><g class="l" transform="matrix(1, 0, 0, 1, -9.79, -2)"><ellipse class="b" cx="58.5" cy="58" rx="58.5" ry="58" transform="translate(10 10)"/></g><path class="a" d="M58.52,0A58.52,58.52,0,1,1,0,58.52,58.52,58.52,0,0,1,58.52,0Z" transform="translate(0)"/><g class="c" transform="translate(0)"><g transform="translate(-11.233 10.424)"><g transform="translate(0 0)"><g transform="translate(0)"><ellipse class="d" cx="54.531" cy="7.856" rx="54.531" ry="7.856" transform="translate(12.718 227.972)"/><g transform="translate(0 155.132)"><g transform="translate(20.109 13.127)"><path class="e" d="M579.246,356.234c-5.353-.7-10.351-2.941-12.9-7.972-3.566-7.05-1.362-14.937-9.316-19.657a1.686,1.686,0,0,1,1.7-2.909,18.181,18.181,0,0,1,7.829,9.512c.959,2.763,1,5.66,1.76,8.456,1.5,5.49,5.328,8.476,10.921,9.2,2.119.275,2.147,3.647,0,3.368Z" transform="translate(-556.228 -325.449)"/></g><path class="f" d="M580.1,311.385c6.67-.536,12.832.4,18.465,4.265,2.58,1.771,4.56,4.258,3.966,7.556a7.025,7.025,0,0,1-4.423,4.957c-3.325,1.313-6.684-.5-9.259-2.6a58.123,58.123,0,0,1-4.71-4.836c-.528-.542-1.492-1.015-1.681-1.8-.073-.3.454-2.158.983-1.816a18.624,18.624,0,0,0-3.151-1.7,1.883,1.883,0,0,1-.943-.806A1.736,1.736,0,0,1,580.1,311.385Z" transform="translate(-578.488 -311.246)"/></g><g transform="translate(22.848)"><g transform="translate(25.759 194.962)"><path class="e" d="M508.758,354.34V387.7h9.582l1.331-24.872.455-8.487Z" transform="translate(-480.13 -354.34)"/><path class="f" d="M510.689,390.433v5.136a4.651,4.651,0,0,0,9.3.253l.287-5.389Z" transform="translate(-482.061 -357.074)"/><path class="f" d="M541.663,390.433v5.136a4.652,4.652,0,0,0,9.3.253l.286-5.389Z" transform="translate(-541.663 -357.074)"/><path class="e" d="M539.731,354.34V387.7h9.582l1.044-19.618.741-13.741Z" transform="translate(-539.731 -354.34)"/></g><g transform="translate(13.488 9.114)"><path class="g" d="M540.567,163.913l2.74-3.583L555.846,173.5l-2.107,2.107Z" transform="translate(-532.98 -153.798)"/><circle class="g" cx="6.164" cy="6.164" r="6.164"/></g><g transform="translate(31.244)"><path class="g" d="M536.555,168.707,533.5,154.482l3.794-.421,2.74,14.752Z" transform="translate(-528.389 -144.208)"/><path class="g" d="M545.086,149.565a6.164,6.164,0,1,1-6.164-6.164A6.164,6.164,0,0,1,545.086,149.565Z" transform="translate(-532.758 -143.401)"/></g><path class="e" d="M501.846,313.691c.186,9.194,1.1,17.126,2.829,23.44q.2.733.455,1.415a24.287,24.287,0,0,0,21.488,16.081c8.6.573,21.79.169,29.351-6.382a15.887,15.887,0,0,0,5.187-15.845l-2.846-14.112v-.018l-11.5-57.12c-.4-1.953-1.263-8.874-2.307-18v-.018c-.438-3.94-.926-8.3-1.432-12.848-2.694-24.586-5.792-54.678-5.792-54.678l-12.664,1.717c-2.846,10.053-5.506,20.174-7.915,30.21-2,8.336-3.856,16.621-5.489,24.738C504.928,263.189,501.374,291.951,501.846,313.691Z" transform="translate(-489.34 -145.84)"/><g transform="translate(12.506 61.134)"><path class="g" d="M540.654,234.842a6.444,6.444,0,0,0,2.846,1.852c2.055.657,5.843-.522,6.618-2.711.741-2.089-.539-4.85-.27-7.107.64-5.423,7.157-7.645,4.631-13.539a5.629,5.629,0,0,0-6.045-3.772,9.269,9.269,0,0,0-2.29.539C544.139,218.44,542.287,226.725,540.654,234.842Z" transform="translate(-531.29 -209.544)"/><path class="g" d="M520.226,238.89c.118,1.8,1.247,3.048,1.9,4.715.471,1.2.32,3.132.825,4.143,1.735,3.4,8.015.842,10.491-.218.05-.018.1-.051.152-.067v-.018c-.438-3.94-.926-8.3-1.432-12.848a9.128,9.128,0,0,0-6.517-2.02A6.344,6.344,0,0,0,520.226,238.89Z" transform="translate(-490.941 -211.285)"/><path class="g" d="M505.824,342.326c.506,2.694-2.138,4.058-3.064,6.281a7.462,7.462,0,0,0,.1,5.894c1.229,2.19,4.378,2.93,6.534,3.89a33.891,33.891,0,0,0,3.62,1.414,16.764,16.764,0,0,0,2.88-3.2A16.6,16.6,0,0,0,518.2,343.96l-2.846-14.112v-.018c-3.469-1.65-7.477-2.205-10.323-.774a6.34,6.34,0,0,0-3.132,6.5C502.423,338.1,505.336,339.716,505.824,342.326Z" transform="translate(-458.892 -218.535)"/><path class="g" d="M536.5,325.007c.186,9.195,1.1,17.126,2.829,23.44q.2.733.455,1.415a10.7,10.7,0,0,1,6.955.892c3.94,1.853,6.4,4.429,11.081,3.5,2.694-.539,9.11-3.873,4.883-6.9-2.862-2.055-7.056-.421-10.221-1.717a6.447,6.447,0,0,1-3.907-7.326c.37-1.836,1.9-3.048,1.246-5.018-.69-2.071-3.132-3.368-4.866-4.312A46.461,46.461,0,0,0,536.5,325.007Z" transform="translate(-536.501 -218.29)"/></g><path class="e" d="M529.784,188.15l-31.32-18.872a12.407,12.407,0,0,0-12.6-.315,12.015,12.015,0,0,0-4.061,16.9l15.657,24.285a56.769,56.769,0,0,1,3.362,6.257,21.358,21.358,0,1,0,28.961-28.254Z" transform="translate(-449.003 -145.218)"/><path class="h" d="M524.967,207.518l.022.268c.912,12.683-8.886,23.8-22.008,24.9-13.223,1.109-24.8-8.363-25.873-21.15a2.394,2.394,0,0,1-.011-.336,22.018,22.018,0,0,1,.273-5.437,12.315,12.315,0,0,1,5.278-8.44,12.789,12.789,0,0,1,8.894-1.776,33.58,33.58,0,0,0,16.629-1.4,12.73,12.73,0,0,1,3.113-.657q.6-.051,1.194-.045a12.41,12.41,0,0,1,11.336,8.6A22.472,22.472,0,0,1,524.967,207.518Z" transform="translate(-429.975 -147.191)"/><path class="i" d="M501.438,188.333c-.054,1.408,1.748,2.617,4.022,2.7s4.163-.985,4.217-2.392-1.748-2.617-4.023-2.7S501.491,186.926,501.438,188.333Z" transform="translate(-437.158 -146.623)"/><path class="i" d="M526.858,196.5c-.091,1.4,1.677,2.663,3.949,2.81s4.187-.874,4.278-2.279-1.677-2.663-3.949-2.81S526.948,195.093,526.858,196.5Z" transform="translate(-486.06 -147.249)"/><path class="f" d="M533.936,192.1c1.39-.223,2.226-2.226,1.864-4.473s-1.779-3.889-3.169-3.667-2.226,2.226-1.865,4.474S532.546,192.322,533.936,192.1Z" transform="translate(-490.394 -146.471)"/><path class="f" d="M520.3,186.978c1.391-.224,2.225-2.227,1.864-4.474s-1.779-3.889-3.169-3.667-2.226,2.227-1.864,4.474S518.913,187.2,520.3,186.978Z" transform="translate(-464.162 -146.084)"/><g transform="translate(64.308 70.204)"><path class="f" d="M503.141,220.148l.007.018c1.853,4.924,6.127,3.958,6.17,3.948a.6.6,0,0,0-.278-1.164c-.146.034-3.3.7-4.773-3.2a.6.6,0,0,0-1.126.4Z" transform="translate(-503.109 -219.358)"/></g><g transform="translate(56.81 51.933)"><path class="i" d="M517.836,203.54a3.664,3.664,0,1,1-3.654-3.95A3.811,3.811,0,0,1,517.836,203.54Z" transform="translate(-510.53 -199.59)"/><path class="i" d="M490.629,203.54a3.664,3.664,0,1,1-3.653-3.95A3.81,3.81,0,0,1,490.629,203.54Z" transform="translate(-458.178 -199.59)"/></g><path class="e" d="M575.845,176.52s-22.023,1.264-31.4,22.128c0,0,20.443,2.634,32.771-17.175Z" transform="translate(-544.443 -145.91)"/><path class="e" d="M494.27,166.907s10.7-19.292,33.564-18.686c0,0-6.5,19.56-29.7,22.069Z" transform="translate(-448.69 -143.765)"/><path class="f" d="M529.879,191.233c3.252,5.547,7.431,9.854,11.878,14.442.378.39-.217.986-.6.6-4.516-4.66-8.712-8.987-12.009-14.613A.421.421,0,0,1,529.879,191.233Z" transform="translate(-494.919 -147.009)"/><path class="f" d="M523.435,167.633a17.272,17.272,0,0,1,7.663,3.43c.427.332-.172.924-.6.6a16.44,16.44,0,0,0-7.291-3.214C522.678,168.351,522.9,167.539,523.435,167.633Z" transform="translate(-478.569 -145.236)"/><path class="f" d="M534.249,145.26c4.8-.713,5.931,6.389,2.764,8.919-.42.335-1.02-.257-.6-.6,2.363-1.887,2.14-8.119-1.944-7.512C533.943,146.15,533.714,145.338,534.249,145.26Z" transform="translate(-496.322 -143.538)"/><path class="f" d="M553.261,154.239a5.545,5.545,0,0,1,5.324,7.014.421.421,0,0,1-.812-.224,4.7,4.7,0,0,0-4.512-5.949A.421.421,0,0,1,553.261,154.239Z" transform="translate(-533.774 -144.222)"/><path class="f" d="M549.546,195.5c4.661-8.713,13.307-13.12,22.345-16.155.515-.173.736.64.225.811-8.845,2.971-17.274,7.228-21.843,15.769C550.017,196.406,549.29,195.981,549.546,195.5Z" transform="translate(-544.301 -146.122)"/><path class="f" d="M500.377,164.735a31.45,31.45,0,0,1,8.468-8.5c4.428-2.946,9.568-3.629,14.176-6.107.478-.257.9.47.425.726-3.755,2.02-8.01,2.655-11.783,4.674A30.043,30.043,0,0,0,501.1,165.16C500.8,165.6,500.069,165.182,500.377,164.735Z" transform="translate(-450.087 -143.907)"/></g><g transform="translate(7.14 93.081)"><path class="j" d="M539.939,259.042c-3.4,2.588-7.213,2.463-11.367,0v54.29a6.314,6.314,0,0,0,1.941,4.628c1.918,1.785,3.816,2.138,5.7,1.284a6.193,6.193,0,0,0,3.428-5.669Z" transform="translate(-476.791 -245.241)"/><path class="k" d="M539.939,265.29c-3.4,2.589-7.213,2.464-11.367,0v54.29a6.311,6.311,0,0,0,1.941,4.628c1.918,1.785,3.816,2.138,5.7,1.284a6.191,6.191,0,0,0,3.428-5.668Z" transform="translate(-476.791 -245.714)"/><g transform="translate(0)"><path class="d" d="M591.968,264.048l-51.782-15.156v54.939l52.413,16Z" transform="translate(-540.187 -244.472)"/><path class="j" d="M588.886,264.949s.422-15.577-30.311-14.525c0,0-12.382,1.624-20-5.892q-.211-.207-.414-.422l-2.526,5.683,48.414,13.892Z" transform="translate(-532.264 -244.11)"/></g><g transform="translate(58.307)"><path class="d" d="M473.177,264.048l51.782-15.156v54.939l-52.413,16Z" transform="translate(-468.336 -244.472)"/><path class="j" d="M476.19,264.949s-.422-15.577,30.311-14.525c0,0,12.382,1.624,20-5.892.14-.138.278-.278.414-.422l2.526,5.683-48.414,13.892Z" transform="translate(-476.19 -244.11)"/></g></g><g transform="translate(115.138 122.55)"><path class="e" d="M465.486,281.888a5.894,5.894,0,1,0,5.894-5.894A5.894,5.894,0,0,0,465.486,281.888Z" transform="translate(-463.816 -275.994)"/><path class="f" d="M471.377,282.8c0,3.255-1.15,5.894,2.1,5.894a5.894,5.894,0,1,0,0-11.788C470.227,276.9,471.377,279.544,471.377,282.8Z" transform="translate(-471.18 -276.063)"/></g><g transform="translate(1.891 122.55)"><path class="e" d="M601.608,281.888a5.894,5.894,0,1,1-5.894-5.894A5.894,5.894,0,0,1,601.608,281.888Z" transform="translate(-589.821 -275.994)"/><path class="f" d="M596.012,282.8c0,3.255,1.15,5.894-2.106,5.894a5.894,5.894,0,0,1,0-11.788C597.162,276.9,596.012,279.544,596.012,282.8Z" transform="translate(-582.751 -276.063)"/></g><path class="f" d="M513.707,366.724c8.983,3.311,22.519,2.8,30.916-1.788.475-.26.9.467.425.727-8.769,4.794-22.25,5.305-31.565,1.873C512.979,367.351,513.2,366.536,513.707,366.724Z" transform="translate(-460.757 -160.177)"/></g></g></g></g></g></svg>