<svg xmlns="http://www.w3.org/2000/svg" xmlns:xlink="http://www.w3.org/1999/xlink" width="147.06" height="147.06" viewBox="0 0 147.06 147.06"><defs><style>.a,.h{fill:#fff;}.b{fill:#005ab2;}.c{clip-path:url(#c);}.d{fill:#f5af1b;}.e,.h{opacity:0.2;}.e,.f,.h,.o{mix-blend-mode:overlay;isolation:isolate;}.f{opacity:0.4;}.g{fill:#aa5c3a;}.i{fill:#7f3c25;}.j{fill:#ea9219;}.k{fill:#e27f07;}.l{fill:#afaf1e;}.m{fill:#c9d037;}.n{fill:#ffda6a;}.o{opacity:0.3;}.p{fill:#ffe8b6;}.q{filter:url(#a);}</style><filter id="a" x="0" y="0" width="147.06" height="147.06" filterUnits="userSpaceOnUse"><feOffset dx="5" dy="5" input="SourceAlpha"/><feGaussianBlur stdDeviation="5" result="b"/><feFlood flood-opacity="0.2"/><feComposite operator="in" in2="b"/><feComposite in="SourceGraphic"/></filter><clipPath id="c"><path class="a" d="M58.52,0A58.52,58.52,0,1,1,0,58.52,58.52,58.52,0,0,1,58.52,0Z"/></clipPath></defs><g transform="translate(9.939 2.774)"><g class="q" transform="matrix(1, 0, 0, 1, -9.94, -2.77)"><circle class="b" cx="58.53" cy="58.53" r="58.53" transform="translate(10 10)"/></g><path class="a" d="M58.52,0A58.52,58.52,0,1,1,0,58.52,58.52,58.52,0,0,1,58.52,0Z"/><g class="c"><g transform="translate(-9.205 27.606)"><g transform="translate(52.943 55.002)"><path class="d" d="M969.485,1053.245l-10.621-1.084s-3.268,7.608-4.817,7.945l-3.209,11.409C956.763,1073.923,969.485,1053.245,969.485,1053.245Z" transform="translate(-950.838 -1052.161)"/><path class="e" d="M961.612,1062.692c3.213-2.567,5.43-6.1,7.363-9.891l-6.265-.64s-3.268,7.608-4.817,7.945l-.7,2.478A3.418,3.418,0,0,0,961.612,1062.692Z" transform="translate(-954.685 -1052.161)"/></g><g transform="translate(45.556 44.565)"><path class="d" d="M942.669,1044.139c-1.52.126.041-7.508.041-7.508s5.344-3.036,4.736-4.419-4.305.434-4.305.434,1.578-4.486-.178-5.37-2.778,2.255-2.778,2.255-.97-4.66-3.055-3.642-1.058,3.558-1.058,3.558-2.628-3.151-3.758-.248,3.636,7.019,3.636,7.019-1.878,15.86,3.144,19.1a2.6,2.6,0,0,0,.433.22l3.209-11.409C942.713,1044.128,942.69,1044.137,942.669,1044.139Z" transform="translate(-932.14 -1025.743)"/><path class="e" d="M955.386,1049.528a.621.621,0,0,1-.067.015c-1.52.126.042-7.508.042-7.508s5.345-3.036,4.735-4.419-4.3.434-4.3.434a12.4,12.4,0,0,0,.65-3.373c-1.952,5.133-4.727,11.119-2.658,16.063a3.475,3.475,0,0,0,.905,1.266Z" transform="translate(-944.79 -1031.147)"/></g><g transform="translate(124.879 45.777)"><path class="d" d="M1132.934,1048.952s16.144-.572,18.028-3.9,1.606-11.223,2.257-11.865,4.981-2.032,4.094-3.371-7.458-1.6-8.7.781-2.845,6.844-3.785,7.336-10.118-4.262-10.118-4.262Z" transform="translate(-1132.934 -1028.809)"/><path class="f" d="M1146.61,1040.693c-3.7-.539-7.113-1.661-10.544-2.405l.535-4.612s9.179,4.754,10.118,4.262,2.538-4.959,3.785-7.335c.655-1.249,2.778-1.77,4.776-1.79-2.871,2.781-4.29,7.971-6.836,11.187C1148.356,1040.4,1147.243,1040.684,1146.61,1040.693Z" transform="translate(-1134.829 -1028.811)"/><path class="e" d="M1147.883,1041.739c-3.822,3.226-8.344,1.243-12.807-.08l.391-3.372c3.432.744,6.841,1.866,10.545,2.406.633-.009,1.745-.291,1.834-.694,2.545-3.216,3.964-8.405,6.835-11.186a7.752,7.752,0,0,1,3.471.625c-.22.034-.439.072-.656.119C1151.779,1030.7,1151.994,1038.335,1147.883,1041.739Z" transform="translate(-1134.23 -1028.81)"/></g><g transform="translate(108.098 58.373)"><path class="d" d="M1127.661,1078.109c-.874,1.31-7.9-2-7.9-2s-3.1.285-10.972,1.192-18.335-.035-18.335-.035l8.052-16.569s22.666,9.126,24.9,10.47c.016.008.03.019.046.027a.6.6,0,0,1,.12.094c.3.388,1.657,1.893,2.751,3.425C1127.307,1076.088,1128.077,1077.489,1127.661,1078.109Z" transform="translate(-1090.454 -1060.695)"/><path class="e" d="M1127.455,1089.59c-10.464-1.148-24.791-.718-35.128,1.906l2.986-2.6c9.6-3.326,19.652-4.535,29.225-2.854h.007c.013.008.026.019.04.027a.59.59,0,0,1,.12.094C1125,1086.553,1126.361,1088.058,1127.455,1089.59Z" transform="translate(-1091.587 -1075.574)"/><path class="f" d="M1099.882,1074.139c9.608-3.325,19.656-4.535,29.233-2.855-1.825-1.154-25.028-10.392-25.028-10.392Z" transform="translate(-1096.157 -1060.814)"/></g><g transform="translate(116.716 4.814)"><path class="d" d="M1128.885,925.32h0a18.211,18.211,0,0,1,5.7,1.8c.077.042.155.083.228.125a17.608,17.608,0,0,1,3.084,2.219,17.927,17.927,0,0,1,2.565,2.849,17.063,17.063,0,0,1,1.954,3.47,15.449,15.449,0,0,1,1.214,5.583v0a19.962,19.962,0,0,1-.271,3.892c-.084.51-.185,1.015-.3,1.518a9.158,9.158,0,0,1-1.932,3.933,11.288,11.288,0,0,1-3.276,2.627,21.263,21.263,0,0,1-5.719,2.048c-1.526.339-2.961.542-4.121.689-.507.065-.96.12-1.348.173a3.94,3.94,0,0,0-1.053.3,7.439,7.439,0,0,0-3.083,2.951,16.73,16.73,0,0,0-1.654,3.542l-8.615.4a17.1,17.1,0,0,1,5.546-8.811,11.46,11.46,0,0,1,5.516-2.28c1.387-.185,2.682-.352,3.885-.532s2.331-.366,3.358-.591a15.408,15.408,0,0,0,4.259-1.462,7.129,7.129,0,0,0,2.511-2.239,8.673,8.673,0,0,0,1.242-2.915c.017-.07.033-.141.05-.211a16.392,16.392,0,0,0,.394-2.908,11.232,11.232,0,0,0-.358-3.467,9.174,9.174,0,0,0-1.333-2.862,10.332,10.332,0,0,0-1.7-1.9,13.416,13.416,0,0,0-1.486-1.128,9.569,9.569,0,0,0-1.122-.635,10.673,10.673,0,0,0-2.456-.836,9.6,9.6,0,0,0-3.472-.13,7.263,7.263,0,0,0-1.7.464c-.022.011-.047.018-.07.028a2.778,2.778,0,0,0-1.7,1.887,1.5,1.5,0,0,0,.426,1.244,3.38,3.38,0,0,0,.974.729,5.972,5.972,0,0,0,2.213.62,1.416,1.416,0,0,1,.2.034c1.526.391,4.911,3.833.874,4.966a6.933,6.933,0,0,1-2.354.235,8.141,8.141,0,0,1-3.426-1.071,9.6,9.6,0,0,1-4.566-5.862,7.092,7.092,0,0,1,.052-3.753,6.453,6.453,0,0,1,.7-1.59,7.11,7.11,0,0,1,4.875-3.1A15.451,15.451,0,0,1,1128.885,925.32Z" transform="translate(-1112.269 -925.118)"/><path class="g" d="M1142.968,950.473a1.428,1.428,0,0,1,.2.034,6.41,6.41,0,0,0-1.092,1.958,13.44,13.44,0,0,0-.389,3.243,8.142,8.142,0,0,1-3.426-1.071,17.907,17.907,0,0,1,1.294-3.091,7.473,7.473,0,0,1,1.2-1.694A5.972,5.972,0,0,0,1142.968,950.473Z" transform="translate(-1127.992 -940.082)"/><path class="g" d="M1130.155,934.239a13.517,13.517,0,0,1,3.561,1.922,2.779,2.779,0,0,0-1.7,1.887,19.251,19.251,0,0,0-2.581.149,18.408,18.408,0,0,0-3.079.747,7.1,7.1,0,0,1,.051-3.753,6.472,6.472,0,0,1,.7-1.59A15.8,15.8,0,0,1,1130.155,934.239Z" transform="translate(-1120.652 -930.25)"/><path class="g" d="M1146.239,925.32h0a11.981,11.981,0,0,1,1.112,2.362,10.625,10.625,0,0,1,.57,2.985,9.6,9.6,0,0,0-3.473-.13,12.105,12.105,0,0,0-1.108-2.569,9.923,9.923,0,0,0-2.389-2.6A15.451,15.451,0,0,1,1146.239,925.32Z" transform="translate(-1129.622 -925.118)"/><path class="g" d="M1166.378,930.193l.228.125a17.6,17.6,0,0,1,3.084,2.219,10.254,10.254,0,0,1-.988,2.127,13.243,13.243,0,0,1-1.282,1.672,13.361,13.361,0,0,0-1.486-1.128,9.613,9.613,0,0,0-1.122-.635,18.63,18.63,0,0,0,.882-2.09A22.761,22.761,0,0,0,1166.378,930.193Z" transform="translate(-1144.056 -928.188)"/><path class="g" d="M1178.858,943.338a17.044,17.044,0,0,1,1.954,3.47,9.65,9.65,0,0,1-1.767,1.332,13.986,13.986,0,0,1-1.984.911,9.172,9.172,0,0,0-1.333-2.862,19.269,19.269,0,0,0,1.673-1.38C1177.979,944.278,1178.462,943.781,1178.858,943.338Z" transform="translate(-1150.659 -936.14)"/><path class="g" d="M1183.936,966.263a19.981,19.981,0,0,1-.271,3.892,11.145,11.145,0,0,1-2.83-.1,13.609,13.609,0,0,1-1.95-.545l.05-.211a16.376,16.376,0,0,0,.394-2.908,18.535,18.535,0,0,0,2.418.061C1182.584,966.415,1183.32,966.344,1183.936,966.263Z" transform="translate(-1152.568 -950.009)"/><path class="g" d="M1171.9,981.85a19.5,19.5,0,0,0,1.693,1.606,22.633,22.633,0,0,0,2.1,1.579,11.287,11.287,0,0,1-3.276,2.627,11.123,11.123,0,0,1-2.039-2.009,13.426,13.426,0,0,1-.99-1.564A7.128,7.128,0,0,0,1171.9,981.85Z" transform="translate(-1146.822 -959.438)"/><path class="g" d="M1153.463,991.218a19.2,19.2,0,0,0,.615,1.958,23.357,23.357,0,0,0,.954,2.2c-1.526.339-2.961.542-4.121.689a10.716,10.716,0,0,1-.709-2.552,14.084,14.084,0,0,1-.1-1.707C1151.319,991.63,1152.437,991.442,1153.463,991.218Z" transform="translate(-1135.158 -965.105)"/><path class="g" d="M1129.108,995.823a19.088,19.088,0,0,0,1.874,1.568,21.243,21.243,0,0,0,3.131,1.932,7.436,7.436,0,0,0-3.082,2.951,13.053,13.053,0,0,1-3.108-2.478,14.671,14.671,0,0,1-1.616-2.39A11.4,11.4,0,0,1,1129.108,995.823Z" transform="translate(-1120.762 -967.891)"/><path class="f" d="M1140.161,948.187a23.013,23.013,0,0,0-.561-8.224,12.849,12.849,0,0,0-7.1-7.159,11.151,11.151,0,0,0-5.063-.949,8.108,8.108,0,0,0-4.877,2.717q-.114.121-.224.245a3.975,3.975,0,0,0-.125,4.453,4.293,4.293,0,0,0,1.912,1.506,11.469,11.469,0,0,0,3.51.846,15.882,15.882,0,0,0,2.1-.207,4.783,4.783,0,0,0-2.29-1.812,1.373,1.373,0,0,0-.2-.034,5.974,5.974,0,0,1-2.213-.62,3.382,3.382,0,0,1-.974-.729,1.5,1.5,0,0,1-.426-1.244,2.779,2.779,0,0,1,1.7-1.887c.022-.011.047-.018.07-.028a7.281,7.281,0,0,1,1.7-.464,9.591,9.591,0,0,1,3.472.13,10.656,10.656,0,0,1,2.456.836,9.587,9.587,0,0,1,1.122.635,13.379,13.379,0,0,1,1.486,1.128,10.327,10.327,0,0,1,1.7,1.9,9.172,9.172,0,0,1,1.333,2.862,11.232,11.232,0,0,1,.358,3.467,16.389,16.389,0,0,1-.394,2.908l-.05.211a8.674,8.674,0,0,1-1.242,2.915,7.131,7.131,0,0,1-2.511,2.239,15.422,15.422,0,0,1-4.259,1.462c-1.027.224-2.144.412-3.358.591s-2.5.346-3.885.532a11.46,11.46,0,0,0-5.516,2.28,17.1,17.1,0,0,0-5.546,8.811l1.876-.087c1.725-8.274,10.288-9.435,19.123-11.444A8.939,8.939,0,0,0,1140.161,948.187Z" transform="translate(-1112.269 -929.177)"/><path class="h" d="M1129.1,939.182c1.314.181.068-2.012.384-4.3s2.073-3.8.759-3.984-2.636,1.526-2.952,3.813S1127.788,939,1129.1,939.182Z" transform="translate(-1121.317 -928.607)"/></g><g transform="translate(72.553 33.514)"><path class="d" d="M1057.652,1018.007c-.017.411-.045.821-.083,1.237-.031.358-.065.719-.11,1.084-.026.225-.055.449-.087.677a.007.007,0,0,1,0,.01c0,.03-.008.064-.01.1-.073.523-.156,1.046-.247,1.572-.044.244-.088.485-.138.725-.031.156-.062.315-.1.471-.017.1-.038.207-.061.308-.048.206-.1.412-.152.615a1.018,1.018,0,0,1-.024.1l-.005.023c-.024.105-.052.206-.083.31-.044.182-.1.364-.15.546-.063.215-.122.431-.191.643-.021.067-.043.135-.069.2-.061.195-.126.39-.193.577a.494.494,0,0,0-.022.071c-.068.194-.142.381-.21.569-.062.157-.124.314-.19.471s-.132.32-.2.477c-.09.207-.182.413-.278.616q-.432.912-.932,1.759c-.109.188-.228.373-.346.557-.1.168-.214.332-.325.493-.019.03-.038.053-.05.076-.1.137-.2.275-.3.409-.038.052-.068.1-.105.14-.113.151-.226.3-.349.447a.024.024,0,0,1-.008.017c-.12.156-.254.312-.388.461a.182.182,0,0,1-.048.052c-.127.152-.26.3-.4.447s-.288.306-.439.454-.3.3-.462.439a14.413,14.413,0,0,1-1.272,1.047c-.055.044-.115.081-.173.122-.144.106-.292.21-.443.313-.054.034-.112.075-.169.112-.165.106-.33.211-.5.31-.186.111-.372.219-.564.322s-.364.195-.552.285a.558.558,0,0,1-.053.028c-.192.1-.38.19-.574.267s-.406.175-.614.257c-.416.171-.842.32-1.283.452-.168.051-.339.1-.511.147s-.346.093-.524.136-.332.077-.5.114c-.039.011-.084.015-.122.023-.154.038-.3.065-.456.1a21.378,21.378,0,0,1-3.324.335,26.139,26.139,0,0,1-2.832-.081c-.372-.029-.743-.067-1.124-.117-1.083-.128-2.2-.317-3.369-.574-.047-.013-.095-.02-.145-.037-1.024-.23-2.079-.507-3.169-.842-.064-.018-.125-.035-.188-.057-.262-.08-.524-.166-.783-.245-.817-.254-1.624-.5-2.42-.746-.051-.014-.1-.031-.151-.048-15.119-4.681-27.336-8.926-24.081-24.785.956-4.654,3.046-7.82,6.017-9.954a1.478,1.478,0,0,1,.148-.107c.072-.053.144-.1.216-.147.112-.078.227-.153.338-.224,0-.007.014-.01.014-.006.14-.09.276-.177.415-.257.3-.185.614-.357.934-.517a.794.794,0,0,0,.078-.039c.132-.067.266-.133.4-.193s.284-.135.432-.2a.42.42,0,0,1,.081-.036c.156-.068.311-.133.47-.2s.335-.136.507-.2c.342-.132.69-.252,1.044-.365.175-.057.358-.114.536-.166s.364-.109.549-.158.367-.1.555-.148.377-.094.565-.137.383-.084.575-.13c.386-.08.783-.157,1.178-.226.223-.043.445-.079.67-.113.181-.029.361-.058.544-.083.2-.031.409-.062.62-.085s.416-.058.623-.082c1.269-.148,2.58-.251,3.937-.324.9-.049,1.824-.08,2.766-.1.141,0,.278-.005.419-.006.1,0,.193,0,.292,0,.237-.008.474-.013.714-.01q1.927-.019,3.938.012c.912.01,1.834.027,2.766.046.024,0,.051,0,.075,0l.247.006c.3,0,.59.009.888.019.815.021,1.606.053,2.37.109.086,0,.164.011.246.016.212.015.424.029.635.05.143.01.287.023.427.035s.307.031.457.045c.273.029.542.06.8.092l.646.084c.112.018.225.033.333.053q.979.138,1.886.323,1.174.234,2.239.539l.108.031c.037.013.074.022.111.035l.629.186q.932.294,1.779.635c.077.029.15.062.224.094.13.053.257.106.387.167s.236.1.359.165a.022.022,0,0,1,.013,0c.283.129.556.261.821.4.182.094.361.192.54.29.139.078.278.159.409.24.1.062.2.12.293.181.066.042.132.081.2.127q.335.213.65.435c.1.079.209.151.31.227s.209.155.307.233c.2.151.391.311.579.475l.281.249a14.357,14.357,0,0,1,2.8,3.455.207.207,0,0,1,.021.036c.049.089.1.179.15.271.11.2.219.409.322.615l.15.312c.147.319.283.64.4.968.041.109.085.218.122.328.078.221.152.442.223.667.037.109.071.225.1.336s.067.228.1.339c.06.231.12.461.173.691.031.15.066.3.09.449.027.1.047.212.068.32.037.212.074.424.108.635.074.475.131.963.173,1.45.021.245.036.49.053.734s.025.5.029.747.011.5.011.749c0,.02,0,.038,0,.055C1057.691,1017.025,1057.679,1017.515,1057.652,1018.007Z" transform="translate(-1000.479 -997.77)"/><path class="g" d="M1066.533,1018.578c-.885-.571.662-6.811.07-13.2a16.686,16.686,0,0,0-2.436-7.59c.1,0,.193,0,.292,0,.237-.008.474-.013.714-.01q1.927-.019,3.938.012a14.753,14.753,0,0,1,1.932,6.969C1071.256,1012.247,1067.414,1019.149,1066.533,1018.578Z" transform="translate(-1039.007 -997.77)"/><path class="g" d="M1108.409,1020.739c-.921-.594.691-7.091.073-13.738a18.1,18.1,0,0,0-1.981-6.955q1.173.234,2.239.539l.108.031c.037.013.074.022.111.035l.629.186q.932.295,1.78.635c.077.029.15.062.223.094.13.053.257.106.387.167s.236.105.359.165a15.72,15.72,0,0,1,.77,4.458C1113.328,1014.146,1109.326,1021.333,1108.409,1020.739Z" transform="translate(-1064.617 -999.146)"/><path class="g" d="M1086.366,1025.945c-1.043-.763.867-9.247.233-17.9a24.7,24.7,0,0,0-2.722-10.107l.247.006c.3,0,.59.009.888.019.815.021,1.605.053,2.37.109.086,0,.164.011.246.016.212.015.423.029.635.05.143.01.287.023.427.035s.307.031.457.045c.273.029.542.06.8.092a22.087,22.087,0,0,1,1.94,8.84C1092.055,1017.3,1087.409,1026.709,1086.366,1025.945Z" transform="translate(-1050.931 -997.871)"/><path class="f" d="M1055.965,998.73c.673.142,1.322.3,1.94.474.037.01.073.02.109.033.252.072.5.146.74.223q.934.293,1.78.634c.075.031.15.061.224.095.13.054.256.107.385.165s.248.109.373.17c.283.129.556.26.82.4.186.095.363.192.541.289.139.08.278.16.41.242.1.056.2.118.3.176.038.024.072.049.109.073l.088.055c.222.143.439.289.65.437.1.077.21.152.311.228s.206.154.3.23c.2.154.394.312.58.477l.28.247a14.368,14.368,0,0,1,2.8,3.457.229.229,0,0,1,.018.035h0c.051.089.1.178.151.27.11.2.217.41.32.616.051.106.1.212.15.314.146.318.281.64.407.968.041.107.084.216.12.327.08.219.152.44.225.665.036.111.069.224.1.337s.064.227.1.34c.061.226.118.458.172.69.033.148.066.3.092.447.027.105.046.213.066.321.039.212.076.423.108.637q.109.717.175,1.448c.02.243.036.489.052.736s.025.494.03.745.01.5.011.749c0,.021,0,.038,0,.056,0,.486-.014.974-.041,1.466-.019.411-.046.823-.084,1.237-.032.359-.067.722-.11,1.086-.025.225-.054.45-.087.677,0,.034-.009.071-.012.109-.074.522-.155,1.047-.247,1.573-.042.243-.088.485-.137.723-.031.158-.062.316-.1.469-.018.1-.04.209-.064.309-.046.207-.1.414-.149.617-.007.037-.016.07-.025.1l0,.024c-.025.1-.053.206-.082.309-.046.183-.1.365-.151.547-.062.215-.124.43-.192.641-.022.069-.044.135-.067.2-.062.194-.127.388-.195.578l-.022.069c-.068.193-.14.382-.211.568-.059.16-.121.316-.186.471s-.133.321-.2.479c-.089.207-.183.413-.278.616q-.431.915-.933,1.759c-.11.19-.225.374-.344.559-.106.166-.214.331-.326.492l-.051.074c-.1.14-.194.275-.294.411-.037.049-.069.1-.1.138-.113.151-.227.3-.349.446a.024.024,0,0,1-.01.015c-.125.159-.253.314-.387.464a.3.3,0,0,1-.047.051c-.127.152-.261.3-.4.445s-.29.307-.441.455-.306.3-.463.441a14.858,14.858,0,0,1-1.277,1.045c-.193.151-.4.3-.608.436-.055.036-.114.074-.169.113-.164.1-.332.21-.5.309-.186.11-.372.22-.564.322s-.364.193-.55.286c-.016.008-.035.018-.053.025-.187.093-.38.184-.575.268s-.406.176-.615.258c-.414.164-.84.315-1.282.45a15.734,15.734,0,0,0,3.6-2.6c3.119-2.993,5.065-7.247,5.934-12.215,1.077-6.165.83-12.148-2.25-16.7a14.372,14.372,0,0,0-2.461-2.786,16.392,16.392,0,0,0-2.127-1.571c-.147-.092-.3-.185-.456-.274a20.2,20.2,0,0,0-2.591-1.263.012.012,0,0,1-.01-.005,26.423,26.423,0,0,0-2.619-.885c-.477-.135-.969-.26-1.481-.377-.936-.212-1.93-.393-2.975-.534q-.213-.032-.429-.054-1.329-.18-2.785-.271l-.56-.035c-.592-.038-1.192-.059-1.812-.074-.405-.008-.81-.02-1.211-.028-8.228-.169-15.622-.12-21.309,1.736.134-.067.267-.134.4-.195s.284-.134.431-.2a.478.478,0,0,1,.083-.037c.154-.067.312-.133.469-.2s.336-.135.508-.2c.343-.135.691-.255,1.044-.367.177-.056.357-.111.536-.167s.363-.107.549-.158.368-.1.554-.147.378-.093.566-.137l.575-.129c.386-.082.782-.158,1.179-.228.223-.041.445-.079.67-.113l.543-.082c.2-.031.41-.06.62-.087s.416-.056.625-.078c1.264-.151,2.578-.255,3.936-.327q1.352-.071,2.766-.1l.711-.011c.238-.007.475-.011.715-.011,2.155-.023,4.4.007,6.7.055.4.008.806.019,1.212.028.817.018,1.61.056,2.372.109.083,0,.161.011.243.019.213.013.426.029.635.048.144.011.288.022.428.036s.308.029.458.045c.495.052.977.112,1.449.177.864.117,1.687.262,2.476.428Z" transform="translate(-1013.783 -997.768)"/><path class="e" d="M1052.336,1041.034c3.941-2.993,6.34-7.736,7.331-13.409,1.472-8.421.474-16.5-6.837-21.051a19.642,19.642,0,0,0-3.046-1.539,25.622,25.622,0,0,0-2.629-.889,32.4,32.4,0,0,0-4.455-.912c-1.016-.143-2.084-.254-3.212-.326q-1.148-.079-2.374-.108c-.4-.01-.809-.02-1.21-.026-7.1-.15-13.573-.132-18.868,1.067a16.139,16.139,0,0,1,2.13-1.289c5.688-1.863,13.088-1.914,21.327-1.74.4.006.807.016,1.211.026q1.227.027,2.374.107c1.127.072,2.2.183,3.212.326a32.384,32.384,0,0,1,4.455.912,25.569,25.569,0,0,1,2.629.888,19.63,19.63,0,0,1,3.046,1.539c7.312,4.549,8.31,12.63,6.838,21.051-1.164,6.662-4.267,12.043-9.531,14.812a18.545,18.545,0,0,1-2.115.516C1052.52,1041.005,1052.427,1041.018,1052.336,1041.034Z" transform="translate(-1010.495 -999.569)"/></g><g transform="translate(82.245 51.938)"><path class="d" d="M1033.979,1044.405l-8.967,5.794s2.207,7.981,1.208,9.212l4.629,10.91C1036.979,1068.5,1033.979,1044.405,1033.979,1044.405Z" transform="translate(-1025.012 -1044.405)"/><path class="e" d="M1030.739,1062.744c.9-4.012.424-8.155-.438-12.323l-5.289,3.417s2.206,7.981,1.208,9.212l1.005,2.369A3.418,3.418,0,0,0,1030.739,1062.744Z" transform="translate(-1025.012 -1048.044)"/></g><g transform="translate(25.95)"><g transform="translate(0 0.903)"><path class="d" d="M886.965,934.889c5.986,4.31,11.218,1.845,14.644-2.632s2.354-10.68-1.584-14.632c-4.007-4.021-11.8-2.713-15.229,1.764A10.9,10.9,0,0,0,886.965,934.889Z" transform="translate(-882.512 -915.218)"/><path class="g" d="M898.984,941.479c3.834,2.761,7.185,1.182,9.38-1.685s1.507-6.841-1.015-9.372c-2.566-2.575-7.559-1.738-9.754,1.13A6.983,6.983,0,0,0,898.984,941.479Z" transform="translate(-890.751 -923.483)"/><path class="e" d="M908.08,931.188a4.97,4.97,0,0,0-1.538-1.042,21.219,21.219,0,0,1-9.2,9.075,6.754,6.754,0,0,0,2.375,3.024c3.834,2.761,7.185,1.182,9.38-1.686S910.6,933.719,908.08,931.188Z" transform="translate(-891.482 -924.249)"/><path class="e" d="M903.651,927.925a9.907,9.907,0,0,1-2.041,5.583c-3.426,4.476-8.659,6.942-14.642,2.632a10.9,10.9,0,0,1-2.171-15.5,10.617,10.617,0,0,1,4.621-3.354,9.274,9.274,0,0,0-2.88,2.44,10.012,10.012,0,0,0,1.991,14.231c5.5,3.956,10.3,1.693,13.445-2.417A9.085,9.085,0,0,0,903.651,927.925Z" transform="translate(-882.512 -916.47)"/><path class="h" d="M906.421,920.072c.011,1.382-2.855-.493-6.454-.465s-6.567,1.949-6.578.567,2.925-3.248,6.524-3.276S906.41,918.69,906.421,920.072Z" transform="translate(-889.092 -916.234)"/></g><g transform="translate(60.44 1.232)"><path class="d" d="M1052.063,935.832c-6.056,4.21-11.247,1.66-14.6-2.873s-2.177-10.717,1.825-14.6c4.072-3.954,11.845-2.518,15.2,2.014A10.9,10.9,0,0,1,1052.063,935.832Z" transform="translate(-1035.505 -916.05)"/><path class="g" d="M1051.683,942.326c-3.879,2.7-7.2,1.063-9.351-1.84s-1.394-6.864,1.169-9.354c2.608-2.533,7.587-1.613,9.734,1.29A6.984,6.984,0,0,1,1051.683,942.326Z" transform="translate(-1038.876 -924.281)"/><path class="e" d="M1043.5,931.837a4.972,4.972,0,0,1,1.555-1.016,21.216,21.216,0,0,0,9.051,9.225,6.757,6.757,0,0,1-2.424,2.985c-3.879,2.7-7.2,1.063-9.351-1.84S1040.938,934.326,1043.5,931.837Z" transform="translate(-1038.876 -924.986)"/><path class="e" d="M1035.53,928.705a9.911,9.911,0,0,0,1.949,5.616c3.352,4.531,8.543,7.083,14.6,2.873a10.9,10.9,0,0,0,2.426-15.462,10.623,10.623,0,0,0-4.566-3.429,9.276,9.276,0,0,1,2.839,2.488,10.012,10.012,0,0,1-2.225,14.2c-5.561,3.864-10.325,1.523-13.4-2.638A9.089,9.089,0,0,1,1035.53,928.705Z" transform="translate(-1035.52 -917.413)"/></g><path class="d" d="M964.3,951.506a26.5,26.5,0,0,1-.161,2.952c-.048.414-.1.818-.171,1.219a20.8,20.8,0,0,1-1.007,3.821c-.158.418-.325.828-.51,1.229a18.382,18.382,0,0,1-1.917,3.27c-.226.3-.459.6-.7.893a19.742,19.742,0,0,1-2.372,2.383q-.643.545-1.335,1.048c-6.68,4.845-16.892,6.758-28.539,6.758-14.04,0-26.112-2.79-32.661-10.138q-.354-.4-.688-.811a19.71,19.71,0,0,1-1.75-2.588c-.089-.161-.178-.322-.263-.483a19.518,19.518,0,0,1-1.5-3.649c-.017-.048-.034-.1-.048-.151a24,24,0,0,1-.883-4.824c-.007-.075-.014-.154-.021-.233-.02-.229-.034-.462-.045-.695a36.315,36.315,0,0,1,8.3-24.749,35.707,35.707,0,0,1,9.487-8.411c7.628-4.612,16.31-5.8,24.6-5.31,6.081.359,11.027,1.818,15.259,4.536a33.623,33.623,0,0,1,9.959,10.452A43.816,43.816,0,0,1,964.3,951.506Z" transform="translate(-886.854 -912.932)"/><g transform="translate(27.595 39.82)"><path class="i" d="M953.269,1014.144q-.024,2.949-.049,5.9a.429.429,0,0,1-.857,0q.024-2.948.049-5.9a.429.429,0,0,1,.857,0Z" transform="translate(-952.363 -1013.73)"/></g><path class="g" d="M937.332,1016.235a.73.73,0,1,1-.582-.873A.742.742,0,0,1,937.332,1016.235Z" transform="translate(-914.799 -974.89)"/><path class="g" d="M945.627,1025.005a.511.511,0,1,1-.407-.611A.519.519,0,0,1,945.627,1025.005Z" transform="translate(-920.08 -980.357)"/><path class="g" d="M934.4,1026.724a.511.511,0,1,1-.407-.611A.519.519,0,0,1,934.4,1026.724Z" transform="translate(-913.291 -981.397)"/><g transform="translate(32.402 39.982)"><path class="g" d="M981.255,1026.5a.73.73,0,1,1-.73-.754A.742.742,0,0,1,981.255,1026.5Z" transform="translate(-973.766 -1021.159)"/><ellipse class="g" cx="0.511" cy="0.528" rx="0.511" ry="0.528" transform="translate(3.258)"/><path class="g" d="M965.552,1025.5a.511.511,0,1,1-.51-.528A.519.519,0,0,1,965.552,1025.5Z" transform="translate(-964.531 -1020.693)"/></g><path class="g" d="M1044.4,1021.132a20.8,20.8,0,0,1-1.006,3.82c-.157.418-.325.829-.51,1.229-7.258.322-19.99.562-20.227-1.732C1022.425,1022.19,1036.222,1021.4,1044.4,1021.132Z" transform="translate(-967.291 -978.388)"/><path class="g" d="M1042.518,1043.216a19.762,19.762,0,0,1-2.372,2.383q-.643.544-1.335,1.048c-6.532-1.222-13.27-2.739-12.346-3.667C1027.53,1041.909,1036.079,1042.556,1042.518,1043.216Z" transform="translate(-969.545 -991.26)"/><path class="g" d="M899.369,1015.985c-.106,1.743-4.5,2.02-8.49,1.914-.017-.048-.034-.1-.048-.151a24.018,24.018,0,0,1-.884-4.824C894.457,1013.343,899.479,1014.209,899.369,1015.985Z" transform="translate(-887.01 -973.423)"/><path class="g" d="M898.105,1037.143a19.764,19.764,0,0,1-1.75-2.588c-.089-.161-.178-.322-.263-.483,3.125-.483,6.361-.746,6.847.127C903.357,1034.951,900.967,1036.088,898.105,1037.143Z" transform="translate(-890.727 -985.946)"/><path class="j" d="M973.47,917.573a34.43,34.43,0,0,0-17.707,8.925c-9.35,8.655-12.5,24.56-12.5,24.56l-4.892-1.136s-4.721-10.575-5.42-19.929a45.023,45.023,0,0,1,.658-11.647q.826-.5,1.667-.945a35.7,35.7,0,0,1,5.364-2.3h0a39.7,39.7,0,0,1,5.057-1.328h0a47.535,47.535,0,0,1,8.949-.836c1.191,0,2.38.034,3.557.1q1.115.067,2.185.185a33.712,33.712,0,0,1,6.96,1.455A26.562,26.562,0,0,1,973.47,917.573Z" transform="translate(-912.951 -912.933)"/><g transform="translate(22.333 34.848)"><path class="g" d="M950.643,1004.039c0,1.6-2.633,3.962-5.836,3.962s-5.763-2.363-5.763-3.962,2.6-2.9,5.8-2.9S950.643,1002.44,950.643,1004.039Z" transform="translate(-939.045 -1001.144)"/><path class="f" d="M944.808,1009.907a6.4,6.4,0,0,0,5.659-3.2,1.558,1.558,0,0,1,.177.7c0,1.6-2.633,3.962-5.836,3.962s-5.763-2.363-5.763-3.962a1.562,1.562,0,0,1,.174-.693A6.264,6.264,0,0,0,944.808,1009.907Z" transform="translate(-939.045 -1004.509)"/><path class="e" d="M945.074,1008a6.742,6.742,0,0,0,5.306-2.576,2.206,2.206,0,0,1,.353.506,6.4,6.4,0,0,1-5.659,3.2,6.264,6.264,0,0,1-5.588-3.2,2.173,2.173,0,0,1,.348-.5A6.585,6.585,0,0,0,945.074,1008Z" transform="translate(-939.312 -1003.734)"/><ellipse class="h" cx="3.173" cy="1.021" rx="3.173" ry="1.021" transform="translate(2.407 0.438)"/></g><path class="k" d="M1012.87,920.15a9.13,9.13,0,0,0-3.6,1.662.911.911,0,0,0,.919,1.573c.535-.278,1.057-.574,1.578-.877a15.01,15.01,0,0,1,1.5-.9C1013.975,921.3,1013.617,920.091,1012.87,920.15Z" transform="translate(-958.927 -917.297)"/><path class="k" d="M994.379,931.059a19.8,19.8,0,0,0-2.806,2.252c-.695.684.244,2.005,1.075,1.393a19.773,19.773,0,0,0,2.685-2.41C995.915,931.669,995.149,930.539,994.379,931.059Z" transform="translate(-948.342 -923.818)"/><path class="k" d="M978.852,944.109a18.2,18.2,0,0,0-2.573,3.035.871.871,0,0,0,.31,1.18.881.881,0,0,0,1.18-.309c.746-1.007,1.485-2.02,2.148-3.084C980.336,944.26,979.406,943.6,978.852,944.109Z" transform="translate(-939.162 -931.683)"/><path class="k" d="M963.886,954.648a8.235,8.235,0,0,0-1.734,2.714c-.462.985.94,1.849,1.483.867A11.415,11.415,0,0,0,965,955.3.672.672,0,0,0,963.886,954.648Z" transform="translate(-930.635 -938.058)"/><path class="k" d="M964.272,967.883a18.567,18.567,0,0,0-1.354,3.044.919.919,0,0,0,.636,1.12.933.933,0,0,0,1.12-.636,17.293,17.293,0,0,0,.969-2.95A.754.754,0,0,0,964.272,967.883Z" transform="translate(-931.128 -945.952)"/><path class="k" d="M954.192,982.047a.714.714,0,0,0-1.395-.189,13.9,13.9,0,0,0-.667,4.273c-.038.95,1.552,1.2,1.694.229A20.3,20.3,0,0,0,954.192,982.047Z" transform="translate(-924.627 -954.327)"/><path class="k" d="M944.083,980.214c-.357-1.256-.529-2.517-.783-3.793a.7.7,0,0,0-1.346,0,9.148,9.148,0,0,0,.412,4.267A.891.891,0,0,0,944.083,980.214Z" transform="translate(-918.411 -951.038)"/><path class="k" d="M952.392,964.8a3.473,3.473,0,0,0-.246-1.582.654.654,0,0,0-1.116,0c-.591.815-.446,2.342-.41,3.3.044,1.157,1.839,1.166,1.805,0C952.409,965.948,952.4,965.376,952.392,964.8Z" transform="translate(-923.688 -943.166)"/><path class="k" d="M941.155,952.542a31.079,31.079,0,0,1-.131-4.017c-.026-.633-1.019-1.046-1.316-.356a8.675,8.675,0,0,0-.294,4.853C939.608,954.165,941.347,953.68,941.155,952.542Z" transform="translate(-916.812 -934.033)"/><path class="k" d="M953.753,940.417a8.817,8.817,0,0,0-1.249,3.441c-.233,1.13,1.472,1.618,1.741.48a24.947,24.947,0,0,0,.839-3.56C955.148,939.99,954.129,939.918,953.753,940.417Z" transform="translate(-924.84 -929.368)"/><path class="k" d="M977.434,926.957a6.559,6.559,0,0,0-1.854,1.713,25.842,25.842,0,0,0-1.6,2.037c-.582.82.77,1.88,1.405,1.085q.817-1.025,1.627-2.055a8.193,8.193,0,0,0,1.4-2.028C978.64,927.118,977.9,926.729,977.434,926.957Z" transform="translate(-937.762 -921.377)"/><path class="k" d="M946.2,926.917a9.2,9.2,0,0,0-1.074,3.944c-.073,1.072,1.6,1.068,1.669,0a23.2,23.2,0,0,1,.578-3.449A.645.645,0,0,0,946.2,926.917Z" transform="translate(-920.387 -921.2)"/><path class="k" d="M965.4,916.562a8.231,8.231,0,0,0-2.3,3.277c-.488,1.055,1.085,1.975,1.566.915.523-1.153,1.324-2.232,1.732-3.427A.685.685,0,0,0,965.4,916.562Z" transform="translate(-931.207 -915.065)"/><path class="k" d="M996.285,915.085a7.244,7.244,0,0,0-3.325,3.134c-.609,1.027.934,1.9,1.586.928a11.449,11.449,0,0,1,1.137-1.457c.428-.459.944-.84,1.356-1.31C997.5,915.849,997.069,914.8,996.285,915.085Z" transform="translate(-949.243 -914.204)"/><path class="g" d="M967.078,912.934c-1,1.253-2.41,3.115-4.177,5.7-3.8,5.55-5.07,13.157-7.912,12.849-2.294-.247-2.03-5.611,0-11.407a27.593,27.593,0,0,1,3.136-6.3h0A47.543,47.543,0,0,1,967.078,912.934Z" transform="translate(-925.376 -912.933)"/><path class="g" d="M994.739,915.117a42.546,42.546,0,0,0-6.357,4.126c-3.917,3.136-7.374,8.569-9.49,7.987-1.472-.407-1.023-2.828,2.355-7.063a37.51,37.51,0,0,1,6.532-6.5A33.711,33.711,0,0,1,994.739,915.117Z" transform="translate(-940.334 -913.374)"/><path class="g" d="M943.569,918.411c-.171.49-.335.99-.486,1.5-1.434,4.807-1.185,11.243-3.256,11.966-1.441.506-2.451-1.74-2.082-7.145.1-1.472.26-2.811.459-4.012A35.722,35.722,0,0,1,943.569,918.411Z" transform="translate(-915.879 -916.247)"/><path class="h" d="M932.7,921.778c1.441,2.138-3.822,5.215-10.11,9.452s-11.218,8.031-12.659,5.892,2.488-7.306,8.776-11.544S931.263,919.64,932.7,921.778Z" transform="translate(-898.921 -917.725)"/><path class="h" d="M1057.028,922.58c.011,1.382-2.855-.493-6.454-.465s-6.567,1.949-6.578.567,2.925-3.249,6.524-3.277S1057.017,921.2,1057.028,922.58Z" transform="translate(-980.202 -916.848)"/><path class="f" d="M966.526,933.536a33.627,33.627,0,0,0-9.959-10.452c-.577-.371-1.169-.716-1.774-1.04a36.027,36.027,0,0,1,7.515,9.1,43.813,43.813,0,0,1,6.289,23.672,26.471,26.471,0,0,1-.246,2.945c-.06.413-.126.815-.206,1.214a20.843,20.843,0,0,1-1.115,3.79c-.169.413-.349.819-.545,1.214a18.352,18.352,0,0,1-2.01,3.213c-.235.3-.476.589-.727.873a19.8,19.8,0,0,1-2.44,2.314q-.657.525-1.365,1.009c-6.815,4.651-17.078,6.272-28.721,5.939-10.389-.3-19.653-2.094-26.336-6.062,6.7,6.737,18.381,9.321,31.887,9.321,11.647,0,21.86-1.914,28.539-6.758q.693-.5,1.335-1.048a19.726,19.726,0,0,0,2.372-2.383c.243-.291.476-.589.7-.893a18.378,18.378,0,0,0,1.917-3.27c.185-.4.352-.811.51-1.229a20.8,20.8,0,0,0,1.007-3.82c.068-.4.123-.8.171-1.219a26.51,26.51,0,0,0,.161-2.951A43.816,43.816,0,0,0,966.526,933.536Z" transform="translate(-896.048 -918.445)"/><path class="e" d="M957.531,969.289q.708-.483,1.365-1.009a19.788,19.788,0,0,0,2.44-2.314c.251-.284.492-.575.727-.874a18.336,18.336,0,0,0,2.01-3.213c.2-.4.376-.8.545-1.214a20.823,20.823,0,0,0,1.115-3.79c.08-.4.146-.8.206-1.214a26.429,26.429,0,0,0,.245-2.945,43.812,43.812,0,0,0-6.289-23.672,36.03,36.03,0,0,0-7.515-9.1,26.617,26.617,0,0,0-3-1.373,36.335,36.335,0,0,1,6.868,9.234,43.817,43.817,0,0,1,5.188,23.937,26.451,26.451,0,0,1-.381,2.931c-.078.41-.164.808-.261,1.2a20.823,20.823,0,0,1-1.29,3.735c-.189.4-.386.8-.6,1.187a18.349,18.349,0,0,1-2.157,3.117c-.248.287-.5.567-.766.839a19.762,19.762,0,0,1-2.544,2.2q-.681.495-1.41.944c-7.023,4.332-17.35,5.477-28.964,4.605-8.449-.633-16.1-2.229-22.164-5.11.039.049.075.1.114.149q.334.415.688.811c.249.28.508.55.773.816,6.683,3.968,15.947,5.765,26.336,6.062C940.453,975.561,950.717,973.94,957.531,969.289Z" transform="translate(-893.635 -916.342)"/><path class="i" d="M953.623,1048.336c-1.215.911-2.547.491-3.871.13a.221.221,0,0,0-.156.413,4.07,4.07,0,0,0,4.389-.11C954.27,1048.54,953.913,1048.119,953.623,1048.336Z" transform="translate(-923.013 -994.808)"/><g transform="translate(21.505 45.113)"><path class="i" d="M950.426,1029.6c-1.809,2.557-4.835,1.407-6.552-.685q-.19-.236-.361-.483a4.023,4.023,0,0,1-.391.643,3.853,3.853,0,0,1-6.064.431c-.337-.4.184-1.013.521-.616a3.243,3.243,0,0,0,5.507-1.441.389.389,0,0,1,.686-.12c.03.058.061.116.093.171,1.229,2.2,4.257,3.989,6.015,1.5C950.185,1028.572,950.727,1029.171,950.426,1029.6Z" transform="translate(-936.949 -1027.129)"/></g><g transform="translate(4.274 22.924)"><path class="a" d="M910.334,975.635a9.138,9.138,0,0,1-3.346,12.482,8.972,8.972,0,0,1-5.762,1.081,9.269,9.269,0,0,1-7.775-10.654,9.025,9.025,0,0,1,4.442-6.4A9.138,9.138,0,0,1,910.334,975.635Z" transform="translate(-893.329 -970.961)"/><path class="i" d="M906.565,983.354a7.517,7.517,0,0,1,.419,6.592c-.011.029-.023.056-.034.086a6.278,6.278,0,0,1-.314.639,7.151,7.151,0,0,1-.81,1.186,7.313,7.313,0,0,1-4.415,2.513c-.062.008-.123.019-.186.027a9.269,9.269,0,0,1-7.775-10.654,7.234,7.234,0,0,1,.719-1.2l0,0c0-.006.006-.011.01-.017.04-.054.08-.109.123-.157.048-.067.1-.133.155-.2s.131-.157.2-.233a1.568,1.568,0,0,1,.132-.134c.051-.057.106-.112.164-.168.086-.085.176-.168.267-.251a7.342,7.342,0,0,1,6.844-1.548A7.486,7.486,0,0,1,906.565,983.354Z" transform="translate(-893.329 -976.161)"/><path class="e" d="M907.857,983.349a7.516,7.516,0,0,1,.42,6.592c-.011.03-.023.056-.034.086a6.246,6.246,0,0,1-.314.639,7.142,7.142,0,0,1-.81,1.186,7.364,7.364,0,0,1-4.415,2.513c-.062.008-.123.019-.186.027a9.168,9.168,0,0,1-3.451-1.246,6.21,6.21,0,0,0,6.8-3.744,6.362,6.362,0,0,0-8.946-8.014,6.112,6.112,0,0,0-1.455,1.147c0-.006.006-.011.01-.017.04-.054.08-.109.123-.157.049-.067.1-.133.155-.2s.131-.157.2-.233a1.57,1.57,0,0,1,.132-.134c.051-.056.106-.111.164-.168.086-.084.176-.168.267-.25a7.124,7.124,0,0,1,1.221-.872,7.3,7.3,0,0,1,5.623-.675A7.485,7.485,0,0,1,907.857,983.349Z" transform="translate(-894.622 -976.156)"/><path class="a" d="M899.625,986.265a2.043,2.043,0,1,1-2.786-.765A2.042,2.042,0,0,1,899.625,986.265Z" transform="translate(-894.828 -979.595)"/><circle class="a" cx="2.663" cy="2.663" r="2.663" transform="translate(9.689 13.07) rotate(-74.556)"/></g><g transform="translate(37.31 22.143)"><path class="a" d="M993.7,973.219a9.138,9.138,0,0,1-2.644,12.649,8.975,8.975,0,0,1-5.693,1.4,9.269,9.269,0,0,1-8.357-10.2,9.025,9.025,0,0,1,4.077-6.643A9.138,9.138,0,0,1,993.7,973.219Z" transform="translate(-976.955 -968.984)"/><path class="i" d="M990.078,981.336a7.511,7.511,0,0,1,.787,6.558c-.009.031-.02.058-.029.088a6.322,6.322,0,0,1-.277.656,7.16,7.16,0,0,1-.743,1.229,7.315,7.315,0,0,1-4.268,2.756c-.062.011-.122.026-.183.037a9.269,9.269,0,0,1-8.357-10.2,7.206,7.206,0,0,1,.651-1.239l0,0c0-.007,0-.011.009-.018.037-.056.074-.113.114-.164.045-.069.094-.138.143-.207s.123-.164.189-.244a1.722,1.722,0,0,1,.125-.142c.047-.059.1-.117.154-.177.081-.089.167-.177.253-.265a7.345,7.345,0,0,1,6.747-1.927A7.486,7.486,0,0,1,990.078,981.336Z" transform="translate(-976.955 -974.375)"/><path class="e" d="M991.16,981.331a7.513,7.513,0,0,1,.787,6.558c-.009.03-.02.058-.029.088a6.27,6.27,0,0,1-.277.656,7.144,7.144,0,0,1-.743,1.229,7.366,7.366,0,0,1-4.268,2.756c-.062.011-.122.026-.184.037a9.171,9.171,0,0,1-3.516-1.052,6.209,6.209,0,0,0,6.58-4.118,6.362,6.362,0,0,0-9.38-7.5,6.127,6.127,0,0,0-1.388,1.227c0-.007,0-.011.009-.018.037-.057.074-.113.114-.164.045-.07.094-.138.143-.207s.123-.164.189-.244a1.671,1.671,0,0,1,.125-.141c.047-.059.1-.117.155-.177.081-.089.167-.177.253-.265a7.177,7.177,0,0,1,1.17-.939,7.3,7.3,0,0,1,5.577-.988A7.486,7.486,0,0,1,991.16,981.331Z" transform="translate(-978.037 -974.37)"/><path class="a" d="M983.018,985.043a2.043,2.043,0,1,1-2.824-.608A2.043,2.043,0,0,1,983.018,985.043Z" transform="translate(-978.349 -978.134)"/><path class="a" d="M1008.217,991.278a2.663,2.663,0,1,1-3.681-.793A2.663,2.663,0,0,1,1008.217,991.278Z" transform="translate(-992.903 -981.734)"/></g></g><g transform="translate(65.847 53.627)"><path class="d" d="M1001.066,1062.051c-1.107,1.049-4.662-5.885-4.662-5.885s2.273-5.711.933-6.41-3.089,3.03-3.089,3.03-1.574-4.487-3.5-4.079-.758,3.5-.758,3.5-3.671-3.03-4.662-.932,1.4,3.438,1.4,3.438-4.021-.816-3.088,2.156,7.226,3.2,7.226,3.2,8.451,13.551,14.394,12.937a2.585,2.585,0,0,0,.476-.1l-4.629-10.91A.475.475,0,0,1,1001.066,1062.051Z" transform="translate(-983.502 -1048.68)"/><path class="e" d="M1015.111,1063.51a.472.472,0,0,1-.043.054c-1.107,1.049-4.662-5.885-4.662-5.885s2.273-5.711.932-6.41-3.088,3.03-3.088,3.03a12.4,12.4,0,0,0-1.6-3.039c1.686,5.226,3.263,11.634,7.969,14.2a3.469,3.469,0,0,0,1.5.422Z" transform="translate(-997.505 -1050.193)"/></g><g transform="translate(0 64.921)"><path class="l" d="M848.606,1096.476l-31.588-.556-.139-.718,44.105-10.1,20.8.5Z" transform="translate(-816.856 -1082.006)"/><path class="l" d="M907,1100.21s32.8,11.308,33.748,11,31.662-14.653,31.7-15.351c0-.05.645-.8.337-.9-3.982-1.364-32.654-6.3-32.654-6.3Z" transform="translate(-871.375 -1084.162)"/><path class="l" d="M894.744,1095.88s.5,2.767,1.931,3.421,5.3-.963,5.3-.963l31.481-11.278-5.032-.891Z" transform="translate(-863.961 -1082.653)"/><path class="m" d="M908.214,1098.055s32.354,11.169,33.3,10.866,32.108-14.515,32.142-15.213-32.317-7.2-32.317-7.2Z" transform="translate(-872.11 -1082.858)"/><path class="m" d="M848.827,1094.626l-32-.534,44.382-10.844,20.8.5Z" transform="translate(-816.822 -1080.886)"/><path class="m" d="M895.324,1094.247s.5,2.767,1.931,3.421,5.3-.963,5.3-.963l31.481-11.278-5.032-.891Z" transform="translate(-864.312 -1081.665)"/><path class="n" d="M938.977,1104.933l30.657-14.674a15.771,15.771,0,0,0,1.336-2.822c-.169-.125-2.709.508-3.28.246s-14.676-6.444-21.771-6.911c-3.377-.223-10.9.919-10.9.919l-30.853,12.156Z" transform="translate(-869.663 -1079.37)"/><path class="n" d="M886.183,1080.383a14.849,14.849,0,0,0-4.352-2.841c-2.4-.936-15.152.826-16.145.835s-1.586-.954-1.822-.907-41.617,10.952-41.617,10.952l.743,1.5s20.058-2.1,20.235-2.15,11.6,3.841,11.6,3.841Z" transform="translate(-820.104 -1077.269)"/><path class="o" d="M925.213,1077.543c-1.3-.507-5.644-.222-9.506.147-5.157,6.385-13.543,9.881-21.748,12.481,2.3.775,4.244,1.439,4.244,1.439l.193-.069,30.078-12.083A13.511,13.511,0,0,0,925.213,1077.543Z" transform="translate(-863.486 -1077.269)"/><path class="o" d="M1002.459,1087.437c-.169-.125-2.709.508-3.279.246s-14.676-6.444-21.771-6.911c-3.377-.223-10.9.919-10.9.919l-.135.053c-.073-.059-.155-.122-.236-.185l-9.919,3.985c12.664-3.056,28.305-.778,38.227,7.911l6.676-3.2A15.766,15.766,0,0,0,1002.459,1087.437Z" transform="translate(-901.152 -1079.37)"/><path class="p" d="M822.248,1100.812a2.234,2.234,0,0,0,1.237.937c.751.154,8.545-4.07,15.892-4s15.671,6.376,15.671,6.376a21.767,21.767,0,0,0-4.346-1.207c-2.459-.413-27.734-.176-27.986-.393A5.64,5.64,0,0,1,822.248,1100.812Z" transform="translate(-820.104 -1089.659)"/><path class="p" d="M904.153,1111.809s.194-.088.557-.219a22.215,22.215,0,0,1,14.415.085c8.347,2.864,15.862,8.4,17.7,8.49a11.077,11.077,0,0,0,2.63-.089l-.489,2.82S903.457,1111.731,904.153,1111.809Z" transform="translate(-869.647 -1097.334)"/></g></g></g></g></svg>