<svg xmlns="http://www.w3.org/2000/svg" xmlns:xlink="http://www.w3.org/1999/xlink" width="147" height="147" viewBox="0 0 147 147"><defs><style>.a{fill:#fff;}.b{fill:#005ab2;}.c{clip-path:url(#c);}.d{fill:#413757;}.e{opacity:0.55;}.f{opacity:0.3;}.g{fill:#1a1a5a;}.h{fill:#262f6a;}.i{fill:#367f45;}.j{fill:#61c94c;}.k{filter:url(#a);}</style><filter id="a" x="0" y="0" width="147" height="147" filterUnits="userSpaceOnUse"><feOffset dx="5" dy="5" input="SourceAlpha"/><feGaussianBlur stdDeviation="5" result="b"/><feFlood flood-opacity="0.2"/><feComposite operator="in" in2="b"/><feComposite in="SourceGraphic"/></filter><clipPath id="c"><path class="a" d="M58.52,0A58.52,58.52,0,1,1,0,58.52,58.52,58.52,0,0,1,58.52,0Z"/></clipPath></defs><g transform="translate(9.788 2.379)"><g class="k" transform="matrix(1, 0, 0, 1, -9.79, -2.38)"><circle class="b" cx="58.5" cy="58.5" r="58.5" transform="translate(10 10)"/></g><path class="a" d="M58.52,0A58.52,58.52,0,1,1,0,58.52,58.52,58.52,0,0,1,58.52,0Z" transform="translate(0.209)"/><g class="c" transform="translate(0.209)"><g transform="translate(-1256.529 -1416.819)"><g transform="translate(1328.738 1507.647)"><path class="d" d="M2223.631,2569.48h0c-.139-.911-.306-1.822-.495-2.726a55.894,55.894,0,0,0-3.89-11.718,62.328,62.328,0,0,0-4.725-8.512,5.607,5.607,0,0,0-.11-1.128c-.018-.11-.043-.221-.071-.327l3.615-.039c.2.135.4.274.6.409,3.153,2.171,5.96,4.359,8.434,6.451,3.2,2.708,5.843,5.256,7.967,7.412C2247.427,2571.957,2241.448,2579.344,2223.631,2569.48Z" transform="translate(-2214.337 -2545.03)"/></g><g transform="translate(1277.66 1508.039)"><path class="d" d="M1411.545,2583.542a4.624,4.624,0,0,0,.932,2.857c2.534,3.235,7.761.893,10.416-4.583a47.336,47.336,0,0,1,.562-6.573v0q.278-1.82.694-3.623c.05-.213.1-.427.149-.637s.1-.427.16-.637c.06-.242.121-.48.185-.719.05-.185.1-.37.153-.552.06-.21.121-.423.181-.634.125-.42.253-.84.388-1.256s.27-.836.416-1.253c.071-.206.146-.416.221-.623.146-.416.3-.829.463-1.238.245-.644.509-1.288.779-1.925.068-.16.139-.32.21-.477.217-.505.445-1.01.683-1.509.135-.292.274-.58.416-.869.156-.324.32-.647.484-.968.1-.2.2-.391.3-.583.131-.253.267-.5.4-.751.078-.146.156-.292.238-.434.324-.587.655-1.163,1-1.736.11-.182.221-.367.331-.548.135-.224.271-.445.413-.665s.256-.409.388-.612c.149-.238.3-.473.459-.708a5.875,5.875,0,0,1,.1-1.1l-5.053.053c-1.971,2.014-3.822,4.063-5.512,6.153a59.62,59.62,0,0,0-4.921,6.989A36.765,36.765,0,0,0,1411.545,2583.542Z" transform="translate(-1411.545 -2551.182)"/></g><g class="e" transform="translate(1277.66 1508.039)"><path class="a" d="M1432.663,2551.182a5.491,5.491,0,0,0-.1.975l-3.366-.259c-1.971,2.014-8.345,11.041-9.768,13.428a36.765,36.765,0,0,0-5.64,19.166,4.624,4.624,0,0,0,.932,2.857,4.358,4.358,0,0,0,.473.512,3.665,3.665,0,0,1-2.726-1.463,4.624,4.624,0,0,1-.932-2.857,36.765,36.765,0,0,1,5.64-19.166,59.649,59.649,0,0,1,4.921-6.989c1.69-2.089,3.541-4.139,5.512-6.153Z" transform="translate(-1411.536 -2551.182)"/></g><g class="f" transform="translate(1337.534 1521.92)"><path class="g" d="M2353.091,2779.536h0c-.139-.911-.306-1.822-.494-2.726l1.79-2.779c6.725,4.747,9.1,1.385,10.028-4.672C2376.886,2782.013,2370.908,2789.4,2353.091,2779.536Z" transform="translate(-2352.593 -2769.359)"/></g><g transform="translate(1327.671 1506.58)"><path class="g" d="M2221.265,2559.4c-3.442,0-8.219-1.585-13.816-4.68a1.068,1.068,0,0,1-.571-.788,57.1,57.1,0,0,0-8.945-22.529,1.069,1.069,0,0,1-.177-.589,4.687,4.687,0,0,0-.147-1.185,1.068,1.068,0,0,1,1.021-1.337l3.615-.039a1.112,1.112,0,0,1,.611.184,113.038,113.038,0,0,1,17.16,14.407c6.067,6.154,8.326,11.625,6.042,14.636C2225.082,2558.767,2223.44,2559.4,2221.265,2559.4Zm-12.36-6.317c8.707,4.731,14.027,4.985,15.453,3.105,1.26-1.66-.065-5.967-5.862-11.847a111.135,111.135,0,0,0-16.562-13.951l-2.054.023c0,.023,0,.047,0,.07A59.361,59.361,0,0,1,2208.9,2553.084Z" transform="translate(-2197.574 -2528.253)"/></g><g transform="translate(1276.593 1506.971)"><path class="g" d="M1399.756,2573.232a4.75,4.75,0,0,1-3.831-1.883,5.709,5.709,0,0,1-1.159-3.512h0c-.029-11.1,5.175-21.6,16.378-33.056a1.067,1.067,0,0,1,.752-.321l5.053-.053a1.067,1.067,0,0,1,1.06,1.267,4.859,4.859,0,0,0-.084.9,1.066,1.066,0,0,1-.177.589,57.176,57.176,0,0,0-8.944,22.5c0,.011,0,.022,0,.033a46.427,46.427,0,0,0-.55,6.424,1.071,1.071,0,0,1-.107.45c-1.8,3.711-4.859,6.312-7.8,6.627A5.614,5.614,0,0,1,1399.756,2573.232Zm-2.855-5.4a3.575,3.575,0,0,0,.7,2.2,2.655,2.655,0,0,0,2.514,1.047c2.137-.229,4.527-2.319,6-5.228a48.653,48.653,0,0,1,.566-6.448q0-.016,0-.031a59.129,59.129,0,0,1,8.907-22.814l-3.233.034c-10.573,10.905-15.488,20.842-15.461,31.242Z" transform="translate(-1394.766 -2534.406)"/></g><g transform="translate(1287.567 1507.687)"><path class="d" d="M1615.473,2598.221h-16.13c0-7.8-2.744-11.824-5.58-12.095a3.239,3.239,0,0,0-.808.025h0c-2.765.438-5.38,4.459-5.38,12.07h-15.063a44.117,44.117,0,0,1-4.694-28.161v0h0c.174-1.139.391-2.274.644-3.4a59.1,59.1,0,0,1,8.466-19.554,5.747,5.747,0,0,1,.181-1.455l33.841.352a5.9,5.9,0,0,1,.1,1.1,60.441,60.441,0,0,1,7.4,15.526l.085.285.114.377q.459,1.563.822,3.145.416,1.8.694,3.623v0a47.4,47.4,0,0,1,.562,6.573A43.373,43.373,0,0,1,1615.473,2598.221Z" transform="translate(-1567.246 -2545.645)"/></g><g class="e" transform="translate(1287.567 1507.687)"><path class="a" d="M1574.644,2597.776h12.931c0,.146,0,.3,0,.445h-15.063a44.117,44.117,0,0,1-4.694-28.161v0h0c.174-1.139.391-2.274.644-3.4a59.1,59.1,0,0,1,8.466-19.554,5.747,5.747,0,0,1,.181-1.455l2.039.021a5.668,5.668,0,0,0-.085.989,59.1,59.1,0,0,0-8.466,19.553c-.253,1.128-.47,2.263-.644,3.4h0v0A44.115,44.115,0,0,0,1574.644,2597.776Z" transform="translate(-1567.246 -2545.645)"/></g><g class="e" transform="translate(1314.194 1547.708)"><path class="a" d="M2007.592,3186.782c-.075.15-.153.3-.235.445h-16.13c0-7.7-2.672-11.721-5.469-12.081a3.59,3.59,0,0,1,1.213-.434h0a3.24,3.24,0,0,1,.808-.025c2.836.271,5.58,4.3,5.58,12.1Z" transform="translate(-1985.757 -3174.672)"/></g><g transform="translate(1288.625 1507.527)"><g transform="translate(0.159 0.159)"><path class="a" d="M1637.381,2566.433c-.021.146-.036.221-.036.221,0,21.379-50.975,21.379-50.975,0a58.6,58.6,0,0,1,7.615-18.233c.278-.445.562-.882.85-1.32a5.777,5.777,0,0,1,.086-1,4.628,4.628,0,0,1,.1-.455h.089l33.752.352a5.888,5.888,0,0,1,.1,1.1c.157.235.31.47.459.708.131.2.26.406.388.612s.278.441.413.665c.11.182.22.366.331.548.342.573.673,1.149,1,1.737.082.143.16.288.239.434.135.25.27.5.4.751.1.192.2.388.3.584.164.32.327.644.484.968.142.289.281.576.416.868.238.5.466,1,.683,1.509.071.16.139.316.21.477.271.637.534,1.281.779,1.925.16.413.313.826.463,1.239.075.207.149.417.221.623.142.416.281.833.416,1.252s.263.836.388,1.256c.061.21.121.424.181.634.05.185.1.366.153.552.064.238.125.477.185.719.057.21.107.423.16.637S1637.331,2566.22,1637.381,2566.433Z" transform="translate(-1586.371 -2545.645)"/></g><g transform="translate(0 0)"><path class="g" d="M1609.518,2580.507c-6.7,0-12.954-1.431-17.6-4.029-5.264-2.944-8.046-7.15-8.046-12.165l0-.035a58.431,58.431,0,0,1,7.635-18.283c.27-.433.547-.858.826-1.284a5.952,5.952,0,0,1,.088-.979c.025-.155.057-.309.1-.468l.031-.119h.212l33.884.354.024.128a6.069,6.069,0,0,1,.106,1.084c.148.223.293.446.435.672.131.2.259.4.388.612s.278.441.414.667l.331.547c.342.574.678,1.16,1,1.743.081.142.16.289.239.436l.016.029c.13.24.26.48.387.724l.094.181c.07.134.14.269.209.4.164.321.328.646.485.971q.214.432.417.871c.228.476.458.985.685,1.513l.209.475c.3.712.558,1.344.783,1.933.16.413.313.827.464,1.241.075.207.15.418.221.625.143.418.282.835.417,1.255s.264.839.389,1.26l.257.906c.026.094.053.188.078.282.064.24.125.479.186.722.039.145.076.295.113.445l.2.891c-.022.15-.037.227-.037.227C1635.165,2575.44,1621.87,2580.507,1609.518,2580.507Zm-25.328-16.176c.014,10.895,13.136,15.858,25.328,15.858s25.328-4.968,25.328-15.875c0-.029.015-.094.033-.214l-.19-.8c-.036-.148-.072-.295-.111-.44-.061-.244-.121-.481-.185-.719-.025-.094-.051-.187-.077-.279s-.051-.181-.076-.273l-.181-.631c-.124-.417-.252-.836-.386-1.251s-.274-.834-.416-1.25c-.071-.206-.145-.415-.22-.62-.149-.412-.3-.823-.461-1.235-.223-.586-.478-1.214-.777-1.921l-.209-.474c-.226-.525-.455-1.031-.681-1.5-.135-.292-.274-.579-.416-.866-.157-.324-.32-.647-.483-.966-.068-.134-.138-.268-.208-.4l-.094-.182c-.126-.241-.255-.48-.384-.718l-.016-.03c-.078-.145-.156-.29-.236-.431-.321-.583-.656-1.166-.995-1.734l-.33-.547c-.135-.223-.269-.443-.411-.662s-.257-.41-.388-.611c-.15-.239-.3-.473-.458-.707l-.027-.041v-.048a5.8,5.8,0,0,0-.078-.945l-33.583-.351c-.026.107-.046.213-.063.321a5.65,5.65,0,0,0-.083.975v.048l-.026.04c-.287.436-.572.873-.848,1.316A58.122,58.122,0,0,0,1584.19,2564.332Z" transform="translate(-1583.872 -2543.146)"/></g></g><g transform="translate(1286.49 1506.619)"><path class="g" d="M1598.293,2583.578H1585.6a3.256,3.256,0,0,1-3.244-3.026c-.4-5.974-2.639-8.891-4.55-9.073a2.189,2.189,0,0,0-.538.017l-.031,0c-1.909.325-4,3.242-4.391,9.049a3.259,3.259,0,0,1-3.244,3.031h-11.624a3.242,3.242,0,0,1-2.91-1.794,44.93,44.93,0,0,1-4.167-27.581c0-.034.01-.066.018-.1a59.2,59.2,0,0,1,9.092-23.045,6.745,6.745,0,0,1,.209-1.395,1.074,1.074,0,0,1,1.044-.8l33.841.352a1.068,1.068,0,0,1,1.038.868,6.95,6.95,0,0,1,.114.971,59.221,59.221,0,0,1,9.108,23.124c0,.011,0,.022,0,.033a48.6,48.6,0,0,1,.57,6.69,44.377,44.377,0,0,1-4.739,20.877A3.243,3.243,0,0,1,1598.293,2583.578Zm-20.692-14.244c.135,0,.27.007.406.019,2.667.255,5.962,3.3,6.481,11.057a1.116,1.116,0,0,0,1.114,1.034h12.691a1.119,1.119,0,0,0,1-.62,42.259,42.259,0,0,0,4.511-19.885,46.457,46.457,0,0,0-.55-6.426c0-.012,0-.023,0-.035a57.172,57.172,0,0,0-8.944-22.5,1.068,1.068,0,0,1-.177-.589c0-.015,0-.031,0-.046l-31.976-.333c-.009.124-.014.251-.014.378a1.068,1.068,0,0,1-.177.589,57.1,57.1,0,0,0-8.945,22.529c0,.027-.009.053-.015.079a42.824,42.824,0,0,0,3.974,26.238,1.117,1.117,0,0,0,1,.619h11.624a1.118,1.118,0,0,0,1.114-1.038c.5-7.479,3.538-10.6,6.213-11.019l.037-.005A4.249,4.249,0,0,1,1577.6,2569.334Z" transform="translate(-1550.315 -2528.868)"/></g><g transform="translate(1287.716 1527.626)"><path class="g" d="M1596.145,2877.215c-6.857,0-13.264-1.472-18.044-4.145-5.568-3.114-8.511-7.595-8.511-12.959a1.068,1.068,0,0,1,2.135,0c0,5.741,4.034,9.2,7.418,11.1,4.466,2.5,10.5,3.873,17,3.873s12.535-1.375,17-3.873c3.384-1.893,7.418-5.354,7.418-11.1a1.068,1.068,0,0,1,2.135,0C1622.7,2871.863,1608.934,2877.215,1596.145,2877.215Z" transform="translate(-1569.59 -2859.044)"/></g><g class="f" transform="translate(1296.399 1507.687)"><path class="g" d="M1751.044,2552.467a29.684,29.684,0,0,1-5.58,2.509c-.712.238-1.434.452-2.16.637-14.476,3.772-31.375-1.875-37.246-7.192l.936-2.32.185-.455,31.289.327,2.462.025,1.68.018C1745.763,2548.186,1748.571,2550.374,1751.044,2552.467Z" transform="translate(-1706.058 -2545.645)"/></g><g transform="translate(1274.963 1442.519)"><g transform="translate(0.159 0.162)"><path class="a" d="M1452.493,1561.23c.082,18.241-16.778,32.257-40.417,32.531-11.568-.135-21.511-3.558-28.642-9.16a31.975,31.975,0,0,1-7.637-8.494,28.051,28.051,0,0,1-4.142-14.878,21.577,21.577,0,0,1,6.092-14.718,106.29,106.29,0,0,0,6.893-8.433c.2-.256.391-.513.591-.769a35.873,35.873,0,0,1,5.54-5.733,33.053,33.053,0,0,1,7.79-4.8,33.7,33.7,0,0,1,27.083.025,32.966,32.966,0,0,1,7.739,4.775,35.971,35.971,0,0,1,5.533,5.733c.2.263.406.53.609.793a106.934,106.934,0,0,0,6.875,8.409A21.576,21.576,0,0,1,1452.493,1561.23Z" transform="translate(-1371.656 -1523.949)"/></g><g transform="translate(0 0)"><path class="g" d="M1409.736,1591.537c-11.154-.13-21.36-3.4-28.742-9.193a32.086,32.086,0,0,1-7.674-8.536,28.067,28.067,0,0,1-4.165-14.961,21.65,21.65,0,0,1,6.136-14.827,97.023,97.023,0,0,0,6.4-7.792l.482-.629c.208-.272.4-.521.591-.77a36.081,36.081,0,0,1,5.565-5.758,33.236,33.236,0,0,1,7.827-4.823,33.822,33.822,0,0,1,27.211.025,33.14,33.14,0,0,1,7.776,4.8,36.207,36.207,0,0,1,5.558,5.758l1.05,1.369a98.5,98.5,0,0,0,6.422,7.821,21.649,21.649,0,0,1,6.136,14.827h0c.04,8.922-4,17.135-11.372,23.127C1431.512,1588.008,1421.142,1591.4,1409.736,1591.537Zm0-69.815a33.442,33.442,0,0,0-13.451,2.818,32.916,32.916,0,0,0-7.752,4.777,35.761,35.761,0,0,0-5.516,5.707c-.193.248-.383.5-.572.744l-.5.653a97.209,97.209,0,0,1-6.422,7.818,21.335,21.335,0,0,0-6.048,14.609,27.751,27.751,0,0,0,4.119,14.794,31.766,31.766,0,0,0,7.6,8.452c7.327,5.755,17.465,9,28.545,9.125,23.407-.271,40.339-13.886,40.256-32.371h0a21.334,21.334,0,0,0-6.048-14.609,98.75,98.75,0,0,1-6.444-7.846l-1.05-1.368a35.886,35.886,0,0,0-5.509-5.708,32.824,32.824,0,0,0-7.7-4.752A33.423,33.423,0,0,0,1409.735,1521.722Z" transform="translate(-1369.155 -1521.404)"/></g></g><g class="f" transform="translate(1307.376 1483.593)"><g transform="translate(0.064 0.152)"><path class="h" d="M1879.6,2169.35a4.389,4.389,0,0,0,.97.3Z" transform="translate(-1879.6 -2169.35)"/></g><g transform="translate(0 0)"><path class="g" d="M1879.6,2167.566a4.55,4.55,0,0,1-1.005-.31l.111-.3.97.3Z" transform="translate(-1878.594 -2166.959)"/></g></g><g class="f" transform="translate(1279.267 1463.91)"><path class="g" d="M1507.4,1858.936c-.41-.433-.814-.875-1.222-1.336a20.612,20.612,0,0,1,1.508,7.622c.083,18.241-16.781,32.258-40.414,32.531a52.948,52.948,0,0,1-17.131-2.92c.429-.379.821-2.023.913-4.015a11.694,11.694,0,0,0-.261-3.518,58.646,58.646,0,0,1,12.858-7.32c2.2,2.526,6.114,2.949,10.676-.859,2.475,3.5,7.988,4.546,10.511-.856a9.951,9.951,0,0,0,.8-2.733c.3-1.993.271-3.645-1.24-3.526a2.31,2.31,0,0,0-1.729,1.1c-2.584,4.04-5.545,3.97-8.989.879-2.8,2.742-5.4,4.19-7.733,3.751v0a4.373,4.373,0,0,1-.97-.3s-.006,0-.01,0a7.489,7.489,0,0,1-3.194-3.111,9.528,9.528,0,0,0,.83,4.018,57.79,57.79,0,0,0-8.621,4.467,10.5,10.5,0,0,0-1.9-2.122l-1.893,1.339c.1.064.2.13.293.2-.064-.006-.127-.006-.194-.006-.13,0-.254,0-.379.006l-2.672,1.887a10.263,10.263,0,0,0,3.028.42c.4.006.792-.01,1.164-.038a74.709,74.709,0,0,0-7.333,5.806.213.213,0,0,0-.048.045,10.529,10.529,0,0,0-4.247-1.616c-.414-.073-.818-.127-1.209-.159a11.36,11.36,0,0,0-1.788-.032c.057.1.115.188.175.283.111.178.226.356.337.531s.232.353.353.522.239.35.363.522c.242.34.5.678.763,1.015.13.165.261.334.4.5s.27.331.41.5.277.321.42.483c.105.121.213.242.321.359.194.21.388.42.592.627.121.127.245.255.369.379q.439.444.9.869c.172.162.344.318.515.474.191.169.382.334.579.5s.372.315.563.471.382.312.579.464c7.126,5.6,17.074,9.025,28.641,9.159,23.64-.274,40.5-14.29,40.418-32.531A21.58,21.58,0,0,0,1507.4,1858.936Zm-62.279,33.759a3.827,3.827,0,0,0-.1-.658c.118-.108.235-.213.35-.318q2.057-1.842,4.152-3.461a16.542,16.542,0,0,0-.3,2.475,9.355,9.355,0,0,0,.423,3.922A42.263,42.263,0,0,1,1445.122,1892.7Z" transform="translate(-1436.8 -1857.6)"/></g><g class="f" transform="translate(1277.132 1491.043)"><g transform="translate(0.528 0.773)"><path class="h" d="M1411.538,2296.2a34.12,34.12,0,0,0,3.395,3.057,11.245,11.245,0,0,0-1.786-.032A28.678,28.678,0,0,1,1411.538,2296.2Z" transform="translate(-1411.538 -2296.203)"/></g><g transform="translate(0)"><path class="g" d="M1407.687,2288.1l-.539-.051a11.068,11.068,0,0,0-1.761-.031l-.1.006-.05-.082a28.948,28.948,0,0,1-1.617-3.042l-.383-.839.642.662a34.01,34.01,0,0,0,3.379,3.043Zm-3.375-2.5c.354.711.739,1.411,1.151,2.09a11.037,11.037,0,0,1,1.2,0C1405.845,2287.03,1405.058,2286.33,1404.312,2285.6Z" transform="translate(-1403.24 -2284.059)"/></g></g><g transform="translate(1274.055 1441.611)"><path class="g" d="M1396.386,1579.08c-11.635-.134-22.206-3.6-29.791-9.766s-11.751-14.635-11.709-23.838a22.553,22.553,0,0,1,6.386-15.449,96.47,96.47,0,0,0,6.338-7.721l.481-.627c.209-.273.4-.523.594-.774a37,37,0,0,1,5.7-5.9,34.141,34.141,0,0,1,8.04-4.955,34.731,34.731,0,0,1,27.943.026,34.043,34.043,0,0,1,7.989,4.929,37.108,37.108,0,0,1,5.7,5.9l1.056,1.376a97.664,97.664,0,0,0,6.355,7.742,22.553,22.553,0,0,1,6.386,15.449h0c.041,9.2-4.116,17.667-11.707,23.836S1407.995,1578.946,1396.386,1579.08Zm-.013-69.816a32.533,32.533,0,0,0-13.085,2.741,32,32,0,0,0-7.538,4.646,34.867,34.867,0,0,0-5.376,5.562c-.193.248-.38.494-.568.739l-.021.027-.48.626a97.964,97.964,0,0,1-6.486,7.894,20.428,20.428,0,0,0-5.8,13.986c-.081,17.963,16.475,31.194,39.365,31.459,22.863-.265,39.417-13.5,39.337-31.459h0a20.43,20.43,0,0,0-5.8-13.986,99.2,99.2,0,0,1-6.5-7.913l-1.054-1.374a34.968,34.968,0,0,0-5.369-5.562,31.912,31.912,0,0,0-7.488-4.62A32.519,32.519,0,0,0,1396.373,1509.264Z" transform="translate(-1354.885 -1507.13)"/></g><g transform="translate(1328.044 1437.173)"><g transform="translate(1.067 1.067)"><path class="d" d="M2234.1,1472.742c-.2-.263-.406-.53-.608-.794a36,36,0,0,0-5.533-5.733,32.979,32.979,0,0,0-7.74-4.775l0,0C2223.675,1443.669,2253.21,1462.707,2234.1,1472.742Z" transform="translate(-2220.216 -1454.146)"/></g><g class="f" transform="translate(0.955 4.561)"><path class="g" d="M2235.211,1509.06c1.249,3.5.028,7.512-5.946,10.649-.2-.263-.406-.53-.608-.794-1.651-2.142-4.267-2.393-6.288-4.069-1.226-1.014-2.489-1.1-3.818-1.909-.3.715.192-.977.017-.08l0,0a32.963,32.963,0,0,1,7.74,4.775,35.992,35.992,0,0,1,5.533,5.733c.2.263.406.53.608.794C2241.238,1519.546,2239.733,1513.027,2235.211,1509.06Z" transform="translate(-2218.453 -1509.06)"/></g><g class="e" transform="translate(1.067 1.068)"><path class="a" d="M2240.446,1463.827c-2.907-7.135-16-11.871-19.269-1.943-.317-.153-.637-.3-.961-.441l0,0C2222.771,1448.326,2239.524,1455.261,2240.446,1463.827Z" transform="translate(-2220.216 -1454.148)"/></g><g transform="translate(0)"><path class="g" d="M2218.388,1458.1a1.066,1.066,0,0,1-.846-.416l-.609-.794a34.968,34.968,0,0,0-5.369-5.562,31.9,31.9,0,0,0-7.488-4.62,1.066,1.066,0,0,1-.6-1.257c.994-4.985,4.146-7.927,8.657-8.077,5.788-.187,12.061,4.193,13.432,9.382.669,2.53.689,7.351-6.682,11.221A1.067,1.067,0,0,1,2218.388,1458.1Zm-12.647-12.979a34.041,34.041,0,0,1,7.185,4.563,37.124,37.124,0,0,1,5.7,5.9l.051.067c3.992-2.321,5.659-5.2,4.826-8.352-1.1-4.162-6.595-7.951-11.3-7.794C2209.861,1439.586,2206.9,1440.646,2205.74,1445.121Z" transform="translate(-2203.438 -1437.369)"/></g></g><g transform="translate(1280.64 1437.159)"><g transform="translate(1.067 1.068)"><path class="d" d="M1481.534,1472.538c.2-.263.406-.53.609-.794a35.969,35.969,0,0,1,5.533-5.733,32.961,32.961,0,0,1,7.74-4.776l0,0C1491.957,1443.466,1462.422,1462.5,1481.534,1472.538Z" transform="translate(-1475.147 -1453.942)"/></g><g class="f" transform="translate(1.068 4.562)"><path class="g" d="M1478.791,1508.856c-1.249,3.5-.028,7.512,5.945,10.649.2-.263.406-.53.608-.793,1.651-2.142,4.267-2.393,6.288-4.069,1.226-1.014,2.489-1.1,3.818-1.909.3.715-.192-.977-.017-.08l0,0a32.96,32.96,0,0,0-7.74,4.776,35.989,35.989,0,0,0-5.533,5.732c-.2.264-.406.53-.608.794C1472.763,1519.342,1474.268,1512.823,1478.791,1508.856Z" transform="translate(-1475.169 -1508.856)"/></g><g class="e" transform="translate(1.106 1.068)"><path class="a" d="M1475.768,1463.624c2.907-7.135,16-11.871,19.269-1.943.317-.153.637-.3.961-.441l0,0C1493.443,1448.123,1476.69,1455.058,1475.768,1463.624Z" transform="translate(-1475.768 -1453.945)"/></g><g transform="translate(0 0)"><path class="g" d="M1465.831,1457.891a1.065,1.065,0,0,1-.5-.122c-7.371-3.87-7.35-8.692-6.682-11.221,1.371-5.19,7.652-9.575,13.432-9.382,4.52.15,7.676,3.1,8.663,8.107a1.07,1.07,0,0,1-.606,1.227,31.924,31.924,0,0,0-7.489,4.621,34.986,34.986,0,0,0-5.369,5.562l-.608.793A1.067,1.067,0,0,1,1465.831,1457.891Zm5.9-18.6c-4.643,0-9.937,3.719-11.015,7.8-.833,3.155.833,6.031,4.826,8.352l.051-.067a37.114,37.114,0,0,1,5.7-5.9,34.057,34.057,0,0,1,7.186-4.564c-1.164-4.475-4.12-5.535-6.463-5.612C1471.922,1439.3,1471.827,1439.295,1471.733,1439.295Z" transform="translate(-1458.377 -1437.159)"/></g></g><g transform="translate(1310.33 1472.067)"><path class="g" d="M1936.646,1987.84c0,2.052-2.6,3.715-5.813,3.715s-5.813-1.663-5.813-3.715,2.6-2.038,5.813-2.038S1936.646,1985.788,1936.646,1987.84Z" transform="translate(-1925.02 -1985.803)"/></g><g transform="translate(1285.117 1459.498)"><path class="d" d="M1528.743,1803.7c1.358,9.7,11.985,9.7,15.022,3.276,1.3-4.1,3.238-7.057,5.833-8.851a3.56,3.56,0,0,0,1-.967c3.239-5.027-4.157-14.516-16.983-4.485A14.2,14.2,0,0,0,1528.743,1803.7Z" transform="translate(-1528.743 -1788.251)"/></g><g transform="translate(1323.35 1459.498)"><path class="d" d="M2152.276,1803.7c-1.358,9.7-11.985,9.7-15.022,3.276-1.3-4.1-3.238-7.057-5.833-8.851a3.563,3.563,0,0,1-1-.967c-3.239-5.027,4.157-14.516,16.983-4.485A14.2,14.2,0,0,1,2152.276,1803.7Z" transform="translate(-2129.66 -1788.251)"/></g><g transform="translate(1330.385 1466.629)"><path class="a" d="M2240.229,1904.447a4.187,4.187,0,0,1,1.336-2.863,4.718,4.718,0,0,1,6.316-.056,3.581,3.581,0,0,1,1.247,2.919,6.018,6.018,0,0,0-2.11-1.691,5.358,5.358,0,0,0-2.292-.5,5.184,5.184,0,0,0-2.283.543A9.178,9.178,0,0,0,2240.229,1904.447Z" transform="translate(-2240.229 -1900.343)"/></g><g transform="translate(1291.976 1466.629)"><path class="a" d="M1636.54,1904.447a4.187,4.187,0,0,1,1.336-2.863,4.718,4.718,0,0,1,6.316-.056,3.582,3.582,0,0,1,1.247,2.919,6.02,6.02,0,0,0-2.11-1.691,5.356,5.356,0,0,0-2.291-.5,5.185,5.185,0,0,0-2.283.543A9.18,9.18,0,0,0,1636.54,1904.447Z" transform="translate(-1636.54 -1900.343)"/></g><g transform="translate(1313.522 1473.237)"><g transform="translate(0.159 0.159)"><path class="a" d="M1982.62,2007.133c0,.54-1.1.979-2.461.979s-2.461-.438-2.461-.979,1.1-.415,2.461-.415S1982.62,2006.592,1982.62,2007.133Z" transform="translate(-1977.698 -2006.705)"/></g><g transform="translate(0)"><path class="g" d="M1977.818,2005.925c-1.494,0-2.62-.489-2.62-1.137a.449.449,0,0,1,.136-.333c.278-.273.93-.263,1.833-.249.415.007.887.007,1.3,0,.9-.014,1.556-.025,1.833.249a.45.45,0,0,1,.136.333C1980.439,2005.436,1979.312,2005.925,1977.818,2005.925Zm-1.177-1.406a2.019,2.019,0,0,0-1.084.163.136.136,0,0,0-.041.106c0,.387.946.819,2.3.819s2.3-.432,2.3-.819a.136.136,0,0,0-.041-.106,3.4,3.4,0,0,0-1.6-.157c-.418.007-.894.007-1.312,0C1976.984,2004.521,1976.808,2004.519,1976.641,2004.519Z" transform="translate(-1975.198 -2004.2)"/></g></g><g class="f" transform="translate(1322.356 1525.329)"><path class="g" d="M2127.475,2857.872H2114.4a.366.366,0,0,1-.107-.716c13.093-3.95,17.372-16.5,16.356-34.218q.458,1.564.822,3.146.416,1.8.694,3.622v0a47.324,47.324,0,0,1,.562,6.572A43.374,43.374,0,0,1,2127.475,2857.872Z" transform="translate(-2114.037 -2822.939)"/></g><g transform="translate(1268.563 1480.578)"><g transform="translate(14.312 0.372)"><path class="i" d="M1494.463,2140.7a.959.959,0,0,1-.649-1.665c.256-.236.509-.464.762-.693l.026-.024a63.613,63.613,0,0,1,20.8-12.838.959.959,0,0,1,.646,1.806,61.7,61.7,0,0,0-20.166,12.458l-.023.021c-.249.225-.5.451-.751.683A.955.955,0,0,1,1494.463,2140.7Z" transform="translate(-1493.504 -2125.422)"/></g><g transform="translate(16.948)"><path class="j" d="M1539.938,2122.024a12.769,12.769,0,0,1,3.482,3.569.477.477,0,0,1,.194.355c0,.642-1.814,1.142-4.044,1.123s-4.026-.554-4.022-1.192,1.814-1.141,4.044-1.123l.2,0c-.41-.272-.829-.575-1.257-.9-2.339-1.791-3.923-3.656-3.533-4.165S1537.6,2120.233,1539.938,2122.024Z" transform="translate(-1534.94 -2119.569)"/></g><g transform="translate(0 11.484)"><path class="j" d="M1279.679,2300.274c-3.076-.543-5.741-.014-5.952,1.181-.2,1.156,1.965,2.51,4.891,3.089a33.964,33.964,0,0,0-3.667,2.578c-4.384,3.52-7.159,7.345-6.2,8.542s5.295-.686,9.679-4.207c.18-.145.353-.29.527-.435-.454,2.192-.3,3.879.5,4.187,1.134.434,3.129-2.023,4.456-5.489,1.005-2.625,1.338-5.072.948-6.3v0C1285.078,2302.227,1282.755,2300.818,1279.679,2300.274Z" transform="translate(-1268.563 -2300.061)"/></g><g transform="translate(20.524 9.613)"><path class="j" d="M1591.883,2278.928c.506.024,1-1.809,1.112-4.094s-.214-4.156-.72-4.18-1,1.809-1.112,4.093S1591.377,2278.9,1591.883,2278.928Z" transform="translate(-1591.142 -2270.654)"/></g></g><g class="f" transform="translate(1278.986 1494.682)"><g transform="translate(0.279 0.159)"><path class="h" d="M1436.766,2343.743c.057.1.114.189.174.284-.061-.092-.121-.188-.178-.284Z" transform="translate(-1436.762 -2343.743)"/></g><g transform="translate(0 0)"><path class="g" d="M1432.7,2341.775c-.062-.094-.123-.193-.182-.291l-.142-.24h.37l.05.078c.056.095.112.186.172.281Z" transform="translate(-1432.376 -2341.244)"/></g></g><g transform="translate(1302.817 1478.738)"><path class="g" d="M1826.01,2097.523c-.071,0-.141,0-.212,0a6.929,6.929,0,0,1-5.8-3.6c-2.285,2.278-4.885,3.374-7.288,3.032-2.433-.345-4.457-2.1-5.7-4.954a.959.959,0,0,1,1.758-.766c.98,2.248,2.436,3.569,4.211,3.821,2.089.3,4.471-.962,6.54-3.452a.959.959,0,0,1,1.638.284,5.2,5.2,0,0,0,4.7,3.712,5.436,5.436,0,0,0,5.087-3.527.959.959,0,0,1,1.759.764A7.339,7.339,0,0,1,1826.01,2097.523Z" transform="translate(-1806.93 -2090.661)"/></g><g transform="translate(1347.781 1493.766)"><g transform="translate(0 10.506)"><path class="i" d="M2514.6,2519.9a.948.948,0,0,1-.255-.035.958.958,0,0,1-.671-1.176c.159-.583,4.137-14.421,24.13-26.557a.959.959,0,1,1,1,1.639c-19.287,11.707-23.239,25.289-23.276,25.425A.96.96,0,0,1,2514.6,2519.9Z" transform="translate(-2513.645 -2491.992)"/></g><g transform="translate(2.525 16.573)"><path class="j" d="M2554.469,2592.761a12.781,12.781,0,0,0,2.46,4.337.476.476,0,0,0,.288.285c.618.174,1.6-1.425,2.2-3.572s.587-4.021-.027-4.194-1.6,1.425-2.2,3.572c-.017.066-.034.128-.051.19-.147-.469-.322-.956-.515-1.458-1.07-2.745-2.421-4.784-3.018-4.552S2553.4,2590.016,2554.469,2592.761Z" transform="translate(-2553.328 -2587.351)"/></g><g transform="translate(22.86 0)"><path class="j" d="M2873.029,2333.506c.334-3.106,1.583-5.519,2.79-5.389,1.167.125,1.865,2.585,1.608,5.557a33.954,33.954,0,0,1,3.5-2.805c4.6-3.232,9.046-4.834,9.928-3.578s-2.131,4.9-6.732,8.128c-.189.133-.377.258-.565.385,2.231.174,3.81.787,3.882,1.646.1,1.21-2.813,2.443-6.511,2.754-2.8.236-5.244-.126-6.311-.84h0C2873.4,2339.235,2872.7,2336.612,2873.029,2333.506Z" transform="translate(-2872.946 -2326.863)"/></g><g transform="translate(14.238 17.999)"><ellipse class="j" cx="0.917" cy="4.142" rx="0.917" ry="4.142" transform="translate(0 1.784) rotate(-76.567)"/></g></g></g></g></g></svg>