<svg xmlns="http://www.w3.org/2000/svg" xmlns:xlink="http://www.w3.org/1999/xlink" width="147" height="147" viewBox="0 0 147 147"><defs><style>.a{fill:#fff;}.b{fill:#005ab2;}.c{clip-path:url(#c);}.d{fill:#f1aa00;}.e{fill:#e85b6e;}.f,.k{fill:none;}.g{fill:#d18e07;}.h{fill:#423d2a;}.i{fill:#f2f1fb;}.j{fill:#160307;}.k{stroke:#241f20;stroke-linecap:round;stroke-miterlimit:10;stroke-width:0.5px;}.l{fill:#9e4b00;}.m{fill:#91c252;}.n{fill:#9cd257;}.o{filter:url(#a);}</style><filter id="a" x="0" y="0" width="147" height="147" filterUnits="userSpaceOnUse"><feOffset dx="5" dy="5" input="SourceAlpha"/><feGaussianBlur stdDeviation="5" result="b"/><feFlood flood-opacity="0.2"/><feComposite operator="in" in2="b"/><feComposite in="SourceGraphic"/></filter><clipPath id="c"><path class="a" d="M58.52,0A58.52,58.52,0,1,1,0,58.52,58.52,58.52,0,0,1,58.52,0Z"/></clipPath></defs><g transform="translate(9.787 2.379)"><g class="o" transform="matrix(1, 0, 0, 1, -9.79, -2.38)"><circle class="b" cx="58.5" cy="58.5" r="58.5" transform="translate(10 10)"/></g><path class="a" d="M58.52,0A58.52,58.52,0,1,1,0,58.52,58.52,58.52,0,0,1,58.52,0Z" transform="translate(0)"/><g class="c" transform="translate(0)"><g transform="translate(-77.713 6.564)"><g transform="translate(0 0)"><path class="d" d="M344,75.39s14.791-10.2,10.181-25.659c0,0-17.161,5.239-19.092,20.3S344,75.39,344,75.39Z" transform="translate(-194.295 -44.575)"/><path class="e" d="M346.819,72.66s8.978-10.771,7.6-15.6c0,0-5.265.835-15.29,12.5Z" transform="translate(-198.34 -44.106)"/><path class="f" d="M416.761,313.978c1.773-10.159,2.12-31.305,2.264-39.2,17.384,0,18.692-13.985,22.137-20.194" transform="translate(-367.533 -31.47)"/><path class="g" d="M416.863,247.374c-.086,7.691-.515,49.4,1.375,67.065h5.185c1.282-12,2.12-31.305,2.264-39.2,17.384,0,18.692-13.985,22.137-20.194Z" transform="translate(-374.195 -31.931)"/><path class="h" d="M445.006,310.407s-.125,4.954-1.417,4.954h-3.615l-.279-4.954Z" transform="translate(-395.778 -27.899)"/><path class="d" d="M477.059,225.579s-16.635-3.541-26.78,8.723c0,0,13.515-11.378,25.956-6.967C482.63,229.6,477.059,225.579,477.059,225.579Z" transform="translate(-441.34 -33.356)"/><g transform="translate(0 195.666)"><path class="h" d="M477.562,232.216c0-2.8,8.938,1.69,8.938,1.69s-.377,8.021-2.746,8.021,1.793-6.911,1.793-6.911-5.723,5.061-6.585,3.123c-.518-1.165,5.492-4.234,5.492-4.234S477.562,235.017,477.562,232.216Z" transform="translate(-477.562 -228.626)"/><path class="h" d="M477.832,228.972c1.349-1.349,4.954,5.094,4.954,5.094S476.162,230.642,477.832,228.972Z" transform="translate(-473.847 -228.786)"/></g><path class="h" d="M396.783,69.581l8.456-8.453s-26.176-11.309-33.9,2.4c-14.822,26.3-5.822,116.96-25.648,143.6l30.467-5.638Z" transform="translate(-255.992 -44.127)"/><path class="d" d="M355.537,259.108c.163-14.513-.273-34.537,40.764-41.331C444.41,209.812,446.582,80.8,446.582,80.8s13.7,1.59,18.792,20.273c0,0-6.273,84.585-9.059,145.165a254.393,254.393,0,0,1,.793,47.113c-1.046,12.541-6.158,26.232-7.818,32.82h-5.034c.272-7.08,2.815-18.63,2.411-28.754-.591-14.8-5.355-27.256-8.969-28.707-4.767-1.914-7.2,40.791-10.072,57.461h-5.311c-2.186-14.984-.759-51.76-4.761-55.763-3.092-3.091-17.7-4.861-31.057-3.635-3.445,6.209-4.753,20.2-22.136,20.2-.144,7.9-.982,27.2-2.264,39.2h-5.185C355.021,308.51,355.45,266.8,355.537,259.108Z" transform="translate(-326.495 -42.588)"/><path class="h" d="M375.585,311.419s-.127,4.954-1.418,4.954h-3.615v-4.954Z" transform="translate(-252.789 -27.834)"/><path class="h" d="M396.223,311.419s-.127,4.954-1.418,4.954H391.19l-.278-4.954Z" transform="translate(-295.091 -27.834)"/><path class="h" d="M457.813,311.419s-.126,4.954-1.418,4.954h-3.614l-.279-4.954Z" transform="translate(-422.212 -27.834)"/><path class="d" d="M377.237,68.975l-11.43-18.537s-2.351-2.95,8.616,19.6Z" transform="translate(-249.169 -44.538)"/><path class="h" d="M374.306,49.493A2.94,2.94,0,1,0,378.188,48,2.94,2.94,0,0,0,374.306,49.493Z" transform="translate(-260.863 -44.702)"/><path class="d" d="M361.089,69.572,360,47.821s-.638-3.719-1.894,21.327Z" transform="translate(-225.056 -44.71)"/><path class="h" d="M357.985,45.485a2.94,2.94,0,1,0,4.12.562A2.94,2.94,0,0,0,357.985,45.485Z" transform="translate(-225.302 -44.885)"/><path class="d" d="M386.573,78.534s-19.612-4.918-20.159-21.042c0,0,17.936-.49,24.557,13.173S386.573,78.534,386.573,78.534Z" transform="translate(-265.891 -44.079)"/><path class="e" d="M382.972,77.623S366.239,64.938,368.808,62.18c0,0,5.327-.188,17.4,9.343Z" transform="translate(-261.272 -43.779)"/><path class="g" d="M355.5,99.375V99.4c2.378,11.049,12.718,18.61,18.235,21.944.737-10.107,1.267-17.111,1.448-19.438-5.906-9.434-18.21-20.639-18.714-21.091l-.013-.013S356.326,88.119,355.5,99.375Z" transform="translate(-236.37 -42.588)"/><path class="d" d="M334.008,65.917c7.108,4.265,27.117,15.414,39.126,27.423,7.3,7.3,4.919,21.891-9.411,25.889-20.463,5.708-54.151-10.363-51.477-37.3C312.913,75.21,317.434,55.972,334.008,65.917Z" transform="translate(-192.158 -43.719)"/><path class="i" d="M312.1,116.342c8.116,2.727,16.684,3.321,23.689,1.369,14.333-4.006,16.711-18.6,9.421-25.9-1.642-1.642-3.45-3.282-5.338-4.885a15.6,15.6,0,0,0-10.546,3.3C320.923,96.543,313.039,107.476,312.1,116.342Z" transform="translate(-164.226 -42.198)"/><g transform="translate(145.803 30.64)"><ellipse class="a" cx="3.788" cy="3.788" rx="3.788" ry="3.788"/><path class="j" d="M344.286,77.388A2.388,2.388,0,1,0,346.675,75,2.388,2.388,0,0,0,344.286,77.388Z" transform="translate(-344.125 -73.599)"/></g><g transform="translate(129.31 34.428)"><circle class="a" cx="3.788" cy="3.788" r="3.788"/><ellipse class="j" cx="2.388" cy="2.388" rx="2.388" ry="2.388" transform="translate(0.162 1.4)"/></g><path class="j" d="M318.98,100.245c.835,1.1,1.08,2.324.546,2.728s-1.643-.162-2.478-1.264-1.079-2.324-.546-2.728S318.145,99.143,318.98,100.245Z" transform="translate(-139.207 -41.433)"/><path class="j" d="M327.158,105.126c.835,1.1,1.08,2.324.546,2.728s-1.642-.163-2.477-1.265-1.08-2.323-.547-2.727S326.323,104.024,327.158,105.126Z" transform="translate(-156.086 -41.121)"/><path class="k" d="M341.092,115.317s-5.977,1.616-8.078-4.523" transform="translate(-178.358 -40.669)"/><ellipse class="e" cx="4.595" cy="2.359" rx="4.595" ry="2.359" transform="translate(123.473 43.338)"/><ellipse class="e" cx="2.359" cy="4.595" rx="2.359" ry="4.595" transform="translate(154.279 41.875) rotate(-106.056)"/><path class="l" d="M369.01,125.667c1.835.776,3.916.116,6.088-3.308,5.389-8.466-.427-13.493-3.891-15.574C370.664,112.562,369.953,118.96,369.01,125.667Z" transform="translate(-252.854 -40.925)"/><path class="l" d="M369.427,155.257c3.774.995,8.284.479,11.747-4.989,6.1-9.6-3.709-15.9-7.172-17.731C372.788,140.007,371.276,147.709,369.427,155.257Z" transform="translate(-259.139 -39.278)"/><path class="l" d="M381.654,193.4c2.83.711,14.85,2.972,16.543-8.969.944-6.643-2.675-9.951-6.6-11.606A103.152,103.152,0,0,1,381.654,193.4Z" transform="translate(-287.365 -36.7)"/><path class="l" d="M371.051,127.478c2.1,2.1,5.008,6.388,0,8.649s-6.932-1.088-6.932-5.008C364.119,128.835,367.924,124.35,371.051,127.478Z" transform="translate(-244.182 -39.67)"/><path class="l" d="M370.944,155.8c1.608,1.608,3.833,4.89,0,6.621s-5.306-.833-5.306-3.833C365.638,156.838,368.55,153.4,370.944,155.8Z" transform="translate(-245.04 -37.842)"/><path class="l" d="M377.333,173.166c1.35,1.35,3.219,4.1,0,5.558s-4.454-.7-4.454-3.217C372.879,174.039,375.324,171.157,377.333,173.166Z" transform="translate(-258.795 -36.723)"/><path class="l" d="M402.351,222.989c1.35,1.349,3.219,4.1,0,5.558s-4.454-.7-4.454-3.219C397.9,223.861,400.342,220.98,402.351,222.989Z" transform="translate(-310.431 -33.535)"/><path class="l" d="M382.3,216.4c2.521,2.521,6.011,7.668,0,10.382s-11.523-1.307-11.523-6.011C370.781,215.588,378.549,212.648,382.3,216.4Z" transform="translate(-263.077 -34.021)"/><path class="l" d="M376.5,192.05c1.731,1.731,4.129,5.267,0,7.132s-5.716-.9-5.716-4.129C370.781,193.168,373.918,189.471,376.5,192.05Z" transform="translate(-256.229 -35.527)"/><path class="l" d="M433.328,232.23c-1.178,2.147-3.9,5.438-6.847,2s-.738-5.739,2.364-6.643C430.654,227.054,435.082,229.031,433.328,232.23Z" transform="translate(-368.969 -33.203)"/><path class="l" d="M373.707,170.317c1.693,1.615,4.5,2.119,8.8.8,9.719-3,3.322-9.834,0-12.988a5.158,5.158,0,0,0-4.73-1.5C376.563,161.309,375.219,165.9,373.707,170.317Z" transform="translate(-268.226 -37.743)"/><path class="l" d="M409.719,221.014c.746-4.52,2.828-13.647,10.749-7.274,6.722,5.405,4.8,10.006-.071,13.3C417.557,228.964,408.607,227.747,409.719,221.014Z" transform="translate(-343.589 -34.223)"/><path class="l" d="M388.317,215.967c2.986,2.662,7.289,2.662,11.282,2.74,10.921.206,13.143-9.823,13.143-11.244,0-2.817-.284-6.19-2.74-7.573s-4.769-.543-6.966-2.416a10.393,10.393,0,0,0-5.519-2.817,42.728,42.728,0,0,1-12.755,12.187v.013A11.321,11.321,0,0,0,388.317,215.967Z" transform="translate(-305.039 -35.304)"/><path class="l" d="M425.258,218.729a10.2,10.2,0,0,0,1.228,3.9c1.331,1.887,3.128,3.994,5.428,3.748s3.438-1.9,5.8-1.693c2.288.206,4.277.077,6.138-1.5a9.275,9.275,0,0,0,2.96-5.44,11.365,11.365,0,0,0-.853-7.07C436.864,212.706,430.182,215.485,425.258,218.729Z" transform="translate(-382.446 -34.279)"/></g><g transform="translate(19.691 231.873)"><path class="m" d="M351.7,310.506c-6.382-.252-17.315-7.372-14.624-13.765,4.588-10.9,13.764-4.013,16.918-1.147-3.155-7.455-3.441-18.925,1.147-20.645,7.745-2.9,15.991-1.973,20.411,6.355-1.08-3.852-3.136-15.973,7.116-18.111,11.066-2.309,16.771,6.393,17.492,14.911,2.618-7.381,11.866-10.844,18.926-7.455s8.742,11.062,6.962,18.688c1.927-.91,11.676-7.791,15.978,1.67,4.076,8.968-10.389,18.753-14.674,19.141Z" transform="translate(-303.569 -262.816)"/><path class="n" d="M329,314.275c-3.03-.119-8.221-3.5-6.943-6.536,2.178-5.174,6.535-1.906,8.033-.545-1.5-3.54-1.634-8.986.545-9.8,3.677-1.379,7.594-.936,9.692,3.017-.513-1.828-1.489-7.584,3.379-8.6,5.255-1.1,7.964,3.036,8.306,7.08a6.659,6.659,0,0,1,8.986-3.54c3.352,1.609,4.151,5.253,3.306,8.874.915-.432,5.544-3.7,7.586.794,1.936,4.258-4.933,8.9-6.968,9.088Z" transform="translate(-217.322 -260.973)"/><ellipse class="n" cx="59.685" cy="9.99" rx="59.685" ry="9.99" transform="translate(0 43.58)"/><path class="m" d="M421.264,333c-3.47-.137-9.415-4.008-7.951-7.484,2.5-5.924,7.484-2.182,9.2-.624-1.715-4.054-1.872-10.291.623-11.226,4.211-1.579,8.695-1.072,11.1,3.455-.587-2.094-1.706-8.684,3.87-9.847,6.017-1.256,9.119,3.476,9.511,8.107a7.625,7.625,0,0,1,10.29-4.054c3.839,1.842,4.754,6.016,3.786,10.162,1.048-.5,6.349-4.238,8.687.908,2.217,4.876-5.648,10.2-7.979,10.408Z" transform="translate(-412.918 -259.985)"/></g></g></g></g></svg>