<svg xmlns="http://www.w3.org/2000/svg" xmlns:xlink="http://www.w3.org/1999/xlink" width="147" height="147" viewBox="0 0 147 147"><defs><style>.a{fill:#fff;}.b{fill:#005ab2;}.c{clip-path:url(#c);}.d{fill:#ee972e;}.e{fill:#fcb4db;opacity:0.8;}.f{fill:#8a391b;}.g{fill:#d8c6b6;}.h{fill:#ffac5a;}.i{opacity:0.4;}.j{fill:#231f20;opacity:0.3;}.k{fill:#436066;opacity:0.2;}.l{fill:#f9a141;}.m{fill:#f970af;}.n{fill:#282828;}.o{filter:url(#a);}</style><filter id="a" x="0" y="0" width="147" height="147" filterUnits="userSpaceOnUse"><feOffset dx="5" dy="5" input="SourceAlpha"/><feGaussianBlur stdDeviation="5" result="b"/><feFlood flood-opacity="0.2"/><feComposite operator="in" in2="b"/><feComposite in="SourceGraphic"/></filter><clipPath id="c"><path class="a" d="M58.52,0A58.52,58.52,0,1,1,0,58.52,58.52,58.52,0,0,1,58.52,0Z"/></clipPath></defs><g transform="translate(9.787 2.379)"><g class="o" transform="matrix(1, 0, 0, 1, -9.79, -2.38)"><circle class="b" cx="58.5" cy="58.5" r="58.5" transform="translate(10 10)"/></g><path class="a" d="M58.52,0A58.52,58.52,0,1,1,0,58.52,58.52,58.52,0,0,1,58.52,0Z" transform="translate(0)"/><g class="c" transform="translate(0)"><g transform="translate(-275.938 -32.399)"><g transform="translate(288.159 45.286)"><path class="d" d="M308.492,98.38a14.1,14.1,0,0,1-3.29.279,18.262,18.262,0,0,1-6.965-.859,14.874,14.874,0,0,1-2.594-1.426,13.106,13.106,0,0,1-3.276-2.811,15.587,15.587,0,0,1-1.95-3.8q-.7-1.746-1.407-3.493a12.994,12.994,0,0,1-.851-2.64c1.349.975,3.192.769,4.826.454a57.927,57.927,0,0,1,9.319-1.516,13.548,13.548,0,0,1,9.364,3.49,12.9,12.9,0,0,1,3.061,4.148c.82,1.78.216,3.52-.986,5A10.71,10.71,0,0,1,308.492,98.38Z" transform="translate(-288.159 -59.113)"/><path class="e" d="M308.452,99.914a15.535,15.535,0,0,1-8.751-.831,11.759,11.759,0,0,1-3.892-2.417,7.489,7.489,0,0,1-1.407-2.075,6.7,6.7,0,0,1-.455-1.274c-.093-.389-.086-.741-.216-1.124a8.433,8.433,0,0,0,2.187.543q1.286.13,2.579.182c2.011.082,4.038-.165,6.031.013a12.933,12.933,0,0,1,5.169,1.5,9.349,9.349,0,0,1,1.543,1.077c.761.657,2.968,2.344,1.266,3.127A17.165,17.165,0,0,1,308.452,99.914Z" transform="translate(-290.225 -62.684)"/><g transform="translate(17.64)"><path class="d" d="M330.819,71a36.386,36.386,0,0,0-6.92,3.252c-.453.277-.9.56-1.34.856-.51-2.888-1.2-5.769-1.894-8.612l-1.95-8.021-2.453-10.085a2.593,2.593,0,0,1,2.284-3.045c.019,0,.038-.006.057-.006a2.949,2.949,0,0,1,3.4,1.862c1.025,3.466,2.095,6.939,3.284,10.38A111.283,111.283,0,0,0,330.819,71Z" transform="translate(-316.199 -45.286)"/><path class="f" d="M325.287,57.579a5.215,5.215,0,0,1-1.1.738,7.5,7.5,0,0,1-5.469.154l-2.453-10.085a2.589,2.589,0,0,1,2.284-3.04.222.222,0,0,1,.057-.009,2.96,2.96,0,0,1,3.4,1.863C323.031,50.666,324.1,54.137,325.287,57.579Z" transform="translate(-316.199 -45.286)"/></g></g><g transform="translate(350.912 45.286)"><path class="d" d="M402.969,98.38a14.1,14.1,0,0,0,3.29.279,18.262,18.262,0,0,0,6.965-.859,14.872,14.872,0,0,0,2.594-1.426,13.106,13.106,0,0,0,3.276-2.811,15.587,15.587,0,0,0,1.95-3.8q.7-1.746,1.407-3.493a12.99,12.99,0,0,0,.851-2.64c-1.349.975-3.192.769-4.826.454a57.927,57.927,0,0,0-9.319-1.516,13.548,13.548,0,0,0-9.364,3.49,12.9,12.9,0,0,0-3.061,4.148c-.82,1.78-.216,3.52.986,5A10.71,10.71,0,0,0,402.969,98.38Z" transform="translate(-391.042 -59.113)"/><path class="e" d="M407.456,99.914a15.535,15.535,0,0,0,8.751-.831,11.759,11.759,0,0,0,3.892-2.417,7.49,7.49,0,0,0,1.407-2.075,6.7,6.7,0,0,0,.455-1.274c.093-.389.086-.741.216-1.124a8.433,8.433,0,0,1-2.187.543q-1.286.13-2.579.182c-2.011.082-4.038-.165-6.031.013a12.933,12.933,0,0,0-5.169,1.5,9.348,9.348,0,0,0-1.543,1.077c-.761.657-2.968,2.344-1.266,3.127A17.165,17.165,0,0,0,407.456,99.914Z" transform="translate(-393.423 -62.684)"/><path class="d" d="M387.909,71a36.385,36.385,0,0,1,6.92,3.252c.453.277.9.56,1.34.856.51-2.888,1.2-5.769,1.894-8.612l1.95-8.021,2.454-10.085a2.593,2.593,0,0,0-2.284-3.045c-.019,0-.038-.006-.057-.006a2.949,2.949,0,0,0-3.4,1.862c-1.025,3.466-2.095,6.939-3.284,10.38A111.269,111.269,0,0,1,387.909,71Z" transform="translate(-387.909 -45.286)"/><path class="f" d="M396.7,57.579a5.216,5.216,0,0,0,1.1.738,7.5,7.5,0,0,0,5.469.154l2.453-10.085a2.589,2.589,0,0,0-2.284-3.04.222.222,0,0,0-.057-.009,2.96,2.96,0,0,0-3.4,1.863C398.959,50.666,397.889,54.137,396.7,57.579Z" transform="translate(-391.171 -45.286)"/></g><g transform="translate(298.608 68.463)"><path class="g" d="M376.988,222.988c0,1.792-15.656,3.246-34.968,3.246s-34.968-1.453-34.968-3.246,15.655-3.246,34.968-3.246S376.988,221.2,376.988,222.988Z" transform="translate(-305.616 -133.168)"/><g transform="translate(0)"><path class="d" d="M375.666,197.826a32.07,32.07,0,0,1-.442,5.3,1.057,1.057,0,0,1-1.334.85c-2.6-.725-5.319-1.359-8.128-1.882a2.576,2.576,0,0,0-.264-.048.537.537,0,0,0-.087-.019,116.123,116.123,0,0,0-18.684-1.9c-.937-.024-1.873-.033-2.818-.033-.984,0-1.963.009-2.934.038a115.668,115.668,0,0,0-18.555,1.892c-.062.009-.13.024-.2.038a.19.19,0,0,0-.053.009q-4.17.778-8.037,1.848a1.237,1.237,0,0,1-1.56-.989,31.755,31.755,0,1,1,63.092-5.1Z" transform="translate(-307.514 -113.263)"/><path class="h" d="M371.488,207.745l-.039-.011c-1.8-14.9-10.741-26.223-21.5-26.223s-19.7,11.33-21.493,26.237c0,0,11.415,1.158,21.014-1.925h.027C359.1,208.905,371.488,207.745,371.488,207.745Z" transform="translate(-313.556 -118.989)"/><path class="d" d="M378.922,114.011v.742a30.041,30.041,0,0,1-.547,5.115,26.826,26.826,0,0,1-.774,3.039,24.172,24.172,0,0,1-1.277,3.158,20.306,20.306,0,0,1-4.561,6.1q-.226.217-.453.415A25.123,25.123,0,0,1,364.6,136.7c-.981.421-1.994.793-3.026,1.126-6.354,2.051-13.519,2.485-19.729,2.485-6.039,0-13.211-.484-19.609-2.548q-1.557-.491-3.039-1.12a26.247,26.247,0,0,1-6.794-4.108c-.151-.126-.3-.258-.447-.4a19.508,19.508,0,0,1-4.586-6.071,24.145,24.145,0,0,1-1.271-3.158,24.4,24.4,0,0,1-.78-3.039,29.43,29.43,0,0,1-.541-5.115c-.006-.245-.013-.491-.013-.742,0-.73.019-1.453.076-2.158a30.927,30.927,0,0,1,.516-4.039,29.163,29.163,0,0,1,8.31-15.294,32.5,32.5,0,0,1,4.649-3.749c.44-.3.887-.579,1.34-.856a36.385,36.385,0,0,1,6.92-3.252,41.5,41.5,0,0,1,4.85-1.4q2.2-.491,4.5-.774c1.032-.126,2.076-.22,3.139-.277.912-.057,1.843-.082,2.774-.082s1.868.025,2.781.082c1.057.057,2.1.151,3.127.277q2.312.283,4.517.774a41.2,41.2,0,0,1,8.43,2.875,34.538,34.538,0,0,1,9.317,6.385,27.69,27.69,0,0,1,2.359,2.579,28.774,28.774,0,0,1,5.958,12.72,30.7,30.7,0,0,1,.516,4.033C378.9,112.558,378.922,113.281,378.922,114.011Z" transform="translate(-304.769 -82.128)"/><g transform="translate(7.191 37.809)"><path class="f" d="M374.259,152.615a32.846,32.846,0,0,0-5.989-4.605,34.324,34.324,0,0,0-3.328-1.78,41.187,41.187,0,0,0-8.43-2.869,45.406,45.406,0,0,0-4.517-.78c-1.025-.126-2.07-.22-3.127-.277-.912-.057-1.843-.076-2.781-.076s-1.862.019-2.774.076c-1.063.057-2.107.151-3.139.277a45.155,45.155,0,0,0-4.5.78,40.66,40.66,0,0,0-8.443,2.862c-1.145.547-2.258,1.139-3.328,1.787a32.846,32.846,0,0,0-5.989,4.605c-.6.579-1.17,1.183-1.711,1.812.145.145.3.277.447.4a26.248,26.248,0,0,0,6.794,4.108q1.482.632,3.039,1.12c6.4,2.063,13.57,2.548,19.609,2.548,6.209,0,13.375-.434,19.729-2.485,1.032-.333,2.045-.7,3.026-1.126a25.124,25.124,0,0,0,6.706-4.121q.226-.2.453-.415C375.454,153.822,374.869,153.206,374.259,152.615Z" transform="translate(-316.199 -142.228)"/></g><g class="i" transform="translate(0.002 20.38)"><path class="j" d="M368.129,146.08c-1.023.437-2.074.826-3.145,1.171-6.6,2.132-14.042,2.583-20.494,2.583-6.275,0-13.726-.509-20.37-2.645-1.076-.345-2.127-.73-3.154-1.166a27.22,27.22,0,0,1-7.057-4.268,20.529,20.529,0,0,1-5.233-6.721,26.02,26.02,0,0,1-2.131-6.438,30.688,30.688,0,0,1-.562-5.319c-.005-.254-.009-.509-.009-.768,0-.754.019-1.507.077-2.242a32.047,32.047,0,0,1,.537-4.2c.1-.523.216-1.037.346-1.546a29.307,29.307,0,0,0-1.57,5.305,31.219,31.219,0,0,0-.519,4.038c-.053.705-.072,1.431-.072,2.16,0,.25,0,.494.009.739a29.455,29.455,0,0,0,.542,5.118,25.147,25.147,0,0,0,.778,3.039,24.794,24.794,0,0,0,1.272,3.159,19.8,19.8,0,0,0,5.036,6.471,26.13,26.13,0,0,0,6.793,4.1c.989.423,2,.792,3.039,1.124,6.395,2.06,13.567,2.549,19.607,2.549,6.212,0,13.375-.437,19.726-2.487,1.032-.331,2.045-.706,3.03-1.128a25.2,25.2,0,0,0,6.706-4.119c.125-.106.245-.216.365-.326A27.891,27.891,0,0,1,368.129,146.08Z" transform="translate(-304.772 -114.524)"/></g><path class="k" d="M322.166,214.656c-2.775.516-5.459,1.138-8.035,1.85a1.24,1.24,0,0,1-1.561-.993,32.323,32.323,0,0,1-.4-5.1,31.735,31.735,0,0,1,1.729-10.36,5.106,5.106,0,0,1,.667-.043,5.288,5.288,0,0,1,5.181,4.129Z" transform="translate(-307.513 -125.85)"/><path class="k" d="M407.258,210.413a32.47,32.47,0,0,1-.438,5.3,1.062,1.062,0,0,1-1.336.85c-2.6-.725-5.32-1.359-8.131-1.884l2.424-10.538a5.292,5.292,0,0,1,5.18-4.129,5.525,5.525,0,0,1,.567.029A31.692,31.692,0,0,1,407.258,210.413Z" transform="translate(-339.108 -125.85)"/><g transform="translate(14.615 59.588)"><path class="k" d="M336.347,181.72l3.735,9.113a1,1,0,0,1-.547,1.307l-1.97.807-2.179.888-1.816.744a1.273,1.273,0,0,1-1.66-.695l-3.574-8.719a4.492,4.492,0,0,1,2.378-5.852,4.36,4.36,0,0,1,5.632,2.408Z" transform="translate(-328.001 -177.649)"/><path class="l" d="M337.138,179.558l4.115,10.04-2.9,1.187-2.179.888-2.994,1.227-4.113-10.035a4.359,4.359,0,1,1,8.067-3.307Z" transform="translate(-328.276 -176.847)"/><g transform="translate(5.074 12.124)"><path class="f" d="M338.33,200.352l-2.177.892a1.176,1.176,0,0,1,2.177-.892Z" transform="translate(-336.067 -197.419)"/><path class="f" d="M342.689,198.571l-2.179.888a1.176,1.176,0,0,1,2.179-.888Z" transform="translate(-337.683 -196.757)"/><path class="f" d="M346.89,196.849l-2.177.893a1.176,1.176,0,0,1,2.177-.893Z" transform="translate(-339.241 -196.118)"/></g></g><g transform="translate(43.889 59.588)"><path class="k" d="M379.648,181.72l-3.735,9.113a1,1,0,0,0,.547,1.307l1.97.807,2.179.888,1.816.744a1.273,1.273,0,0,0,1.66-.695l3.574-8.719a4.492,4.492,0,0,0-2.379-5.852,4.359,4.359,0,0,0-5.632,2.408Z" transform="translate(-375.017 -177.649)"/><path class="l" d="M378.648,179.558l-4.115,10.04,2.9,1.187,2.179.888L382.6,192.9l4.113-10.035a4.359,4.359,0,1,0-8.067-3.307Z" transform="translate(-374.533 -176.847)"/><g transform="translate(0.254 12.124)"><path class="f" d="M383.5,200.352l2.177.892a1.176,1.176,0,0,0-2.177-.892Z" transform="translate(-378.111 -197.419)"/><path class="f" d="M379.137,198.571l2.179.888a1.176,1.176,0,0,0-2.179-.888Z" transform="translate(-376.494 -196.757)"/><path class="f" d="M374.936,196.849l2.177.893a1.176,1.176,0,0,0-2.177-.893Z" transform="translate(-374.936 -196.118)"/></g></g><g transform="translate(2.683 75.118)"><path class="l" d="M319.322,215.664l-6.536,1.5a1.237,1.237,0,0,1-1.483-.929l-2.156-9.367a4.36,4.36,0,0,1,3.272-5.227h0a4.361,4.361,0,0,1,5.228,3.272l2.258,9.817A.776.776,0,0,1,319.322,215.664Z" transform="translate(-309.034 -201.533)"/><g transform="translate(1.015 1.103)"><path class="f" d="M319.278,215.318a3.289,3.289,0,1,1-3.288-3.289A3.288,3.288,0,0,1,319.278,215.318Z" transform="translate(-311.409 -206.528)"/><circle class="f" cx="1.58" cy="1.58" r="1.58" transform="translate(1.42)"/><circle class="f" cx="1.12" cy="1.12" r="1.12" transform="translate(0 3.601)"/><path class="f" d="M320.574,208.507a1.12,1.12,0,1,1-1.12-1.12A1.12,1.12,0,0,1,320.574,208.507Z" transform="translate(-313.498 -204.807)"/></g></g><g transform="translate(59.327 75.118)"><path class="l" d="M399.676,215.664l6.536,1.5a1.238,1.238,0,0,0,1.484-.929l2.155-9.367a4.36,4.36,0,0,0-3.272-5.227h0a4.361,4.361,0,0,0-5.228,3.272l-2.258,9.817A.776.776,0,0,0,399.676,215.664Z" transform="translate(-399.073 -201.533)"/><g transform="translate(2.006 1.102)"><path class="f" d="M402.262,215.318a3.289,3.289,0,1,0,3.289-3.289A3.289,3.289,0,0,0,402.262,215.318Z" transform="translate(-402.262 -206.528)"/><path class="f" d="M407.49,204.865a1.58,1.58,0,1,0,1.58-1.58A1.58,1.58,0,0,0,407.49,204.865Z" transform="translate(-404.201 -203.285)"/><circle class="f" cx="1.12" cy="1.12" r="1.12" transform="translate(5.629 3.601)"/><path class="f" d="M403.523,208.507a1.12,1.12,0,1,0,1.12-1.12A1.12,1.12,0,0,0,403.523,208.507Z" transform="translate(-402.73 -204.806)"/></g></g></g></g><g transform="translate(326.07 110.279)"><path class="m" d="M366.178,153.964c-.047.162-.1.323-.155.481a4.644,4.644,0,0,1-1.205,1.794,7.442,7.442,0,0,1-9.691,0,4.715,4.715,0,0,1-1.2-1.789c-.038-.105-.026-.228-.091-.321a8,8,0,0,0,2.059-.044,5.91,5.91,0,0,0,1.952-.757,2.656,2.656,0,0,0,.432-.316,3.5,3.5,0,0,0,.362-.415l.652-.832a3.288,3.288,0,0,0,.769-1.411,1.354,1.354,0,0,0,.176.434,1.432,1.432,0,0,0,.173.237c.178.229.294.518.45.765a4.979,4.979,0,0,0,1.179,1.341,5.508,5.508,0,0,0,2.351.927A2.973,2.973,0,0,0,366.178,153.964Z" transform="translate(-350.429 -149.248)"/><path class="e" d="M365.58,158.651a7.442,7.442,0,0,1-9.691,0,7.44,7.44,0,0,1,9.691,0Z" transform="translate(-351.191 -151.66)"/><path class="n" d="M367.463,151.119a5.214,5.214,0,0,1-3.075,2.578,3.567,3.567,0,0,1-.373.1,4.571,4.571,0,0,1-.771.12,3.841,3.841,0,0,1-.411.02,5.22,5.22,0,0,1-4.869-3.348,5.226,5.226,0,0,1-4.869,3.348,4.013,4.013,0,0,1-.416-.02,5.031,5.031,0,0,1-.761-.115c-.129-.029-.254-.062-.377-.1a5.215,5.215,0,0,1-3.076-2.578.407.407,0,0,1,.172-.545.4.4,0,0,1,.545.172,4.4,4.4,0,0,0,2.287,2.062,1.962,1.962,0,0,0,.234.086,4.777,4.777,0,0,0,1.392.23,4.415,4.415,0,0,0,4.158-2.96c.155-.443.073-1.563.7-1.568s.546,1.043.688,1.479a4.415,4.415,0,0,0,4.189,3.049,4.835,4.835,0,0,0,1.4-.23,2.326,2.326,0,0,0,.23-.086,4.4,4.4,0,0,0,2.286-2.062.4.4,0,0,1,.545-.172A.408.408,0,0,1,367.463,151.119Z" transform="translate(-348.421 -148.596)"/></g><path class="e" d="M336.383,136.5c0,1.317-1.791,2.384-4,2.384s-4-1.068-4-2.384,1.79-2.385,4-2.385S336.383,135.186,336.383,136.5Z" transform="translate(-14.919 -32.947)"/><path class="e" d="M394.309,136.5c0,1.317-1.791,2.384-4,2.384s-4-1.068-4-2.384,1.79-2.385,4-2.385S394.309,135.186,394.309,136.5Z" transform="translate(-36.403 -32.947)"/><path class="n" d="M342.357,121.671a3.662,3.662,0,1,0,3.662,3.663A3.662,3.662,0,0,0,342.357,121.671Zm1.5,3.464a1.162,1.162,0,1,1,1.163-1.162A1.162,1.162,0,0,1,343.857,125.135Z" transform="translate(-18.744 -28.331)"/><path class="n" d="M380.505,121.671a3.662,3.662,0,1,0,3.662,3.663A3.662,3.662,0,0,0,380.505,121.671Zm1.608,3.464a1.162,1.162,0,1,1,1.162-1.162A1.162,1.162,0,0,1,382.113,125.135Z" transform="translate(-32.893 -28.331)"/><circle class="f" cx="2.081" cy="2.081" r="2.081" transform="translate(328.687 104.489)"/><path class="n" d="M355.033,143.3a1.452,1.452,0,1,1,1.452-1.451A1.453,1.453,0,0,1,355.033,143.3Z" transform="translate(-24.265 -35.275)"/><circle class="f" cx="2.081" cy="2.081" r="2.081" transform="translate(339.401 104.489)"/><path class="n" d="M372.064,143.3a1.452,1.452,0,1,1,1.452-1.451A1.453,1.453,0,0,1,372.064,143.3Z" transform="translate(-30.581 -35.275)"/><path class="f" d="M366.846,89.607c.3-.215.631-.373.9-.615a2.374,2.374,0,0,0,.272-2.954,1.393,1.393,0,0,0-.527-.528,1.826,1.826,0,0,0-.762-.137c-1.036-.035-2.072-.014-3.108-.026-1.181-.014-3.079-.54-3.948.576a2.255,2.255,0,0,0-.277.525,3.6,3.6,0,0,0-.37,1.144,1.281,1.281,0,0,0,.184.887,7.234,7.234,0,0,0,.386.694c.474.723,1.341,1.015,1.737,1.739.453.829.238,1.317,1.175,1.722a2.6,2.6,0,0,0,1.26.271,2.131,2.131,0,0,0,1.4-.823C365.833,91.271,365.959,90.252,366.846,89.607Z" transform="translate(-26.282 -14.808)"/><path class="f" d="M346.109,90.191a10.551,10.551,0,0,0,1.581.379,2.906,2.906,0,0,0,1.675-.108,2.7,2.7,0,0,0,.949-.829,6.835,6.835,0,0,0,1.253-2.584.32.32,0,0,0-.021-.281.309.309,0,0,0-.173-.085,6.153,6.153,0,0,0-2.762.2,9.084,9.084,0,0,0-2.848.992c-.483.3-.949.813-.825,1.369C345.052,89.758,345.608,90.03,346.109,90.191Z" transform="translate(-21.051 -15.32)"/><path class="f" d="M354.794,97.746a1.254,1.254,0,0,0,.394-.042,1.543,1.543,0,0,0,.729-.663l.437-.621a1.726,1.726,0,0,0,.364-.759c.057-.5-.312-.926-.482-1.395a1.62,1.62,0,0,0-.171-.408.816.816,0,0,0-.636-.294,1.994,1.994,0,0,0-1.785,1.4,8.9,8.9,0,0,0-.352,2.389A3.374,3.374,0,0,0,354.794,97.746Z" transform="translate(-24.158 -17.906)"/><path class="f" d="M335.148,94.188a2.4,2.4,0,0,1-.546-.1,8.869,8.869,0,0,0-3.826-.075c-.32.034-1.931.132-1.785-.547a.527.527,0,0,1,.086-.175,8.421,8.421,0,0,1,3.9-3.154,4.262,4.262,0,0,1,1.955-.353c.928.091,1.25.588,1.8,1.208.409.461,1.2.773,1.2,1.489a1.152,1.152,0,0,1-.281.694A3.024,3.024,0,0,1,335.148,94.188Z" transform="translate(-15.141 -16.497)"/><path class="f" d="M342.689,103.666a2.253,2.253,0,0,1-1.32.121,3.449,3.449,0,0,1-2.515-1.641,2.334,2.334,0,0,1,.438-2.837c.858-.708,2.135-.564,3.142-1.035.291-.137.607-.33.912-.225a.946.946,0,0,1,.5.625,5.171,5.171,0,0,1-.1,3.735A2.33,2.33,0,0,1,342.689,103.666Z" transform="translate(-18.695 -19.559)"/><path class="f" d="M329.432,103.2c-.491.259-.962.509-1.447.78a2.636,2.636,0,0,1-.313.157,1.6,1.6,0,0,1-1.152-.068.557.557,0,0,1-.16-.061c-.35-.225.035-.98-.008-1.319-.115-.913-.913-1.816-.148-2.687.688-.782,2.012-.443,2.9-.336a1.985,1.985,0,0,1,1.172.427,1.682,1.682,0,0,1,.428.988,1.97,1.97,0,0,1-.106,1.11A2.439,2.439,0,0,1,329.432,103.2Z" transform="translate(-13.989 -20.109)"/><path class="f" d="M380.958,88.531a2.018,2.018,0,0,0-2.1,1.278,2.323,2.323,0,0,0,.6,2.435,4.8,4.8,0,0,0,1.97.963q2.177.662,4.391,1.193a3.187,3.187,0,0,0,.15-2.5,3.149,3.149,0,0,0-.965-.966,23.8,23.8,0,0,0-3.052-2.036A3.194,3.194,0,0,0,380.958,88.531Z" transform="translate(-33.592 -16.033)"/><path class="f" d="M397.114,102.406a4.3,4.3,0,0,0,2.949-.563,2.288,2.288,0,0,0,1.207-1.271,1.82,1.82,0,0,0-.291-1.439,5.386,5.386,0,0,0-1.038-1.093l-.837-.73a7.651,7.651,0,0,0-1.543-1.133,2.581,2.581,0,0,0-1.858-.247c-.242.072-.5.233-.521.485a.825.825,0,0,0,.109.394c.634,1.407.562,3.018.871,4.53a1.448,1.448,0,0,0,.359.795A1.245,1.245,0,0,0,397.114,102.406Z" transform="translate(-39.694 -18.754)"/><path class="f" d="M386.574,104.708c.454.232.984-.083,1.394-.386l1.029-.759a2.593,2.593,0,0,0,1.044-1.169,2.319,2.319,0,0,0,.062-.884c-.091-1.295-1.425-.966-2.322-1.415-.808-.406-1.993-1.091-2.52.109-.413.942.22,1.662.575,2.464C386.108,103.283,385.871,104.348,386.574,104.708Z" transform="translate(-35.965 -20.119)"/><path class="f" d="M375.01,96.217a.986.986,0,0,0-.823,1.118,8.6,8.6,0,0,0,2.754,1.4,2.5,2.5,0,0,0,1.129.222,1.637,1.637,0,0,0,.142-1.369,1.581,1.581,0,0,0-.633-.555A6.7,6.7,0,0,0,375.01,96.217Z" transform="translate(-31.905 -18.89)"/></g></g></g></svg>