<svg xmlns="http://www.w3.org/2000/svg" xmlns:xlink="http://www.w3.org/1999/xlink" width="198" height="173" viewBox="0 0 198 173"><defs><style>.a{fill:#fff;}.b,.m{fill:#005ab2;}.c{clip-path:url(#c);}.d{fill:#9fa85d;}.e{fill:#6e772d;}.f{fill:#fcbb3b;}.g{fill:#f9cc3d;}.h{fill:#b2bf6d;}.i{fill:#deea8b;}.j{fill:#f4edd7;}.k{fill:#818945;}.l{fill:#f9e9cd;}.m{font-size:26px;font-family:Nunito-Bold, Nunito;font-weight:700;letter-spacing:0.05em;}.n{filter:url(#a);}</style><filter id="a" x="36" y="0" width="146" height="146" filterUnits="userSpaceOnUse"><feOffset dx="5" dy="5" input="SourceAlpha"/><feGaussianBlur stdDeviation="5" result="b"/><feFlood flood-opacity="0.2"/><feComposite operator="in" in2="b"/><feComposite in="SourceGraphic"/></filter><clipPath id="c"><path class="a" d="M58.52,0A58.52,58.52,0,1,1,0,58.52,58.52,58.52,0,0,1,58.52,0Z"/></clipPath></defs><g transform="translate(1.422 2.126)"><g transform="translate(44.153)"><g class="n" transform="matrix(1, 0, 0, 1, -45.57, -2.13)"><circle class="b" cx="58" cy="58" r="58" transform="translate(46 10)"/></g><path class="a" d="M58.52,0A58.52,58.52,0,1,1,0,58.52,58.52,58.52,0,0,1,58.52,0Z" transform="translate(0)"/><g class="c" transform="translate(0)"><g transform="translate(4.849 19.067)"><path class="d" d="M52.167,368.723c3.013-.217,5.413-2.568,7.227-4.983,4.2-5.594,6.833-12.274,11.3-17.661,1.243-1.5,2.767-2.967,4.7-3.249a9.125,9.125,0,0,1,3.376.36c2.118.5,4.474,1.171,5.539,3.069a7.533,7.533,0,0,1,.538,4.372c-.576,6.51-2.148,13.072-5.709,18.553S69.8,378.95,63.3,379.626" transform="translate(-25.155 -289.728)"/><path class="e" d="M114.53,329.006a28.188,28.188,0,0,1,7.392.341,4.561,4.561,0,0,1,3.073,1.517c.88,1.259.4,3.006-.324,4.359a14.445,14.445,0,0,1-3.05,3.89,25.3,25.3,0,0,0-3.852,3.528" transform="translate(-18.625 -291.181)"/><path class="e" d="M117.341,344.877a22.535,22.535,0,0,1,9.166,1.392,5.032,5.032,0,0,1,1.678.919,3.878,3.878,0,0,1,.864,3.8c-.555,2.141-2.257,3.764-3.883,5.263l-4.243,3.911" transform="translate(-18.33 -289.512)"/><path class="e" d="M118.7,365.061a19.48,19.48,0,0,1,8.182.244,5.381,5.381,0,0,1,2.037.863,4.1,4.1,0,0,1,1.225,4.1,9.689,9.689,0,0,1-2.176,3.913,32.773,32.773,0,0,1-6.139,5.78" transform="translate(-18.187 -287.429)"/><path class="e" d="M122.057,385.269a33.4,33.4,0,0,1,9.179-2.806c1.562-.24,3.479-.213,4.324,1.121a4.2,4.2,0,0,1,.093,3.306A39.789,39.789,0,0,1,132.515,395" transform="translate(-17.836 -285.585)"/><path class="f" d="M115.485,326.5c4.365-3.545,10.835-3.791,15.947-1.445s8.939,6.931,11.364,12a67.039,67.039,0,0,1,6.265,21.167c1.125,9.751,1.887,20.674-4.155,29.1-2.609,3.641-6.846,5.851-11.2,6.889s-8.887,1.022-13.367,1" transform="translate(-18.524 -291.745)"/><path class="e" d="M107.576,313.021a25.747,25.747,0,0,1,8.109-1.336,3.109,3.109,0,0,1,3.586,4.287,28.838,28.838,0,0,1-4.562,11.492" transform="translate(-19.353 -292.984)"/><path class="e" d="M140.42,397.075a20.272,20.272,0,0,1,3.661-8.791,4.672,4.672,0,0,1,3.118-2.224c1.381-.106,2.589.876,3.557,1.866a29.035,29.035,0,0,1,4.676,6.294" transform="translate(-15.913 -285.197)"/><path class="g" d="M116.522,341.648a181.907,181.907,0,0,0,25.073-7.711c-.087-.154-.184-.3-.275-.452a181.174,181.174,0,0,1-24.834,7.64Z" transform="translate(-18.42 -290.702)"/><path class="g" d="M118.907,375.358A127.656,127.656,0,0,0,149.33,368.4c.015-.188.023-.377.036-.566a127.072,127.072,0,0,1-30.5,7Z" transform="translate(-18.17 -287.105)"/><g transform="translate(34.611 10.388)"><path class="f" d="M72.44,309.92a.543.543,0,0,1-.18-.031l-12.87-4.714a.524.524,0,1,1,.36-.984L72.62,308.9a.524.524,0,0,1-.18,1.015Z" transform="translate(-59.045 -304.16)"/></g><path class="h" d="M126.164,329.478a70.311,70.311,0,0,0-4.6-12.642,18.677,18.677,0,0,0-3.077-4.792c-.612-.63-4.047-2.726-4.087-3.4a16.016,16.016,0,0,0-1.083-5.833c-1.722-3.723-6.592-5.231-10.244-3.682-3.322,1.384-5,4.629-5.268,8.048-3.218.065-6.316.895-9.617.977a12.69,12.69,0,0,0-2.362-5.05,5.948,5.948,0,0,0-4.914-2.255,7.762,7.762,0,0,0-3.773,1.725c-1.8,1.336-2.471,3.06-3.029,5.168a17.22,17.22,0,0,0-.458,6.365c-4.8,1.386-9.918,2.056-14.835,3.087-1.243.261-16.222,3.584-16.179,3.735a11.258,11.258,0,0,0-1.022-2.68,3.758,3.758,0,0,0-4.271-1.814c-1.8.487-3.3,3.12-2.428,4.91-1.048-2.152-3.977-5.729-6.163-2.571-1.252,1.81-1.066,4.607-.958,6.692a47.141,47.141,0,0,0,1.231,9.17c1.044,4.105,2.026,6.086,6.575,6.728,14.153,2,28.219,1.579,42.354-.259-2.45,14.028-4.747,28.376-4.893,42.569a3.05,3.05,0,0,0,.179,1.308,3,3,0,0,0,2.078,1.332c9.227,2.61,18.915,2.719,28.42,2.155a62.264,62.264,0,0,0,13.025-1.732c4.106-1.132,6.992,1.437,10.562,3.577,3.082,1.848,6.783,3.377,10.2,2.256-3.76-5.323-5.086-11.892-5.147-18.311-.028-3.038.677-6.178.35-9.179-.3-2.752-.989-5.556-1.3-8.35A171.12,171.12,0,0,0,126.164,329.478Z" transform="translate(-27.715 -294.362)"/><path class="h" d="M183.064,361.966c6.232-3.817,7.722,17.586,7.856,20.632,1.023,23.506-7.995,49.561-31.428,58.792a81.4,81.4,0,0,1-23.876,5q-4.754.35-9.527.3c-7.718-.069-15.462-.953-23.1-1.355-9.061-.477-18.076-1.584-27.125-2.223-12.962-.915-25.882,1.325-38.679-.569-.959-.141-2.5-7.177-2.723-8.177a46.732,46.732,0,0,1-.931-11.461,80.421,80.421,0,0,1,3.737-21.949c7.013-.657,13.7,8.265,15.9,14.126.177.472,44.669-14.336,48.531-15.645.335-.114.4-11.806.42-12.973.072-3.7,1.349-6.539,2-10.177a188.473,188.473,0,0,0,28.263-5.976c-2.412.708,5.785,19.857,7.458,21.309,8.275,7.184,18.771,6.716,27.807,1.412,8.833-5.184,13.655-17.1,14-27.064C181.7,364.489,181.8,362.738,183.064,361.966Z" transform="translate(-27.109 -287.767)"/><path class="i" d="M110.6,383.414c1.412-.127,2.834-.332,4.253-.59a142.334,142.334,0,0,0-2.261-22.7c-.853-4.687-2-9.472-4.791-13.336-4.281-5.936-11.992-8.786-19.3-8.408A35.7,35.7,0,0,0,72.53,343.53c-1.985,11.912-3.644,24-3.768,35.975a3.05,3.05,0,0,0,.179,1.308,3,3,0,0,0,2.078,1.332C83.8,385.759,97.372,384.6,110.6,383.414Z" transform="translate(-23.417 -290.193)"/><g transform="translate(34.203)"><path class="f" d="M72.778,322.959a14.1,14.1,0,1,1,14.1-14.1A14.117,14.117,0,0,1,72.778,322.959Zm0-27.155a13.054,13.054,0,1,0,13.053,13.054A13.069,13.069,0,0,0,72.778,295.8Z" transform="translate(-58.676 -294.757)"/></g><g transform="translate(64.274)"><path class="f" d="M100,322.959a14.1,14.1,0,1,1,14.1-14.1A14.117,14.117,0,0,1,100,322.959Zm0-27.155a13.054,13.054,0,1,0,13.053,13.054A13.069,13.069,0,0,0,100,295.8Z" transform="translate(-85.897 -294.757)"/></g><g transform="translate(91.428 11.989)"><path class="f" d="M122.05,312.076l-.519-.065a2.93,2.93,0,0,0-2.187-3.2l-8.473-2.173a.524.524,0,0,1,.26-1.015L119.6,307.8a3.965,3.965,0,0,1,2.975,4.265Z" transform="translate(-110.477 -305.61)"/></g><g transform="translate(61.17 10.543)"><path class="f" d="M83.611,306.137a.523.523,0,0,1-.407-.853,2.87,2.87,0,0,1,1.848-.977,2.963,2.963,0,0,1,2.208.861.523.523,0,1,1-.7.781,1.934,1.934,0,0,0-1.428-.6,1.808,1.808,0,0,0-1.118.591A.523.523,0,0,1,83.611,306.137Z" transform="translate(-83.087 -304.3)"/></g><path class="j" d="M39.524,328.989a14.065,14.065,0,0,0,.76,2.069,2.5,2.5,0,0,0,1.516,1.57,1.792,1.792,0,0,0,1.554-.521,4.632,4.632,0,0,0,.928-1.418c.315-.658.593-1.333.85-2.016Q42.334,328.9,39.524,328.989Z" transform="translate(-26.479 -291.206)"/><path class="j" d="M47.088,328.49a6.743,6.743,0,0,0,1,2.216c.344.489.925.978,1.477.749a1.413,1.413,0,0,0,.6-.614,14.213,14.213,0,0,0,1.329-2.825Q49.29,328.274,47.088,328.49Z" transform="translate(-25.687 -291.274)"/><path class="j" d="M53.489,327.778a5.333,5.333,0,0,0,.911,2.362c.271.384.727.769,1.161.588a1.108,1.108,0,0,0,.47-.483,11.112,11.112,0,0,0,1.233-2.8C56,327.556,54.732,327.653,53.489,327.778Z" transform="translate(-25.016 -291.334)"/><path class="j" d="M58.733,327.328a5.3,5.3,0,0,0,.858,2.1c.27.384.727.769,1.161.588a1.108,1.108,0,0,0,.469-.483,11.168,11.168,0,0,0,1.223-2.755C61.227,327.023,59.986,327.2,58.733,327.328Z" transform="translate(-24.467 -291.404)"/><path class="k" d="M31.776,320.388c1.571-2.852-3.242-3.25-2.487-.412a1.453,1.453,0,0,0,1.818,1.073A1.492,1.492,0,0,0,31.776,320.388Z" transform="translate(-27.559 -292.319)"/><path class="k" d="M38.631,319.152c1.571-2.851-3.242-3.25-2.487-.411a1.453,1.453,0,0,0,1.818,1.072A1.482,1.482,0,0,0,38.631,319.152Z" transform="translate(-26.841 -292.449)"/><path class="f" d="M128.712,387.724c-8.007-1.134-14.18-7.2-16.792-15.013-4.434-13.259,1.151-25.539,9.325-35.8-.542-2.493-1.179-4.97-1.853-7.447a48.267,48.267,0,0,0-12.924,21.318,43.667,43.667,0,0,0,1.9,29.394c1.982,4.457,4.889,8.677,9.07,11.193a17.252,17.252,0,0,0,14.459,1.363A16.183,16.183,0,0,1,128.712,387.724Z" transform="translate(-19.645 -291.123)"/><path class="g" d="M139.381,344.59c-4.921.906-9.778,2-14.661,2.941-1.279,3.914.8,11.856,1.6,14.793s2.083,6.005,4.711,7.536c3.5,2.039,8.278.421,10.815-2.739s3.249-7.417,3.267-11.47a55.651,55.651,0,0,0-1.082-11.886C142.484,344.034,140.932,344.305,139.381,344.59Z" transform="translate(-17.6 -289.625)"/><path class="e" d="M36.224,402.9a19.422,19.422,0,0,0,3.167-2.975A3.657,3.657,0,0,0,40.2,398.6a2.057,2.057,0,0,0,.009-1.023,8.505,8.505,0,0,0-3.211-.358c-.309.937-.6,1.895-.867,2.865Z" transform="translate(-26.834 -284.031)"/><path class="e" d="M39.841,410.056q1.288-1.218,2.577-2.434a7.414,7.414,0,0,0,1.608-1.908,2.508,2.508,0,0,0,.051-2.4c-.588-.966-1.888-1.183-3.019-1.161a13.743,13.743,0,0,0-4.79.964Z" transform="translate(-26.82 -283.511)"/><g transform="translate(45.53 57.213)"><path class="h" d="M96.753,347.98c3.839-.167,7.669-.487,11.485-.938-.1-.167-.214-.33-.323-.495q-5.076.578-10.178.861a163.788,163.788,0,0,1-26.148-.72c-.027.171-.055.34-.082.51A170,170,0,0,0,96.753,347.98Z" transform="translate(-68.66 -346.547)"/><path class="h" d="M96.921,359.8c5.218-.227,10.419-.733,15.588-1.477-.015-.081-.024-.162-.04-.243s-.034-.176-.05-.263q-7.223,1.016-14.514,1.411a164.637,164.637,0,0,1-27.548-.864c-.129-.014-.261-.032-.39-.048-.02.168-.042.335-.062.5A170.017,170.017,0,0,0,96.921,359.8Z" transform="translate(-68.828 -345.367)"/><path class="h" d="M70.459,370.158c-.5-.056-1-.122-1.5-.181-.009.169-.02.338-.028.507a170.024,170.024,0,0,0,28.093,1.11,158.48,158.48,0,0,0,17.268-1.722c-.015-.173-.025-.347-.041-.519q-8.075,1.225-16.243,1.669A164.631,164.631,0,0,1,70.459,370.158Z" transform="translate(-68.93 -344.159)"/></g><g transform="translate(0.836 9.085)"><g transform="translate(48.782 0)"><g transform="translate(0 2.771)"><path class="e" d="M78.7,305.489c-.133-.005-.245.735-.558,1.871a11.5,11.5,0,0,1-.682,1.909c-.32.65-.859,1.267-1.523,1.2a2.754,2.754,0,0,1-1.741-1.236,5.685,5.685,0,0,1-.88-1.759c-.33-1.1-.261-1.852-.4-1.868-.1-.026-.419.735-.222,2.012a5.362,5.362,0,0,0,.82,2.095,3.364,3.364,0,0,0,2.365,1.661,2.048,2.048,0,0,0,1.553-.582,3.558,3.558,0,0,0,.789-1.17,8.618,8.618,0,0,0,.553-2.136C78.937,306.257,78.82,305.492,78.7,305.489Z" transform="translate(-72.63 -305.489)"/></g><g transform="translate(25.694)"><path class="e" d="M101.573,302.982c-.138,0-.21.767-.586,1.908a9.81,9.81,0,0,1-.863,1.9c-.394.64-.936,1.494-1.529,1.51-.652.033-1.19-.64-1.454-1.348a10.735,10.735,0,0,1-.6-2.005c-.231-1.182-.228-1.955-.363-1.966-.112-.014-.349.758-.273,2.049a8.43,8.43,0,0,0,.457,2.222,3.617,3.617,0,0,0,.71,1.263,2.038,2.038,0,0,0,1.576.692,2.094,2.094,0,0,0,1.469-.856,7.208,7.208,0,0,0,.739-1.154,7.911,7.911,0,0,0,.752-2.145C101.847,303.774,101.683,302.978,101.573,302.982Z" transform="translate(-95.889 -302.981)"/></g></g><path class="e" d="M91.066,321.062l-1.805.583c-.78.266-1.736.582-2.86.9s-2.388.741-3.817,1.1c-2.835.789-6.253,1.567-10.068,2.317-3.823.714-8.051,1.372-12.512,1.9-8.924,1.027-17.057,1.458-22.941,1.773-2.387.128-4.693.251-6.971.371l-1.621.108c.009.045.021.092.03.138l1.6-.011c1.648-.023,4.033-.078,6.981-.179,5.891-.206,14.041-.569,22.992-1.6,4.474-.531,8.715-1.209,12.547-1.956,3.826-.782,7.248-1.607,10.078-2.451,1.426-.383,2.688-.826,3.8-1.186s2.066-.7,2.835-1l1.771-.69a2.709,2.709,0,0,0,.6-.28A2.812,2.812,0,0,0,91.066,321.062Z" transform="translate(-28.472 -301.105)"/><g transform="translate(62.091 16.358)"><path class="e" d="M86.126,324.09c.07.023.274-.316.38-.937a5.447,5.447,0,0,0-.21-2.411,6.41,6.41,0,0,0-1.591-2.952c-.175.084.482,1.434,1.01,3.123A14.683,14.683,0,0,1,86.126,324.09Z" transform="translate(-84.677 -317.789)"/></g></g><path class="l" d="M45.608,355.034l6.037-5.193,16.4,20.74-8.822,3.946Z" transform="translate(-25.842 -288.989)"/><path class="l" d="M63.734,371.007l29.78-18.273,6.144,5.143L65.787,372.25Z" transform="translate(-23.944 -288.686)"/><path class="f" d="M46.608,352.923l18.007,15.719a.938.938,0,0,0,.482.221l5.972.861a.927.927,0,0,0,.507-.069l30-13.093a.936.936,0,0,1,1.31.858l-.022,49.172a.937.937,0,0,1-.809.927L70.21,411.894a.922.922,0,0,1-.316-.011l-6.962-1.432a.943.943,0,0,1-.409-.2l-18.47-15.321a.936.936,0,0,1-.338-.751L45.058,353.6A.935.935,0,0,1,46.608,352.923Z" transform="translate(-26.04 -288.69)"/><path class="g" d="M69.543,368.262l-6.508-.939-.353-.308L60.8,408.806l.118.1,7.348,1.511.322-.044L70.14,368Z" transform="translate(-24.251 -287.19)"/><path class="d" d="M41.67,381.169a9.447,9.447,0,0,0,7,6.16,4.166,4.166,0,0,0,2.162-.1,2.073,2.073,0,0,0,1.376-1.568,2.936,2.936,0,0,0-.358-1.572,14.513,14.513,0,0,0-2.838-4.118c.978.994,6.117-.827,6.2-2.3.107-1.828-5.088-3.216-6.467-3.531,1.294-.44,3.057-.614,4.238-1.258a2.056,2.056,0,0,0,1.153-1.689c0-1.132-1.174-1.859-2.217-2.3-2.13-.895-5.011-2.32-7.309-1.209-2.554,1.235-3.129,5.528-3.358,7.973A12.494,12.494,0,0,0,41.67,381.169Z" transform="translate(-26.309 -287.162)"/><path class="d" d="M123.077,372.063a21.759,21.759,0,0,0-.053-3.9c-.42-4.127-2.9-10.241-7.505-10.23-4.9.011-9.41,3.282-12.857,6.432a48.26,48.26,0,0,1-27.613,12.3,2.415,2.415,0,0,0,1.045,2.8,7.073,7.073,0,0,0,3.083.919,10.743,10.743,0,0,0-3.874,5.3,6.543,6.543,0,0,0,5.563,1.6c-1.579,1.632-3.2,4.259-1.639,5.908a4.4,4.4,0,0,0,3.353.92C96.686,393.913,121.676,389.915,123.077,372.063Z" transform="translate(-22.774 -288.141)"/><path class="d" d="M43.112,434.76a52.381,52.381,0,0,0,.426-13.771c-.645-8.228-2.289-16.553-6.275-23.756a80.422,80.422,0,0,0-3.732,21.93,46.732,46.732,0,0,0,.931,11.461c.219,1,1.764,8.036,2.723,8.177,1.562.231,3.127.4,4.693.52A30.445,30.445,0,0,0,43.112,434.76Z" transform="translate(-27.109 -284.026)"/></g></g></g><text class="m" transform="translate(97.578 161.874)"><tspan x="-98.059" y="0">PICTURE TALK</tspan></text></g></svg>