<svg xmlns="http://www.w3.org/2000/svg" xmlns:xlink="http://www.w3.org/1999/xlink" width="147" height="147" viewBox="0 0 147 147"><defs><style>.a{fill:#fff;}.b{fill:#005ab2;}.c{clip-path:url(#c);}.d{fill:#91c252;}.e{fill:#9cd257;}.f{fill:#add679;}.g{fill:#068951;}.h{fill:none;stroke:#241f20;stroke-linecap:round;stroke-miterlimit:10;stroke-width:0.5px;}.i{fill:#00804c;}.j{fill:#a6c400;}.k{fill:#016d3e;}.l{fill:#160307;}.m{filter:url(#a);}</style><filter id="a" x="0" y="0" width="147" height="147" filterUnits="userSpaceOnUse"><feOffset dx="5" dy="5" input="SourceAlpha"/><feGaussianBlur stdDeviation="5" result="b"/><feFlood flood-opacity="0.2"/><feComposite operator="in" in2="b"/><feComposite in="SourceGraphic"/></filter><clipPath id="c"><path class="a" d="M58.52,0A58.52,58.52,0,1,1,0,58.52,58.52,58.52,0,0,1,58.52,0Z"/></clipPath></defs><g transform="translate(9.788 2.379)"><g class="m" transform="matrix(1, 0, 0, 1, -9.79, -2.38)"><circle class="b" cx="58.5" cy="58.5" r="58.5" transform="translate(10 10)"/></g><path class="a" d="M58.52,0A58.52,58.52,0,1,1,0,58.52,58.52,58.52,0,0,1,58.52,0Z" transform="translate(0.209)"/><g class="c" transform="translate(0.209)"><g transform="translate(3.506 19.771)"><g transform="translate(0 68.254)"><path class="d" d="M208.747,377.191c0,10.976,24.639,19.874,55.033,19.874s55.034-8.9,55.034-19.874V372.55L208.6,372.8Z" transform="translate(-208.596 -353.146)"/><ellipse class="e" cx="55.034" cy="19.875" rx="55.034" ry="19.875" transform="translate(0.15)"/><ellipse class="f" cx="39.926" cy="14.419" rx="39.926" ry="14.419" transform="translate(15.971 0.101)"/></g><g transform="translate(19.073)"><path class="g" d="M248.232,351.671s-12.643-22.775-16.624-15.036c-5.709,11.1,6.714,25.429,6.714,25.429s-13.885.878-11.328,5.266c1.714,2.938,10.048-1.268,10.048-1.268s-9,5.2-6.029,7.312c2.507,1.788,8.4-4.29,8.4-4.29s-6.568,7.556-2.74,7.556c2.134,0,8.038-5.65,9.152-10.544C247.369,359.338,248.232,351.671,248.232,351.671Z" transform="translate(-226.68 -286.944)"/><path class="h" d="M233.5,341.074a97.3,97.3,0,0,0,13.087,18.077" transform="translate(-226.307 -286.614)"/><g transform="translate(50.518 48.087)"><path class="g" d="M274.577,351.671S287.22,328.9,291.2,336.635c5.708,11.1-6.714,25.429-6.714,25.429s13.884.878,11.327,5.266c-1.713,2.938-10.048-1.268-10.048-1.268s9,5.2,6.029,7.312c-2.506,1.788-8.4-4.29-8.4-4.29s6.567,7.556,2.74,7.556c-2.135,0-8.039-5.65-9.153-10.544C275.441,359.338,274.577,351.671,274.577,351.671Z" transform="translate(-274.577 -335.031)"/><path class="h" d="M288.875,341.074a97.327,97.327,0,0,1-13.086,18.077" transform="translate(-274.511 -334.701)"/></g><path class="i" d="M251.886,321.761S235.8,349.345,241.108,361.5c6.394,14.647,37.041,15,41.974-.564s-10.564-38.383-10.564-38.383Z" transform="translate(-225.949 -287.67)"/><path class="j" d="M243.178,354.039c-.122,12.047,6.772,15.655,15.221,16.648,9.661,1.134,22.113-2.085,22.113-12.483,0-15.326-6.517-20.151-13.461-21.061C249.175,334.8,243.31,341.093,243.178,354.039Z" transform="translate(-225.777 -286.855)"/><path class="k" d="M248.824,326.41s.344,9.519,12.737,9.519c11.829,0,12.685-9.941,12.685-9.941S252.807,322.158,248.824,326.41Z" transform="translate(-225.468 -287.526)"/><path class="i" d="M245.508,303.052s-1.8,28.1,10.627,31.411,23.536-3.251,23.536-29.968c0,0,9.93-2.049,5.709-9.825-3.334-6.141-7.034-5.329-9.712-1.612a13.561,13.561,0,0,0-2.026,5.9s-11.343-5.507-21.923-.781c0,0,.96-10.356-7.856-8.52C237.755,290.929,238.566,303.052,245.508,303.052Z" transform="translate(-225.965 -289.439)"/><path class="a" d="M250.174,296.45a4.093,4.093,0,1,1-4.084-4.359A4.229,4.229,0,0,1,250.174,296.45Z" transform="translate(-225.841 -289.294)"/><path class="l" d="M249.851,296.367a2.58,2.58,0,1,1-2.575-2.749A2.665,2.665,0,0,1,249.851,296.367Z" transform="translate(-225.694 -289.21)"/><path class="a" d="M282.579,297.231a4.093,4.093,0,1,1-4.084-4.36A4.229,4.229,0,0,1,282.579,297.231Z" transform="translate(-224.068 -289.251)"/><path class="l" d="M279.816,297.148a2.58,2.58,0,1,1-2.575-2.749A2.665,2.665,0,0,1,279.816,297.148Z" transform="translate(-224.054 -289.168)"/><path class="i" d="M270.587,337.089l.686,34.043s-7.312,4.778-5.3,6.923,5.344-1.345,5.344-1.345-2.969,6.9.664,6.9c2.991,0,2.989-7.487,2.989-7.487s3.243,5.927,5.07,3.1c2.607-4.035-5.475-8.17-5.475-8.17s3.241-32.114,1.506-33.966S272.048,333.579,270.587,337.089Z" transform="translate(-224.549 -286.944)"/><path class="i" d="M251.712,337.24l-.686,34.043s7.312,4.778,5.3,6.923-5.343-1.345-5.343-1.345,2.968,6.9-.666,6.9c-2.99,0-2.988-7.488-2.988-7.488s-3.243,5.927-5.071,3.1c-2.607-4.035,5.475-8.17,5.475-8.17s-3.241-32.113-1.505-33.966S250.25,333.73,251.712,337.24Z" transform="translate(-225.856 -286.936)"/><path class="h" d="M250.074,318.876S249.6,329.6,260.889,329.6s11.656-10.725,11.656-10.725" transform="translate(-225.4 -287.828)"/><path class="l" d="M259.288,322.68a.911.911,0,1,1-.886-1.123A1.026,1.026,0,0,1,259.288,322.68Z" transform="translate(-224.993 -287.682)"/><path class="l" d="M264.511,322.787a.911.911,0,1,1-.886-1.123A1.026,1.026,0,0,1,264.511,322.787Z" transform="translate(-224.707 -287.676)"/><g transform="translate(21.216 20.043)"><path class="g" d="M248.422,315.591a.665.665,0,1,1-.663-.709A.686.686,0,0,1,248.422,315.591Z" transform="translate(-246.779 -308.09)"/><path class="g" d="M249.68,313.375a.665.665,0,1,1-.663-.709A.687.687,0,0,1,249.68,313.375Z" transform="translate(-246.71 -308.211)"/><path class="g" d="M248.122,311.836a.665.665,0,1,1-.663-.709A.687.687,0,0,1,248.122,311.836Z" transform="translate(-246.795 -308.295)"/><path class="g" d="M249.522,309.15a.665.665,0,1,1-.663-.708A.686.686,0,0,1,249.522,309.15Z" transform="translate(-246.718 -308.442)"/><path class="g" d="M250.973,315.847a.665.665,0,1,1-.663-.708A.687.687,0,0,1,250.973,315.847Z" transform="translate(-246.639 -308.076)"/><path class="g" d="M251.4,310.493a.665.665,0,1,1-.663-.709A.687.687,0,0,1,251.4,310.493Z" transform="translate(-246.616 -308.369)"/><path class="g" d="M252.027,313.178a.665.665,0,1,1-.663-.708A.688.688,0,0,1,252.027,313.178Z" transform="translate(-246.581 -308.222)"/></g><g transform="translate(45.816 20.258)"><path class="g" d="M271.746,315.795a.665.665,0,1,1-.663-.708A.688.688,0,0,1,271.746,315.795Z" transform="translate(-270.103 -308.294)"/><path class="g" d="M273,313.579a.665.665,0,1,1-.663-.708A.687.687,0,0,1,273,313.579Z" transform="translate(-270.034 -308.415)"/><path class="g" d="M271.445,312.04a.664.664,0,1,1-.662-.708A.687.687,0,0,1,271.445,312.04Z" transform="translate(-270.119 -308.499)"/><path class="g" d="M272.846,309.355a.665.665,0,1,1-.663-.709A.687.687,0,0,1,272.846,309.355Z" transform="translate(-270.042 -308.646)"/><path class="g" d="M274.3,316.052a.665.665,0,1,1-.663-.709A.686.686,0,0,1,274.3,316.052Z" transform="translate(-269.963 -308.28)"/><path class="g" d="M274.722,310.7a.665.665,0,1,1-.663-.708A.688.688,0,0,1,274.722,310.7Z" transform="translate(-269.94 -308.572)"/><path class="g" d="M275.351,313.383a.665.665,0,1,1-.663-.708A.687.687,0,0,1,275.351,313.383Z" transform="translate(-269.905 -308.426)"/></g></g></g></g></g></svg>