<svg xmlns="http://www.w3.org/2000/svg" xmlns:xlink="http://www.w3.org/1999/xlink" width="147" height="146" viewBox="0 0 147 146"><defs><style>.a{fill:#fff;}.b{fill:#005ab2;}.c{clip-path:url(#c);}.d{fill:#9cd257;}.e{fill:#e98224;}.f{fill:#5da9aa;}.g{fill:#42210b;}.h{fill:#005b94;}.i{fill:#001694;}.j{fill:#f59438;}.k{fill:#fff2d6;}.l{fill:#481e19;}.m{filter:url(#a);}</style><filter id="a" x="0" y="0" width="147" height="146" filterUnits="userSpaceOnUse"><feOffset dx="5" dy="5" input="SourceAlpha"/><feGaussianBlur stdDeviation="5" result="b"/><feFlood flood-opacity="0.2"/><feComposite operator="in" in2="b"/><feComposite in="SourceGraphic"/></filter><clipPath id="c"><path class="a" d="M58.52,0A58.52,58.52,0,1,1,0,58.52,58.52,58.52,0,0,1,58.52,0Z"/></clipPath></defs><g transform="translate(10.425 2)"><g class="m" transform="matrix(1, 0, 0, 1, -10.42, -2)"><ellipse class="b" cx="58.5" cy="58" rx="58.5" ry="58" transform="translate(10 10)"/></g><path class="a" d="M58.52,0A58.52,58.52,0,1,1,0,58.52,58.52,58.52,0,0,1,58.52,0Z" transform="translate(0.175)"/><g class="c" transform="translate(0.175)"><g transform="translate(-17.944 14.045)"><ellipse class="d" cx="58.06" cy="8.365" rx="58.06" ry="8.365" transform="translate(18.853 220.14)"/><path class="e" d="M399.2,296.249a12.6,12.6,0,0,0,10.093,5.056,12.451,12.451,0,0,0,6.275-1.686c3.335-1.918,7.262-4.23,11.457-6.777,5.577-3.406,11.565-7.225,17.158-11.116A24.235,24.235,0,0,0,454.47,259.44c-.018-.161-.018-.34-.036-.52a13.94,13.94,0,0,0-13.106-12.605,13.615,13.615,0,0,0-8.391,2.242,137.2,137.2,0,0,0-19.615,15.4A85.289,85.289,0,0,0,398.477,282.3,12.654,12.654,0,0,0,399.2,296.249Z" transform="translate(-396.722 -167.625)"/><path class="f" d="M418.822,292.842l-13.7-28.884a137.194,137.194,0,0,1,19.614-15.4,13.616,13.616,0,0,1,8.391-2.242,136.751,136.751,0,0,1,4.984,33.744Z" transform="translate(-388.524 -167.625)"/><g transform="translate(22.316 101.023)"><path class="g" d="M425.21,269.24l7.449,15.55c.248.519-.524.973-.774.453l-7.448-15.55C424.189,269.174,424.961,268.72,425.21,269.24Z" transform="translate(-424.388 -269.01)"/><path class="g" d="M423.562,271.4a90.46,90.46,0,0,0,5.176,11.077c.279.506-.5.959-.773.453a92.009,92.009,0,0,1-5.267-11.291C422.49,271.095,423.357,270.862,423.562,271.4Z" transform="translate(-418.786 -269.043)"/></g><path class="e" d="M374.421,339.431l-13.275,50.913c-.816,3.127-3.294,5.266-6.1,5.266H342.253c-3.524,0-6.379-3.321-6.379-7.418v-38Z" transform="translate(-256.681 -169.109)"/><path class="e" d="M383.244,339.431l13.893,50.913a6.8,6.8,0,0,0,6.388,5.266h13.383c3.687,0,6.676-3.321,6.676-7.418v-38Z" transform="translate(-352.462 -169.109)"/><path class="h" d="M305.555,273.922c0,29.134,18.5,52.747,41.309,52.747s41.309-23.613,41.309-52.747a65.687,65.687,0,0,0-1.7-14.972c-5.038-21.837-20.87-37.777-39.606-37.777a34.214,34.214,0,0,0-19.2,6.042C314.52,236.036,305.555,253.643,305.555,273.922Z" transform="translate(-240.599 -167.225)"/><path class="i" d="M307.286,227.215c5.038,21.838,20.852,37.777,39.606,37.777a34.211,34.211,0,0,0,19.2-6.042c-5.038-21.837-20.87-37.777-39.606-37.777A34.214,34.214,0,0,0,307.286,227.215Z" transform="translate(-220.223 -167.225)"/><path class="j" d="M327.743,320.035c.018.968.072,1.954.144,2.958.107,1.577.269,3.191.52,4.823,1.2,8.014,4.16,16.191,10.22,21,5.039,3.981,11.654,5.272,18.055,5.917a121.749,121.749,0,0,0,43.586-3.551c5.254-1.416,10.543-3.245,14.774-6.723,4.787-3.944,7.71-9.539,9.413-15.6a48.859,48.859,0,0,0,1.112-4.805c.323-1.847.574-3.711.735-5.558.144-1.507.233-3.03.287-4.554.609-16.458-3.1-32.757-5.576-49.036-1.058-6.868-1.757-13.788-2.456-20.709-.125-1.255-.251-2.51-.395-3.747-.107-.986-.2-1.99-.286-2.977-.861-8.211-1.829-16.387-3.46-24.455a97.836,97.836,0,0,0-7.137-22.5,54.342,54.342,0,0,0-2.635-4.948,50.648,50.648,0,0,0-3.281-4.895,38.239,38.239,0,0,0-4.877-5.343,33.541,33.541,0,0,0-4.411-3.425c-6.526-4.3-14.326-6.2-22.232-3.514a28.526,28.526,0,0,0-7.065,3.586,33,33,0,0,0-4.3,3.6,39.262,39.262,0,0,0-7.351,10.22,38.483,38.483,0,0,0-2.188,5.181q-.456,1.263-.806,2.528c-1.954,7.082-2.224,14.863-3.12,22.16-.86,7.137-2.492,14.649-2.743,21.856-.018.27-.036.521-.036.789-.232,1.937-.5,3.837-.788,5.755-.179,1.363-.395,2.707-.61,4.052C339.254,258,337.192,267.7,335,277.6c-1.757,7.942-3.461,15.9-4.805,23.918-.412,2.528-.914,4.949-1.344,7.333A55.676,55.676,0,0,0,327.743,320.035Z" transform="translate(-300.905 -166.364)"/><path class="f" d="M327.733,309.986c36.234,16.907,82.08,8.7,97.733,5.091.609-16.459-3.1-32.757-5.577-49.036-1.058-6.868-1.757-13.788-2.456-20.709-.125-1.255-.251-2.51-.395-3.747-.107-.986-.2-1.99-.286-2.977-45.379,14.487-67.343,5.577-75.608.054-.018.27-.036.521-.036.789-.232,1.937-.5,3.837-.788,5.755-.179,1.363-.395,2.707-.61,4.052-1.578,9.879-3.639,19.579-5.827,29.476-1.758,7.942-3.461,15.9-4.805,23.918C328.666,305.181,328.164,307.6,327.733,309.986Z" transform="translate(-299.783 -167.502)"/><g transform="translate(36.825 81.548)"><g transform="translate(18.49)"><path class="g" d="M358.183,250.2c13.012,2.178,26.923.917,39.9-.972.565-.082.808.781.238.865-13.19,1.92-27.155,3.185-40.374.972C357.377,250.967,357.618,250.1,358.183,250.2Z" transform="translate(-357.621 -249.219)"/><path class="g" d="M360.929,253.659c10.773,2.545,23.388,1.519,34.3.111.57-.074.565.824,0,.9-10.988,1.417-23.653,2.429-34.538-.143C360.13,254.39,360.367,253.526,360.929,253.659Z" transform="translate(-357.337 -249.29)"/></g><g transform="translate(0 59.23)"><path class="g" d="M336.179,315.686c22.448,3.278,45.909,3.807,68.264-.549.564-.109.8.755.238.865-22.536,4.39-46.11,3.854-68.74.549C335.372,316.467,335.614,315.6,336.179,315.686Z" transform="translate(-323.837 -309.5)"/><path class="g" d="M363.162,309.435c17.365,5.858,35.461,6.378,53.618,6.286a.448.448,0,0,1,0,.9c-18.264.092-36.394-.427-53.856-6.319C362.381,310.116,362.614,309.249,363.162,309.435Z" transform="translate(-362.615 -309.409)"/></g></g><ellipse class="k" cx="17.033" cy="11.654" rx="17.033" ry="11.654" transform="translate(53.792 34.059)"/><g transform="translate(91.169)"><path class="e" d="M339.517,171.89a33.551,33.551,0,0,1,4.411,3.424,38.25,38.25,0,0,1,4.877,5.343,50.7,50.7,0,0,1,3.281,4.895,54.347,54.347,0,0,1,2.635,4.948,12.551,12.551,0,1,0-15.2-18.611Z" transform="translate(-339.517 -166.351)"/><path class="k" d="M345.146,175.4a38.257,38.257,0,0,1,4.877,5.343,50.629,50.629,0,0,1,3.281,4.895,7,7,0,1,0-8.158-10.238Z" transform="translate(-340.735 -166.441)"/></g><g transform="translate(38.851)"><path class="e" d="M392.645,178.9a12.521,12.521,0,0,0,9.18,12.067,38.427,38.427,0,0,1,2.187-5.181,39.267,39.267,0,0,1,7.351-10.221,33.011,33.011,0,0,1,4.3-3.6,12.559,12.559,0,0,0-23.021,6.939Z" transform="translate(-392.645 -166.351)"/><path class="k" d="M397.018,178.991a6.979,6.979,0,0,0,5.827,6.885,39.259,39.259,0,0,1,7.351-10.221,7.011,7.011,0,0,0-13.178,3.335Z" transform="translate(-391.478 -166.441)"/></g><g transform="translate(49.945 24.736)"><path class="e" d="M354.192,204.635c-.081,2.111,2.62,3.926,6.032,4.055s6.243-1.476,6.324-3.587-2.622-3.925-6.034-4.054S354.272,202.525,354.192,204.635Z" transform="translate(-316.781 -191.64)"/><path class="e" d="M395.126,200.734c-.061,1.62,2.012,3.013,4.631,3.113s4.791-1.134,4.854-2.753-2.013-3.013-4.631-3.112S395.188,199.115,395.126,200.734Z" transform="translate(-395.125 -191.591)"/><path class="l" d="M382.222,207.2c-.058,1.554,1.93,2.89,4.441,2.986s4.6-1.087,4.655-2.64-1.93-2.89-4.441-2.985S382.281,205.644,382.222,207.2Z" transform="translate(-369.133 -191.695)"/><path class="l" d="M392.772,200.5c1.535-.246,2.456-2.457,2.059-4.939s-1.965-4.293-3.5-4.048-2.455,2.457-2.058,4.939S391.238,200.742,392.772,200.5Z" transform="translate(-379.586 -191.487)"/><path class="l" d="M370.878,201.182c1.535-.246,2.456-2.457,2.059-4.939s-1.965-4.293-3.5-4.046-2.456,2.457-2.058,4.938S369.344,201.429,370.878,201.182Z" transform="translate(-336.147 -191.498)"/><g transform="translate(18.873 19.595)"><path class="l" d="M385.377,212.586l-.009.027c-2.781,7.384-9.19,5.935-9.255,5.92a.9.9,0,0,1,.416-1.745c.219.05,4.954,1.053,7.159-4.806a.9.9,0,0,1,1.689.6Z" transform="translate(-375.426 -211.4)"/></g></g><g transform="translate(26.982 73.976)"><path class="h" d="M328.847,280.4a57.751,57.751,0,0,0,1.112,10.667c2.421,12.426,10.256,40.019,31.967,38.979a48.644,48.644,0,0,0,1.112-4.805c-7.512.914-20.3-2.17-28.525-29.207a61.321,61.321,0,0,1-2.116-27.844c1.918-11.493,7.584-24.4,23.63-22.806-.125-1.255-.251-2.51-.395-3.747C347.01,240.862,328.434,243.3,328.847,280.4Z" transform="translate(-265.36 -241.525)"/><path class="h" d="M395.241,324.191a45.689,45.689,0,0,0,.658,4.823c19.82-5.092,27.607-27.2,30.287-37.939a47.361,47.361,0,0,0,1.384-10.667c.3-20.655-9.867-33.558-18.154-38.13-.227,1.362-.5,2.707-.773,4.052,6.789,4.482,12.955,14.929,14.431,21.868a49.05,49.05,0,0,1-2.657,27.844C413.4,314.294,403.709,321.627,395.241,324.191Z" transform="translate(-395.241 -241.537)"/></g><path class="e" d="M307.45,287.844c5,6.706,10.077,13.034,14,17.822a12.62,12.62,0,0,0,9.735,4.59,12.459,12.459,0,0,0,6.76-1.99,12.662,12.662,0,0,0,5.612-12.8c-1.9-11.063-6.616-21.73-11.977-30.964C323.713,266.346,312.112,271.8,307.45,287.844Z" transform="translate(-198.03 -167.915)"/><path class="f" d="M322.026,273.093c3.03,4.734,6.526,9.682,10.058,14.452,4.662-16.047,16.262-21.5,24.133-23.344a147.366,147.366,0,0,0-8.372-12.766,13.949,13.949,0,0,0-23.775,2.133l-2.851,5.828A13.99,13.99,0,0,0,322.026,273.093Z" transform="translate(-222.664 -167.616)"/><path class="g" d="M328.473,266.907a159.869,159.869,0,0,0,28.649,40.316c.4.414-.254,1.023-.657.61a160.494,160.494,0,0,1-28.782-40.5C327.424,266.815,328.215,266.391,328.473,266.907Z" transform="translate(-231.399 -167.95)"/><path class="g" d="M423.724,259.722a.449.449,0,0,1,.865.238q-4.734,16.987-8.742,34.156c-.131.562-1,.324-.864-.238Q418.992,276.706,423.724,259.722Z" transform="translate(-384.704 -167.834)"/><path class="g" d="M375.885,340.262A42.621,42.621,0,0,0,412.122,357c.577-.028.575.869,0,.9a43.458,43.458,0,0,1-36.871-17C374.9,340.445,375.532,339.807,375.885,340.262Z" transform="translate(-333.465 -169.12)"/><g transform="translate(105.153 94.363)"><path class="g" d="M322.17,280.337c4.552-8.907,12.937-16.869,23.175-18.091.571-.069.566.829,0,.9-9.915,1.184-18.01,9.058-22.4,17.647C322.682,281.3,321.908,280.851,322.17,280.337Z" transform="translate(-319.647 -262.242)"/><path class="g" d="M347.814,263.321c.469-.337.918.441.452.774a31,31,0,0,0-11.342,15.141c-.189.541-1.055.308-.864-.238A31.981,31.981,0,0,1,347.814,263.321Z" transform="translate(-336.032 -262.258)"/></g></g></g></g></svg>