<svg xmlns="http://www.w3.org/2000/svg" width="224.498" height="45.247" viewBox="0 0 224.498 45.247"><defs><style>.a{fill:#373435;}.b{fill:#fefefe;}.c,.d{fill:#fff;}.d{fill-rule:evenodd;}</style></defs><path class="a" d="M32.082,41.951l2.694-5.972C45,40.506,49.372,39.647,57.529,32.7l4.254,5c-5.269,4.449-9.289,7.3-16.627,7.533q-.478.018-.936.018C39.5,45.247,36.409,43.857,32.082,41.951ZM4.176,36.642a14.185,14.185,0,1,1,20.061-20.06,12.939,12.939,0,0,1,.976,1.092,17.8,17.8,0,0,1,2.458-8.586,18.186,18.186,0,1,1,31.5,18.188,18.148,18.148,0,0,1-24.862,6.674,17.979,17.979,0,0,1-6.011-5.62,14.17,14.17,0,0,1-14.089,12.45A13.994,13.994,0,0,1,4.176,36.642ZM.39,9.243C6.167,5.926,8.157,5.185,15.027,4.365l.819,6.479c-5.738.7-7.025,1.093-12.216,4.059Z" transform="translate(33.097 0)"/><path class="b" d="M-2647.489-471.618a16.288,16.288,0,0,0-12.294-1.639,16.185,16.185,0,0,0-9.836,7.572h0a16.291,16.291,0,0,0-1.639,12.294,16.185,16.185,0,0,0,7.572,9.835h0a16.1,16.1,0,0,0,12.294,1.6,15.989,15.989,0,0,0,9.836-7.533h0a16.106,16.106,0,0,0,1.6-12.294,15.99,15.99,0,0,0-7.532-9.836Z" transform="translate(2732.105 475.787)"/><path class="b" d="M-3297.158-152.409a12.156,12.156,0,0,0-8.626-3.591,12.018,12.018,0,0,0-8.625,3.591,12.084,12.084,0,0,0-3.591,8.626,12.152,12.152,0,0,0,3.591,8.626,12.146,12.146,0,0,0,8.625,3.552,12.286,12.286,0,0,0,8.626-3.552,12.287,12.287,0,0,0,3.551-8.626A12.218,12.218,0,0,0-3297.158-152.409Z" transform="translate(3353.088 170.395)"/><path class="a" d="M0,12.611a5.425,5.425,0,1,1,5.425,5.425A5.425,5.425,0,0,1,0,12.611ZM22.591,8.034a6.373,6.373,0,1,1,6.159,4.731A6.381,6.381,0,0,1,22.591,8.034Z" transform="translate(44.533 13.259)"/><g transform="translate(0 4.638)"><path class="c" d="M-4206.229-398.116H-4217V-406h31.5v7.884h-10.773v27.282h-9.953Z" transform="translate(4217.001 406)"/><path class="c" d="M-1654.552-406v35.166h-8.2l-15.534-18.734v18.734H-1688V-406h8.2l15.495,18.734V-406Z" transform="translate(1786.706 406)"/><path class="c" d="M263.054-382.895v12.06H252.789v-12.06l-8.743-15.417h-9.094v7.728h6.83l4.332,7.689H234.953v12.06H225V-406h24.9l8.352,14.675L266.566-406h9.562Z" transform="translate(-51.631 406)"/><path class="d" d="M-736.4-406a17.565,17.565,0,0,1,17.563,17.563,17.573,17.573,0,0,1-17.563,17.6,17.606,17.606,0,0,1-17.6-17.6A17.6,17.6,0,0,1-736.4-406Zm0,9.016a8.545,8.545,0,0,1,8.548,8.547,8.578,8.578,0,0,1-8.548,8.587,8.578,8.578,0,0,1-8.547-8.587A8.545,8.545,0,0,1-736.4-396.984Z" transform="translate(889.159 406)"/></g></svg>